%TF.GenerationSoftware,KiCad,Pcbnew,7.0.5*%
%TF.CreationDate,2023-10-10T13:20:49+09:00*%
%TF.ProjectId,tangnano9k_brushless_driver,74616e67-6e61-46e6-9f39-6b5f62727573,rev?*%
%TF.SameCoordinates,Original*%
%TF.FileFunction,Soldermask,Bot*%
%TF.FilePolarity,Negative*%
%FSLAX46Y46*%
G04 Gerber Fmt 4.6, Leading zero omitted, Abs format (unit mm)*
G04 Created by KiCad (PCBNEW 7.0.5) date 2023-10-10 13:20:49*
%MOMM*%
%LPD*%
G01*
G04 APERTURE LIST*
G04 Aperture macros list*
%AMRoundRect*
0 Rectangle with rounded corners*
0 $1 Rounding radius*
0 $2 $3 $4 $5 $6 $7 $8 $9 X,Y pos of 4 corners*
0 Add a 4 corners polygon primitive as box body*
4,1,4,$2,$3,$4,$5,$6,$7,$8,$9,$2,$3,0*
0 Add four circle primitives for the rounded corners*
1,1,$1+$1,$2,$3*
1,1,$1+$1,$4,$5*
1,1,$1+$1,$6,$7*
1,1,$1+$1,$8,$9*
0 Add four rect primitives between the rounded corners*
20,1,$1+$1,$2,$3,$4,$5,0*
20,1,$1+$1,$4,$5,$6,$7,0*
20,1,$1+$1,$6,$7,$8,$9,0*
20,1,$1+$1,$8,$9,$2,$3,0*%
G04 Aperture macros list end*
%ADD10R,1.700000X1.700000*%
%ADD11O,1.700000X1.700000*%
%ADD12O,2.000000X1.200000*%
%ADD13R,1.305000X1.305000*%
%ADD14C,1.305000*%
%ADD15C,1.950000*%
%ADD16O,1.800000X1.200000*%
%ADD17O,1.900000X1.200000*%
%ADD18R,1.600000X1.600000*%
%ADD19O,1.600000X1.600000*%
%ADD20RoundRect,0.237500X-0.237500X0.250000X-0.237500X-0.250000X0.237500X-0.250000X0.237500X0.250000X0*%
G04 APERTURE END LIST*
D10*
%TO.C,U3*%
X161163000Y-60071000D03*
D11*
X163703000Y-60071000D03*
X166243000Y-60071000D03*
X168783000Y-60071000D03*
X171323000Y-60071000D03*
X173863000Y-60071000D03*
X176403000Y-60071000D03*
X178943000Y-60071000D03*
X181483000Y-60071000D03*
X184023000Y-60071000D03*
X186563000Y-60071000D03*
X189103000Y-60071000D03*
%TD*%
D12*
%TO.C,U1*%
X182880000Y-147828000D03*
X182880000Y-145288000D03*
X182880000Y-142748000D03*
X182880000Y-140208000D03*
X182880000Y-137668000D03*
X182880000Y-135128000D03*
X182880000Y-132588000D03*
X182880000Y-130048000D03*
X182880000Y-127508000D03*
X182880000Y-124968000D03*
X182880000Y-122428000D03*
X182880000Y-119888000D03*
X182880000Y-117348000D03*
X182880000Y-114808000D03*
X182880000Y-112268000D03*
X182880000Y-109728000D03*
X182880000Y-107188000D03*
X182880000Y-104648000D03*
X182880000Y-102108000D03*
X182880000Y-99568000D03*
X182880000Y-97028000D03*
X182880000Y-94488000D03*
X182880000Y-91948000D03*
X182880000Y-89408000D03*
X160063100Y-89408000D03*
X160063100Y-91948000D03*
X160063100Y-94488000D03*
X160063100Y-97028000D03*
X160063100Y-99568000D03*
X160063100Y-102108000D03*
X160063100Y-104648000D03*
X160063100Y-107188000D03*
X160063100Y-109728000D03*
X160063100Y-112268000D03*
X160063100Y-114808000D03*
X160063100Y-117348000D03*
X160063100Y-119888000D03*
X160063100Y-122428000D03*
X160063100Y-124968000D03*
X160063100Y-127508000D03*
X160063100Y-130048000D03*
X160063100Y-132588000D03*
X160063100Y-135128000D03*
X160063100Y-137668000D03*
X160063100Y-140208000D03*
X160063100Y-142748000D03*
X160063100Y-145288000D03*
X160063100Y-147828000D03*
%TD*%
D13*
%TO.C,PS1*%
X139700000Y-112268000D03*
D14*
X139700000Y-109728000D03*
X139700000Y-107188000D03*
%TD*%
D10*
%TO.C,J2*%
X156210000Y-145288000D03*
D11*
X156210000Y-142748000D03*
X156210000Y-140208000D03*
X156210000Y-137668000D03*
X156210000Y-135128000D03*
X156210000Y-132588000D03*
X156210000Y-130048000D03*
X156210000Y-127508000D03*
%TD*%
D15*
%TO.C,S1*%
X138276000Y-143169000D03*
X150776000Y-143169000D03*
X138276000Y-148169000D03*
X150776000Y-148169000D03*
%TD*%
D10*
%TO.C,Reverse*%
X146558000Y-60706000D03*
D11*
X146558000Y-63246000D03*
X146558000Y-65786000D03*
%TD*%
D10*
%TO.C,SW2*%
X135382000Y-60706000D03*
D11*
X135382000Y-63246000D03*
X135382000Y-65786000D03*
%TD*%
D15*
%TO.C,S2*%
X134266000Y-148169000D03*
X121766000Y-148169000D03*
X134266000Y-143169000D03*
X121766000Y-143169000D03*
%TD*%
D10*
%TO.C,CN1*%
X129540000Y-86868000D03*
D11*
X132080000Y-86868000D03*
X129540000Y-89408000D03*
X132080000Y-89408000D03*
X129540000Y-91948000D03*
X132080000Y-91948000D03*
X129540000Y-94488000D03*
X132080000Y-94488000D03*
X129540000Y-97028000D03*
X132080000Y-97028000D03*
X129540000Y-99568000D03*
X132080000Y-99568000D03*
X129540000Y-102108000D03*
X132080000Y-102108000D03*
X129540000Y-104648000D03*
X132080000Y-104648000D03*
X129540000Y-107188000D03*
X132080000Y-107188000D03*
X129540000Y-109728000D03*
X132080000Y-109728000D03*
X129540000Y-112268000D03*
X132080000Y-112268000D03*
X129540000Y-114808000D03*
X132080000Y-114808000D03*
D16*
X129540000Y-117348000D03*
D11*
X132080000Y-117348000D03*
D16*
X129540000Y-119888000D03*
D11*
X132080000Y-119888000D03*
D16*
X129540000Y-122428000D03*
D11*
X132080000Y-122428000D03*
D17*
X129540000Y-124968000D03*
D11*
X132080000Y-124968000D03*
D16*
X129540000Y-127508000D03*
D11*
X132080000Y-127508000D03*
D16*
X129540000Y-130048000D03*
D11*
X132080000Y-130048000D03*
D16*
X129540000Y-132588000D03*
D11*
X132080000Y-132588000D03*
D10*
X190500000Y-86868000D03*
D11*
X193040000Y-86868000D03*
X190500000Y-89408000D03*
X193040000Y-89408000D03*
X190500000Y-91948000D03*
X193040000Y-91948000D03*
X190500000Y-94488000D03*
X193040000Y-94488000D03*
X190500000Y-97028000D03*
X193040000Y-97028000D03*
X190500000Y-99568000D03*
X193040000Y-99568000D03*
X190500000Y-102108000D03*
X193040000Y-102108000D03*
X190500000Y-104648000D03*
X193040000Y-104648000D03*
X190500000Y-107188000D03*
X193040000Y-107188000D03*
X190500000Y-109728000D03*
X193040000Y-109728000D03*
X190500000Y-112268000D03*
X193040000Y-112268000D03*
X190500000Y-114808000D03*
X193040000Y-114808000D03*
X190500000Y-117348000D03*
X193040000Y-117348000D03*
X190500000Y-119888000D03*
X193040000Y-119888000D03*
X190500000Y-122428000D03*
X193040000Y-122428000D03*
X190500000Y-124968000D03*
X193040000Y-124968000D03*
X190500000Y-127508000D03*
X193040000Y-127508000D03*
X190500000Y-130048000D03*
X193040000Y-130048000D03*
X190500000Y-132588000D03*
X193040000Y-132588000D03*
%TD*%
D18*
%TO.C,U2*%
X142240000Y-80010000D03*
D19*
X142240000Y-82550000D03*
X142240000Y-85090000D03*
X142240000Y-87630000D03*
X142240000Y-90170000D03*
X142240000Y-92710000D03*
X142240000Y-95250000D03*
X142240000Y-97790000D03*
X149860000Y-97790000D03*
X149860000Y-95250000D03*
X149860000Y-92710000D03*
X149860000Y-90170000D03*
X149860000Y-87630000D03*
X149860000Y-85090000D03*
X149860000Y-82550000D03*
X149860000Y-80010000D03*
%TD*%
D10*
%TO.C,SW3*%
X123952000Y-60706000D03*
D11*
X123952000Y-63246000D03*
X123952000Y-65786000D03*
%TD*%
D15*
%TO.C,S3*%
X138249000Y-129159000D03*
X150749000Y-129159000D03*
X138249000Y-134159000D03*
X150749000Y-134159000D03*
%TD*%
D10*
%TO.C,J3*%
X187833000Y-147828000D03*
D11*
X187833000Y-145288000D03*
X187833000Y-142748000D03*
X187833000Y-140208000D03*
%TD*%
D15*
%TO.C,S4*%
X143610000Y-114975000D03*
X156110000Y-114975000D03*
X143610000Y-119975000D03*
X156110000Y-119975000D03*
%TD*%
D20*
%TO.C,R9*%
X186537600Y-65635500D03*
X186537600Y-67460500D03*
%TD*%
%TO.C,R10*%
X184048400Y-65633600D03*
X184048400Y-67458600D03*
%TD*%
%TO.C,R5*%
X166243000Y-65636500D03*
X166243000Y-67461500D03*
%TD*%
%TO.C,R4*%
X163728400Y-65633600D03*
X163728400Y-67458600D03*
%TD*%
%TO.C,R7*%
X171348400Y-65635500D03*
X171348400Y-67460500D03*
%TD*%
%TO.C,R3*%
X161188400Y-65684400D03*
X161188400Y-67509400D03*
%TD*%
%TO.C,R8*%
X176428400Y-65635500D03*
X176428400Y-67460500D03*
%TD*%
%TO.C,R6*%
X168757600Y-65633600D03*
X168757600Y-67458600D03*
%TD*%
M02*
