%TF.GenerationSoftware,KiCad,Pcbnew,7.0.5*%
%TF.CreationDate,2023-10-10T13:20:49+09:00*%
%TF.ProjectId,tangnano9k_brushless_driver,74616e67-6e61-46e6-9f39-6b5f62727573,rev?*%
%TF.SameCoordinates,Original*%
%TF.FileFunction,Legend,Bot*%
%TF.FilePolarity,Positive*%
%FSLAX46Y46*%
G04 Gerber Fmt 4.6, Leading zero omitted, Abs format (unit mm)*
G04 Created by KiCad (PCBNEW 7.0.5) date 2023-10-10 13:20:49*
%MOMM*%
%LPD*%
G01*
G04 APERTURE LIST*
%ADD10C,0.150000*%
%ADD11C,0.120000*%
G04 APERTURE END LIST*
D10*
X163080458Y-114312819D02*
X162413792Y-114312819D01*
X162413792Y-114312819D02*
X162842363Y-115312819D01*
X162128077Y-114312819D02*
X161509030Y-114312819D01*
X161509030Y-114312819D02*
X161842363Y-114693771D01*
X161842363Y-114693771D02*
X161699506Y-114693771D01*
X161699506Y-114693771D02*
X161604268Y-114741390D01*
X161604268Y-114741390D02*
X161556649Y-114789009D01*
X161556649Y-114789009D02*
X161509030Y-114884247D01*
X161509030Y-114884247D02*
X161509030Y-115122342D01*
X161509030Y-115122342D02*
X161556649Y-115217580D01*
X161556649Y-115217580D02*
X161604268Y-115265200D01*
X161604268Y-115265200D02*
X161699506Y-115312819D01*
X161699506Y-115312819D02*
X161985220Y-115312819D01*
X161985220Y-115312819D02*
X162080458Y-115265200D01*
X162080458Y-115265200D02*
X162128077Y-115217580D01*
X181368458Y-142125819D02*
X180749411Y-142125819D01*
X180749411Y-142125819D02*
X181082744Y-142506771D01*
X181082744Y-142506771D02*
X180939887Y-142506771D01*
X180939887Y-142506771D02*
X180844649Y-142554390D01*
X180844649Y-142554390D02*
X180797030Y-142602009D01*
X180797030Y-142602009D02*
X180749411Y-142697247D01*
X180749411Y-142697247D02*
X180749411Y-142935342D01*
X180749411Y-142935342D02*
X180797030Y-143030580D01*
X180797030Y-143030580D02*
X180844649Y-143078200D01*
X180844649Y-143078200D02*
X180939887Y-143125819D01*
X180939887Y-143125819D02*
X181225601Y-143125819D01*
X181225601Y-143125819D02*
X181320839Y-143078200D01*
X181320839Y-143078200D02*
X181368458Y-143030580D01*
X179892268Y-142125819D02*
X180082744Y-142125819D01*
X180082744Y-142125819D02*
X180177982Y-142173438D01*
X180177982Y-142173438D02*
X180225601Y-142221057D01*
X180225601Y-142221057D02*
X180320839Y-142363914D01*
X180320839Y-142363914D02*
X180368458Y-142554390D01*
X180368458Y-142554390D02*
X180368458Y-142935342D01*
X180368458Y-142935342D02*
X180320839Y-143030580D01*
X180320839Y-143030580D02*
X180273220Y-143078200D01*
X180273220Y-143078200D02*
X180177982Y-143125819D01*
X180177982Y-143125819D02*
X179987506Y-143125819D01*
X179987506Y-143125819D02*
X179892268Y-143078200D01*
X179892268Y-143078200D02*
X179844649Y-143030580D01*
X179844649Y-143030580D02*
X179797030Y-142935342D01*
X179797030Y-142935342D02*
X179797030Y-142697247D01*
X179797030Y-142697247D02*
X179844649Y-142602009D01*
X179844649Y-142602009D02*
X179892268Y-142554390D01*
X179892268Y-142554390D02*
X179987506Y-142506771D01*
X179987506Y-142506771D02*
X180177982Y-142506771D01*
X180177982Y-142506771D02*
X180273220Y-142554390D01*
X180273220Y-142554390D02*
X180320839Y-142602009D01*
X180320839Y-142602009D02*
X180368458Y-142697247D01*
X188639220Y-89785819D02*
X188639220Y-88785819D01*
X188639220Y-88785819D02*
X188401125Y-88785819D01*
X188401125Y-88785819D02*
X188258268Y-88833438D01*
X188258268Y-88833438D02*
X188163030Y-88928676D01*
X188163030Y-88928676D02*
X188115411Y-89023914D01*
X188115411Y-89023914D02*
X188067792Y-89214390D01*
X188067792Y-89214390D02*
X188067792Y-89357247D01*
X188067792Y-89357247D02*
X188115411Y-89547723D01*
X188115411Y-89547723D02*
X188163030Y-89642961D01*
X188163030Y-89642961D02*
X188258268Y-89738200D01*
X188258268Y-89738200D02*
X188401125Y-89785819D01*
X188401125Y-89785819D02*
X188639220Y-89785819D01*
X187639220Y-89785819D02*
X187639220Y-88785819D01*
X186591602Y-89785819D02*
X186924935Y-89309628D01*
X187163030Y-89785819D02*
X187163030Y-88785819D01*
X187163030Y-88785819D02*
X186782078Y-88785819D01*
X186782078Y-88785819D02*
X186686840Y-88833438D01*
X186686840Y-88833438D02*
X186639221Y-88881057D01*
X186639221Y-88881057D02*
X186591602Y-88976295D01*
X186591602Y-88976295D02*
X186591602Y-89119152D01*
X186591602Y-89119152D02*
X186639221Y-89214390D01*
X186639221Y-89214390D02*
X186686840Y-89262009D01*
X186686840Y-89262009D02*
X186782078Y-89309628D01*
X186782078Y-89309628D02*
X187163030Y-89309628D01*
X166620649Y-147205819D02*
X166811125Y-147205819D01*
X166811125Y-147205819D02*
X166906363Y-147253438D01*
X166906363Y-147253438D02*
X166953982Y-147301057D01*
X166953982Y-147301057D02*
X167049220Y-147443914D01*
X167049220Y-147443914D02*
X167096839Y-147634390D01*
X167096839Y-147634390D02*
X167096839Y-148015342D01*
X167096839Y-148015342D02*
X167049220Y-148110580D01*
X167049220Y-148110580D02*
X167001601Y-148158200D01*
X167001601Y-148158200D02*
X166906363Y-148205819D01*
X166906363Y-148205819D02*
X166715887Y-148205819D01*
X166715887Y-148205819D02*
X166620649Y-148158200D01*
X166620649Y-148158200D02*
X166573030Y-148110580D01*
X166573030Y-148110580D02*
X166525411Y-148015342D01*
X166525411Y-148015342D02*
X166525411Y-147777247D01*
X166525411Y-147777247D02*
X166573030Y-147682009D01*
X166573030Y-147682009D02*
X166620649Y-147634390D01*
X166620649Y-147634390D02*
X166715887Y-147586771D01*
X166715887Y-147586771D02*
X166906363Y-147586771D01*
X166906363Y-147586771D02*
X167001601Y-147634390D01*
X167001601Y-147634390D02*
X167049220Y-147682009D01*
X167049220Y-147682009D02*
X167096839Y-147777247D01*
X166192077Y-147205819D02*
X165573030Y-147205819D01*
X165573030Y-147205819D02*
X165906363Y-147586771D01*
X165906363Y-147586771D02*
X165763506Y-147586771D01*
X165763506Y-147586771D02*
X165668268Y-147634390D01*
X165668268Y-147634390D02*
X165620649Y-147682009D01*
X165620649Y-147682009D02*
X165573030Y-147777247D01*
X165573030Y-147777247D02*
X165573030Y-148015342D01*
X165573030Y-148015342D02*
X165620649Y-148110580D01*
X165620649Y-148110580D02*
X165668268Y-148158200D01*
X165668268Y-148158200D02*
X165763506Y-148205819D01*
X165763506Y-148205819D02*
X166049220Y-148205819D01*
X166049220Y-148205819D02*
X166144458Y-148158200D01*
X166144458Y-148158200D02*
X166192077Y-148110580D01*
X164430173Y-147158200D02*
X165287315Y-148443914D01*
X164096839Y-148205819D02*
X164096839Y-147205819D01*
X164096839Y-147682009D02*
X163525411Y-147682009D01*
X163525411Y-148205819D02*
X163525411Y-147205819D01*
X163287316Y-148301057D02*
X162525411Y-148301057D01*
X162287315Y-147205819D02*
X162287315Y-148015342D01*
X162287315Y-148015342D02*
X162239696Y-148110580D01*
X162239696Y-148110580D02*
X162192077Y-148158200D01*
X162192077Y-148158200D02*
X162096839Y-148205819D01*
X162096839Y-148205819D02*
X161906363Y-148205819D01*
X161906363Y-148205819D02*
X161811125Y-148158200D01*
X161811125Y-148158200D02*
X161763506Y-148110580D01*
X161763506Y-148110580D02*
X161715887Y-148015342D01*
X161715887Y-148015342D02*
X161715887Y-147205819D01*
X181320839Y-126981057D02*
X181273220Y-126933438D01*
X181273220Y-126933438D02*
X181177982Y-126885819D01*
X181177982Y-126885819D02*
X180939887Y-126885819D01*
X180939887Y-126885819D02*
X180844649Y-126933438D01*
X180844649Y-126933438D02*
X180797030Y-126981057D01*
X180797030Y-126981057D02*
X180749411Y-127076295D01*
X180749411Y-127076295D02*
X180749411Y-127171533D01*
X180749411Y-127171533D02*
X180797030Y-127314390D01*
X180797030Y-127314390D02*
X181368458Y-127885819D01*
X181368458Y-127885819D02*
X180749411Y-127885819D01*
X180273220Y-127885819D02*
X180082744Y-127885819D01*
X180082744Y-127885819D02*
X179987506Y-127838200D01*
X179987506Y-127838200D02*
X179939887Y-127790580D01*
X179939887Y-127790580D02*
X179844649Y-127647723D01*
X179844649Y-127647723D02*
X179797030Y-127457247D01*
X179797030Y-127457247D02*
X179797030Y-127076295D01*
X179797030Y-127076295D02*
X179844649Y-126981057D01*
X179844649Y-126981057D02*
X179892268Y-126933438D01*
X179892268Y-126933438D02*
X179987506Y-126885819D01*
X179987506Y-126885819D02*
X180177982Y-126885819D01*
X180177982Y-126885819D02*
X180273220Y-126933438D01*
X180273220Y-126933438D02*
X180320839Y-126981057D01*
X180320839Y-126981057D02*
X180368458Y-127076295D01*
X180368458Y-127076295D02*
X180368458Y-127314390D01*
X180368458Y-127314390D02*
X180320839Y-127409628D01*
X180320839Y-127409628D02*
X180273220Y-127457247D01*
X180273220Y-127457247D02*
X180177982Y-127504866D01*
X180177982Y-127504866D02*
X179987506Y-127504866D01*
X179987506Y-127504866D02*
X179892268Y-127457247D01*
X179892268Y-127457247D02*
X179844649Y-127409628D01*
X179844649Y-127409628D02*
X179797030Y-127314390D01*
X181368458Y-119265819D02*
X180749411Y-119265819D01*
X180749411Y-119265819D02*
X181082744Y-119646771D01*
X181082744Y-119646771D02*
X180939887Y-119646771D01*
X180939887Y-119646771D02*
X180844649Y-119694390D01*
X180844649Y-119694390D02*
X180797030Y-119742009D01*
X180797030Y-119742009D02*
X180749411Y-119837247D01*
X180749411Y-119837247D02*
X180749411Y-120075342D01*
X180749411Y-120075342D02*
X180797030Y-120170580D01*
X180797030Y-120170580D02*
X180844649Y-120218200D01*
X180844649Y-120218200D02*
X180939887Y-120265819D01*
X180939887Y-120265819D02*
X181225601Y-120265819D01*
X181225601Y-120265819D02*
X181320839Y-120218200D01*
X181320839Y-120218200D02*
X181368458Y-120170580D01*
X179892268Y-119599152D02*
X179892268Y-120265819D01*
X180130363Y-119218200D02*
X180368458Y-119932485D01*
X180368458Y-119932485D02*
X179749411Y-119932485D01*
X166112649Y-99152152D02*
X166112649Y-99818819D01*
X166350744Y-98771200D02*
X166588839Y-99485485D01*
X166588839Y-99485485D02*
X165969792Y-99485485D01*
X165541220Y-99818819D02*
X165350744Y-99818819D01*
X165350744Y-99818819D02*
X165255506Y-99771200D01*
X165255506Y-99771200D02*
X165207887Y-99723580D01*
X165207887Y-99723580D02*
X165112649Y-99580723D01*
X165112649Y-99580723D02*
X165065030Y-99390247D01*
X165065030Y-99390247D02*
X165065030Y-99009295D01*
X165065030Y-99009295D02*
X165112649Y-98914057D01*
X165112649Y-98914057D02*
X165160268Y-98866438D01*
X165160268Y-98866438D02*
X165255506Y-98818819D01*
X165255506Y-98818819D02*
X165445982Y-98818819D01*
X165445982Y-98818819D02*
X165541220Y-98866438D01*
X165541220Y-98866438D02*
X165588839Y-98914057D01*
X165588839Y-98914057D02*
X165636458Y-99009295D01*
X165636458Y-99009295D02*
X165636458Y-99247390D01*
X165636458Y-99247390D02*
X165588839Y-99342628D01*
X165588839Y-99342628D02*
X165541220Y-99390247D01*
X165541220Y-99390247D02*
X165445982Y-99437866D01*
X165445982Y-99437866D02*
X165255506Y-99437866D01*
X165255506Y-99437866D02*
X165160268Y-99390247D01*
X165160268Y-99390247D02*
X165112649Y-99342628D01*
X165112649Y-99342628D02*
X165065030Y-99247390D01*
X163922173Y-98771200D02*
X164779315Y-100056914D01*
X163588839Y-99818819D02*
X163588839Y-98818819D01*
X163588839Y-98818819D02*
X163350744Y-98818819D01*
X163350744Y-98818819D02*
X163207887Y-98866438D01*
X163207887Y-98866438D02*
X163112649Y-98961676D01*
X163112649Y-98961676D02*
X163065030Y-99056914D01*
X163065030Y-99056914D02*
X163017411Y-99247390D01*
X163017411Y-99247390D02*
X163017411Y-99390247D01*
X163017411Y-99390247D02*
X163065030Y-99580723D01*
X163065030Y-99580723D02*
X163112649Y-99675961D01*
X163112649Y-99675961D02*
X163207887Y-99771200D01*
X163207887Y-99771200D02*
X163350744Y-99818819D01*
X163350744Y-99818819D02*
X163588839Y-99818819D01*
X162588839Y-99818819D02*
X162588839Y-99152152D01*
X162588839Y-98818819D02*
X162636458Y-98866438D01*
X162636458Y-98866438D02*
X162588839Y-98914057D01*
X162588839Y-98914057D02*
X162541220Y-98866438D01*
X162541220Y-98866438D02*
X162588839Y-98818819D01*
X162588839Y-98818819D02*
X162588839Y-98914057D01*
X162112649Y-99152152D02*
X162112649Y-99818819D01*
X162112649Y-99247390D02*
X162065030Y-99199771D01*
X162065030Y-99199771D02*
X161969792Y-99152152D01*
X161969792Y-99152152D02*
X161826935Y-99152152D01*
X161826935Y-99152152D02*
X161731697Y-99199771D01*
X161731697Y-99199771D02*
X161684078Y-99295009D01*
X161684078Y-99295009D02*
X161684078Y-99818819D01*
X136410458Y-104025819D02*
X135791411Y-104025819D01*
X135791411Y-104025819D02*
X136124744Y-104406771D01*
X136124744Y-104406771D02*
X135981887Y-104406771D01*
X135981887Y-104406771D02*
X135886649Y-104454390D01*
X135886649Y-104454390D02*
X135839030Y-104502009D01*
X135839030Y-104502009D02*
X135791411Y-104597247D01*
X135791411Y-104597247D02*
X135791411Y-104835342D01*
X135791411Y-104835342D02*
X135839030Y-104930580D01*
X135839030Y-104930580D02*
X135886649Y-104978200D01*
X135886649Y-104978200D02*
X135981887Y-105025819D01*
X135981887Y-105025819D02*
X136267601Y-105025819D01*
X136267601Y-105025819D02*
X136362839Y-104978200D01*
X136362839Y-104978200D02*
X136410458Y-104930580D01*
X135505696Y-104025819D02*
X135172363Y-105025819D01*
X135172363Y-105025819D02*
X134839030Y-104025819D01*
X134600934Y-104025819D02*
X133981887Y-104025819D01*
X133981887Y-104025819D02*
X134315220Y-104406771D01*
X134315220Y-104406771D02*
X134172363Y-104406771D01*
X134172363Y-104406771D02*
X134077125Y-104454390D01*
X134077125Y-104454390D02*
X134029506Y-104502009D01*
X134029506Y-104502009D02*
X133981887Y-104597247D01*
X133981887Y-104597247D02*
X133981887Y-104835342D01*
X133981887Y-104835342D02*
X134029506Y-104930580D01*
X134029506Y-104930580D02*
X134077125Y-104978200D01*
X134077125Y-104978200D02*
X134172363Y-105025819D01*
X134172363Y-105025819D02*
X134458077Y-105025819D01*
X134458077Y-105025819D02*
X134553315Y-104978200D01*
X134553315Y-104978200D02*
X134600934Y-104930580D01*
X181320839Y-132061057D02*
X181273220Y-132013438D01*
X181273220Y-132013438D02*
X181177982Y-131965819D01*
X181177982Y-131965819D02*
X180939887Y-131965819D01*
X180939887Y-131965819D02*
X180844649Y-132013438D01*
X180844649Y-132013438D02*
X180797030Y-132061057D01*
X180797030Y-132061057D02*
X180749411Y-132156295D01*
X180749411Y-132156295D02*
X180749411Y-132251533D01*
X180749411Y-132251533D02*
X180797030Y-132394390D01*
X180797030Y-132394390D02*
X181368458Y-132965819D01*
X181368458Y-132965819D02*
X180749411Y-132965819D01*
X180416077Y-131965819D02*
X179749411Y-131965819D01*
X179749411Y-131965819D02*
X180177982Y-132965819D01*
X181320839Y-129521057D02*
X181273220Y-129473438D01*
X181273220Y-129473438D02*
X181177982Y-129425819D01*
X181177982Y-129425819D02*
X180939887Y-129425819D01*
X180939887Y-129425819D02*
X180844649Y-129473438D01*
X180844649Y-129473438D02*
X180797030Y-129521057D01*
X180797030Y-129521057D02*
X180749411Y-129616295D01*
X180749411Y-129616295D02*
X180749411Y-129711533D01*
X180749411Y-129711533D02*
X180797030Y-129854390D01*
X180797030Y-129854390D02*
X181368458Y-130425819D01*
X181368458Y-130425819D02*
X180749411Y-130425819D01*
X180177982Y-129854390D02*
X180273220Y-129806771D01*
X180273220Y-129806771D02*
X180320839Y-129759152D01*
X180320839Y-129759152D02*
X180368458Y-129663914D01*
X180368458Y-129663914D02*
X180368458Y-129616295D01*
X180368458Y-129616295D02*
X180320839Y-129521057D01*
X180320839Y-129521057D02*
X180273220Y-129473438D01*
X180273220Y-129473438D02*
X180177982Y-129425819D01*
X180177982Y-129425819D02*
X179987506Y-129425819D01*
X179987506Y-129425819D02*
X179892268Y-129473438D01*
X179892268Y-129473438D02*
X179844649Y-129521057D01*
X179844649Y-129521057D02*
X179797030Y-129616295D01*
X179797030Y-129616295D02*
X179797030Y-129663914D01*
X179797030Y-129663914D02*
X179844649Y-129759152D01*
X179844649Y-129759152D02*
X179892268Y-129806771D01*
X179892268Y-129806771D02*
X179987506Y-129854390D01*
X179987506Y-129854390D02*
X180177982Y-129854390D01*
X180177982Y-129854390D02*
X180273220Y-129902009D01*
X180273220Y-129902009D02*
X180320839Y-129949628D01*
X180320839Y-129949628D02*
X180368458Y-130044866D01*
X180368458Y-130044866D02*
X180368458Y-130235342D01*
X180368458Y-130235342D02*
X180320839Y-130330580D01*
X180320839Y-130330580D02*
X180273220Y-130378200D01*
X180273220Y-130378200D02*
X180177982Y-130425819D01*
X180177982Y-130425819D02*
X179987506Y-130425819D01*
X179987506Y-130425819D02*
X179892268Y-130378200D01*
X179892268Y-130378200D02*
X179844649Y-130330580D01*
X179844649Y-130330580D02*
X179797030Y-130235342D01*
X179797030Y-130235342D02*
X179797030Y-130044866D01*
X179797030Y-130044866D02*
X179844649Y-129949628D01*
X179844649Y-129949628D02*
X179892268Y-129902009D01*
X179892268Y-129902009D02*
X179987506Y-129854390D01*
X166890458Y-93865819D02*
X166271411Y-93865819D01*
X166271411Y-93865819D02*
X166604744Y-94246771D01*
X166604744Y-94246771D02*
X166461887Y-94246771D01*
X166461887Y-94246771D02*
X166366649Y-94294390D01*
X166366649Y-94294390D02*
X166319030Y-94342009D01*
X166319030Y-94342009D02*
X166271411Y-94437247D01*
X166271411Y-94437247D02*
X166271411Y-94675342D01*
X166271411Y-94675342D02*
X166319030Y-94770580D01*
X166319030Y-94770580D02*
X166366649Y-94818200D01*
X166366649Y-94818200D02*
X166461887Y-94865819D01*
X166461887Y-94865819D02*
X166747601Y-94865819D01*
X166747601Y-94865819D02*
X166842839Y-94818200D01*
X166842839Y-94818200D02*
X166890458Y-94770580D01*
X165890458Y-93961057D02*
X165842839Y-93913438D01*
X165842839Y-93913438D02*
X165747601Y-93865819D01*
X165747601Y-93865819D02*
X165509506Y-93865819D01*
X165509506Y-93865819D02*
X165414268Y-93913438D01*
X165414268Y-93913438D02*
X165366649Y-93961057D01*
X165366649Y-93961057D02*
X165319030Y-94056295D01*
X165319030Y-94056295D02*
X165319030Y-94151533D01*
X165319030Y-94151533D02*
X165366649Y-94294390D01*
X165366649Y-94294390D02*
X165938077Y-94865819D01*
X165938077Y-94865819D02*
X165319030Y-94865819D01*
X164176173Y-93818200D02*
X165033315Y-95103914D01*
X163271411Y-94770580D02*
X163319030Y-94818200D01*
X163319030Y-94818200D02*
X163461887Y-94865819D01*
X163461887Y-94865819D02*
X163557125Y-94865819D01*
X163557125Y-94865819D02*
X163699982Y-94818200D01*
X163699982Y-94818200D02*
X163795220Y-94722961D01*
X163795220Y-94722961D02*
X163842839Y-94627723D01*
X163842839Y-94627723D02*
X163890458Y-94437247D01*
X163890458Y-94437247D02*
X163890458Y-94294390D01*
X163890458Y-94294390D02*
X163842839Y-94103914D01*
X163842839Y-94103914D02*
X163795220Y-94008676D01*
X163795220Y-94008676D02*
X163699982Y-93913438D01*
X163699982Y-93913438D02*
X163557125Y-93865819D01*
X163557125Y-93865819D02*
X163461887Y-93865819D01*
X163461887Y-93865819D02*
X163319030Y-93913438D01*
X163319030Y-93913438D02*
X163271411Y-93961057D01*
X162366649Y-94865819D02*
X162842839Y-94865819D01*
X162842839Y-94865819D02*
X162842839Y-93865819D01*
X162033315Y-94865819D02*
X162033315Y-93865819D01*
X161461887Y-94865819D02*
X161890458Y-94294390D01*
X161461887Y-93865819D02*
X162033315Y-94437247D01*
X162509030Y-104025819D02*
X162985220Y-104025819D01*
X162985220Y-104025819D02*
X163032839Y-104502009D01*
X163032839Y-104502009D02*
X162985220Y-104454390D01*
X162985220Y-104454390D02*
X162889982Y-104406771D01*
X162889982Y-104406771D02*
X162651887Y-104406771D01*
X162651887Y-104406771D02*
X162556649Y-104454390D01*
X162556649Y-104454390D02*
X162509030Y-104502009D01*
X162509030Y-104502009D02*
X162461411Y-104597247D01*
X162461411Y-104597247D02*
X162461411Y-104835342D01*
X162461411Y-104835342D02*
X162509030Y-104930580D01*
X162509030Y-104930580D02*
X162556649Y-104978200D01*
X162556649Y-104978200D02*
X162651887Y-105025819D01*
X162651887Y-105025819D02*
X162889982Y-105025819D01*
X162889982Y-105025819D02*
X162985220Y-104978200D01*
X162985220Y-104978200D02*
X163032839Y-104930580D01*
X162175696Y-104025819D02*
X161842363Y-105025819D01*
X161842363Y-105025819D02*
X161509030Y-104025819D01*
X163080458Y-116725819D02*
X162413792Y-116725819D01*
X162413792Y-116725819D02*
X162842363Y-117725819D01*
X161604268Y-117059152D02*
X161604268Y-117725819D01*
X161842363Y-116678200D02*
X162080458Y-117392485D01*
X162080458Y-117392485D02*
X161461411Y-117392485D01*
X162842363Y-130108390D02*
X162937601Y-130060771D01*
X162937601Y-130060771D02*
X162985220Y-130013152D01*
X162985220Y-130013152D02*
X163032839Y-129917914D01*
X163032839Y-129917914D02*
X163032839Y-129870295D01*
X163032839Y-129870295D02*
X162985220Y-129775057D01*
X162985220Y-129775057D02*
X162937601Y-129727438D01*
X162937601Y-129727438D02*
X162842363Y-129679819D01*
X162842363Y-129679819D02*
X162651887Y-129679819D01*
X162651887Y-129679819D02*
X162556649Y-129727438D01*
X162556649Y-129727438D02*
X162509030Y-129775057D01*
X162509030Y-129775057D02*
X162461411Y-129870295D01*
X162461411Y-129870295D02*
X162461411Y-129917914D01*
X162461411Y-129917914D02*
X162509030Y-130013152D01*
X162509030Y-130013152D02*
X162556649Y-130060771D01*
X162556649Y-130060771D02*
X162651887Y-130108390D01*
X162651887Y-130108390D02*
X162842363Y-130108390D01*
X162842363Y-130108390D02*
X162937601Y-130156009D01*
X162937601Y-130156009D02*
X162985220Y-130203628D01*
X162985220Y-130203628D02*
X163032839Y-130298866D01*
X163032839Y-130298866D02*
X163032839Y-130489342D01*
X163032839Y-130489342D02*
X162985220Y-130584580D01*
X162985220Y-130584580D02*
X162937601Y-130632200D01*
X162937601Y-130632200D02*
X162842363Y-130679819D01*
X162842363Y-130679819D02*
X162651887Y-130679819D01*
X162651887Y-130679819D02*
X162556649Y-130632200D01*
X162556649Y-130632200D02*
X162509030Y-130584580D01*
X162509030Y-130584580D02*
X162461411Y-130489342D01*
X162461411Y-130489342D02*
X162461411Y-130298866D01*
X162461411Y-130298866D02*
X162509030Y-130203628D01*
X162509030Y-130203628D02*
X162556649Y-130156009D01*
X162556649Y-130156009D02*
X162651887Y-130108390D01*
X161842363Y-129679819D02*
X161747125Y-129679819D01*
X161747125Y-129679819D02*
X161651887Y-129727438D01*
X161651887Y-129727438D02*
X161604268Y-129775057D01*
X161604268Y-129775057D02*
X161556649Y-129870295D01*
X161556649Y-129870295D02*
X161509030Y-130060771D01*
X161509030Y-130060771D02*
X161509030Y-130298866D01*
X161509030Y-130298866D02*
X161556649Y-130489342D01*
X161556649Y-130489342D02*
X161604268Y-130584580D01*
X161604268Y-130584580D02*
X161651887Y-130632200D01*
X161651887Y-130632200D02*
X161747125Y-130679819D01*
X161747125Y-130679819D02*
X161842363Y-130679819D01*
X161842363Y-130679819D02*
X161937601Y-130632200D01*
X161937601Y-130632200D02*
X161985220Y-130584580D01*
X161985220Y-130584580D02*
X162032839Y-130489342D01*
X162032839Y-130489342D02*
X162080458Y-130298866D01*
X162080458Y-130298866D02*
X162080458Y-130060771D01*
X162080458Y-130060771D02*
X162032839Y-129870295D01*
X162032839Y-129870295D02*
X161985220Y-129775057D01*
X161985220Y-129775057D02*
X161937601Y-129727438D01*
X161937601Y-129727438D02*
X161842363Y-129679819D01*
X162842363Y-142681390D02*
X162937601Y-142633771D01*
X162937601Y-142633771D02*
X162985220Y-142586152D01*
X162985220Y-142586152D02*
X163032839Y-142490914D01*
X163032839Y-142490914D02*
X163032839Y-142443295D01*
X163032839Y-142443295D02*
X162985220Y-142348057D01*
X162985220Y-142348057D02*
X162937601Y-142300438D01*
X162937601Y-142300438D02*
X162842363Y-142252819D01*
X162842363Y-142252819D02*
X162651887Y-142252819D01*
X162651887Y-142252819D02*
X162556649Y-142300438D01*
X162556649Y-142300438D02*
X162509030Y-142348057D01*
X162509030Y-142348057D02*
X162461411Y-142443295D01*
X162461411Y-142443295D02*
X162461411Y-142490914D01*
X162461411Y-142490914D02*
X162509030Y-142586152D01*
X162509030Y-142586152D02*
X162556649Y-142633771D01*
X162556649Y-142633771D02*
X162651887Y-142681390D01*
X162651887Y-142681390D02*
X162842363Y-142681390D01*
X162842363Y-142681390D02*
X162937601Y-142729009D01*
X162937601Y-142729009D02*
X162985220Y-142776628D01*
X162985220Y-142776628D02*
X163032839Y-142871866D01*
X163032839Y-142871866D02*
X163032839Y-143062342D01*
X163032839Y-143062342D02*
X162985220Y-143157580D01*
X162985220Y-143157580D02*
X162937601Y-143205200D01*
X162937601Y-143205200D02*
X162842363Y-143252819D01*
X162842363Y-143252819D02*
X162651887Y-143252819D01*
X162651887Y-143252819D02*
X162556649Y-143205200D01*
X162556649Y-143205200D02*
X162509030Y-143157580D01*
X162509030Y-143157580D02*
X162461411Y-143062342D01*
X162461411Y-143062342D02*
X162461411Y-142871866D01*
X162461411Y-142871866D02*
X162509030Y-142776628D01*
X162509030Y-142776628D02*
X162556649Y-142729009D01*
X162556649Y-142729009D02*
X162651887Y-142681390D01*
X161556649Y-142252819D02*
X162032839Y-142252819D01*
X162032839Y-142252819D02*
X162080458Y-142729009D01*
X162080458Y-142729009D02*
X162032839Y-142681390D01*
X162032839Y-142681390D02*
X161937601Y-142633771D01*
X161937601Y-142633771D02*
X161699506Y-142633771D01*
X161699506Y-142633771D02*
X161604268Y-142681390D01*
X161604268Y-142681390D02*
X161556649Y-142729009D01*
X161556649Y-142729009D02*
X161509030Y-142824247D01*
X161509030Y-142824247D02*
X161509030Y-143062342D01*
X161509030Y-143062342D02*
X161556649Y-143157580D01*
X161556649Y-143157580D02*
X161604268Y-143205200D01*
X161604268Y-143205200D02*
X161699506Y-143252819D01*
X161699506Y-143252819D02*
X161937601Y-143252819D01*
X161937601Y-143252819D02*
X162032839Y-143205200D01*
X162032839Y-143205200D02*
X162080458Y-143157580D01*
X163080458Y-111645819D02*
X162413792Y-111645819D01*
X162413792Y-111645819D02*
X162842363Y-112645819D01*
X162080458Y-111741057D02*
X162032839Y-111693438D01*
X162032839Y-111693438D02*
X161937601Y-111645819D01*
X161937601Y-111645819D02*
X161699506Y-111645819D01*
X161699506Y-111645819D02*
X161604268Y-111693438D01*
X161604268Y-111693438D02*
X161556649Y-111741057D01*
X161556649Y-111741057D02*
X161509030Y-111836295D01*
X161509030Y-111836295D02*
X161509030Y-111931533D01*
X161509030Y-111931533D02*
X161556649Y-112074390D01*
X161556649Y-112074390D02*
X162128077Y-112645819D01*
X162128077Y-112645819D02*
X161509030Y-112645819D01*
X180797030Y-104152819D02*
X181273220Y-104152819D01*
X181273220Y-104152819D02*
X181320839Y-104629009D01*
X181320839Y-104629009D02*
X181273220Y-104581390D01*
X181273220Y-104581390D02*
X181177982Y-104533771D01*
X181177982Y-104533771D02*
X180939887Y-104533771D01*
X180939887Y-104533771D02*
X180844649Y-104581390D01*
X180844649Y-104581390D02*
X180797030Y-104629009D01*
X180797030Y-104629009D02*
X180749411Y-104724247D01*
X180749411Y-104724247D02*
X180749411Y-104962342D01*
X180749411Y-104962342D02*
X180797030Y-105057580D01*
X180797030Y-105057580D02*
X180844649Y-105105200D01*
X180844649Y-105105200D02*
X180939887Y-105152819D01*
X180939887Y-105152819D02*
X181177982Y-105152819D01*
X181177982Y-105152819D02*
X181273220Y-105105200D01*
X181273220Y-105105200D02*
X181320839Y-105057580D01*
X180416077Y-104152819D02*
X179797030Y-104152819D01*
X179797030Y-104152819D02*
X180130363Y-104533771D01*
X180130363Y-104533771D02*
X179987506Y-104533771D01*
X179987506Y-104533771D02*
X179892268Y-104581390D01*
X179892268Y-104581390D02*
X179844649Y-104629009D01*
X179844649Y-104629009D02*
X179797030Y-104724247D01*
X179797030Y-104724247D02*
X179797030Y-104962342D01*
X179797030Y-104962342D02*
X179844649Y-105057580D01*
X179844649Y-105057580D02*
X179892268Y-105105200D01*
X179892268Y-105105200D02*
X179987506Y-105152819D01*
X179987506Y-105152819D02*
X180273220Y-105152819D01*
X180273220Y-105152819D02*
X180368458Y-105105200D01*
X180368458Y-105105200D02*
X180416077Y-105057580D01*
X163080458Y-109232819D02*
X162413792Y-109232819D01*
X162413792Y-109232819D02*
X162842363Y-110232819D01*
X161509030Y-110232819D02*
X162080458Y-110232819D01*
X161794744Y-110232819D02*
X161794744Y-109232819D01*
X161794744Y-109232819D02*
X161889982Y-109375676D01*
X161889982Y-109375676D02*
X161985220Y-109470914D01*
X161985220Y-109470914D02*
X162080458Y-109518533D01*
X162842363Y-145221390D02*
X162937601Y-145173771D01*
X162937601Y-145173771D02*
X162985220Y-145126152D01*
X162985220Y-145126152D02*
X163032839Y-145030914D01*
X163032839Y-145030914D02*
X163032839Y-144983295D01*
X163032839Y-144983295D02*
X162985220Y-144888057D01*
X162985220Y-144888057D02*
X162937601Y-144840438D01*
X162937601Y-144840438D02*
X162842363Y-144792819D01*
X162842363Y-144792819D02*
X162651887Y-144792819D01*
X162651887Y-144792819D02*
X162556649Y-144840438D01*
X162556649Y-144840438D02*
X162509030Y-144888057D01*
X162509030Y-144888057D02*
X162461411Y-144983295D01*
X162461411Y-144983295D02*
X162461411Y-145030914D01*
X162461411Y-145030914D02*
X162509030Y-145126152D01*
X162509030Y-145126152D02*
X162556649Y-145173771D01*
X162556649Y-145173771D02*
X162651887Y-145221390D01*
X162651887Y-145221390D02*
X162842363Y-145221390D01*
X162842363Y-145221390D02*
X162937601Y-145269009D01*
X162937601Y-145269009D02*
X162985220Y-145316628D01*
X162985220Y-145316628D02*
X163032839Y-145411866D01*
X163032839Y-145411866D02*
X163032839Y-145602342D01*
X163032839Y-145602342D02*
X162985220Y-145697580D01*
X162985220Y-145697580D02*
X162937601Y-145745200D01*
X162937601Y-145745200D02*
X162842363Y-145792819D01*
X162842363Y-145792819D02*
X162651887Y-145792819D01*
X162651887Y-145792819D02*
X162556649Y-145745200D01*
X162556649Y-145745200D02*
X162509030Y-145697580D01*
X162509030Y-145697580D02*
X162461411Y-145602342D01*
X162461411Y-145602342D02*
X162461411Y-145411866D01*
X162461411Y-145411866D02*
X162509030Y-145316628D01*
X162509030Y-145316628D02*
X162556649Y-145269009D01*
X162556649Y-145269009D02*
X162651887Y-145221390D01*
X161604268Y-144792819D02*
X161794744Y-144792819D01*
X161794744Y-144792819D02*
X161889982Y-144840438D01*
X161889982Y-144840438D02*
X161937601Y-144888057D01*
X161937601Y-144888057D02*
X162032839Y-145030914D01*
X162032839Y-145030914D02*
X162080458Y-145221390D01*
X162080458Y-145221390D02*
X162080458Y-145602342D01*
X162080458Y-145602342D02*
X162032839Y-145697580D01*
X162032839Y-145697580D02*
X161985220Y-145745200D01*
X161985220Y-145745200D02*
X161889982Y-145792819D01*
X161889982Y-145792819D02*
X161699506Y-145792819D01*
X161699506Y-145792819D02*
X161604268Y-145745200D01*
X161604268Y-145745200D02*
X161556649Y-145697580D01*
X161556649Y-145697580D02*
X161509030Y-145602342D01*
X161509030Y-145602342D02*
X161509030Y-145364247D01*
X161509030Y-145364247D02*
X161556649Y-145269009D01*
X161556649Y-145269009D02*
X161604268Y-145221390D01*
X161604268Y-145221390D02*
X161699506Y-145173771D01*
X161699506Y-145173771D02*
X161889982Y-145173771D01*
X161889982Y-145173771D02*
X161985220Y-145221390D01*
X161985220Y-145221390D02*
X162032839Y-145269009D01*
X162032839Y-145269009D02*
X162080458Y-145364247D01*
X181368458Y-147205819D02*
X180749411Y-147205819D01*
X180749411Y-147205819D02*
X181082744Y-147586771D01*
X181082744Y-147586771D02*
X180939887Y-147586771D01*
X180939887Y-147586771D02*
X180844649Y-147634390D01*
X180844649Y-147634390D02*
X180797030Y-147682009D01*
X180797030Y-147682009D02*
X180749411Y-147777247D01*
X180749411Y-147777247D02*
X180749411Y-148015342D01*
X180749411Y-148015342D02*
X180797030Y-148110580D01*
X180797030Y-148110580D02*
X180844649Y-148158200D01*
X180844649Y-148158200D02*
X180939887Y-148205819D01*
X180939887Y-148205819D02*
X181225601Y-148205819D01*
X181225601Y-148205819D02*
X181320839Y-148158200D01*
X181320839Y-148158200D02*
X181368458Y-148110580D01*
X180177982Y-147634390D02*
X180273220Y-147586771D01*
X180273220Y-147586771D02*
X180320839Y-147539152D01*
X180320839Y-147539152D02*
X180368458Y-147443914D01*
X180368458Y-147443914D02*
X180368458Y-147396295D01*
X180368458Y-147396295D02*
X180320839Y-147301057D01*
X180320839Y-147301057D02*
X180273220Y-147253438D01*
X180273220Y-147253438D02*
X180177982Y-147205819D01*
X180177982Y-147205819D02*
X179987506Y-147205819D01*
X179987506Y-147205819D02*
X179892268Y-147253438D01*
X179892268Y-147253438D02*
X179844649Y-147301057D01*
X179844649Y-147301057D02*
X179797030Y-147396295D01*
X179797030Y-147396295D02*
X179797030Y-147443914D01*
X179797030Y-147443914D02*
X179844649Y-147539152D01*
X179844649Y-147539152D02*
X179892268Y-147586771D01*
X179892268Y-147586771D02*
X179987506Y-147634390D01*
X179987506Y-147634390D02*
X180177982Y-147634390D01*
X180177982Y-147634390D02*
X180273220Y-147682009D01*
X180273220Y-147682009D02*
X180320839Y-147729628D01*
X180320839Y-147729628D02*
X180368458Y-147824866D01*
X180368458Y-147824866D02*
X180368458Y-148015342D01*
X180368458Y-148015342D02*
X180320839Y-148110580D01*
X180320839Y-148110580D02*
X180273220Y-148158200D01*
X180273220Y-148158200D02*
X180177982Y-148205819D01*
X180177982Y-148205819D02*
X179987506Y-148205819D01*
X179987506Y-148205819D02*
X179892268Y-148158200D01*
X179892268Y-148158200D02*
X179844649Y-148110580D01*
X179844649Y-148110580D02*
X179797030Y-148015342D01*
X179797030Y-148015342D02*
X179797030Y-147824866D01*
X179797030Y-147824866D02*
X179844649Y-147729628D01*
X179844649Y-147729628D02*
X179892268Y-147682009D01*
X179892268Y-147682009D02*
X179987506Y-147634390D01*
X180797030Y-106565819D02*
X181273220Y-106565819D01*
X181273220Y-106565819D02*
X181320839Y-107042009D01*
X181320839Y-107042009D02*
X181273220Y-106994390D01*
X181273220Y-106994390D02*
X181177982Y-106946771D01*
X181177982Y-106946771D02*
X180939887Y-106946771D01*
X180939887Y-106946771D02*
X180844649Y-106994390D01*
X180844649Y-106994390D02*
X180797030Y-107042009D01*
X180797030Y-107042009D02*
X180749411Y-107137247D01*
X180749411Y-107137247D02*
X180749411Y-107375342D01*
X180749411Y-107375342D02*
X180797030Y-107470580D01*
X180797030Y-107470580D02*
X180844649Y-107518200D01*
X180844649Y-107518200D02*
X180939887Y-107565819D01*
X180939887Y-107565819D02*
X181177982Y-107565819D01*
X181177982Y-107565819D02*
X181273220Y-107518200D01*
X181273220Y-107518200D02*
X181320839Y-107470580D01*
X179797030Y-107565819D02*
X180368458Y-107565819D01*
X180082744Y-107565819D02*
X180082744Y-106565819D01*
X180082744Y-106565819D02*
X180177982Y-106708676D01*
X180177982Y-106708676D02*
X180273220Y-106803914D01*
X180273220Y-106803914D02*
X180368458Y-106851533D01*
X181368458Y-144665819D02*
X180749411Y-144665819D01*
X180749411Y-144665819D02*
X181082744Y-145046771D01*
X181082744Y-145046771D02*
X180939887Y-145046771D01*
X180939887Y-145046771D02*
X180844649Y-145094390D01*
X180844649Y-145094390D02*
X180797030Y-145142009D01*
X180797030Y-145142009D02*
X180749411Y-145237247D01*
X180749411Y-145237247D02*
X180749411Y-145475342D01*
X180749411Y-145475342D02*
X180797030Y-145570580D01*
X180797030Y-145570580D02*
X180844649Y-145618200D01*
X180844649Y-145618200D02*
X180939887Y-145665819D01*
X180939887Y-145665819D02*
X181225601Y-145665819D01*
X181225601Y-145665819D02*
X181320839Y-145618200D01*
X181320839Y-145618200D02*
X181368458Y-145570580D01*
X180416077Y-144665819D02*
X179749411Y-144665819D01*
X179749411Y-144665819D02*
X180177982Y-145665819D01*
X196751411Y-109153438D02*
X196846649Y-109105819D01*
X196846649Y-109105819D02*
X196989506Y-109105819D01*
X196989506Y-109105819D02*
X197132363Y-109153438D01*
X197132363Y-109153438D02*
X197227601Y-109248676D01*
X197227601Y-109248676D02*
X197275220Y-109343914D01*
X197275220Y-109343914D02*
X197322839Y-109534390D01*
X197322839Y-109534390D02*
X197322839Y-109677247D01*
X197322839Y-109677247D02*
X197275220Y-109867723D01*
X197275220Y-109867723D02*
X197227601Y-109962961D01*
X197227601Y-109962961D02*
X197132363Y-110058200D01*
X197132363Y-110058200D02*
X196989506Y-110105819D01*
X196989506Y-110105819D02*
X196894268Y-110105819D01*
X196894268Y-110105819D02*
X196751411Y-110058200D01*
X196751411Y-110058200D02*
X196703792Y-110010580D01*
X196703792Y-110010580D02*
X196703792Y-109677247D01*
X196703792Y-109677247D02*
X196894268Y-109677247D01*
X196275220Y-110105819D02*
X196275220Y-109105819D01*
X196275220Y-109105819D02*
X195703792Y-110105819D01*
X195703792Y-110105819D02*
X195703792Y-109105819D01*
X195227601Y-110105819D02*
X195227601Y-109105819D01*
X195227601Y-109105819D02*
X194989506Y-109105819D01*
X194989506Y-109105819D02*
X194846649Y-109153438D01*
X194846649Y-109153438D02*
X194751411Y-109248676D01*
X194751411Y-109248676D02*
X194703792Y-109343914D01*
X194703792Y-109343914D02*
X194656173Y-109534390D01*
X194656173Y-109534390D02*
X194656173Y-109677247D01*
X194656173Y-109677247D02*
X194703792Y-109867723D01*
X194703792Y-109867723D02*
X194751411Y-109962961D01*
X194751411Y-109962961D02*
X194846649Y-110058200D01*
X194846649Y-110058200D02*
X194989506Y-110105819D01*
X194989506Y-110105819D02*
X195227601Y-110105819D01*
X167652458Y-96405819D02*
X167033411Y-96405819D01*
X167033411Y-96405819D02*
X167366744Y-96786771D01*
X167366744Y-96786771D02*
X167223887Y-96786771D01*
X167223887Y-96786771D02*
X167128649Y-96834390D01*
X167128649Y-96834390D02*
X167081030Y-96882009D01*
X167081030Y-96882009D02*
X167033411Y-96977247D01*
X167033411Y-96977247D02*
X167033411Y-97215342D01*
X167033411Y-97215342D02*
X167081030Y-97310580D01*
X167081030Y-97310580D02*
X167128649Y-97358200D01*
X167128649Y-97358200D02*
X167223887Y-97405819D01*
X167223887Y-97405819D02*
X167509601Y-97405819D01*
X167509601Y-97405819D02*
X167604839Y-97358200D01*
X167604839Y-97358200D02*
X167652458Y-97310580D01*
X166081030Y-97405819D02*
X166652458Y-97405819D01*
X166366744Y-97405819D02*
X166366744Y-96405819D01*
X166366744Y-96405819D02*
X166461982Y-96548676D01*
X166461982Y-96548676D02*
X166557220Y-96643914D01*
X166557220Y-96643914D02*
X166652458Y-96691533D01*
X164938173Y-96358200D02*
X165795315Y-97643914D01*
X164604839Y-97405819D02*
X164604839Y-96405819D01*
X164604839Y-96405819D02*
X164366744Y-96405819D01*
X164366744Y-96405819D02*
X164223887Y-96453438D01*
X164223887Y-96453438D02*
X164128649Y-96548676D01*
X164128649Y-96548676D02*
X164081030Y-96643914D01*
X164081030Y-96643914D02*
X164033411Y-96834390D01*
X164033411Y-96834390D02*
X164033411Y-96977247D01*
X164033411Y-96977247D02*
X164081030Y-97167723D01*
X164081030Y-97167723D02*
X164128649Y-97262961D01*
X164128649Y-97262961D02*
X164223887Y-97358200D01*
X164223887Y-97358200D02*
X164366744Y-97405819D01*
X164366744Y-97405819D02*
X164604839Y-97405819D01*
X163461982Y-97405819D02*
X163557220Y-97358200D01*
X163557220Y-97358200D02*
X163604839Y-97310580D01*
X163604839Y-97310580D02*
X163652458Y-97215342D01*
X163652458Y-97215342D02*
X163652458Y-96929628D01*
X163652458Y-96929628D02*
X163604839Y-96834390D01*
X163604839Y-96834390D02*
X163557220Y-96786771D01*
X163557220Y-96786771D02*
X163461982Y-96739152D01*
X163461982Y-96739152D02*
X163319125Y-96739152D01*
X163319125Y-96739152D02*
X163223887Y-96786771D01*
X163223887Y-96786771D02*
X163176268Y-96834390D01*
X163176268Y-96834390D02*
X163128649Y-96929628D01*
X163128649Y-96929628D02*
X163128649Y-97215342D01*
X163128649Y-97215342D02*
X163176268Y-97310580D01*
X163176268Y-97310580D02*
X163223887Y-97358200D01*
X163223887Y-97358200D02*
X163319125Y-97405819D01*
X163319125Y-97405819D02*
X163461982Y-97405819D01*
X162271506Y-96739152D02*
X162271506Y-97405819D01*
X162700077Y-96739152D02*
X162700077Y-97262961D01*
X162700077Y-97262961D02*
X162652458Y-97358200D01*
X162652458Y-97358200D02*
X162557220Y-97405819D01*
X162557220Y-97405819D02*
X162414363Y-97405819D01*
X162414363Y-97405819D02*
X162319125Y-97358200D01*
X162319125Y-97358200D02*
X162271506Y-97310580D01*
X161938172Y-96739152D02*
X161557220Y-96739152D01*
X161795315Y-96405819D02*
X161795315Y-97262961D01*
X161795315Y-97262961D02*
X161747696Y-97358200D01*
X161747696Y-97358200D02*
X161652458Y-97405819D01*
X161652458Y-97405819D02*
X161557220Y-97405819D01*
X180797030Y-93865819D02*
X181273220Y-93865819D01*
X181273220Y-93865819D02*
X181320839Y-94342009D01*
X181320839Y-94342009D02*
X181273220Y-94294390D01*
X181273220Y-94294390D02*
X181177982Y-94246771D01*
X181177982Y-94246771D02*
X180939887Y-94246771D01*
X180939887Y-94246771D02*
X180844649Y-94294390D01*
X180844649Y-94294390D02*
X180797030Y-94342009D01*
X180797030Y-94342009D02*
X180749411Y-94437247D01*
X180749411Y-94437247D02*
X180749411Y-94675342D01*
X180749411Y-94675342D02*
X180797030Y-94770580D01*
X180797030Y-94770580D02*
X180844649Y-94818200D01*
X180844649Y-94818200D02*
X180939887Y-94865819D01*
X180939887Y-94865819D02*
X181177982Y-94865819D01*
X181177982Y-94865819D02*
X181273220Y-94818200D01*
X181273220Y-94818200D02*
X181320839Y-94770580D01*
X180416077Y-93865819D02*
X179749411Y-93865819D01*
X179749411Y-93865819D02*
X180177982Y-94865819D01*
X180797030Y-99072819D02*
X181273220Y-99072819D01*
X181273220Y-99072819D02*
X181320839Y-99549009D01*
X181320839Y-99549009D02*
X181273220Y-99501390D01*
X181273220Y-99501390D02*
X181177982Y-99453771D01*
X181177982Y-99453771D02*
X180939887Y-99453771D01*
X180939887Y-99453771D02*
X180844649Y-99501390D01*
X180844649Y-99501390D02*
X180797030Y-99549009D01*
X180797030Y-99549009D02*
X180749411Y-99644247D01*
X180749411Y-99644247D02*
X180749411Y-99882342D01*
X180749411Y-99882342D02*
X180797030Y-99977580D01*
X180797030Y-99977580D02*
X180844649Y-100025200D01*
X180844649Y-100025200D02*
X180939887Y-100072819D01*
X180939887Y-100072819D02*
X181177982Y-100072819D01*
X181177982Y-100072819D02*
X181273220Y-100025200D01*
X181273220Y-100025200D02*
X181320839Y-99977580D01*
X179844649Y-99072819D02*
X180320839Y-99072819D01*
X180320839Y-99072819D02*
X180368458Y-99549009D01*
X180368458Y-99549009D02*
X180320839Y-99501390D01*
X180320839Y-99501390D02*
X180225601Y-99453771D01*
X180225601Y-99453771D02*
X179987506Y-99453771D01*
X179987506Y-99453771D02*
X179892268Y-99501390D01*
X179892268Y-99501390D02*
X179844649Y-99549009D01*
X179844649Y-99549009D02*
X179797030Y-99644247D01*
X179797030Y-99644247D02*
X179797030Y-99882342D01*
X179797030Y-99882342D02*
X179844649Y-99977580D01*
X179844649Y-99977580D02*
X179892268Y-100025200D01*
X179892268Y-100025200D02*
X179987506Y-100072819D01*
X179987506Y-100072819D02*
X180225601Y-100072819D01*
X180225601Y-100072819D02*
X180320839Y-100025200D01*
X180320839Y-100025200D02*
X180368458Y-99977580D01*
X180844649Y-109439152D02*
X180844649Y-110105819D01*
X181082744Y-109058200D02*
X181320839Y-109772485D01*
X181320839Y-109772485D02*
X180701792Y-109772485D01*
X180368458Y-109201057D02*
X180320839Y-109153438D01*
X180320839Y-109153438D02*
X180225601Y-109105819D01*
X180225601Y-109105819D02*
X179987506Y-109105819D01*
X179987506Y-109105819D02*
X179892268Y-109153438D01*
X179892268Y-109153438D02*
X179844649Y-109201057D01*
X179844649Y-109201057D02*
X179797030Y-109296295D01*
X179797030Y-109296295D02*
X179797030Y-109391533D01*
X179797030Y-109391533D02*
X179844649Y-109534390D01*
X179844649Y-109534390D02*
X180416077Y-110105819D01*
X180416077Y-110105819D02*
X179797030Y-110105819D01*
X178654173Y-109058200D02*
X179511315Y-110343914D01*
X178320839Y-110105819D02*
X178320839Y-109105819D01*
X178320839Y-109582009D02*
X177749411Y-109582009D01*
X177749411Y-110105819D02*
X177749411Y-109105819D01*
X177511316Y-110201057D02*
X176749411Y-110201057D01*
X176606553Y-109105819D02*
X176368458Y-110105819D01*
X176368458Y-110105819D02*
X176177982Y-109391533D01*
X176177982Y-109391533D02*
X175987506Y-110105819D01*
X175987506Y-110105819D02*
X175749411Y-109105819D01*
X162842363Y-137601390D02*
X162937601Y-137553771D01*
X162937601Y-137553771D02*
X162985220Y-137506152D01*
X162985220Y-137506152D02*
X163032839Y-137410914D01*
X163032839Y-137410914D02*
X163032839Y-137363295D01*
X163032839Y-137363295D02*
X162985220Y-137268057D01*
X162985220Y-137268057D02*
X162937601Y-137220438D01*
X162937601Y-137220438D02*
X162842363Y-137172819D01*
X162842363Y-137172819D02*
X162651887Y-137172819D01*
X162651887Y-137172819D02*
X162556649Y-137220438D01*
X162556649Y-137220438D02*
X162509030Y-137268057D01*
X162509030Y-137268057D02*
X162461411Y-137363295D01*
X162461411Y-137363295D02*
X162461411Y-137410914D01*
X162461411Y-137410914D02*
X162509030Y-137506152D01*
X162509030Y-137506152D02*
X162556649Y-137553771D01*
X162556649Y-137553771D02*
X162651887Y-137601390D01*
X162651887Y-137601390D02*
X162842363Y-137601390D01*
X162842363Y-137601390D02*
X162937601Y-137649009D01*
X162937601Y-137649009D02*
X162985220Y-137696628D01*
X162985220Y-137696628D02*
X163032839Y-137791866D01*
X163032839Y-137791866D02*
X163032839Y-137982342D01*
X163032839Y-137982342D02*
X162985220Y-138077580D01*
X162985220Y-138077580D02*
X162937601Y-138125200D01*
X162937601Y-138125200D02*
X162842363Y-138172819D01*
X162842363Y-138172819D02*
X162651887Y-138172819D01*
X162651887Y-138172819D02*
X162556649Y-138125200D01*
X162556649Y-138125200D02*
X162509030Y-138077580D01*
X162509030Y-138077580D02*
X162461411Y-137982342D01*
X162461411Y-137982342D02*
X162461411Y-137791866D01*
X162461411Y-137791866D02*
X162509030Y-137696628D01*
X162509030Y-137696628D02*
X162556649Y-137649009D01*
X162556649Y-137649009D02*
X162651887Y-137601390D01*
X162128077Y-137172819D02*
X161509030Y-137172819D01*
X161509030Y-137172819D02*
X161842363Y-137553771D01*
X161842363Y-137553771D02*
X161699506Y-137553771D01*
X161699506Y-137553771D02*
X161604268Y-137601390D01*
X161604268Y-137601390D02*
X161556649Y-137649009D01*
X161556649Y-137649009D02*
X161509030Y-137744247D01*
X161509030Y-137744247D02*
X161509030Y-137982342D01*
X161509030Y-137982342D02*
X161556649Y-138077580D01*
X161556649Y-138077580D02*
X161604268Y-138125200D01*
X161604268Y-138125200D02*
X161699506Y-138172819D01*
X161699506Y-138172819D02*
X161985220Y-138172819D01*
X161985220Y-138172819D02*
X162080458Y-138125200D01*
X162080458Y-138125200D02*
X162128077Y-138077580D01*
X181320839Y-134601057D02*
X181273220Y-134553438D01*
X181273220Y-134553438D02*
X181177982Y-134505819D01*
X181177982Y-134505819D02*
X180939887Y-134505819D01*
X180939887Y-134505819D02*
X180844649Y-134553438D01*
X180844649Y-134553438D02*
X180797030Y-134601057D01*
X180797030Y-134601057D02*
X180749411Y-134696295D01*
X180749411Y-134696295D02*
X180749411Y-134791533D01*
X180749411Y-134791533D02*
X180797030Y-134934390D01*
X180797030Y-134934390D02*
X181368458Y-135505819D01*
X181368458Y-135505819D02*
X180749411Y-135505819D01*
X179892268Y-134505819D02*
X180082744Y-134505819D01*
X180082744Y-134505819D02*
X180177982Y-134553438D01*
X180177982Y-134553438D02*
X180225601Y-134601057D01*
X180225601Y-134601057D02*
X180320839Y-134743914D01*
X180320839Y-134743914D02*
X180368458Y-134934390D01*
X180368458Y-134934390D02*
X180368458Y-135315342D01*
X180368458Y-135315342D02*
X180320839Y-135410580D01*
X180320839Y-135410580D02*
X180273220Y-135458200D01*
X180273220Y-135458200D02*
X180177982Y-135505819D01*
X180177982Y-135505819D02*
X179987506Y-135505819D01*
X179987506Y-135505819D02*
X179892268Y-135458200D01*
X179892268Y-135458200D02*
X179844649Y-135410580D01*
X179844649Y-135410580D02*
X179797030Y-135315342D01*
X179797030Y-135315342D02*
X179797030Y-135077247D01*
X179797030Y-135077247D02*
X179844649Y-134982009D01*
X179844649Y-134982009D02*
X179892268Y-134934390D01*
X179892268Y-134934390D02*
X179987506Y-134886771D01*
X179987506Y-134886771D02*
X180177982Y-134886771D01*
X180177982Y-134886771D02*
X180273220Y-134934390D01*
X180273220Y-134934390D02*
X180320839Y-134982009D01*
X180320839Y-134982009D02*
X180368458Y-135077247D01*
X163477411Y-91373438D02*
X163572649Y-91325819D01*
X163572649Y-91325819D02*
X163715506Y-91325819D01*
X163715506Y-91325819D02*
X163858363Y-91373438D01*
X163858363Y-91373438D02*
X163953601Y-91468676D01*
X163953601Y-91468676D02*
X164001220Y-91563914D01*
X164001220Y-91563914D02*
X164048839Y-91754390D01*
X164048839Y-91754390D02*
X164048839Y-91897247D01*
X164048839Y-91897247D02*
X164001220Y-92087723D01*
X164001220Y-92087723D02*
X163953601Y-92182961D01*
X163953601Y-92182961D02*
X163858363Y-92278200D01*
X163858363Y-92278200D02*
X163715506Y-92325819D01*
X163715506Y-92325819D02*
X163620268Y-92325819D01*
X163620268Y-92325819D02*
X163477411Y-92278200D01*
X163477411Y-92278200D02*
X163429792Y-92230580D01*
X163429792Y-92230580D02*
X163429792Y-91897247D01*
X163429792Y-91897247D02*
X163620268Y-91897247D01*
X163001220Y-92325819D02*
X163001220Y-91325819D01*
X163001220Y-91325819D02*
X162429792Y-92325819D01*
X162429792Y-92325819D02*
X162429792Y-91325819D01*
X161953601Y-92325819D02*
X161953601Y-91325819D01*
X161953601Y-91325819D02*
X161715506Y-91325819D01*
X161715506Y-91325819D02*
X161572649Y-91373438D01*
X161572649Y-91373438D02*
X161477411Y-91468676D01*
X161477411Y-91468676D02*
X161429792Y-91563914D01*
X161429792Y-91563914D02*
X161382173Y-91754390D01*
X161382173Y-91754390D02*
X161382173Y-91897247D01*
X161382173Y-91897247D02*
X161429792Y-92087723D01*
X161429792Y-92087723D02*
X161477411Y-92182961D01*
X161477411Y-92182961D02*
X161572649Y-92278200D01*
X161572649Y-92278200D02*
X161715506Y-92325819D01*
X161715506Y-92325819D02*
X161953601Y-92325819D01*
X181368458Y-124345819D02*
X180749411Y-124345819D01*
X180749411Y-124345819D02*
X181082744Y-124726771D01*
X181082744Y-124726771D02*
X180939887Y-124726771D01*
X180939887Y-124726771D02*
X180844649Y-124774390D01*
X180844649Y-124774390D02*
X180797030Y-124822009D01*
X180797030Y-124822009D02*
X180749411Y-124917247D01*
X180749411Y-124917247D02*
X180749411Y-125155342D01*
X180749411Y-125155342D02*
X180797030Y-125250580D01*
X180797030Y-125250580D02*
X180844649Y-125298200D01*
X180844649Y-125298200D02*
X180939887Y-125345819D01*
X180939887Y-125345819D02*
X181225601Y-125345819D01*
X181225601Y-125345819D02*
X181320839Y-125298200D01*
X181320839Y-125298200D02*
X181368458Y-125250580D01*
X180130363Y-124345819D02*
X180035125Y-124345819D01*
X180035125Y-124345819D02*
X179939887Y-124393438D01*
X179939887Y-124393438D02*
X179892268Y-124441057D01*
X179892268Y-124441057D02*
X179844649Y-124536295D01*
X179844649Y-124536295D02*
X179797030Y-124726771D01*
X179797030Y-124726771D02*
X179797030Y-124964866D01*
X179797030Y-124964866D02*
X179844649Y-125155342D01*
X179844649Y-125155342D02*
X179892268Y-125250580D01*
X179892268Y-125250580D02*
X179939887Y-125298200D01*
X179939887Y-125298200D02*
X180035125Y-125345819D01*
X180035125Y-125345819D02*
X180130363Y-125345819D01*
X180130363Y-125345819D02*
X180225601Y-125298200D01*
X180225601Y-125298200D02*
X180273220Y-125250580D01*
X180273220Y-125250580D02*
X180320839Y-125155342D01*
X180320839Y-125155342D02*
X180368458Y-124964866D01*
X180368458Y-124964866D02*
X180368458Y-124726771D01*
X180368458Y-124726771D02*
X180320839Y-124536295D01*
X180320839Y-124536295D02*
X180273220Y-124441057D01*
X180273220Y-124441057D02*
X180225601Y-124393438D01*
X180225601Y-124393438D02*
X180130363Y-124345819D01*
X162842363Y-132521390D02*
X162937601Y-132473771D01*
X162937601Y-132473771D02*
X162985220Y-132426152D01*
X162985220Y-132426152D02*
X163032839Y-132330914D01*
X163032839Y-132330914D02*
X163032839Y-132283295D01*
X163032839Y-132283295D02*
X162985220Y-132188057D01*
X162985220Y-132188057D02*
X162937601Y-132140438D01*
X162937601Y-132140438D02*
X162842363Y-132092819D01*
X162842363Y-132092819D02*
X162651887Y-132092819D01*
X162651887Y-132092819D02*
X162556649Y-132140438D01*
X162556649Y-132140438D02*
X162509030Y-132188057D01*
X162509030Y-132188057D02*
X162461411Y-132283295D01*
X162461411Y-132283295D02*
X162461411Y-132330914D01*
X162461411Y-132330914D02*
X162509030Y-132426152D01*
X162509030Y-132426152D02*
X162556649Y-132473771D01*
X162556649Y-132473771D02*
X162651887Y-132521390D01*
X162651887Y-132521390D02*
X162842363Y-132521390D01*
X162842363Y-132521390D02*
X162937601Y-132569009D01*
X162937601Y-132569009D02*
X162985220Y-132616628D01*
X162985220Y-132616628D02*
X163032839Y-132711866D01*
X163032839Y-132711866D02*
X163032839Y-132902342D01*
X163032839Y-132902342D02*
X162985220Y-132997580D01*
X162985220Y-132997580D02*
X162937601Y-133045200D01*
X162937601Y-133045200D02*
X162842363Y-133092819D01*
X162842363Y-133092819D02*
X162651887Y-133092819D01*
X162651887Y-133092819D02*
X162556649Y-133045200D01*
X162556649Y-133045200D02*
X162509030Y-132997580D01*
X162509030Y-132997580D02*
X162461411Y-132902342D01*
X162461411Y-132902342D02*
X162461411Y-132711866D01*
X162461411Y-132711866D02*
X162509030Y-132616628D01*
X162509030Y-132616628D02*
X162556649Y-132569009D01*
X162556649Y-132569009D02*
X162651887Y-132521390D01*
X161509030Y-133092819D02*
X162080458Y-133092819D01*
X161794744Y-133092819D02*
X161794744Y-132092819D01*
X161794744Y-132092819D02*
X161889982Y-132235676D01*
X161889982Y-132235676D02*
X161985220Y-132330914D01*
X161985220Y-132330914D02*
X162080458Y-132378533D01*
X180844649Y-117313152D02*
X180844649Y-117979819D01*
X181082744Y-116932200D02*
X181320839Y-117646485D01*
X181320839Y-117646485D02*
X180701792Y-117646485D01*
X180130363Y-116979819D02*
X180035125Y-116979819D01*
X180035125Y-116979819D02*
X179939887Y-117027438D01*
X179939887Y-117027438D02*
X179892268Y-117075057D01*
X179892268Y-117075057D02*
X179844649Y-117170295D01*
X179844649Y-117170295D02*
X179797030Y-117360771D01*
X179797030Y-117360771D02*
X179797030Y-117598866D01*
X179797030Y-117598866D02*
X179844649Y-117789342D01*
X179844649Y-117789342D02*
X179892268Y-117884580D01*
X179892268Y-117884580D02*
X179939887Y-117932200D01*
X179939887Y-117932200D02*
X180035125Y-117979819D01*
X180035125Y-117979819D02*
X180130363Y-117979819D01*
X180130363Y-117979819D02*
X180225601Y-117932200D01*
X180225601Y-117932200D02*
X180273220Y-117884580D01*
X180273220Y-117884580D02*
X180320839Y-117789342D01*
X180320839Y-117789342D02*
X180368458Y-117598866D01*
X180368458Y-117598866D02*
X180368458Y-117360771D01*
X180368458Y-117360771D02*
X180320839Y-117170295D01*
X180320839Y-117170295D02*
X180273220Y-117075057D01*
X180273220Y-117075057D02*
X180225601Y-117027438D01*
X180225601Y-117027438D02*
X180130363Y-116979819D01*
X135791411Y-109153438D02*
X135886649Y-109105819D01*
X135886649Y-109105819D02*
X136029506Y-109105819D01*
X136029506Y-109105819D02*
X136172363Y-109153438D01*
X136172363Y-109153438D02*
X136267601Y-109248676D01*
X136267601Y-109248676D02*
X136315220Y-109343914D01*
X136315220Y-109343914D02*
X136362839Y-109534390D01*
X136362839Y-109534390D02*
X136362839Y-109677247D01*
X136362839Y-109677247D02*
X136315220Y-109867723D01*
X136315220Y-109867723D02*
X136267601Y-109962961D01*
X136267601Y-109962961D02*
X136172363Y-110058200D01*
X136172363Y-110058200D02*
X136029506Y-110105819D01*
X136029506Y-110105819D02*
X135934268Y-110105819D01*
X135934268Y-110105819D02*
X135791411Y-110058200D01*
X135791411Y-110058200D02*
X135743792Y-110010580D01*
X135743792Y-110010580D02*
X135743792Y-109677247D01*
X135743792Y-109677247D02*
X135934268Y-109677247D01*
X135315220Y-110105819D02*
X135315220Y-109105819D01*
X135315220Y-109105819D02*
X134743792Y-110105819D01*
X134743792Y-110105819D02*
X134743792Y-109105819D01*
X134267601Y-110105819D02*
X134267601Y-109105819D01*
X134267601Y-109105819D02*
X134029506Y-109105819D01*
X134029506Y-109105819D02*
X133886649Y-109153438D01*
X133886649Y-109153438D02*
X133791411Y-109248676D01*
X133791411Y-109248676D02*
X133743792Y-109343914D01*
X133743792Y-109343914D02*
X133696173Y-109534390D01*
X133696173Y-109534390D02*
X133696173Y-109677247D01*
X133696173Y-109677247D02*
X133743792Y-109867723D01*
X133743792Y-109867723D02*
X133791411Y-109962961D01*
X133791411Y-109962961D02*
X133886649Y-110058200D01*
X133886649Y-110058200D02*
X134029506Y-110105819D01*
X134029506Y-110105819D02*
X134267601Y-110105819D01*
X180797030Y-101485819D02*
X181273220Y-101485819D01*
X181273220Y-101485819D02*
X181320839Y-101962009D01*
X181320839Y-101962009D02*
X181273220Y-101914390D01*
X181273220Y-101914390D02*
X181177982Y-101866771D01*
X181177982Y-101866771D02*
X180939887Y-101866771D01*
X180939887Y-101866771D02*
X180844649Y-101914390D01*
X180844649Y-101914390D02*
X180797030Y-101962009D01*
X180797030Y-101962009D02*
X180749411Y-102057247D01*
X180749411Y-102057247D02*
X180749411Y-102295342D01*
X180749411Y-102295342D02*
X180797030Y-102390580D01*
X180797030Y-102390580D02*
X180844649Y-102438200D01*
X180844649Y-102438200D02*
X180939887Y-102485819D01*
X180939887Y-102485819D02*
X181177982Y-102485819D01*
X181177982Y-102485819D02*
X181273220Y-102438200D01*
X181273220Y-102438200D02*
X181320839Y-102390580D01*
X179892268Y-101819152D02*
X179892268Y-102485819D01*
X180130363Y-101438200D02*
X180368458Y-102152485D01*
X180368458Y-102152485D02*
X179749411Y-102152485D01*
X180844649Y-88785819D02*
X181035125Y-88785819D01*
X181035125Y-88785819D02*
X181130363Y-88833438D01*
X181130363Y-88833438D02*
X181177982Y-88881057D01*
X181177982Y-88881057D02*
X181273220Y-89023914D01*
X181273220Y-89023914D02*
X181320839Y-89214390D01*
X181320839Y-89214390D02*
X181320839Y-89595342D01*
X181320839Y-89595342D02*
X181273220Y-89690580D01*
X181273220Y-89690580D02*
X181225601Y-89738200D01*
X181225601Y-89738200D02*
X181130363Y-89785819D01*
X181130363Y-89785819D02*
X180939887Y-89785819D01*
X180939887Y-89785819D02*
X180844649Y-89738200D01*
X180844649Y-89738200D02*
X180797030Y-89690580D01*
X180797030Y-89690580D02*
X180749411Y-89595342D01*
X180749411Y-89595342D02*
X180749411Y-89357247D01*
X180749411Y-89357247D02*
X180797030Y-89262009D01*
X180797030Y-89262009D02*
X180844649Y-89214390D01*
X180844649Y-89214390D02*
X180939887Y-89166771D01*
X180939887Y-89166771D02*
X181130363Y-89166771D01*
X181130363Y-89166771D02*
X181225601Y-89214390D01*
X181225601Y-89214390D02*
X181273220Y-89262009D01*
X181273220Y-89262009D02*
X181320839Y-89357247D01*
X180273220Y-89785819D02*
X180082744Y-89785819D01*
X180082744Y-89785819D02*
X179987506Y-89738200D01*
X179987506Y-89738200D02*
X179939887Y-89690580D01*
X179939887Y-89690580D02*
X179844649Y-89547723D01*
X179844649Y-89547723D02*
X179797030Y-89357247D01*
X179797030Y-89357247D02*
X179797030Y-88976295D01*
X179797030Y-88976295D02*
X179844649Y-88881057D01*
X179844649Y-88881057D02*
X179892268Y-88833438D01*
X179892268Y-88833438D02*
X179987506Y-88785819D01*
X179987506Y-88785819D02*
X180177982Y-88785819D01*
X180177982Y-88785819D02*
X180273220Y-88833438D01*
X180273220Y-88833438D02*
X180320839Y-88881057D01*
X180320839Y-88881057D02*
X180368458Y-88976295D01*
X180368458Y-88976295D02*
X180368458Y-89214390D01*
X180368458Y-89214390D02*
X180320839Y-89309628D01*
X180320839Y-89309628D02*
X180273220Y-89357247D01*
X180273220Y-89357247D02*
X180177982Y-89404866D01*
X180177982Y-89404866D02*
X179987506Y-89404866D01*
X179987506Y-89404866D02*
X179892268Y-89357247D01*
X179892268Y-89357247D02*
X179844649Y-89309628D01*
X179844649Y-89309628D02*
X179797030Y-89214390D01*
X178654173Y-88738200D02*
X179511315Y-90023914D01*
X178320839Y-89785819D02*
X178320839Y-88785819D01*
X178320839Y-88785819D02*
X178082744Y-88785819D01*
X178082744Y-88785819D02*
X177939887Y-88833438D01*
X177939887Y-88833438D02*
X177844649Y-88928676D01*
X177844649Y-88928676D02*
X177797030Y-89023914D01*
X177797030Y-89023914D02*
X177749411Y-89214390D01*
X177749411Y-89214390D02*
X177749411Y-89357247D01*
X177749411Y-89357247D02*
X177797030Y-89547723D01*
X177797030Y-89547723D02*
X177844649Y-89642961D01*
X177844649Y-89642961D02*
X177939887Y-89738200D01*
X177939887Y-89738200D02*
X178082744Y-89785819D01*
X178082744Y-89785819D02*
X178320839Y-89785819D01*
X177320839Y-89785819D02*
X177320839Y-88785819D01*
X176273221Y-89785819D02*
X176606554Y-89309628D01*
X176844649Y-89785819D02*
X176844649Y-88785819D01*
X176844649Y-88785819D02*
X176463697Y-88785819D01*
X176463697Y-88785819D02*
X176368459Y-88833438D01*
X176368459Y-88833438D02*
X176320840Y-88881057D01*
X176320840Y-88881057D02*
X176273221Y-88976295D01*
X176273221Y-88976295D02*
X176273221Y-89119152D01*
X176273221Y-89119152D02*
X176320840Y-89214390D01*
X176320840Y-89214390D02*
X176368459Y-89262009D01*
X176368459Y-89262009D02*
X176463697Y-89309628D01*
X176463697Y-89309628D02*
X176844649Y-89309628D01*
X175844649Y-89262009D02*
X175511316Y-89262009D01*
X175368459Y-89785819D02*
X175844649Y-89785819D01*
X175844649Y-89785819D02*
X175844649Y-88785819D01*
X175844649Y-88785819D02*
X175368459Y-88785819D01*
X174368459Y-89690580D02*
X174416078Y-89738200D01*
X174416078Y-89738200D02*
X174558935Y-89785819D01*
X174558935Y-89785819D02*
X174654173Y-89785819D01*
X174654173Y-89785819D02*
X174797030Y-89738200D01*
X174797030Y-89738200D02*
X174892268Y-89642961D01*
X174892268Y-89642961D02*
X174939887Y-89547723D01*
X174939887Y-89547723D02*
X174987506Y-89357247D01*
X174987506Y-89357247D02*
X174987506Y-89214390D01*
X174987506Y-89214390D02*
X174939887Y-89023914D01*
X174939887Y-89023914D02*
X174892268Y-88928676D01*
X174892268Y-88928676D02*
X174797030Y-88833438D01*
X174797030Y-88833438D02*
X174654173Y-88785819D01*
X174654173Y-88785819D02*
X174558935Y-88785819D01*
X174558935Y-88785819D02*
X174416078Y-88833438D01*
X174416078Y-88833438D02*
X174368459Y-88881057D01*
X174082744Y-88785819D02*
X173511316Y-88785819D01*
X173797030Y-89785819D02*
X173797030Y-88785819D01*
X173177982Y-89785819D02*
X173177982Y-88785819D01*
X172511316Y-88785819D02*
X172320840Y-88785819D01*
X172320840Y-88785819D02*
X172225602Y-88833438D01*
X172225602Y-88833438D02*
X172130364Y-88928676D01*
X172130364Y-88928676D02*
X172082745Y-89119152D01*
X172082745Y-89119152D02*
X172082745Y-89452485D01*
X172082745Y-89452485D02*
X172130364Y-89642961D01*
X172130364Y-89642961D02*
X172225602Y-89738200D01*
X172225602Y-89738200D02*
X172320840Y-89785819D01*
X172320840Y-89785819D02*
X172511316Y-89785819D01*
X172511316Y-89785819D02*
X172606554Y-89738200D01*
X172606554Y-89738200D02*
X172701792Y-89642961D01*
X172701792Y-89642961D02*
X172749411Y-89452485D01*
X172749411Y-89452485D02*
X172749411Y-89119152D01*
X172749411Y-89119152D02*
X172701792Y-88928676D01*
X172701792Y-88928676D02*
X172606554Y-88833438D01*
X172606554Y-88833438D02*
X172511316Y-88785819D01*
X171654173Y-89785819D02*
X171654173Y-88785819D01*
X171654173Y-88785819D02*
X171082745Y-89785819D01*
X171082745Y-89785819D02*
X171082745Y-88785819D01*
X181320839Y-137141057D02*
X181273220Y-137093438D01*
X181273220Y-137093438D02*
X181177982Y-137045819D01*
X181177982Y-137045819D02*
X180939887Y-137045819D01*
X180939887Y-137045819D02*
X180844649Y-137093438D01*
X180844649Y-137093438D02*
X180797030Y-137141057D01*
X180797030Y-137141057D02*
X180749411Y-137236295D01*
X180749411Y-137236295D02*
X180749411Y-137331533D01*
X180749411Y-137331533D02*
X180797030Y-137474390D01*
X180797030Y-137474390D02*
X181368458Y-138045819D01*
X181368458Y-138045819D02*
X180749411Y-138045819D01*
X179844649Y-137045819D02*
X180320839Y-137045819D01*
X180320839Y-137045819D02*
X180368458Y-137522009D01*
X180368458Y-137522009D02*
X180320839Y-137474390D01*
X180320839Y-137474390D02*
X180225601Y-137426771D01*
X180225601Y-137426771D02*
X179987506Y-137426771D01*
X179987506Y-137426771D02*
X179892268Y-137474390D01*
X179892268Y-137474390D02*
X179844649Y-137522009D01*
X179844649Y-137522009D02*
X179797030Y-137617247D01*
X179797030Y-137617247D02*
X179797030Y-137855342D01*
X179797030Y-137855342D02*
X179844649Y-137950580D01*
X179844649Y-137950580D02*
X179892268Y-137998200D01*
X179892268Y-137998200D02*
X179987506Y-138045819D01*
X179987506Y-138045819D02*
X180225601Y-138045819D01*
X180225601Y-138045819D02*
X180320839Y-137998200D01*
X180320839Y-137998200D02*
X180368458Y-137950580D01*
X180844649Y-91325819D02*
X181035125Y-91325819D01*
X181035125Y-91325819D02*
X181130363Y-91373438D01*
X181130363Y-91373438D02*
X181177982Y-91421057D01*
X181177982Y-91421057D02*
X181273220Y-91563914D01*
X181273220Y-91563914D02*
X181320839Y-91754390D01*
X181320839Y-91754390D02*
X181320839Y-92135342D01*
X181320839Y-92135342D02*
X181273220Y-92230580D01*
X181273220Y-92230580D02*
X181225601Y-92278200D01*
X181225601Y-92278200D02*
X181130363Y-92325819D01*
X181130363Y-92325819D02*
X180939887Y-92325819D01*
X180939887Y-92325819D02*
X180844649Y-92278200D01*
X180844649Y-92278200D02*
X180797030Y-92230580D01*
X180797030Y-92230580D02*
X180749411Y-92135342D01*
X180749411Y-92135342D02*
X180749411Y-91897247D01*
X180749411Y-91897247D02*
X180797030Y-91802009D01*
X180797030Y-91802009D02*
X180844649Y-91754390D01*
X180844649Y-91754390D02*
X180939887Y-91706771D01*
X180939887Y-91706771D02*
X181130363Y-91706771D01*
X181130363Y-91706771D02*
X181225601Y-91754390D01*
X181225601Y-91754390D02*
X181273220Y-91802009D01*
X181273220Y-91802009D02*
X181320839Y-91897247D01*
X180177982Y-91754390D02*
X180273220Y-91706771D01*
X180273220Y-91706771D02*
X180320839Y-91659152D01*
X180320839Y-91659152D02*
X180368458Y-91563914D01*
X180368458Y-91563914D02*
X180368458Y-91516295D01*
X180368458Y-91516295D02*
X180320839Y-91421057D01*
X180320839Y-91421057D02*
X180273220Y-91373438D01*
X180273220Y-91373438D02*
X180177982Y-91325819D01*
X180177982Y-91325819D02*
X179987506Y-91325819D01*
X179987506Y-91325819D02*
X179892268Y-91373438D01*
X179892268Y-91373438D02*
X179844649Y-91421057D01*
X179844649Y-91421057D02*
X179797030Y-91516295D01*
X179797030Y-91516295D02*
X179797030Y-91563914D01*
X179797030Y-91563914D02*
X179844649Y-91659152D01*
X179844649Y-91659152D02*
X179892268Y-91706771D01*
X179892268Y-91706771D02*
X179987506Y-91754390D01*
X179987506Y-91754390D02*
X180177982Y-91754390D01*
X180177982Y-91754390D02*
X180273220Y-91802009D01*
X180273220Y-91802009D02*
X180320839Y-91849628D01*
X180320839Y-91849628D02*
X180368458Y-91944866D01*
X180368458Y-91944866D02*
X180368458Y-92135342D01*
X180368458Y-92135342D02*
X180320839Y-92230580D01*
X180320839Y-92230580D02*
X180273220Y-92278200D01*
X180273220Y-92278200D02*
X180177982Y-92325819D01*
X180177982Y-92325819D02*
X179987506Y-92325819D01*
X179987506Y-92325819D02*
X179892268Y-92278200D01*
X179892268Y-92278200D02*
X179844649Y-92230580D01*
X179844649Y-92230580D02*
X179797030Y-92135342D01*
X179797030Y-92135342D02*
X179797030Y-91944866D01*
X179797030Y-91944866D02*
X179844649Y-91849628D01*
X179844649Y-91849628D02*
X179892268Y-91802009D01*
X179892268Y-91802009D02*
X179987506Y-91754390D01*
X178654173Y-91278200D02*
X179511315Y-92563914D01*
X178320839Y-92325819D02*
X178320839Y-91325819D01*
X178320839Y-91325819D02*
X178082744Y-91325819D01*
X178082744Y-91325819D02*
X177939887Y-91373438D01*
X177939887Y-91373438D02*
X177844649Y-91468676D01*
X177844649Y-91468676D02*
X177797030Y-91563914D01*
X177797030Y-91563914D02*
X177749411Y-91754390D01*
X177749411Y-91754390D02*
X177749411Y-91897247D01*
X177749411Y-91897247D02*
X177797030Y-92087723D01*
X177797030Y-92087723D02*
X177844649Y-92182961D01*
X177844649Y-92182961D02*
X177939887Y-92278200D01*
X177939887Y-92278200D02*
X178082744Y-92325819D01*
X178082744Y-92325819D02*
X178320839Y-92325819D01*
X177558935Y-92421057D02*
X176797030Y-92421057D01*
X176558934Y-92325819D02*
X176558934Y-91325819D01*
X176082744Y-92325819D02*
X176082744Y-91325819D01*
X176082744Y-91325819D02*
X175511316Y-92325819D01*
X175511316Y-92325819D02*
X175511316Y-91325819D01*
X163080458Y-127012819D02*
X162413792Y-127012819D01*
X162413792Y-127012819D02*
X162842363Y-128012819D01*
X161985220Y-128012819D02*
X161794744Y-128012819D01*
X161794744Y-128012819D02*
X161699506Y-127965200D01*
X161699506Y-127965200D02*
X161651887Y-127917580D01*
X161651887Y-127917580D02*
X161556649Y-127774723D01*
X161556649Y-127774723D02*
X161509030Y-127584247D01*
X161509030Y-127584247D02*
X161509030Y-127203295D01*
X161509030Y-127203295D02*
X161556649Y-127108057D01*
X161556649Y-127108057D02*
X161604268Y-127060438D01*
X161604268Y-127060438D02*
X161699506Y-127012819D01*
X161699506Y-127012819D02*
X161889982Y-127012819D01*
X161889982Y-127012819D02*
X161985220Y-127060438D01*
X161985220Y-127060438D02*
X162032839Y-127108057D01*
X162032839Y-127108057D02*
X162080458Y-127203295D01*
X162080458Y-127203295D02*
X162080458Y-127441390D01*
X162080458Y-127441390D02*
X162032839Y-127536628D01*
X162032839Y-127536628D02*
X161985220Y-127584247D01*
X161985220Y-127584247D02*
X161889982Y-127631866D01*
X161889982Y-127631866D02*
X161699506Y-127631866D01*
X161699506Y-127631866D02*
X161604268Y-127584247D01*
X161604268Y-127584247D02*
X161556649Y-127536628D01*
X161556649Y-127536628D02*
X161509030Y-127441390D01*
X163842458Y-88785819D02*
X163223411Y-88785819D01*
X163223411Y-88785819D02*
X163556744Y-89166771D01*
X163556744Y-89166771D02*
X163413887Y-89166771D01*
X163413887Y-89166771D02*
X163318649Y-89214390D01*
X163318649Y-89214390D02*
X163271030Y-89262009D01*
X163271030Y-89262009D02*
X163223411Y-89357247D01*
X163223411Y-89357247D02*
X163223411Y-89595342D01*
X163223411Y-89595342D02*
X163271030Y-89690580D01*
X163271030Y-89690580D02*
X163318649Y-89738200D01*
X163318649Y-89738200D02*
X163413887Y-89785819D01*
X163413887Y-89785819D02*
X163699601Y-89785819D01*
X163699601Y-89785819D02*
X163794839Y-89738200D01*
X163794839Y-89738200D02*
X163842458Y-89690580D01*
X162937696Y-88785819D02*
X162604363Y-89785819D01*
X162604363Y-89785819D02*
X162271030Y-88785819D01*
X162032934Y-88785819D02*
X161413887Y-88785819D01*
X161413887Y-88785819D02*
X161747220Y-89166771D01*
X161747220Y-89166771D02*
X161604363Y-89166771D01*
X161604363Y-89166771D02*
X161509125Y-89214390D01*
X161509125Y-89214390D02*
X161461506Y-89262009D01*
X161461506Y-89262009D02*
X161413887Y-89357247D01*
X161413887Y-89357247D02*
X161413887Y-89595342D01*
X161413887Y-89595342D02*
X161461506Y-89690580D01*
X161461506Y-89690580D02*
X161509125Y-89738200D01*
X161509125Y-89738200D02*
X161604363Y-89785819D01*
X161604363Y-89785819D02*
X161890077Y-89785819D01*
X161890077Y-89785819D02*
X161985315Y-89738200D01*
X161985315Y-89738200D02*
X162032934Y-89690580D01*
X127155411Y-109153438D02*
X127250649Y-109105819D01*
X127250649Y-109105819D02*
X127393506Y-109105819D01*
X127393506Y-109105819D02*
X127536363Y-109153438D01*
X127536363Y-109153438D02*
X127631601Y-109248676D01*
X127631601Y-109248676D02*
X127679220Y-109343914D01*
X127679220Y-109343914D02*
X127726839Y-109534390D01*
X127726839Y-109534390D02*
X127726839Y-109677247D01*
X127726839Y-109677247D02*
X127679220Y-109867723D01*
X127679220Y-109867723D02*
X127631601Y-109962961D01*
X127631601Y-109962961D02*
X127536363Y-110058200D01*
X127536363Y-110058200D02*
X127393506Y-110105819D01*
X127393506Y-110105819D02*
X127298268Y-110105819D01*
X127298268Y-110105819D02*
X127155411Y-110058200D01*
X127155411Y-110058200D02*
X127107792Y-110010580D01*
X127107792Y-110010580D02*
X127107792Y-109677247D01*
X127107792Y-109677247D02*
X127298268Y-109677247D01*
X126679220Y-110105819D02*
X126679220Y-109105819D01*
X126679220Y-109105819D02*
X126107792Y-110105819D01*
X126107792Y-110105819D02*
X126107792Y-109105819D01*
X125631601Y-110105819D02*
X125631601Y-109105819D01*
X125631601Y-109105819D02*
X125393506Y-109105819D01*
X125393506Y-109105819D02*
X125250649Y-109153438D01*
X125250649Y-109153438D02*
X125155411Y-109248676D01*
X125155411Y-109248676D02*
X125107792Y-109343914D01*
X125107792Y-109343914D02*
X125060173Y-109534390D01*
X125060173Y-109534390D02*
X125060173Y-109677247D01*
X125060173Y-109677247D02*
X125107792Y-109867723D01*
X125107792Y-109867723D02*
X125155411Y-109962961D01*
X125155411Y-109962961D02*
X125250649Y-110058200D01*
X125250649Y-110058200D02*
X125393506Y-110105819D01*
X125393506Y-110105819D02*
X125631601Y-110105819D01*
X188115411Y-96453438D02*
X188210649Y-96405819D01*
X188210649Y-96405819D02*
X188353506Y-96405819D01*
X188353506Y-96405819D02*
X188496363Y-96453438D01*
X188496363Y-96453438D02*
X188591601Y-96548676D01*
X188591601Y-96548676D02*
X188639220Y-96643914D01*
X188639220Y-96643914D02*
X188686839Y-96834390D01*
X188686839Y-96834390D02*
X188686839Y-96977247D01*
X188686839Y-96977247D02*
X188639220Y-97167723D01*
X188639220Y-97167723D02*
X188591601Y-97262961D01*
X188591601Y-97262961D02*
X188496363Y-97358200D01*
X188496363Y-97358200D02*
X188353506Y-97405819D01*
X188353506Y-97405819D02*
X188258268Y-97405819D01*
X188258268Y-97405819D02*
X188115411Y-97358200D01*
X188115411Y-97358200D02*
X188067792Y-97310580D01*
X188067792Y-97310580D02*
X188067792Y-96977247D01*
X188067792Y-96977247D02*
X188258268Y-96977247D01*
X187639220Y-97405819D02*
X187639220Y-96405819D01*
X187639220Y-96405819D02*
X187067792Y-97405819D01*
X187067792Y-97405819D02*
X187067792Y-96405819D01*
X186591601Y-97405819D02*
X186591601Y-96405819D01*
X186591601Y-96405819D02*
X186353506Y-96405819D01*
X186353506Y-96405819D02*
X186210649Y-96453438D01*
X186210649Y-96453438D02*
X186115411Y-96548676D01*
X186115411Y-96548676D02*
X186067792Y-96643914D01*
X186067792Y-96643914D02*
X186020173Y-96834390D01*
X186020173Y-96834390D02*
X186020173Y-96977247D01*
X186020173Y-96977247D02*
X186067792Y-97167723D01*
X186067792Y-97167723D02*
X186115411Y-97262961D01*
X186115411Y-97262961D02*
X186210649Y-97358200D01*
X186210649Y-97358200D02*
X186353506Y-97405819D01*
X186353506Y-97405819D02*
X186591601Y-97405819D01*
X181368458Y-114185819D02*
X180749411Y-114185819D01*
X180749411Y-114185819D02*
X181082744Y-114566771D01*
X181082744Y-114566771D02*
X180939887Y-114566771D01*
X180939887Y-114566771D02*
X180844649Y-114614390D01*
X180844649Y-114614390D02*
X180797030Y-114662009D01*
X180797030Y-114662009D02*
X180749411Y-114757247D01*
X180749411Y-114757247D02*
X180749411Y-114995342D01*
X180749411Y-114995342D02*
X180797030Y-115090580D01*
X180797030Y-115090580D02*
X180844649Y-115138200D01*
X180844649Y-115138200D02*
X180939887Y-115185819D01*
X180939887Y-115185819D02*
X181225601Y-115185819D01*
X181225601Y-115185819D02*
X181320839Y-115138200D01*
X181320839Y-115138200D02*
X181368458Y-115090580D01*
X179844649Y-114185819D02*
X180320839Y-114185819D01*
X180320839Y-114185819D02*
X180368458Y-114662009D01*
X180368458Y-114662009D02*
X180320839Y-114614390D01*
X180320839Y-114614390D02*
X180225601Y-114566771D01*
X180225601Y-114566771D02*
X179987506Y-114566771D01*
X179987506Y-114566771D02*
X179892268Y-114614390D01*
X179892268Y-114614390D02*
X179844649Y-114662009D01*
X179844649Y-114662009D02*
X179797030Y-114757247D01*
X179797030Y-114757247D02*
X179797030Y-114995342D01*
X179797030Y-114995342D02*
X179844649Y-115090580D01*
X179844649Y-115090580D02*
X179892268Y-115138200D01*
X179892268Y-115138200D02*
X179987506Y-115185819D01*
X179987506Y-115185819D02*
X180225601Y-115185819D01*
X180225601Y-115185819D02*
X180320839Y-115138200D01*
X180320839Y-115138200D02*
X180368458Y-115090580D01*
X196751411Y-124393438D02*
X196846649Y-124345819D01*
X196846649Y-124345819D02*
X196989506Y-124345819D01*
X196989506Y-124345819D02*
X197132363Y-124393438D01*
X197132363Y-124393438D02*
X197227601Y-124488676D01*
X197227601Y-124488676D02*
X197275220Y-124583914D01*
X197275220Y-124583914D02*
X197322839Y-124774390D01*
X197322839Y-124774390D02*
X197322839Y-124917247D01*
X197322839Y-124917247D02*
X197275220Y-125107723D01*
X197275220Y-125107723D02*
X197227601Y-125202961D01*
X197227601Y-125202961D02*
X197132363Y-125298200D01*
X197132363Y-125298200D02*
X196989506Y-125345819D01*
X196989506Y-125345819D02*
X196894268Y-125345819D01*
X196894268Y-125345819D02*
X196751411Y-125298200D01*
X196751411Y-125298200D02*
X196703792Y-125250580D01*
X196703792Y-125250580D02*
X196703792Y-124917247D01*
X196703792Y-124917247D02*
X196894268Y-124917247D01*
X196275220Y-125345819D02*
X196275220Y-124345819D01*
X196275220Y-124345819D02*
X195703792Y-125345819D01*
X195703792Y-125345819D02*
X195703792Y-124345819D01*
X195227601Y-125345819D02*
X195227601Y-124345819D01*
X195227601Y-124345819D02*
X194989506Y-124345819D01*
X194989506Y-124345819D02*
X194846649Y-124393438D01*
X194846649Y-124393438D02*
X194751411Y-124488676D01*
X194751411Y-124488676D02*
X194703792Y-124583914D01*
X194703792Y-124583914D02*
X194656173Y-124774390D01*
X194656173Y-124774390D02*
X194656173Y-124917247D01*
X194656173Y-124917247D02*
X194703792Y-125107723D01*
X194703792Y-125107723D02*
X194751411Y-125202961D01*
X194751411Y-125202961D02*
X194846649Y-125298200D01*
X194846649Y-125298200D02*
X194989506Y-125345819D01*
X194989506Y-125345819D02*
X195227601Y-125345819D01*
X180844649Y-111979152D02*
X180844649Y-112645819D01*
X181082744Y-111598200D02*
X181320839Y-112312485D01*
X181320839Y-112312485D02*
X180701792Y-112312485D01*
X179797030Y-112645819D02*
X180368458Y-112645819D01*
X180082744Y-112645819D02*
X180082744Y-111645819D01*
X180082744Y-111645819D02*
X180177982Y-111788676D01*
X180177982Y-111788676D02*
X180273220Y-111883914D01*
X180273220Y-111883914D02*
X180368458Y-111931533D01*
X178654173Y-111598200D02*
X179511315Y-112883914D01*
X178320839Y-112645819D02*
X178320839Y-111645819D01*
X178320839Y-112122009D02*
X177749411Y-112122009D01*
X177749411Y-112645819D02*
X177749411Y-111645819D01*
X177511316Y-112741057D02*
X176749411Y-112741057D01*
X176654172Y-111645819D02*
X176320839Y-112645819D01*
X176320839Y-112645819D02*
X175987506Y-111645819D01*
X162842363Y-140268390D02*
X162937601Y-140220771D01*
X162937601Y-140220771D02*
X162985220Y-140173152D01*
X162985220Y-140173152D02*
X163032839Y-140077914D01*
X163032839Y-140077914D02*
X163032839Y-140030295D01*
X163032839Y-140030295D02*
X162985220Y-139935057D01*
X162985220Y-139935057D02*
X162937601Y-139887438D01*
X162937601Y-139887438D02*
X162842363Y-139839819D01*
X162842363Y-139839819D02*
X162651887Y-139839819D01*
X162651887Y-139839819D02*
X162556649Y-139887438D01*
X162556649Y-139887438D02*
X162509030Y-139935057D01*
X162509030Y-139935057D02*
X162461411Y-140030295D01*
X162461411Y-140030295D02*
X162461411Y-140077914D01*
X162461411Y-140077914D02*
X162509030Y-140173152D01*
X162509030Y-140173152D02*
X162556649Y-140220771D01*
X162556649Y-140220771D02*
X162651887Y-140268390D01*
X162651887Y-140268390D02*
X162842363Y-140268390D01*
X162842363Y-140268390D02*
X162937601Y-140316009D01*
X162937601Y-140316009D02*
X162985220Y-140363628D01*
X162985220Y-140363628D02*
X163032839Y-140458866D01*
X163032839Y-140458866D02*
X163032839Y-140649342D01*
X163032839Y-140649342D02*
X162985220Y-140744580D01*
X162985220Y-140744580D02*
X162937601Y-140792200D01*
X162937601Y-140792200D02*
X162842363Y-140839819D01*
X162842363Y-140839819D02*
X162651887Y-140839819D01*
X162651887Y-140839819D02*
X162556649Y-140792200D01*
X162556649Y-140792200D02*
X162509030Y-140744580D01*
X162509030Y-140744580D02*
X162461411Y-140649342D01*
X162461411Y-140649342D02*
X162461411Y-140458866D01*
X162461411Y-140458866D02*
X162509030Y-140363628D01*
X162509030Y-140363628D02*
X162556649Y-140316009D01*
X162556649Y-140316009D02*
X162651887Y-140268390D01*
X161604268Y-140173152D02*
X161604268Y-140839819D01*
X161842363Y-139792200D02*
X162080458Y-140506485D01*
X162080458Y-140506485D02*
X161461411Y-140506485D01*
X127726839Y-130140104D02*
X127250649Y-130140104D01*
X127822077Y-130425819D02*
X127488744Y-129425819D01*
X127488744Y-129425819D02*
X127155411Y-130425819D01*
X126250649Y-130330580D02*
X126298268Y-130378200D01*
X126298268Y-130378200D02*
X126441125Y-130425819D01*
X126441125Y-130425819D02*
X126536363Y-130425819D01*
X126536363Y-130425819D02*
X126679220Y-130378200D01*
X126679220Y-130378200D02*
X126774458Y-130282961D01*
X126774458Y-130282961D02*
X126822077Y-130187723D01*
X126822077Y-130187723D02*
X126869696Y-129997247D01*
X126869696Y-129997247D02*
X126869696Y-129854390D01*
X126869696Y-129854390D02*
X126822077Y-129663914D01*
X126822077Y-129663914D02*
X126774458Y-129568676D01*
X126774458Y-129568676D02*
X126679220Y-129473438D01*
X126679220Y-129473438D02*
X126536363Y-129425819D01*
X126536363Y-129425819D02*
X126441125Y-129425819D01*
X126441125Y-129425819D02*
X126298268Y-129473438D01*
X126298268Y-129473438D02*
X126250649Y-129521057D01*
X125250649Y-130330580D02*
X125298268Y-130378200D01*
X125298268Y-130378200D02*
X125441125Y-130425819D01*
X125441125Y-130425819D02*
X125536363Y-130425819D01*
X125536363Y-130425819D02*
X125679220Y-130378200D01*
X125679220Y-130378200D02*
X125774458Y-130282961D01*
X125774458Y-130282961D02*
X125822077Y-130187723D01*
X125822077Y-130187723D02*
X125869696Y-129997247D01*
X125869696Y-129997247D02*
X125869696Y-129854390D01*
X125869696Y-129854390D02*
X125822077Y-129663914D01*
X125822077Y-129663914D02*
X125774458Y-129568676D01*
X125774458Y-129568676D02*
X125679220Y-129473438D01*
X125679220Y-129473438D02*
X125536363Y-129425819D01*
X125536363Y-129425819D02*
X125441125Y-129425819D01*
X125441125Y-129425819D02*
X125298268Y-129473438D01*
X125298268Y-129473438D02*
X125250649Y-129521057D01*
X124822077Y-129902009D02*
X124488744Y-129902009D01*
X124345887Y-130425819D02*
X124822077Y-130425819D01*
X124822077Y-130425819D02*
X124822077Y-129425819D01*
X124822077Y-129425819D02*
X124345887Y-129425819D01*
X123441125Y-130425819D02*
X123917315Y-130425819D01*
X123917315Y-130425819D02*
X123917315Y-129425819D01*
X163080458Y-121805819D02*
X162413792Y-121805819D01*
X162413792Y-121805819D02*
X162842363Y-122805819D01*
X161604268Y-121805819D02*
X161794744Y-121805819D01*
X161794744Y-121805819D02*
X161889982Y-121853438D01*
X161889982Y-121853438D02*
X161937601Y-121901057D01*
X161937601Y-121901057D02*
X162032839Y-122043914D01*
X162032839Y-122043914D02*
X162080458Y-122234390D01*
X162080458Y-122234390D02*
X162080458Y-122615342D01*
X162080458Y-122615342D02*
X162032839Y-122710580D01*
X162032839Y-122710580D02*
X161985220Y-122758200D01*
X161985220Y-122758200D02*
X161889982Y-122805819D01*
X161889982Y-122805819D02*
X161699506Y-122805819D01*
X161699506Y-122805819D02*
X161604268Y-122758200D01*
X161604268Y-122758200D02*
X161556649Y-122710580D01*
X161556649Y-122710580D02*
X161509030Y-122615342D01*
X161509030Y-122615342D02*
X161509030Y-122377247D01*
X161509030Y-122377247D02*
X161556649Y-122282009D01*
X161556649Y-122282009D02*
X161604268Y-122234390D01*
X161604268Y-122234390D02*
X161699506Y-122186771D01*
X161699506Y-122186771D02*
X161889982Y-122186771D01*
X161889982Y-122186771D02*
X161985220Y-122234390D01*
X161985220Y-122234390D02*
X162032839Y-122282009D01*
X162032839Y-122282009D02*
X162080458Y-122377247D01*
X163080458Y-124345819D02*
X162413792Y-124345819D01*
X162413792Y-124345819D02*
X162842363Y-125345819D01*
X162128077Y-124345819D02*
X161461411Y-124345819D01*
X161461411Y-124345819D02*
X161889982Y-125345819D01*
X181368458Y-139712819D02*
X180749411Y-139712819D01*
X180749411Y-139712819D02*
X181082744Y-140093771D01*
X181082744Y-140093771D02*
X180939887Y-140093771D01*
X180939887Y-140093771D02*
X180844649Y-140141390D01*
X180844649Y-140141390D02*
X180797030Y-140189009D01*
X180797030Y-140189009D02*
X180749411Y-140284247D01*
X180749411Y-140284247D02*
X180749411Y-140522342D01*
X180749411Y-140522342D02*
X180797030Y-140617580D01*
X180797030Y-140617580D02*
X180844649Y-140665200D01*
X180844649Y-140665200D02*
X180939887Y-140712819D01*
X180939887Y-140712819D02*
X181225601Y-140712819D01*
X181225601Y-140712819D02*
X181320839Y-140665200D01*
X181320839Y-140665200D02*
X181368458Y-140617580D01*
X180273220Y-140712819D02*
X180082744Y-140712819D01*
X180082744Y-140712819D02*
X179987506Y-140665200D01*
X179987506Y-140665200D02*
X179939887Y-140617580D01*
X179939887Y-140617580D02*
X179844649Y-140474723D01*
X179844649Y-140474723D02*
X179797030Y-140284247D01*
X179797030Y-140284247D02*
X179797030Y-139903295D01*
X179797030Y-139903295D02*
X179844649Y-139808057D01*
X179844649Y-139808057D02*
X179892268Y-139760438D01*
X179892268Y-139760438D02*
X179987506Y-139712819D01*
X179987506Y-139712819D02*
X180177982Y-139712819D01*
X180177982Y-139712819D02*
X180273220Y-139760438D01*
X180273220Y-139760438D02*
X180320839Y-139808057D01*
X180320839Y-139808057D02*
X180368458Y-139903295D01*
X180368458Y-139903295D02*
X180368458Y-140141390D01*
X180368458Y-140141390D02*
X180320839Y-140236628D01*
X180320839Y-140236628D02*
X180273220Y-140284247D01*
X180273220Y-140284247D02*
X180177982Y-140331866D01*
X180177982Y-140331866D02*
X179987506Y-140331866D01*
X179987506Y-140331866D02*
X179892268Y-140284247D01*
X179892268Y-140284247D02*
X179844649Y-140236628D01*
X179844649Y-140236628D02*
X179797030Y-140141390D01*
X163080458Y-106565819D02*
X162413792Y-106565819D01*
X162413792Y-106565819D02*
X162842363Y-107565819D01*
X161842363Y-106565819D02*
X161747125Y-106565819D01*
X161747125Y-106565819D02*
X161651887Y-106613438D01*
X161651887Y-106613438D02*
X161604268Y-106661057D01*
X161604268Y-106661057D02*
X161556649Y-106756295D01*
X161556649Y-106756295D02*
X161509030Y-106946771D01*
X161509030Y-106946771D02*
X161509030Y-107184866D01*
X161509030Y-107184866D02*
X161556649Y-107375342D01*
X161556649Y-107375342D02*
X161604268Y-107470580D01*
X161604268Y-107470580D02*
X161651887Y-107518200D01*
X161651887Y-107518200D02*
X161747125Y-107565819D01*
X161747125Y-107565819D02*
X161842363Y-107565819D01*
X161842363Y-107565819D02*
X161937601Y-107518200D01*
X161937601Y-107518200D02*
X161985220Y-107470580D01*
X161985220Y-107470580D02*
X162032839Y-107375342D01*
X162032839Y-107375342D02*
X162080458Y-107184866D01*
X162080458Y-107184866D02*
X162080458Y-106946771D01*
X162080458Y-106946771D02*
X162032839Y-106756295D01*
X162032839Y-106756295D02*
X161985220Y-106661057D01*
X161985220Y-106661057D02*
X161937601Y-106613438D01*
X161937601Y-106613438D02*
X161842363Y-106565819D01*
X180797030Y-96405819D02*
X181273220Y-96405819D01*
X181273220Y-96405819D02*
X181320839Y-96882009D01*
X181320839Y-96882009D02*
X181273220Y-96834390D01*
X181273220Y-96834390D02*
X181177982Y-96786771D01*
X181177982Y-96786771D02*
X180939887Y-96786771D01*
X180939887Y-96786771D02*
X180844649Y-96834390D01*
X180844649Y-96834390D02*
X180797030Y-96882009D01*
X180797030Y-96882009D02*
X180749411Y-96977247D01*
X180749411Y-96977247D02*
X180749411Y-97215342D01*
X180749411Y-97215342D02*
X180797030Y-97310580D01*
X180797030Y-97310580D02*
X180844649Y-97358200D01*
X180844649Y-97358200D02*
X180939887Y-97405819D01*
X180939887Y-97405819D02*
X181177982Y-97405819D01*
X181177982Y-97405819D02*
X181273220Y-97358200D01*
X181273220Y-97358200D02*
X181320839Y-97310580D01*
X179892268Y-96405819D02*
X180082744Y-96405819D01*
X180082744Y-96405819D02*
X180177982Y-96453438D01*
X180177982Y-96453438D02*
X180225601Y-96501057D01*
X180225601Y-96501057D02*
X180320839Y-96643914D01*
X180320839Y-96643914D02*
X180368458Y-96834390D01*
X180368458Y-96834390D02*
X180368458Y-97215342D01*
X180368458Y-97215342D02*
X180320839Y-97310580D01*
X180320839Y-97310580D02*
X180273220Y-97358200D01*
X180273220Y-97358200D02*
X180177982Y-97405819D01*
X180177982Y-97405819D02*
X179987506Y-97405819D01*
X179987506Y-97405819D02*
X179892268Y-97358200D01*
X179892268Y-97358200D02*
X179844649Y-97310580D01*
X179844649Y-97310580D02*
X179797030Y-97215342D01*
X179797030Y-97215342D02*
X179797030Y-96977247D01*
X179797030Y-96977247D02*
X179844649Y-96882009D01*
X179844649Y-96882009D02*
X179892268Y-96834390D01*
X179892268Y-96834390D02*
X179987506Y-96786771D01*
X179987506Y-96786771D02*
X180177982Y-96786771D01*
X180177982Y-96786771D02*
X180273220Y-96834390D01*
X180273220Y-96834390D02*
X180320839Y-96882009D01*
X180320839Y-96882009D02*
X180368458Y-96977247D01*
X134823030Y-106565819D02*
X135299220Y-106565819D01*
X135299220Y-106565819D02*
X135346839Y-107042009D01*
X135346839Y-107042009D02*
X135299220Y-106994390D01*
X135299220Y-106994390D02*
X135203982Y-106946771D01*
X135203982Y-106946771D02*
X134965887Y-106946771D01*
X134965887Y-106946771D02*
X134870649Y-106994390D01*
X134870649Y-106994390D02*
X134823030Y-107042009D01*
X134823030Y-107042009D02*
X134775411Y-107137247D01*
X134775411Y-107137247D02*
X134775411Y-107375342D01*
X134775411Y-107375342D02*
X134823030Y-107470580D01*
X134823030Y-107470580D02*
X134870649Y-107518200D01*
X134870649Y-107518200D02*
X134965887Y-107565819D01*
X134965887Y-107565819D02*
X135203982Y-107565819D01*
X135203982Y-107565819D02*
X135299220Y-107518200D01*
X135299220Y-107518200D02*
X135346839Y-107470580D01*
X134489696Y-106565819D02*
X134156363Y-107565819D01*
X134156363Y-107565819D02*
X133823030Y-106565819D01*
X147681792Y-82927819D02*
X148015125Y-82451628D01*
X148253220Y-82927819D02*
X148253220Y-81927819D01*
X148253220Y-81927819D02*
X147872268Y-81927819D01*
X147872268Y-81927819D02*
X147777030Y-81975438D01*
X147777030Y-81975438D02*
X147729411Y-82023057D01*
X147729411Y-82023057D02*
X147681792Y-82118295D01*
X147681792Y-82118295D02*
X147681792Y-82261152D01*
X147681792Y-82261152D02*
X147729411Y-82356390D01*
X147729411Y-82356390D02*
X147777030Y-82404009D01*
X147777030Y-82404009D02*
X147872268Y-82451628D01*
X147872268Y-82451628D02*
X148253220Y-82451628D01*
X146872268Y-82880200D02*
X146967506Y-82927819D01*
X146967506Y-82927819D02*
X147157982Y-82927819D01*
X147157982Y-82927819D02*
X147253220Y-82880200D01*
X147253220Y-82880200D02*
X147300839Y-82784961D01*
X147300839Y-82784961D02*
X147300839Y-82404009D01*
X147300839Y-82404009D02*
X147253220Y-82308771D01*
X147253220Y-82308771D02*
X147157982Y-82261152D01*
X147157982Y-82261152D02*
X146967506Y-82261152D01*
X146967506Y-82261152D02*
X146872268Y-82308771D01*
X146872268Y-82308771D02*
X146824649Y-82404009D01*
X146824649Y-82404009D02*
X146824649Y-82499247D01*
X146824649Y-82499247D02*
X147300839Y-82594485D01*
X146538934Y-82261152D02*
X146157982Y-82261152D01*
X146396077Y-82927819D02*
X146396077Y-82070676D01*
X146396077Y-82070676D02*
X146348458Y-81975438D01*
X146348458Y-81975438D02*
X146253220Y-81927819D01*
X146253220Y-81927819D02*
X146157982Y-81927819D01*
X163080458Y-119392819D02*
X162413792Y-119392819D01*
X162413792Y-119392819D02*
X162842363Y-120392819D01*
X161556649Y-119392819D02*
X162032839Y-119392819D01*
X162032839Y-119392819D02*
X162080458Y-119869009D01*
X162080458Y-119869009D02*
X162032839Y-119821390D01*
X162032839Y-119821390D02*
X161937601Y-119773771D01*
X161937601Y-119773771D02*
X161699506Y-119773771D01*
X161699506Y-119773771D02*
X161604268Y-119821390D01*
X161604268Y-119821390D02*
X161556649Y-119869009D01*
X161556649Y-119869009D02*
X161509030Y-119964247D01*
X161509030Y-119964247D02*
X161509030Y-120202342D01*
X161509030Y-120202342D02*
X161556649Y-120297580D01*
X161556649Y-120297580D02*
X161604268Y-120345200D01*
X161604268Y-120345200D02*
X161699506Y-120392819D01*
X161699506Y-120392819D02*
X161937601Y-120392819D01*
X161937601Y-120392819D02*
X162032839Y-120345200D01*
X162032839Y-120345200D02*
X162080458Y-120297580D01*
X162842363Y-135188390D02*
X162937601Y-135140771D01*
X162937601Y-135140771D02*
X162985220Y-135093152D01*
X162985220Y-135093152D02*
X163032839Y-134997914D01*
X163032839Y-134997914D02*
X163032839Y-134950295D01*
X163032839Y-134950295D02*
X162985220Y-134855057D01*
X162985220Y-134855057D02*
X162937601Y-134807438D01*
X162937601Y-134807438D02*
X162842363Y-134759819D01*
X162842363Y-134759819D02*
X162651887Y-134759819D01*
X162651887Y-134759819D02*
X162556649Y-134807438D01*
X162556649Y-134807438D02*
X162509030Y-134855057D01*
X162509030Y-134855057D02*
X162461411Y-134950295D01*
X162461411Y-134950295D02*
X162461411Y-134997914D01*
X162461411Y-134997914D02*
X162509030Y-135093152D01*
X162509030Y-135093152D02*
X162556649Y-135140771D01*
X162556649Y-135140771D02*
X162651887Y-135188390D01*
X162651887Y-135188390D02*
X162842363Y-135188390D01*
X162842363Y-135188390D02*
X162937601Y-135236009D01*
X162937601Y-135236009D02*
X162985220Y-135283628D01*
X162985220Y-135283628D02*
X163032839Y-135378866D01*
X163032839Y-135378866D02*
X163032839Y-135569342D01*
X163032839Y-135569342D02*
X162985220Y-135664580D01*
X162985220Y-135664580D02*
X162937601Y-135712200D01*
X162937601Y-135712200D02*
X162842363Y-135759819D01*
X162842363Y-135759819D02*
X162651887Y-135759819D01*
X162651887Y-135759819D02*
X162556649Y-135712200D01*
X162556649Y-135712200D02*
X162509030Y-135664580D01*
X162509030Y-135664580D02*
X162461411Y-135569342D01*
X162461411Y-135569342D02*
X162461411Y-135378866D01*
X162461411Y-135378866D02*
X162509030Y-135283628D01*
X162509030Y-135283628D02*
X162556649Y-135236009D01*
X162556649Y-135236009D02*
X162651887Y-135188390D01*
X162080458Y-134855057D02*
X162032839Y-134807438D01*
X162032839Y-134807438D02*
X161937601Y-134759819D01*
X161937601Y-134759819D02*
X161699506Y-134759819D01*
X161699506Y-134759819D02*
X161604268Y-134807438D01*
X161604268Y-134807438D02*
X161556649Y-134855057D01*
X161556649Y-134855057D02*
X161509030Y-134950295D01*
X161509030Y-134950295D02*
X161509030Y-135045533D01*
X161509030Y-135045533D02*
X161556649Y-135188390D01*
X161556649Y-135188390D02*
X162128077Y-135759819D01*
X162128077Y-135759819D02*
X161509030Y-135759819D01*
X170557649Y-101819152D02*
X170557649Y-102485819D01*
X170795744Y-101438200D02*
X171033839Y-102152485D01*
X171033839Y-102152485D02*
X170414792Y-102152485D01*
X169890982Y-101914390D02*
X169986220Y-101866771D01*
X169986220Y-101866771D02*
X170033839Y-101819152D01*
X170033839Y-101819152D02*
X170081458Y-101723914D01*
X170081458Y-101723914D02*
X170081458Y-101676295D01*
X170081458Y-101676295D02*
X170033839Y-101581057D01*
X170033839Y-101581057D02*
X169986220Y-101533438D01*
X169986220Y-101533438D02*
X169890982Y-101485819D01*
X169890982Y-101485819D02*
X169700506Y-101485819D01*
X169700506Y-101485819D02*
X169605268Y-101533438D01*
X169605268Y-101533438D02*
X169557649Y-101581057D01*
X169557649Y-101581057D02*
X169510030Y-101676295D01*
X169510030Y-101676295D02*
X169510030Y-101723914D01*
X169510030Y-101723914D02*
X169557649Y-101819152D01*
X169557649Y-101819152D02*
X169605268Y-101866771D01*
X169605268Y-101866771D02*
X169700506Y-101914390D01*
X169700506Y-101914390D02*
X169890982Y-101914390D01*
X169890982Y-101914390D02*
X169986220Y-101962009D01*
X169986220Y-101962009D02*
X170033839Y-102009628D01*
X170033839Y-102009628D02*
X170081458Y-102104866D01*
X170081458Y-102104866D02*
X170081458Y-102295342D01*
X170081458Y-102295342D02*
X170033839Y-102390580D01*
X170033839Y-102390580D02*
X169986220Y-102438200D01*
X169986220Y-102438200D02*
X169890982Y-102485819D01*
X169890982Y-102485819D02*
X169700506Y-102485819D01*
X169700506Y-102485819D02*
X169605268Y-102438200D01*
X169605268Y-102438200D02*
X169557649Y-102390580D01*
X169557649Y-102390580D02*
X169510030Y-102295342D01*
X169510030Y-102295342D02*
X169510030Y-102104866D01*
X169510030Y-102104866D02*
X169557649Y-102009628D01*
X169557649Y-102009628D02*
X169605268Y-101962009D01*
X169605268Y-101962009D02*
X169700506Y-101914390D01*
X168367173Y-101438200D02*
X169224315Y-102723914D01*
X167462411Y-102390580D02*
X167510030Y-102438200D01*
X167510030Y-102438200D02*
X167652887Y-102485819D01*
X167652887Y-102485819D02*
X167748125Y-102485819D01*
X167748125Y-102485819D02*
X167890982Y-102438200D01*
X167890982Y-102438200D02*
X167986220Y-102342961D01*
X167986220Y-102342961D02*
X168033839Y-102247723D01*
X168033839Y-102247723D02*
X168081458Y-102057247D01*
X168081458Y-102057247D02*
X168081458Y-101914390D01*
X168081458Y-101914390D02*
X168033839Y-101723914D01*
X168033839Y-101723914D02*
X167986220Y-101628676D01*
X167986220Y-101628676D02*
X167890982Y-101533438D01*
X167890982Y-101533438D02*
X167748125Y-101485819D01*
X167748125Y-101485819D02*
X167652887Y-101485819D01*
X167652887Y-101485819D02*
X167510030Y-101533438D01*
X167510030Y-101533438D02*
X167462411Y-101581057D01*
X167081458Y-102438200D02*
X166938601Y-102485819D01*
X166938601Y-102485819D02*
X166700506Y-102485819D01*
X166700506Y-102485819D02*
X166605268Y-102438200D01*
X166605268Y-102438200D02*
X166557649Y-102390580D01*
X166557649Y-102390580D02*
X166510030Y-102295342D01*
X166510030Y-102295342D02*
X166510030Y-102200104D01*
X166510030Y-102200104D02*
X166557649Y-102104866D01*
X166557649Y-102104866D02*
X166605268Y-102057247D01*
X166605268Y-102057247D02*
X166700506Y-102009628D01*
X166700506Y-102009628D02*
X166890982Y-101962009D01*
X166890982Y-101962009D02*
X166986220Y-101914390D01*
X166986220Y-101914390D02*
X167033839Y-101866771D01*
X167033839Y-101866771D02*
X167081458Y-101771533D01*
X167081458Y-101771533D02*
X167081458Y-101676295D01*
X167081458Y-101676295D02*
X167033839Y-101581057D01*
X167033839Y-101581057D02*
X166986220Y-101533438D01*
X166986220Y-101533438D02*
X166890982Y-101485819D01*
X166890982Y-101485819D02*
X166652887Y-101485819D01*
X166652887Y-101485819D02*
X166510030Y-101533438D01*
X165367172Y-102438200D02*
X165224315Y-102485819D01*
X165224315Y-102485819D02*
X164986220Y-102485819D01*
X164986220Y-102485819D02*
X164890982Y-102438200D01*
X164890982Y-102438200D02*
X164843363Y-102390580D01*
X164843363Y-102390580D02*
X164795744Y-102295342D01*
X164795744Y-102295342D02*
X164795744Y-102200104D01*
X164795744Y-102200104D02*
X164843363Y-102104866D01*
X164843363Y-102104866D02*
X164890982Y-102057247D01*
X164890982Y-102057247D02*
X164986220Y-102009628D01*
X164986220Y-102009628D02*
X165176696Y-101962009D01*
X165176696Y-101962009D02*
X165271934Y-101914390D01*
X165271934Y-101914390D02*
X165319553Y-101866771D01*
X165319553Y-101866771D02*
X165367172Y-101771533D01*
X165367172Y-101771533D02*
X165367172Y-101676295D01*
X165367172Y-101676295D02*
X165319553Y-101581057D01*
X165319553Y-101581057D02*
X165271934Y-101533438D01*
X165271934Y-101533438D02*
X165176696Y-101485819D01*
X165176696Y-101485819D02*
X164938601Y-101485819D01*
X164938601Y-101485819D02*
X164795744Y-101533438D01*
X164367172Y-102485819D02*
X164367172Y-101485819D01*
X164367172Y-101962009D02*
X163795744Y-101962009D01*
X163795744Y-102485819D02*
X163795744Y-101485819D01*
X163319553Y-102485819D02*
X163319553Y-101485819D01*
X163319553Y-101485819D02*
X163081458Y-101485819D01*
X163081458Y-101485819D02*
X162938601Y-101533438D01*
X162938601Y-101533438D02*
X162843363Y-101628676D01*
X162843363Y-101628676D02*
X162795744Y-101723914D01*
X162795744Y-101723914D02*
X162748125Y-101914390D01*
X162748125Y-101914390D02*
X162748125Y-102057247D01*
X162748125Y-102057247D02*
X162795744Y-102247723D01*
X162795744Y-102247723D02*
X162843363Y-102342961D01*
X162843363Y-102342961D02*
X162938601Y-102438200D01*
X162938601Y-102438200D02*
X163081458Y-102485819D01*
X163081458Y-102485819D02*
X163319553Y-102485819D01*
X162319553Y-102485819D02*
X162319553Y-101485819D01*
X162319553Y-101485819D02*
X161748125Y-102485819D01*
X161748125Y-102485819D02*
X161748125Y-101485819D01*
X181368458Y-121805819D02*
X180749411Y-121805819D01*
X180749411Y-121805819D02*
X181082744Y-122186771D01*
X181082744Y-122186771D02*
X180939887Y-122186771D01*
X180939887Y-122186771D02*
X180844649Y-122234390D01*
X180844649Y-122234390D02*
X180797030Y-122282009D01*
X180797030Y-122282009D02*
X180749411Y-122377247D01*
X180749411Y-122377247D02*
X180749411Y-122615342D01*
X180749411Y-122615342D02*
X180797030Y-122710580D01*
X180797030Y-122710580D02*
X180844649Y-122758200D01*
X180844649Y-122758200D02*
X180939887Y-122805819D01*
X180939887Y-122805819D02*
X181225601Y-122805819D01*
X181225601Y-122805819D02*
X181320839Y-122758200D01*
X181320839Y-122758200D02*
X181368458Y-122710580D01*
X180416077Y-121805819D02*
X179797030Y-121805819D01*
X179797030Y-121805819D02*
X180130363Y-122186771D01*
X180130363Y-122186771D02*
X179987506Y-122186771D01*
X179987506Y-122186771D02*
X179892268Y-122234390D01*
X179892268Y-122234390D02*
X179844649Y-122282009D01*
X179844649Y-122282009D02*
X179797030Y-122377247D01*
X179797030Y-122377247D02*
X179797030Y-122615342D01*
X179797030Y-122615342D02*
X179844649Y-122710580D01*
X179844649Y-122710580D02*
X179892268Y-122758200D01*
X179892268Y-122758200D02*
X179987506Y-122805819D01*
X179987506Y-122805819D02*
X180273220Y-122805819D01*
X180273220Y-122805819D02*
X180368458Y-122758200D01*
X180368458Y-122758200D02*
X180416077Y-122710580D01*
%TO.C,R9*%
X185562419Y-66381333D02*
X185086228Y-66048000D01*
X185562419Y-65809905D02*
X184562419Y-65809905D01*
X184562419Y-65809905D02*
X184562419Y-66190857D01*
X184562419Y-66190857D02*
X184610038Y-66286095D01*
X184610038Y-66286095D02*
X184657657Y-66333714D01*
X184657657Y-66333714D02*
X184752895Y-66381333D01*
X184752895Y-66381333D02*
X184895752Y-66381333D01*
X184895752Y-66381333D02*
X184990990Y-66333714D01*
X184990990Y-66333714D02*
X185038609Y-66286095D01*
X185038609Y-66286095D02*
X185086228Y-66190857D01*
X185086228Y-66190857D02*
X185086228Y-65809905D01*
X185562419Y-66857524D02*
X185562419Y-67048000D01*
X185562419Y-67048000D02*
X185514800Y-67143238D01*
X185514800Y-67143238D02*
X185467180Y-67190857D01*
X185467180Y-67190857D02*
X185324323Y-67286095D01*
X185324323Y-67286095D02*
X185133847Y-67333714D01*
X185133847Y-67333714D02*
X184752895Y-67333714D01*
X184752895Y-67333714D02*
X184657657Y-67286095D01*
X184657657Y-67286095D02*
X184610038Y-67238476D01*
X184610038Y-67238476D02*
X184562419Y-67143238D01*
X184562419Y-67143238D02*
X184562419Y-66952762D01*
X184562419Y-66952762D02*
X184610038Y-66857524D01*
X184610038Y-66857524D02*
X184657657Y-66809905D01*
X184657657Y-66809905D02*
X184752895Y-66762286D01*
X184752895Y-66762286D02*
X184990990Y-66762286D01*
X184990990Y-66762286D02*
X185086228Y-66809905D01*
X185086228Y-66809905D02*
X185133847Y-66857524D01*
X185133847Y-66857524D02*
X185181466Y-66952762D01*
X185181466Y-66952762D02*
X185181466Y-67143238D01*
X185181466Y-67143238D02*
X185133847Y-67238476D01*
X185133847Y-67238476D02*
X185086228Y-67286095D01*
X185086228Y-67286095D02*
X184990990Y-67333714D01*
%TO.C,R10*%
X183073219Y-65903242D02*
X182597028Y-65569909D01*
X183073219Y-65331814D02*
X182073219Y-65331814D01*
X182073219Y-65331814D02*
X182073219Y-65712766D01*
X182073219Y-65712766D02*
X182120838Y-65808004D01*
X182120838Y-65808004D02*
X182168457Y-65855623D01*
X182168457Y-65855623D02*
X182263695Y-65903242D01*
X182263695Y-65903242D02*
X182406552Y-65903242D01*
X182406552Y-65903242D02*
X182501790Y-65855623D01*
X182501790Y-65855623D02*
X182549409Y-65808004D01*
X182549409Y-65808004D02*
X182597028Y-65712766D01*
X182597028Y-65712766D02*
X182597028Y-65331814D01*
X183073219Y-66855623D02*
X183073219Y-66284195D01*
X183073219Y-66569909D02*
X182073219Y-66569909D01*
X182073219Y-66569909D02*
X182216076Y-66474671D01*
X182216076Y-66474671D02*
X182311314Y-66379433D01*
X182311314Y-66379433D02*
X182358933Y-66284195D01*
X182073219Y-67474671D02*
X182073219Y-67569909D01*
X182073219Y-67569909D02*
X182120838Y-67665147D01*
X182120838Y-67665147D02*
X182168457Y-67712766D01*
X182168457Y-67712766D02*
X182263695Y-67760385D01*
X182263695Y-67760385D02*
X182454171Y-67808004D01*
X182454171Y-67808004D02*
X182692266Y-67808004D01*
X182692266Y-67808004D02*
X182882742Y-67760385D01*
X182882742Y-67760385D02*
X182977980Y-67712766D01*
X182977980Y-67712766D02*
X183025600Y-67665147D01*
X183025600Y-67665147D02*
X183073219Y-67569909D01*
X183073219Y-67569909D02*
X183073219Y-67474671D01*
X183073219Y-67474671D02*
X183025600Y-67379433D01*
X183025600Y-67379433D02*
X182977980Y-67331814D01*
X182977980Y-67331814D02*
X182882742Y-67284195D01*
X182882742Y-67284195D02*
X182692266Y-67236576D01*
X182692266Y-67236576D02*
X182454171Y-67236576D01*
X182454171Y-67236576D02*
X182263695Y-67284195D01*
X182263695Y-67284195D02*
X182168457Y-67331814D01*
X182168457Y-67331814D02*
X182120838Y-67379433D01*
X182120838Y-67379433D02*
X182073219Y-67474671D01*
%TO.C,R5*%
X165267819Y-66382333D02*
X164791628Y-66049000D01*
X165267819Y-65810905D02*
X164267819Y-65810905D01*
X164267819Y-65810905D02*
X164267819Y-66191857D01*
X164267819Y-66191857D02*
X164315438Y-66287095D01*
X164315438Y-66287095D02*
X164363057Y-66334714D01*
X164363057Y-66334714D02*
X164458295Y-66382333D01*
X164458295Y-66382333D02*
X164601152Y-66382333D01*
X164601152Y-66382333D02*
X164696390Y-66334714D01*
X164696390Y-66334714D02*
X164744009Y-66287095D01*
X164744009Y-66287095D02*
X164791628Y-66191857D01*
X164791628Y-66191857D02*
X164791628Y-65810905D01*
X164267819Y-67287095D02*
X164267819Y-66810905D01*
X164267819Y-66810905D02*
X164744009Y-66763286D01*
X164744009Y-66763286D02*
X164696390Y-66810905D01*
X164696390Y-66810905D02*
X164648771Y-66906143D01*
X164648771Y-66906143D02*
X164648771Y-67144238D01*
X164648771Y-67144238D02*
X164696390Y-67239476D01*
X164696390Y-67239476D02*
X164744009Y-67287095D01*
X164744009Y-67287095D02*
X164839247Y-67334714D01*
X164839247Y-67334714D02*
X165077342Y-67334714D01*
X165077342Y-67334714D02*
X165172580Y-67287095D01*
X165172580Y-67287095D02*
X165220200Y-67239476D01*
X165220200Y-67239476D02*
X165267819Y-67144238D01*
X165267819Y-67144238D02*
X165267819Y-66906143D01*
X165267819Y-66906143D02*
X165220200Y-66810905D01*
X165220200Y-66810905D02*
X165172580Y-66763286D01*
%TO.C,R4*%
X162753219Y-66379433D02*
X162277028Y-66046100D01*
X162753219Y-65808005D02*
X161753219Y-65808005D01*
X161753219Y-65808005D02*
X161753219Y-66188957D01*
X161753219Y-66188957D02*
X161800838Y-66284195D01*
X161800838Y-66284195D02*
X161848457Y-66331814D01*
X161848457Y-66331814D02*
X161943695Y-66379433D01*
X161943695Y-66379433D02*
X162086552Y-66379433D01*
X162086552Y-66379433D02*
X162181790Y-66331814D01*
X162181790Y-66331814D02*
X162229409Y-66284195D01*
X162229409Y-66284195D02*
X162277028Y-66188957D01*
X162277028Y-66188957D02*
X162277028Y-65808005D01*
X162086552Y-67236576D02*
X162753219Y-67236576D01*
X161705600Y-66998481D02*
X162419885Y-66760386D01*
X162419885Y-66760386D02*
X162419885Y-67379433D01*
%TO.C,R7*%
X170373219Y-66381333D02*
X169897028Y-66048000D01*
X170373219Y-65809905D02*
X169373219Y-65809905D01*
X169373219Y-65809905D02*
X169373219Y-66190857D01*
X169373219Y-66190857D02*
X169420838Y-66286095D01*
X169420838Y-66286095D02*
X169468457Y-66333714D01*
X169468457Y-66333714D02*
X169563695Y-66381333D01*
X169563695Y-66381333D02*
X169706552Y-66381333D01*
X169706552Y-66381333D02*
X169801790Y-66333714D01*
X169801790Y-66333714D02*
X169849409Y-66286095D01*
X169849409Y-66286095D02*
X169897028Y-66190857D01*
X169897028Y-66190857D02*
X169897028Y-65809905D01*
X169373219Y-66714667D02*
X169373219Y-67381333D01*
X169373219Y-67381333D02*
X170373219Y-66952762D01*
%TO.C,R3*%
X160213219Y-66430233D02*
X159737028Y-66096900D01*
X160213219Y-65858805D02*
X159213219Y-65858805D01*
X159213219Y-65858805D02*
X159213219Y-66239757D01*
X159213219Y-66239757D02*
X159260838Y-66334995D01*
X159260838Y-66334995D02*
X159308457Y-66382614D01*
X159308457Y-66382614D02*
X159403695Y-66430233D01*
X159403695Y-66430233D02*
X159546552Y-66430233D01*
X159546552Y-66430233D02*
X159641790Y-66382614D01*
X159641790Y-66382614D02*
X159689409Y-66334995D01*
X159689409Y-66334995D02*
X159737028Y-66239757D01*
X159737028Y-66239757D02*
X159737028Y-65858805D01*
X159213219Y-66763567D02*
X159213219Y-67382614D01*
X159213219Y-67382614D02*
X159594171Y-67049281D01*
X159594171Y-67049281D02*
X159594171Y-67192138D01*
X159594171Y-67192138D02*
X159641790Y-67287376D01*
X159641790Y-67287376D02*
X159689409Y-67334995D01*
X159689409Y-67334995D02*
X159784647Y-67382614D01*
X159784647Y-67382614D02*
X160022742Y-67382614D01*
X160022742Y-67382614D02*
X160117980Y-67334995D01*
X160117980Y-67334995D02*
X160165600Y-67287376D01*
X160165600Y-67287376D02*
X160213219Y-67192138D01*
X160213219Y-67192138D02*
X160213219Y-66906424D01*
X160213219Y-66906424D02*
X160165600Y-66811186D01*
X160165600Y-66811186D02*
X160117980Y-66763567D01*
%TO.C,R8*%
X175453219Y-66381333D02*
X174977028Y-66048000D01*
X175453219Y-65809905D02*
X174453219Y-65809905D01*
X174453219Y-65809905D02*
X174453219Y-66190857D01*
X174453219Y-66190857D02*
X174500838Y-66286095D01*
X174500838Y-66286095D02*
X174548457Y-66333714D01*
X174548457Y-66333714D02*
X174643695Y-66381333D01*
X174643695Y-66381333D02*
X174786552Y-66381333D01*
X174786552Y-66381333D02*
X174881790Y-66333714D01*
X174881790Y-66333714D02*
X174929409Y-66286095D01*
X174929409Y-66286095D02*
X174977028Y-66190857D01*
X174977028Y-66190857D02*
X174977028Y-65809905D01*
X174881790Y-66952762D02*
X174834171Y-66857524D01*
X174834171Y-66857524D02*
X174786552Y-66809905D01*
X174786552Y-66809905D02*
X174691314Y-66762286D01*
X174691314Y-66762286D02*
X174643695Y-66762286D01*
X174643695Y-66762286D02*
X174548457Y-66809905D01*
X174548457Y-66809905D02*
X174500838Y-66857524D01*
X174500838Y-66857524D02*
X174453219Y-66952762D01*
X174453219Y-66952762D02*
X174453219Y-67143238D01*
X174453219Y-67143238D02*
X174500838Y-67238476D01*
X174500838Y-67238476D02*
X174548457Y-67286095D01*
X174548457Y-67286095D02*
X174643695Y-67333714D01*
X174643695Y-67333714D02*
X174691314Y-67333714D01*
X174691314Y-67333714D02*
X174786552Y-67286095D01*
X174786552Y-67286095D02*
X174834171Y-67238476D01*
X174834171Y-67238476D02*
X174881790Y-67143238D01*
X174881790Y-67143238D02*
X174881790Y-66952762D01*
X174881790Y-66952762D02*
X174929409Y-66857524D01*
X174929409Y-66857524D02*
X174977028Y-66809905D01*
X174977028Y-66809905D02*
X175072266Y-66762286D01*
X175072266Y-66762286D02*
X175262742Y-66762286D01*
X175262742Y-66762286D02*
X175357980Y-66809905D01*
X175357980Y-66809905D02*
X175405600Y-66857524D01*
X175405600Y-66857524D02*
X175453219Y-66952762D01*
X175453219Y-66952762D02*
X175453219Y-67143238D01*
X175453219Y-67143238D02*
X175405600Y-67238476D01*
X175405600Y-67238476D02*
X175357980Y-67286095D01*
X175357980Y-67286095D02*
X175262742Y-67333714D01*
X175262742Y-67333714D02*
X175072266Y-67333714D01*
X175072266Y-67333714D02*
X174977028Y-67286095D01*
X174977028Y-67286095D02*
X174929409Y-67238476D01*
X174929409Y-67238476D02*
X174881790Y-67143238D01*
%TO.C,R6*%
X167782419Y-66379433D02*
X167306228Y-66046100D01*
X167782419Y-65808005D02*
X166782419Y-65808005D01*
X166782419Y-65808005D02*
X166782419Y-66188957D01*
X166782419Y-66188957D02*
X166830038Y-66284195D01*
X166830038Y-66284195D02*
X166877657Y-66331814D01*
X166877657Y-66331814D02*
X166972895Y-66379433D01*
X166972895Y-66379433D02*
X167115752Y-66379433D01*
X167115752Y-66379433D02*
X167210990Y-66331814D01*
X167210990Y-66331814D02*
X167258609Y-66284195D01*
X167258609Y-66284195D02*
X167306228Y-66188957D01*
X167306228Y-66188957D02*
X167306228Y-65808005D01*
X166782419Y-67236576D02*
X166782419Y-67046100D01*
X166782419Y-67046100D02*
X166830038Y-66950862D01*
X166830038Y-66950862D02*
X166877657Y-66903243D01*
X166877657Y-66903243D02*
X167020514Y-66808005D01*
X167020514Y-66808005D02*
X167210990Y-66760386D01*
X167210990Y-66760386D02*
X167591942Y-66760386D01*
X167591942Y-66760386D02*
X167687180Y-66808005D01*
X167687180Y-66808005D02*
X167734800Y-66855624D01*
X167734800Y-66855624D02*
X167782419Y-66950862D01*
X167782419Y-66950862D02*
X167782419Y-67141338D01*
X167782419Y-67141338D02*
X167734800Y-67236576D01*
X167734800Y-67236576D02*
X167687180Y-67284195D01*
X167687180Y-67284195D02*
X167591942Y-67331814D01*
X167591942Y-67331814D02*
X167353847Y-67331814D01*
X167353847Y-67331814D02*
X167258609Y-67284195D01*
X167258609Y-67284195D02*
X167210990Y-67236576D01*
X167210990Y-67236576D02*
X167163371Y-67141338D01*
X167163371Y-67141338D02*
X167163371Y-66950862D01*
X167163371Y-66950862D02*
X167210990Y-66855624D01*
X167210990Y-66855624D02*
X167258609Y-66808005D01*
X167258609Y-66808005D02*
X167353847Y-66760386D01*
D11*
%TO.C,R9*%
X187060100Y-66293276D02*
X187060100Y-66802724D01*
X186015100Y-66293276D02*
X186015100Y-66802724D01*
%TO.C,R10*%
X184570900Y-66291376D02*
X184570900Y-66800824D01*
X183525900Y-66291376D02*
X183525900Y-66800824D01*
%TO.C,R5*%
X166765500Y-66294276D02*
X166765500Y-66803724D01*
X165720500Y-66294276D02*
X165720500Y-66803724D01*
%TO.C,R4*%
X164250900Y-66291376D02*
X164250900Y-66800824D01*
X163205900Y-66291376D02*
X163205900Y-66800824D01*
%TO.C,R7*%
X171870900Y-66293276D02*
X171870900Y-66802724D01*
X170825900Y-66293276D02*
X170825900Y-66802724D01*
%TO.C,R3*%
X161710900Y-66342176D02*
X161710900Y-66851624D01*
X160665900Y-66342176D02*
X160665900Y-66851624D01*
%TO.C,R8*%
X176950900Y-66293276D02*
X176950900Y-66802724D01*
X175905900Y-66293276D02*
X175905900Y-66802724D01*
%TO.C,R6*%
X169280100Y-66291376D02*
X169280100Y-66800824D01*
X168235100Y-66291376D02*
X168235100Y-66800824D01*
%TD*%
M02*
