%TF.GenerationSoftware,KiCad,Pcbnew,7.0.5*%
%TF.CreationDate,2023-10-10T13:20:49+09:00*%
%TF.ProjectId,tangnano9k_brushless_driver,74616e67-6e61-46e6-9f39-6b5f62727573,rev?*%
%TF.SameCoordinates,Original*%
%TF.FileFunction,Legend,Top*%
%TF.FilePolarity,Positive*%
%FSLAX46Y46*%
G04 Gerber Fmt 4.6, Leading zero omitted, Abs format (unit mm)*
G04 Created by KiCad (PCBNEW 7.0.5) date 2023-10-10 13:20:49*
%MOMM*%
%LPD*%
G01*
G04 APERTURE LIST*
%ADD10C,0.150000*%
%ADD11C,0.254000*%
%ADD12C,0.100000*%
%ADD13C,0.120000*%
%ADD14C,0.200000*%
%ADD15C,0.735000*%
G04 APERTURE END LIST*
D10*
X152895541Y-126885819D02*
X153562207Y-126885819D01*
X153562207Y-126885819D02*
X153133636Y-127885819D01*
X153990779Y-127885819D02*
X154181255Y-127885819D01*
X154181255Y-127885819D02*
X154276493Y-127838200D01*
X154276493Y-127838200D02*
X154324112Y-127790580D01*
X154324112Y-127790580D02*
X154419350Y-127647723D01*
X154419350Y-127647723D02*
X154466969Y-127457247D01*
X154466969Y-127457247D02*
X154466969Y-127076295D01*
X154466969Y-127076295D02*
X154419350Y-126981057D01*
X154419350Y-126981057D02*
X154371731Y-126933438D01*
X154371731Y-126933438D02*
X154276493Y-126885819D01*
X154276493Y-126885819D02*
X154086017Y-126885819D01*
X154086017Y-126885819D02*
X153990779Y-126933438D01*
X153990779Y-126933438D02*
X153943160Y-126981057D01*
X153943160Y-126981057D02*
X153895541Y-127076295D01*
X153895541Y-127076295D02*
X153895541Y-127314390D01*
X153895541Y-127314390D02*
X153943160Y-127409628D01*
X153943160Y-127409628D02*
X153990779Y-127457247D01*
X153990779Y-127457247D02*
X154086017Y-127504866D01*
X154086017Y-127504866D02*
X154276493Y-127504866D01*
X154276493Y-127504866D02*
X154371731Y-127457247D01*
X154371731Y-127457247D02*
X154419350Y-127409628D01*
X154419350Y-127409628D02*
X154466969Y-127314390D01*
X195424588Y-109153438D02*
X195329350Y-109105819D01*
X195329350Y-109105819D02*
X195186493Y-109105819D01*
X195186493Y-109105819D02*
X195043636Y-109153438D01*
X195043636Y-109153438D02*
X194948398Y-109248676D01*
X194948398Y-109248676D02*
X194900779Y-109343914D01*
X194900779Y-109343914D02*
X194853160Y-109534390D01*
X194853160Y-109534390D02*
X194853160Y-109677247D01*
X194853160Y-109677247D02*
X194900779Y-109867723D01*
X194900779Y-109867723D02*
X194948398Y-109962961D01*
X194948398Y-109962961D02*
X195043636Y-110058200D01*
X195043636Y-110058200D02*
X195186493Y-110105819D01*
X195186493Y-110105819D02*
X195281731Y-110105819D01*
X195281731Y-110105819D02*
X195424588Y-110058200D01*
X195424588Y-110058200D02*
X195472207Y-110010580D01*
X195472207Y-110010580D02*
X195472207Y-109677247D01*
X195472207Y-109677247D02*
X195281731Y-109677247D01*
X195900779Y-110105819D02*
X195900779Y-109105819D01*
X195900779Y-109105819D02*
X196472207Y-110105819D01*
X196472207Y-110105819D02*
X196472207Y-109105819D01*
X196948398Y-110105819D02*
X196948398Y-109105819D01*
X196948398Y-109105819D02*
X197186493Y-109105819D01*
X197186493Y-109105819D02*
X197329350Y-109153438D01*
X197329350Y-109153438D02*
X197424588Y-109248676D01*
X197424588Y-109248676D02*
X197472207Y-109343914D01*
X197472207Y-109343914D02*
X197519826Y-109534390D01*
X197519826Y-109534390D02*
X197519826Y-109677247D01*
X197519826Y-109677247D02*
X197472207Y-109867723D01*
X197472207Y-109867723D02*
X197424588Y-109962961D01*
X197424588Y-109962961D02*
X197329350Y-110058200D01*
X197329350Y-110058200D02*
X197186493Y-110105819D01*
X197186493Y-110105819D02*
X196948398Y-110105819D01*
X151212779Y-98421819D02*
X151212779Y-97421819D01*
X151212779Y-97421819D02*
X151450874Y-97421819D01*
X151450874Y-97421819D02*
X151593731Y-97469438D01*
X151593731Y-97469438D02*
X151688969Y-97564676D01*
X151688969Y-97564676D02*
X151736588Y-97659914D01*
X151736588Y-97659914D02*
X151784207Y-97850390D01*
X151784207Y-97850390D02*
X151784207Y-97993247D01*
X151784207Y-97993247D02*
X151736588Y-98183723D01*
X151736588Y-98183723D02*
X151688969Y-98278961D01*
X151688969Y-98278961D02*
X151593731Y-98374200D01*
X151593731Y-98374200D02*
X151450874Y-98421819D01*
X151450874Y-98421819D02*
X151212779Y-98421819D01*
X152736588Y-97469438D02*
X152641350Y-97421819D01*
X152641350Y-97421819D02*
X152498493Y-97421819D01*
X152498493Y-97421819D02*
X152355636Y-97469438D01*
X152355636Y-97469438D02*
X152260398Y-97564676D01*
X152260398Y-97564676D02*
X152212779Y-97659914D01*
X152212779Y-97659914D02*
X152165160Y-97850390D01*
X152165160Y-97850390D02*
X152165160Y-97993247D01*
X152165160Y-97993247D02*
X152212779Y-98183723D01*
X152212779Y-98183723D02*
X152260398Y-98278961D01*
X152260398Y-98278961D02*
X152355636Y-98374200D01*
X152355636Y-98374200D02*
X152498493Y-98421819D01*
X152498493Y-98421819D02*
X152593731Y-98421819D01*
X152593731Y-98421819D02*
X152736588Y-98374200D01*
X152736588Y-98374200D02*
X152784207Y-98326580D01*
X152784207Y-98326580D02*
X152784207Y-97993247D01*
X152784207Y-97993247D02*
X152593731Y-97993247D01*
X153212779Y-98421819D02*
X153212779Y-97421819D01*
X153212779Y-97421819D02*
X153784207Y-98421819D01*
X153784207Y-98421819D02*
X153784207Y-97421819D01*
X154260398Y-98421819D02*
X154260398Y-97421819D01*
X154260398Y-97421819D02*
X154498493Y-97421819D01*
X154498493Y-97421819D02*
X154641350Y-97469438D01*
X154641350Y-97469438D02*
X154736588Y-97564676D01*
X154736588Y-97564676D02*
X154784207Y-97659914D01*
X154784207Y-97659914D02*
X154831826Y-97850390D01*
X154831826Y-97850390D02*
X154831826Y-97993247D01*
X154831826Y-97993247D02*
X154784207Y-98183723D01*
X154784207Y-98183723D02*
X154736588Y-98278961D01*
X154736588Y-98278961D02*
X154641350Y-98374200D01*
X154641350Y-98374200D02*
X154498493Y-98421819D01*
X154498493Y-98421819D02*
X154260398Y-98421819D01*
X146761152Y-95516506D02*
X146761152Y-95754601D01*
X146761152Y-95754601D02*
X145332580Y-95754601D01*
X145332580Y-95754601D02*
X145332580Y-95516506D01*
X146427819Y-95135553D02*
X145427819Y-95135553D01*
X145427819Y-95135553D02*
X146142104Y-94802220D01*
X146142104Y-94802220D02*
X145427819Y-94468887D01*
X145427819Y-94468887D02*
X146427819Y-94468887D01*
X146332580Y-93421268D02*
X146380200Y-93468887D01*
X146380200Y-93468887D02*
X146427819Y-93611744D01*
X146427819Y-93611744D02*
X146427819Y-93706982D01*
X146427819Y-93706982D02*
X146380200Y-93849839D01*
X146380200Y-93849839D02*
X146284961Y-93945077D01*
X146284961Y-93945077D02*
X146189723Y-93992696D01*
X146189723Y-93992696D02*
X145999247Y-94040315D01*
X145999247Y-94040315D02*
X145856390Y-94040315D01*
X145856390Y-94040315D02*
X145665914Y-93992696D01*
X145665914Y-93992696D02*
X145570676Y-93945077D01*
X145570676Y-93945077D02*
X145475438Y-93849839D01*
X145475438Y-93849839D02*
X145427819Y-93706982D01*
X145427819Y-93706982D02*
X145427819Y-93611744D01*
X145427819Y-93611744D02*
X145475438Y-93468887D01*
X145475438Y-93468887D02*
X145523057Y-93421268D01*
X146427819Y-92992696D02*
X145427819Y-92992696D01*
X145427819Y-92992696D02*
X145427819Y-92611744D01*
X145427819Y-92611744D02*
X145475438Y-92516506D01*
X145475438Y-92516506D02*
X145523057Y-92468887D01*
X145523057Y-92468887D02*
X145618295Y-92421268D01*
X145618295Y-92421268D02*
X145761152Y-92421268D01*
X145761152Y-92421268D02*
X145856390Y-92468887D01*
X145856390Y-92468887D02*
X145904009Y-92516506D01*
X145904009Y-92516506D02*
X145951628Y-92611744D01*
X145951628Y-92611744D02*
X145951628Y-92992696D01*
X145427819Y-92087934D02*
X145427819Y-91468887D01*
X145427819Y-91468887D02*
X145808771Y-91802220D01*
X145808771Y-91802220D02*
X145808771Y-91659363D01*
X145808771Y-91659363D02*
X145856390Y-91564125D01*
X145856390Y-91564125D02*
X145904009Y-91516506D01*
X145904009Y-91516506D02*
X145999247Y-91468887D01*
X145999247Y-91468887D02*
X146237342Y-91468887D01*
X146237342Y-91468887D02*
X146332580Y-91516506D01*
X146332580Y-91516506D02*
X146380200Y-91564125D01*
X146380200Y-91564125D02*
X146427819Y-91659363D01*
X146427819Y-91659363D02*
X146427819Y-91945077D01*
X146427819Y-91945077D02*
X146380200Y-92040315D01*
X146380200Y-92040315D02*
X146332580Y-92087934D01*
X145427819Y-90849839D02*
X145427819Y-90754601D01*
X145427819Y-90754601D02*
X145475438Y-90659363D01*
X145475438Y-90659363D02*
X145523057Y-90611744D01*
X145523057Y-90611744D02*
X145618295Y-90564125D01*
X145618295Y-90564125D02*
X145808771Y-90516506D01*
X145808771Y-90516506D02*
X146046866Y-90516506D01*
X146046866Y-90516506D02*
X146237342Y-90564125D01*
X146237342Y-90564125D02*
X146332580Y-90611744D01*
X146332580Y-90611744D02*
X146380200Y-90659363D01*
X146380200Y-90659363D02*
X146427819Y-90754601D01*
X146427819Y-90754601D02*
X146427819Y-90849839D01*
X146427819Y-90849839D02*
X146380200Y-90945077D01*
X146380200Y-90945077D02*
X146332580Y-90992696D01*
X146332580Y-90992696D02*
X146237342Y-91040315D01*
X146237342Y-91040315D02*
X146046866Y-91087934D01*
X146046866Y-91087934D02*
X145808771Y-91087934D01*
X145808771Y-91087934D02*
X145618295Y-91040315D01*
X145618295Y-91040315D02*
X145523057Y-90992696D01*
X145523057Y-90992696D02*
X145475438Y-90945077D01*
X145475438Y-90945077D02*
X145427819Y-90849839D01*
X145427819Y-89897458D02*
X145427819Y-89802220D01*
X145427819Y-89802220D02*
X145475438Y-89706982D01*
X145475438Y-89706982D02*
X145523057Y-89659363D01*
X145523057Y-89659363D02*
X145618295Y-89611744D01*
X145618295Y-89611744D02*
X145808771Y-89564125D01*
X145808771Y-89564125D02*
X146046866Y-89564125D01*
X146046866Y-89564125D02*
X146237342Y-89611744D01*
X146237342Y-89611744D02*
X146332580Y-89659363D01*
X146332580Y-89659363D02*
X146380200Y-89706982D01*
X146380200Y-89706982D02*
X146427819Y-89802220D01*
X146427819Y-89802220D02*
X146427819Y-89897458D01*
X146427819Y-89897458D02*
X146380200Y-89992696D01*
X146380200Y-89992696D02*
X146332580Y-90040315D01*
X146332580Y-90040315D02*
X146237342Y-90087934D01*
X146237342Y-90087934D02*
X146046866Y-90135553D01*
X146046866Y-90135553D02*
X145808771Y-90135553D01*
X145808771Y-90135553D02*
X145618295Y-90087934D01*
X145618295Y-90087934D02*
X145523057Y-90040315D01*
X145523057Y-90040315D02*
X145475438Y-89992696D01*
X145475438Y-89992696D02*
X145427819Y-89897458D01*
X145856390Y-88992696D02*
X145808771Y-89087934D01*
X145808771Y-89087934D02*
X145761152Y-89135553D01*
X145761152Y-89135553D02*
X145665914Y-89183172D01*
X145665914Y-89183172D02*
X145618295Y-89183172D01*
X145618295Y-89183172D02*
X145523057Y-89135553D01*
X145523057Y-89135553D02*
X145475438Y-89087934D01*
X145475438Y-89087934D02*
X145427819Y-88992696D01*
X145427819Y-88992696D02*
X145427819Y-88802220D01*
X145427819Y-88802220D02*
X145475438Y-88706982D01*
X145475438Y-88706982D02*
X145523057Y-88659363D01*
X145523057Y-88659363D02*
X145618295Y-88611744D01*
X145618295Y-88611744D02*
X145665914Y-88611744D01*
X145665914Y-88611744D02*
X145761152Y-88659363D01*
X145761152Y-88659363D02*
X145808771Y-88706982D01*
X145808771Y-88706982D02*
X145856390Y-88802220D01*
X145856390Y-88802220D02*
X145856390Y-88992696D01*
X145856390Y-88992696D02*
X145904009Y-89087934D01*
X145904009Y-89087934D02*
X145951628Y-89135553D01*
X145951628Y-89135553D02*
X146046866Y-89183172D01*
X146046866Y-89183172D02*
X146237342Y-89183172D01*
X146237342Y-89183172D02*
X146332580Y-89135553D01*
X146332580Y-89135553D02*
X146380200Y-89087934D01*
X146380200Y-89087934D02*
X146427819Y-88992696D01*
X146427819Y-88992696D02*
X146427819Y-88802220D01*
X146427819Y-88802220D02*
X146380200Y-88706982D01*
X146380200Y-88706982D02*
X146332580Y-88659363D01*
X146332580Y-88659363D02*
X146237342Y-88611744D01*
X146237342Y-88611744D02*
X146046866Y-88611744D01*
X146046866Y-88611744D02*
X145951628Y-88659363D01*
X145951628Y-88659363D02*
X145904009Y-88706982D01*
X145904009Y-88706982D02*
X145856390Y-88802220D01*
X146761152Y-88278410D02*
X146761152Y-88040315D01*
X146761152Y-88040315D02*
X145332580Y-88040315D01*
X145332580Y-88040315D02*
X145332580Y-88278410D01*
X184054809Y-62372687D02*
X184054809Y-62706020D01*
X184578619Y-62706020D02*
X183578619Y-62706020D01*
X183578619Y-62706020D02*
X183578619Y-62229830D01*
X164207819Y-63061620D02*
X163207819Y-63061620D01*
X163207819Y-63061620D02*
X163207819Y-62823525D01*
X163207819Y-62823525D02*
X163255438Y-62680668D01*
X163255438Y-62680668D02*
X163350676Y-62585430D01*
X163350676Y-62585430D02*
X163445914Y-62537811D01*
X163445914Y-62537811D02*
X163636390Y-62490192D01*
X163636390Y-62490192D02*
X163779247Y-62490192D01*
X163779247Y-62490192D02*
X163969723Y-62537811D01*
X163969723Y-62537811D02*
X164064961Y-62585430D01*
X164064961Y-62585430D02*
X164160200Y-62680668D01*
X164160200Y-62680668D02*
X164207819Y-62823525D01*
X164207819Y-62823525D02*
X164207819Y-63061620D01*
X134718588Y-115185819D02*
X134147160Y-115185819D01*
X134432874Y-115185819D02*
X134432874Y-114185819D01*
X134432874Y-114185819D02*
X134337636Y-114328676D01*
X134337636Y-114328676D02*
X134242398Y-114423914D01*
X134242398Y-114423914D02*
X134147160Y-114471533D01*
X135099541Y-114281057D02*
X135147160Y-114233438D01*
X135147160Y-114233438D02*
X135242398Y-114185819D01*
X135242398Y-114185819D02*
X135480493Y-114185819D01*
X135480493Y-114185819D02*
X135575731Y-114233438D01*
X135575731Y-114233438D02*
X135623350Y-114281057D01*
X135623350Y-114281057D02*
X135670969Y-114376295D01*
X135670969Y-114376295D02*
X135670969Y-114471533D01*
X135670969Y-114471533D02*
X135623350Y-114614390D01*
X135623350Y-114614390D02*
X135051922Y-115185819D01*
X135051922Y-115185819D02*
X135670969Y-115185819D01*
X135956684Y-114185819D02*
X136290017Y-115185819D01*
X136290017Y-115185819D02*
X136623350Y-114185819D01*
X122002779Y-57400819D02*
X122002779Y-56400819D01*
X122002779Y-56400819D02*
X122336112Y-57115104D01*
X122336112Y-57115104D02*
X122669445Y-56400819D01*
X122669445Y-56400819D02*
X122669445Y-57400819D01*
X123288493Y-57400819D02*
X123193255Y-57353200D01*
X123193255Y-57353200D02*
X123145636Y-57305580D01*
X123145636Y-57305580D02*
X123098017Y-57210342D01*
X123098017Y-57210342D02*
X123098017Y-56924628D01*
X123098017Y-56924628D02*
X123145636Y-56829390D01*
X123145636Y-56829390D02*
X123193255Y-56781771D01*
X123193255Y-56781771D02*
X123288493Y-56734152D01*
X123288493Y-56734152D02*
X123431350Y-56734152D01*
X123431350Y-56734152D02*
X123526588Y-56781771D01*
X123526588Y-56781771D02*
X123574207Y-56829390D01*
X123574207Y-56829390D02*
X123621826Y-56924628D01*
X123621826Y-56924628D02*
X123621826Y-57210342D01*
X123621826Y-57210342D02*
X123574207Y-57305580D01*
X123574207Y-57305580D02*
X123526588Y-57353200D01*
X123526588Y-57353200D02*
X123431350Y-57400819D01*
X123431350Y-57400819D02*
X123288493Y-57400819D01*
X123907541Y-56734152D02*
X124288493Y-56734152D01*
X124050398Y-56400819D02*
X124050398Y-57257961D01*
X124050398Y-57257961D02*
X124098017Y-57353200D01*
X124098017Y-57353200D02*
X124193255Y-57400819D01*
X124193255Y-57400819D02*
X124288493Y-57400819D01*
X124764684Y-57400819D02*
X124669446Y-57353200D01*
X124669446Y-57353200D02*
X124621827Y-57305580D01*
X124621827Y-57305580D02*
X124574208Y-57210342D01*
X124574208Y-57210342D02*
X124574208Y-56924628D01*
X124574208Y-56924628D02*
X124621827Y-56829390D01*
X124621827Y-56829390D02*
X124669446Y-56781771D01*
X124669446Y-56781771D02*
X124764684Y-56734152D01*
X124764684Y-56734152D02*
X124907541Y-56734152D01*
X124907541Y-56734152D02*
X125002779Y-56781771D01*
X125002779Y-56781771D02*
X125050398Y-56829390D01*
X125050398Y-56829390D02*
X125098017Y-56924628D01*
X125098017Y-56924628D02*
X125098017Y-57210342D01*
X125098017Y-57210342D02*
X125050398Y-57305580D01*
X125050398Y-57305580D02*
X125002779Y-57353200D01*
X125002779Y-57353200D02*
X124907541Y-57400819D01*
X124907541Y-57400819D02*
X124764684Y-57400819D01*
X125526589Y-57400819D02*
X125526589Y-56734152D01*
X125526589Y-56924628D02*
X125574208Y-56829390D01*
X125574208Y-56829390D02*
X125621827Y-56781771D01*
X125621827Y-56781771D02*
X125717065Y-56734152D01*
X125717065Y-56734152D02*
X125812303Y-56734152D01*
X142443152Y-110502506D02*
X142443152Y-110740601D01*
X142443152Y-110740601D02*
X141014580Y-110740601D01*
X141014580Y-110740601D02*
X141014580Y-110502506D01*
X141586009Y-109788220D02*
X141633628Y-109645363D01*
X141633628Y-109645363D02*
X141681247Y-109597744D01*
X141681247Y-109597744D02*
X141776485Y-109550125D01*
X141776485Y-109550125D02*
X141919342Y-109550125D01*
X141919342Y-109550125D02*
X142014580Y-109597744D01*
X142014580Y-109597744D02*
X142062200Y-109645363D01*
X142062200Y-109645363D02*
X142109819Y-109740601D01*
X142109819Y-109740601D02*
X142109819Y-110121553D01*
X142109819Y-110121553D02*
X141109819Y-110121553D01*
X141109819Y-110121553D02*
X141109819Y-109788220D01*
X141109819Y-109788220D02*
X141157438Y-109692982D01*
X141157438Y-109692982D02*
X141205057Y-109645363D01*
X141205057Y-109645363D02*
X141300295Y-109597744D01*
X141300295Y-109597744D02*
X141395533Y-109597744D01*
X141395533Y-109597744D02*
X141490771Y-109645363D01*
X141490771Y-109645363D02*
X141538390Y-109692982D01*
X141538390Y-109692982D02*
X141586009Y-109788220D01*
X141586009Y-109788220D02*
X141586009Y-110121553D01*
X142109819Y-109121553D02*
X141109819Y-109121553D01*
X141109819Y-109121553D02*
X141109819Y-108740601D01*
X141109819Y-108740601D02*
X141157438Y-108645363D01*
X141157438Y-108645363D02*
X141205057Y-108597744D01*
X141205057Y-108597744D02*
X141300295Y-108550125D01*
X141300295Y-108550125D02*
X141443152Y-108550125D01*
X141443152Y-108550125D02*
X141538390Y-108597744D01*
X141538390Y-108597744D02*
X141586009Y-108645363D01*
X141586009Y-108645363D02*
X141633628Y-108740601D01*
X141633628Y-108740601D02*
X141633628Y-109121553D01*
X141109819Y-107645363D02*
X141109819Y-108121553D01*
X141109819Y-108121553D02*
X141586009Y-108169172D01*
X141586009Y-108169172D02*
X141538390Y-108121553D01*
X141538390Y-108121553D02*
X141490771Y-108026315D01*
X141490771Y-108026315D02*
X141490771Y-107788220D01*
X141490771Y-107788220D02*
X141538390Y-107692982D01*
X141538390Y-107692982D02*
X141586009Y-107645363D01*
X141586009Y-107645363D02*
X141681247Y-107597744D01*
X141681247Y-107597744D02*
X141919342Y-107597744D01*
X141919342Y-107597744D02*
X142014580Y-107645363D01*
X142014580Y-107645363D02*
X142062200Y-107692982D01*
X142062200Y-107692982D02*
X142109819Y-107788220D01*
X142109819Y-107788220D02*
X142109819Y-108026315D01*
X142109819Y-108026315D02*
X142062200Y-108121553D01*
X142062200Y-108121553D02*
X142014580Y-108169172D01*
X141205057Y-107216791D02*
X141157438Y-107169172D01*
X141157438Y-107169172D02*
X141109819Y-107073934D01*
X141109819Y-107073934D02*
X141109819Y-106835839D01*
X141109819Y-106835839D02*
X141157438Y-106740601D01*
X141157438Y-106740601D02*
X141205057Y-106692982D01*
X141205057Y-106692982D02*
X141300295Y-106645363D01*
X141300295Y-106645363D02*
X141395533Y-106645363D01*
X141395533Y-106645363D02*
X141538390Y-106692982D01*
X141538390Y-106692982D02*
X142109819Y-107264410D01*
X142109819Y-107264410D02*
X142109819Y-106645363D01*
X142109819Y-106169172D02*
X142109819Y-105978696D01*
X142109819Y-105978696D02*
X142062200Y-105883458D01*
X142062200Y-105883458D02*
X142014580Y-105835839D01*
X142014580Y-105835839D02*
X141871723Y-105740601D01*
X141871723Y-105740601D02*
X141681247Y-105692982D01*
X141681247Y-105692982D02*
X141300295Y-105692982D01*
X141300295Y-105692982D02*
X141205057Y-105740601D01*
X141205057Y-105740601D02*
X141157438Y-105788220D01*
X141157438Y-105788220D02*
X141109819Y-105883458D01*
X141109819Y-105883458D02*
X141109819Y-106073934D01*
X141109819Y-106073934D02*
X141157438Y-106169172D01*
X141157438Y-106169172D02*
X141205057Y-106216791D01*
X141205057Y-106216791D02*
X141300295Y-106264410D01*
X141300295Y-106264410D02*
X141538390Y-106264410D01*
X141538390Y-106264410D02*
X141633628Y-106216791D01*
X141633628Y-106216791D02*
X141681247Y-106169172D01*
X141681247Y-106169172D02*
X141728866Y-106073934D01*
X141728866Y-106073934D02*
X141728866Y-105883458D01*
X141728866Y-105883458D02*
X141681247Y-105788220D01*
X141681247Y-105788220D02*
X141633628Y-105740601D01*
X141633628Y-105740601D02*
X141538390Y-105692982D01*
X141109819Y-105359648D02*
X141109819Y-104740601D01*
X141109819Y-104740601D02*
X141490771Y-105073934D01*
X141490771Y-105073934D02*
X141490771Y-104931077D01*
X141490771Y-104931077D02*
X141538390Y-104835839D01*
X141538390Y-104835839D02*
X141586009Y-104788220D01*
X141586009Y-104788220D02*
X141681247Y-104740601D01*
X141681247Y-104740601D02*
X141919342Y-104740601D01*
X141919342Y-104740601D02*
X142014580Y-104788220D01*
X142014580Y-104788220D02*
X142062200Y-104835839D01*
X142062200Y-104835839D02*
X142109819Y-104931077D01*
X142109819Y-104931077D02*
X142109819Y-105216791D01*
X142109819Y-105216791D02*
X142062200Y-105312029D01*
X142062200Y-105312029D02*
X142014580Y-105359648D01*
X141728866Y-104312029D02*
X141728866Y-103550125D01*
X141109819Y-102597744D02*
X141109819Y-103073934D01*
X141109819Y-103073934D02*
X141586009Y-103121553D01*
X141586009Y-103121553D02*
X141538390Y-103073934D01*
X141538390Y-103073934D02*
X141490771Y-102978696D01*
X141490771Y-102978696D02*
X141490771Y-102740601D01*
X141490771Y-102740601D02*
X141538390Y-102645363D01*
X141538390Y-102645363D02*
X141586009Y-102597744D01*
X141586009Y-102597744D02*
X141681247Y-102550125D01*
X141681247Y-102550125D02*
X141919342Y-102550125D01*
X141919342Y-102550125D02*
X142014580Y-102597744D01*
X142014580Y-102597744D02*
X142062200Y-102645363D01*
X142062200Y-102645363D02*
X142109819Y-102740601D01*
X142109819Y-102740601D02*
X142109819Y-102978696D01*
X142109819Y-102978696D02*
X142062200Y-103073934D01*
X142062200Y-103073934D02*
X142014580Y-103121553D01*
X141109819Y-101931077D02*
X141109819Y-101835839D01*
X141109819Y-101835839D02*
X141157438Y-101740601D01*
X141157438Y-101740601D02*
X141205057Y-101692982D01*
X141205057Y-101692982D02*
X141300295Y-101645363D01*
X141300295Y-101645363D02*
X141490771Y-101597744D01*
X141490771Y-101597744D02*
X141728866Y-101597744D01*
X141728866Y-101597744D02*
X141919342Y-101645363D01*
X141919342Y-101645363D02*
X142014580Y-101692982D01*
X142014580Y-101692982D02*
X142062200Y-101740601D01*
X142062200Y-101740601D02*
X142109819Y-101835839D01*
X142109819Y-101835839D02*
X142109819Y-101931077D01*
X142109819Y-101931077D02*
X142062200Y-102026315D01*
X142062200Y-102026315D02*
X142014580Y-102073934D01*
X142014580Y-102073934D02*
X141919342Y-102121553D01*
X141919342Y-102121553D02*
X141728866Y-102169172D01*
X141728866Y-102169172D02*
X141490771Y-102169172D01*
X141490771Y-102169172D02*
X141300295Y-102121553D01*
X141300295Y-102121553D02*
X141205057Y-102073934D01*
X141205057Y-102073934D02*
X141157438Y-102026315D01*
X141157438Y-102026315D02*
X141109819Y-101931077D01*
X142443152Y-101264410D02*
X142443152Y-101026315D01*
X142443152Y-101026315D02*
X141014580Y-101026315D01*
X141014580Y-101026315D02*
X141014580Y-101264410D01*
X139481160Y-82896104D02*
X139957350Y-82896104D01*
X139385922Y-83181819D02*
X139719255Y-82181819D01*
X139719255Y-82181819D02*
X140052588Y-83181819D01*
X140338303Y-82277057D02*
X140385922Y-82229438D01*
X140385922Y-82229438D02*
X140481160Y-82181819D01*
X140481160Y-82181819D02*
X140719255Y-82181819D01*
X140719255Y-82181819D02*
X140814493Y-82229438D01*
X140814493Y-82229438D02*
X140862112Y-82277057D01*
X140862112Y-82277057D02*
X140909731Y-82372295D01*
X140909731Y-82372295D02*
X140909731Y-82467533D01*
X140909731Y-82467533D02*
X140862112Y-82610390D01*
X140862112Y-82610390D02*
X140290684Y-83181819D01*
X140290684Y-83181819D02*
X140909731Y-83181819D01*
X123971255Y-57924819D02*
X124066493Y-57924819D01*
X124066493Y-57924819D02*
X124161731Y-57972438D01*
X124161731Y-57972438D02*
X124209350Y-58020057D01*
X124209350Y-58020057D02*
X124256969Y-58115295D01*
X124256969Y-58115295D02*
X124304588Y-58305771D01*
X124304588Y-58305771D02*
X124304588Y-58543866D01*
X124304588Y-58543866D02*
X124256969Y-58734342D01*
X124256969Y-58734342D02*
X124209350Y-58829580D01*
X124209350Y-58829580D02*
X124161731Y-58877200D01*
X124161731Y-58877200D02*
X124066493Y-58924819D01*
X124066493Y-58924819D02*
X123971255Y-58924819D01*
X123971255Y-58924819D02*
X123876017Y-58877200D01*
X123876017Y-58877200D02*
X123828398Y-58829580D01*
X123828398Y-58829580D02*
X123780779Y-58734342D01*
X123780779Y-58734342D02*
X123733160Y-58543866D01*
X123733160Y-58543866D02*
X123733160Y-58305771D01*
X123733160Y-58305771D02*
X123780779Y-58115295D01*
X123780779Y-58115295D02*
X123828398Y-58020057D01*
X123828398Y-58020057D02*
X123876017Y-57972438D01*
X123876017Y-57972438D02*
X123971255Y-57924819D01*
X174317019Y-65195220D02*
X173317019Y-65195220D01*
X173317019Y-65195220D02*
X173317019Y-64957125D01*
X173317019Y-64957125D02*
X173364638Y-64814268D01*
X173364638Y-64814268D02*
X173459876Y-64719030D01*
X173459876Y-64719030D02*
X173555114Y-64671411D01*
X173555114Y-64671411D02*
X173745590Y-64623792D01*
X173745590Y-64623792D02*
X173888447Y-64623792D01*
X173888447Y-64623792D02*
X174078923Y-64671411D01*
X174078923Y-64671411D02*
X174174161Y-64719030D01*
X174174161Y-64719030D02*
X174269400Y-64814268D01*
X174269400Y-64814268D02*
X174317019Y-64957125D01*
X174317019Y-64957125D02*
X174317019Y-65195220D01*
X174317019Y-64195220D02*
X173317019Y-64195220D01*
X173364638Y-63195221D02*
X173317019Y-63290459D01*
X173317019Y-63290459D02*
X173317019Y-63433316D01*
X173317019Y-63433316D02*
X173364638Y-63576173D01*
X173364638Y-63576173D02*
X173459876Y-63671411D01*
X173459876Y-63671411D02*
X173555114Y-63719030D01*
X173555114Y-63719030D02*
X173745590Y-63766649D01*
X173745590Y-63766649D02*
X173888447Y-63766649D01*
X173888447Y-63766649D02*
X174078923Y-63719030D01*
X174078923Y-63719030D02*
X174174161Y-63671411D01*
X174174161Y-63671411D02*
X174269400Y-63576173D01*
X174269400Y-63576173D02*
X174317019Y-63433316D01*
X174317019Y-63433316D02*
X174317019Y-63338078D01*
X174317019Y-63338078D02*
X174269400Y-63195221D01*
X174269400Y-63195221D02*
X174221780Y-63147602D01*
X174221780Y-63147602D02*
X173888447Y-63147602D01*
X173888447Y-63147602D02*
X173888447Y-63338078D01*
X174317019Y-62195221D02*
X174317019Y-62766649D01*
X174317019Y-62480935D02*
X173317019Y-62480935D01*
X173317019Y-62480935D02*
X173459876Y-62576173D01*
X173459876Y-62576173D02*
X173555114Y-62671411D01*
X173555114Y-62671411D02*
X173602733Y-62766649D01*
X194561064Y-84514485D02*
X194599160Y-84476390D01*
X194599160Y-84476390D02*
X194675350Y-84438295D01*
X194675350Y-84438295D02*
X194865826Y-84438295D01*
X194865826Y-84438295D02*
X194942017Y-84476390D01*
X194942017Y-84476390D02*
X194980112Y-84514485D01*
X194980112Y-84514485D02*
X195018207Y-84590676D01*
X195018207Y-84590676D02*
X195018207Y-84666866D01*
X195018207Y-84666866D02*
X194980112Y-84781152D01*
X194980112Y-84781152D02*
X194522969Y-85238295D01*
X194522969Y-85238295D02*
X195018207Y-85238295D01*
X186264779Y-117725819D02*
X186264779Y-116725819D01*
X186264779Y-117202009D02*
X186836207Y-117202009D01*
X186836207Y-117725819D02*
X186836207Y-116725819D01*
X187074303Y-117821057D02*
X187836207Y-117821057D01*
X187979065Y-116725819D02*
X188217160Y-117725819D01*
X188217160Y-117725819D02*
X188407636Y-117011533D01*
X188407636Y-117011533D02*
X188598112Y-117725819D01*
X188598112Y-117725819D02*
X188836208Y-116725819D01*
X134670969Y-106565819D02*
X134194779Y-106565819D01*
X134194779Y-106565819D02*
X134147160Y-107042009D01*
X134147160Y-107042009D02*
X134194779Y-106994390D01*
X134194779Y-106994390D02*
X134290017Y-106946771D01*
X134290017Y-106946771D02*
X134528112Y-106946771D01*
X134528112Y-106946771D02*
X134623350Y-106994390D01*
X134623350Y-106994390D02*
X134670969Y-107042009D01*
X134670969Y-107042009D02*
X134718588Y-107137247D01*
X134718588Y-107137247D02*
X134718588Y-107375342D01*
X134718588Y-107375342D02*
X134670969Y-107470580D01*
X134670969Y-107470580D02*
X134623350Y-107518200D01*
X134623350Y-107518200D02*
X134528112Y-107565819D01*
X134528112Y-107565819D02*
X134290017Y-107565819D01*
X134290017Y-107565819D02*
X134194779Y-107518200D01*
X134194779Y-107518200D02*
X134147160Y-107470580D01*
X135004303Y-106565819D02*
X135337636Y-107565819D01*
X135337636Y-107565819D02*
X135670969Y-106565819D01*
X194726160Y-117059152D02*
X195440445Y-117059152D01*
X195011874Y-116630580D02*
X194726160Y-117916295D01*
X195345207Y-117487723D02*
X194630922Y-117487723D01*
X195059493Y-117916295D02*
X195345207Y-116630580D01*
X196249969Y-117725819D02*
X195773779Y-117725819D01*
X195773779Y-117725819D02*
X195773779Y-116725819D01*
X196583303Y-117725819D02*
X196583303Y-116725819D01*
X197059493Y-117725819D02*
X197059493Y-116725819D01*
X197059493Y-116725819D02*
X197630921Y-117725819D01*
X197630921Y-117725819D02*
X197630921Y-116725819D01*
X197869017Y-117821057D02*
X198630921Y-117821057D01*
X199440445Y-117725819D02*
X199107112Y-117249628D01*
X198869017Y-117725819D02*
X198869017Y-116725819D01*
X198869017Y-116725819D02*
X199249969Y-116725819D01*
X199249969Y-116725819D02*
X199345207Y-116773438D01*
X199345207Y-116773438D02*
X199392826Y-116821057D01*
X199392826Y-116821057D02*
X199440445Y-116916295D01*
X199440445Y-116916295D02*
X199440445Y-117059152D01*
X199440445Y-117059152D02*
X199392826Y-117154390D01*
X199392826Y-117154390D02*
X199345207Y-117202009D01*
X199345207Y-117202009D02*
X199249969Y-117249628D01*
X199249969Y-117249628D02*
X198869017Y-117249628D01*
X184994779Y-115185819D02*
X184994779Y-114185819D01*
X184994779Y-114662009D02*
X185566207Y-114662009D01*
X185566207Y-115185819D02*
X185566207Y-114185819D01*
X186042398Y-115185819D02*
X186042398Y-114185819D01*
X186518588Y-115185819D02*
X186518588Y-114185819D01*
X186518588Y-114185819D02*
X187090016Y-115185819D01*
X187090016Y-115185819D02*
X187090016Y-114185819D01*
X187328112Y-115281057D02*
X188090016Y-115281057D01*
X188899540Y-115185819D02*
X188566207Y-114709628D01*
X188328112Y-115185819D02*
X188328112Y-114185819D01*
X188328112Y-114185819D02*
X188709064Y-114185819D01*
X188709064Y-114185819D02*
X188804302Y-114233438D01*
X188804302Y-114233438D02*
X188851921Y-114281057D01*
X188851921Y-114281057D02*
X188899540Y-114376295D01*
X188899540Y-114376295D02*
X188899540Y-114519152D01*
X188899540Y-114519152D02*
X188851921Y-114614390D01*
X188851921Y-114614390D02*
X188804302Y-114662009D01*
X188804302Y-114662009D02*
X188709064Y-114709628D01*
X188709064Y-114709628D02*
X188328112Y-114709628D01*
X166849419Y-63976020D02*
X165849419Y-63976020D01*
X165849419Y-63976020D02*
X165849419Y-63737925D01*
X165849419Y-63737925D02*
X165897038Y-63595068D01*
X165897038Y-63595068D02*
X165992276Y-63499830D01*
X165992276Y-63499830D02*
X166087514Y-63452211D01*
X166087514Y-63452211D02*
X166277990Y-63404592D01*
X166277990Y-63404592D02*
X166420847Y-63404592D01*
X166420847Y-63404592D02*
X166611323Y-63452211D01*
X166611323Y-63452211D02*
X166706561Y-63499830D01*
X166706561Y-63499830D02*
X166801800Y-63595068D01*
X166801800Y-63595068D02*
X166849419Y-63737925D01*
X166849419Y-63737925D02*
X166849419Y-63976020D01*
X166849419Y-62976020D02*
X165849419Y-62976020D01*
X165849419Y-62976020D02*
X165849419Y-62595068D01*
X165849419Y-62595068D02*
X165897038Y-62499830D01*
X165897038Y-62499830D02*
X165944657Y-62452211D01*
X165944657Y-62452211D02*
X166039895Y-62404592D01*
X166039895Y-62404592D02*
X166182752Y-62404592D01*
X166182752Y-62404592D02*
X166277990Y-62452211D01*
X166277990Y-62452211D02*
X166325609Y-62499830D01*
X166325609Y-62499830D02*
X166373228Y-62595068D01*
X166373228Y-62595068D02*
X166373228Y-62976020D01*
X151212779Y-93087819D02*
X151212779Y-92087819D01*
X151212779Y-92087819D02*
X151450874Y-92087819D01*
X151450874Y-92087819D02*
X151593731Y-92135438D01*
X151593731Y-92135438D02*
X151688969Y-92230676D01*
X151688969Y-92230676D02*
X151736588Y-92325914D01*
X151736588Y-92325914D02*
X151784207Y-92516390D01*
X151784207Y-92516390D02*
X151784207Y-92659247D01*
X151784207Y-92659247D02*
X151736588Y-92849723D01*
X151736588Y-92849723D02*
X151688969Y-92944961D01*
X151688969Y-92944961D02*
X151593731Y-93040200D01*
X151593731Y-93040200D02*
X151450874Y-93087819D01*
X151450874Y-93087819D02*
X151212779Y-93087819D01*
X152212779Y-93087819D02*
X152212779Y-92421152D01*
X152212779Y-92087819D02*
X152165160Y-92135438D01*
X152165160Y-92135438D02*
X152212779Y-92183057D01*
X152212779Y-92183057D02*
X152260398Y-92135438D01*
X152260398Y-92135438D02*
X152212779Y-92087819D01*
X152212779Y-92087819D02*
X152212779Y-92183057D01*
X152688969Y-92421152D02*
X152688969Y-93087819D01*
X152688969Y-92516390D02*
X152736588Y-92468771D01*
X152736588Y-92468771D02*
X152831826Y-92421152D01*
X152831826Y-92421152D02*
X152974683Y-92421152D01*
X152974683Y-92421152D02*
X153069921Y-92468771D01*
X153069921Y-92468771D02*
X153117540Y-92564009D01*
X153117540Y-92564009D02*
X153117540Y-93087819D01*
X186518779Y-125599819D02*
X186518779Y-124599819D01*
X186518779Y-125076009D02*
X187090207Y-125076009D01*
X187090207Y-125599819D02*
X187090207Y-124599819D01*
X187328303Y-125695057D02*
X188090207Y-125695057D01*
X188185446Y-124599819D02*
X188518779Y-125599819D01*
X188518779Y-125599819D02*
X188852112Y-124599819D01*
X170008684Y-149063152D02*
X169246779Y-149348866D01*
X169246779Y-149348866D02*
X170008684Y-149634580D01*
X170484874Y-148729819D02*
X170484874Y-149539342D01*
X170484874Y-149539342D02*
X170532493Y-149634580D01*
X170532493Y-149634580D02*
X170580112Y-149682200D01*
X170580112Y-149682200D02*
X170675350Y-149729819D01*
X170675350Y-149729819D02*
X170865826Y-149729819D01*
X170865826Y-149729819D02*
X170961064Y-149682200D01*
X170961064Y-149682200D02*
X171008683Y-149634580D01*
X171008683Y-149634580D02*
X171056302Y-149539342D01*
X171056302Y-149539342D02*
X171056302Y-148729819D01*
X171484874Y-149682200D02*
X171627731Y-149729819D01*
X171627731Y-149729819D02*
X171865826Y-149729819D01*
X171865826Y-149729819D02*
X171961064Y-149682200D01*
X171961064Y-149682200D02*
X172008683Y-149634580D01*
X172008683Y-149634580D02*
X172056302Y-149539342D01*
X172056302Y-149539342D02*
X172056302Y-149444104D01*
X172056302Y-149444104D02*
X172008683Y-149348866D01*
X172008683Y-149348866D02*
X171961064Y-149301247D01*
X171961064Y-149301247D02*
X171865826Y-149253628D01*
X171865826Y-149253628D02*
X171675350Y-149206009D01*
X171675350Y-149206009D02*
X171580112Y-149158390D01*
X171580112Y-149158390D02*
X171532493Y-149110771D01*
X171532493Y-149110771D02*
X171484874Y-149015533D01*
X171484874Y-149015533D02*
X171484874Y-148920295D01*
X171484874Y-148920295D02*
X171532493Y-148825057D01*
X171532493Y-148825057D02*
X171580112Y-148777438D01*
X171580112Y-148777438D02*
X171675350Y-148729819D01*
X171675350Y-148729819D02*
X171913445Y-148729819D01*
X171913445Y-148729819D02*
X172056302Y-148777438D01*
X172818207Y-149206009D02*
X172961064Y-149253628D01*
X172961064Y-149253628D02*
X173008683Y-149301247D01*
X173008683Y-149301247D02*
X173056302Y-149396485D01*
X173056302Y-149396485D02*
X173056302Y-149539342D01*
X173056302Y-149539342D02*
X173008683Y-149634580D01*
X173008683Y-149634580D02*
X172961064Y-149682200D01*
X172961064Y-149682200D02*
X172865826Y-149729819D01*
X172865826Y-149729819D02*
X172484874Y-149729819D01*
X172484874Y-149729819D02*
X172484874Y-148729819D01*
X172484874Y-148729819D02*
X172818207Y-148729819D01*
X172818207Y-148729819D02*
X172913445Y-148777438D01*
X172913445Y-148777438D02*
X172961064Y-148825057D01*
X172961064Y-148825057D02*
X173008683Y-148920295D01*
X173008683Y-148920295D02*
X173008683Y-149015533D01*
X173008683Y-149015533D02*
X172961064Y-149110771D01*
X172961064Y-149110771D02*
X172913445Y-149158390D01*
X172913445Y-149158390D02*
X172818207Y-149206009D01*
X172818207Y-149206009D02*
X172484874Y-149206009D01*
X173484874Y-149063152D02*
X174246779Y-149348866D01*
X174246779Y-149348866D02*
X173484874Y-149634580D01*
X133601064Y-84514485D02*
X133639160Y-84476390D01*
X133639160Y-84476390D02*
X133715350Y-84438295D01*
X133715350Y-84438295D02*
X133905826Y-84438295D01*
X133905826Y-84438295D02*
X133982017Y-84476390D01*
X133982017Y-84476390D02*
X134020112Y-84514485D01*
X134020112Y-84514485D02*
X134058207Y-84590676D01*
X134058207Y-84590676D02*
X134058207Y-84666866D01*
X134058207Y-84666866D02*
X134020112Y-84781152D01*
X134020112Y-84781152D02*
X133562969Y-85238295D01*
X133562969Y-85238295D02*
X134058207Y-85238295D01*
X145069160Y-85182104D02*
X145545350Y-85182104D01*
X144973922Y-85467819D02*
X145307255Y-84467819D01*
X145307255Y-84467819D02*
X145640588Y-85467819D01*
X146497731Y-84515438D02*
X146402493Y-84467819D01*
X146402493Y-84467819D02*
X146259636Y-84467819D01*
X146259636Y-84467819D02*
X146116779Y-84515438D01*
X146116779Y-84515438D02*
X146021541Y-84610676D01*
X146021541Y-84610676D02*
X145973922Y-84705914D01*
X145973922Y-84705914D02*
X145926303Y-84896390D01*
X145926303Y-84896390D02*
X145926303Y-85039247D01*
X145926303Y-85039247D02*
X145973922Y-85229723D01*
X145973922Y-85229723D02*
X146021541Y-85324961D01*
X146021541Y-85324961D02*
X146116779Y-85420200D01*
X146116779Y-85420200D02*
X146259636Y-85467819D01*
X146259636Y-85467819D02*
X146354874Y-85467819D01*
X146354874Y-85467819D02*
X146497731Y-85420200D01*
X146497731Y-85420200D02*
X146545350Y-85372580D01*
X146545350Y-85372580D02*
X146545350Y-85039247D01*
X146545350Y-85039247D02*
X146354874Y-85039247D01*
X146973922Y-85467819D02*
X146973922Y-84467819D01*
X146973922Y-84467819D02*
X147545350Y-85467819D01*
X147545350Y-85467819D02*
X147545350Y-84467819D01*
X148021541Y-85467819D02*
X148021541Y-84467819D01*
X148021541Y-84467819D02*
X148259636Y-84467819D01*
X148259636Y-84467819D02*
X148402493Y-84515438D01*
X148402493Y-84515438D02*
X148497731Y-84610676D01*
X148497731Y-84610676D02*
X148545350Y-84705914D01*
X148545350Y-84705914D02*
X148592969Y-84896390D01*
X148592969Y-84896390D02*
X148592969Y-85039247D01*
X148592969Y-85039247D02*
X148545350Y-85229723D01*
X148545350Y-85229723D02*
X148497731Y-85324961D01*
X148497731Y-85324961D02*
X148402493Y-85420200D01*
X148402493Y-85420200D02*
X148259636Y-85467819D01*
X148259636Y-85467819D02*
X148021541Y-85467819D01*
X172542152Y-120535506D02*
X172542152Y-120773601D01*
X172542152Y-120773601D02*
X171113580Y-120773601D01*
X171113580Y-120773601D02*
X171113580Y-120535506D01*
X171208819Y-120297410D02*
X171208819Y-119725982D01*
X172208819Y-120011696D02*
X171208819Y-120011696D01*
X172208819Y-118964077D02*
X171685009Y-118964077D01*
X171685009Y-118964077D02*
X171589771Y-119011696D01*
X171589771Y-119011696D02*
X171542152Y-119106934D01*
X171542152Y-119106934D02*
X171542152Y-119297410D01*
X171542152Y-119297410D02*
X171589771Y-119392648D01*
X172161200Y-118964077D02*
X172208819Y-119059315D01*
X172208819Y-119059315D02*
X172208819Y-119297410D01*
X172208819Y-119297410D02*
X172161200Y-119392648D01*
X172161200Y-119392648D02*
X172065961Y-119440267D01*
X172065961Y-119440267D02*
X171970723Y-119440267D01*
X171970723Y-119440267D02*
X171875485Y-119392648D01*
X171875485Y-119392648D02*
X171827866Y-119297410D01*
X171827866Y-119297410D02*
X171827866Y-119059315D01*
X171827866Y-119059315D02*
X171780247Y-118964077D01*
X171542152Y-118487886D02*
X172208819Y-118487886D01*
X171637390Y-118487886D02*
X171589771Y-118440267D01*
X171589771Y-118440267D02*
X171542152Y-118345029D01*
X171542152Y-118345029D02*
X171542152Y-118202172D01*
X171542152Y-118202172D02*
X171589771Y-118106934D01*
X171589771Y-118106934D02*
X171685009Y-118059315D01*
X171685009Y-118059315D02*
X172208819Y-118059315D01*
X171542152Y-117154553D02*
X172351676Y-117154553D01*
X172351676Y-117154553D02*
X172446914Y-117202172D01*
X172446914Y-117202172D02*
X172494533Y-117249791D01*
X172494533Y-117249791D02*
X172542152Y-117345029D01*
X172542152Y-117345029D02*
X172542152Y-117487886D01*
X172542152Y-117487886D02*
X172494533Y-117583124D01*
X172161200Y-117154553D02*
X172208819Y-117249791D01*
X172208819Y-117249791D02*
X172208819Y-117440267D01*
X172208819Y-117440267D02*
X172161200Y-117535505D01*
X172161200Y-117535505D02*
X172113580Y-117583124D01*
X172113580Y-117583124D02*
X172018342Y-117630743D01*
X172018342Y-117630743D02*
X171732628Y-117630743D01*
X171732628Y-117630743D02*
X171637390Y-117583124D01*
X171637390Y-117583124D02*
X171589771Y-117535505D01*
X171589771Y-117535505D02*
X171542152Y-117440267D01*
X171542152Y-117440267D02*
X171542152Y-117249791D01*
X171542152Y-117249791D02*
X171589771Y-117154553D01*
X172208819Y-115916457D02*
X171208819Y-115916457D01*
X171208819Y-115916457D02*
X172208819Y-115345029D01*
X172208819Y-115345029D02*
X171208819Y-115345029D01*
X172208819Y-114440267D02*
X171685009Y-114440267D01*
X171685009Y-114440267D02*
X171589771Y-114487886D01*
X171589771Y-114487886D02*
X171542152Y-114583124D01*
X171542152Y-114583124D02*
X171542152Y-114773600D01*
X171542152Y-114773600D02*
X171589771Y-114868838D01*
X172161200Y-114440267D02*
X172208819Y-114535505D01*
X172208819Y-114535505D02*
X172208819Y-114773600D01*
X172208819Y-114773600D02*
X172161200Y-114868838D01*
X172161200Y-114868838D02*
X172065961Y-114916457D01*
X172065961Y-114916457D02*
X171970723Y-114916457D01*
X171970723Y-114916457D02*
X171875485Y-114868838D01*
X171875485Y-114868838D02*
X171827866Y-114773600D01*
X171827866Y-114773600D02*
X171827866Y-114535505D01*
X171827866Y-114535505D02*
X171780247Y-114440267D01*
X171542152Y-113964076D02*
X172208819Y-113964076D01*
X171637390Y-113964076D02*
X171589771Y-113916457D01*
X171589771Y-113916457D02*
X171542152Y-113821219D01*
X171542152Y-113821219D02*
X171542152Y-113678362D01*
X171542152Y-113678362D02*
X171589771Y-113583124D01*
X171589771Y-113583124D02*
X171685009Y-113535505D01*
X171685009Y-113535505D02*
X172208819Y-113535505D01*
X172208819Y-112916457D02*
X172161200Y-113011695D01*
X172161200Y-113011695D02*
X172113580Y-113059314D01*
X172113580Y-113059314D02*
X172018342Y-113106933D01*
X172018342Y-113106933D02*
X171732628Y-113106933D01*
X171732628Y-113106933D02*
X171637390Y-113059314D01*
X171637390Y-113059314D02*
X171589771Y-113011695D01*
X171589771Y-113011695D02*
X171542152Y-112916457D01*
X171542152Y-112916457D02*
X171542152Y-112773600D01*
X171542152Y-112773600D02*
X171589771Y-112678362D01*
X171589771Y-112678362D02*
X171637390Y-112630743D01*
X171637390Y-112630743D02*
X171732628Y-112583124D01*
X171732628Y-112583124D02*
X172018342Y-112583124D01*
X172018342Y-112583124D02*
X172113580Y-112630743D01*
X172113580Y-112630743D02*
X172161200Y-112678362D01*
X172161200Y-112678362D02*
X172208819Y-112773600D01*
X172208819Y-112773600D02*
X172208819Y-112916457D01*
X172208819Y-111345028D02*
X172208819Y-111154552D01*
X172208819Y-111154552D02*
X172161200Y-111059314D01*
X172161200Y-111059314D02*
X172113580Y-111011695D01*
X172113580Y-111011695D02*
X171970723Y-110916457D01*
X171970723Y-110916457D02*
X171780247Y-110868838D01*
X171780247Y-110868838D02*
X171399295Y-110868838D01*
X171399295Y-110868838D02*
X171304057Y-110916457D01*
X171304057Y-110916457D02*
X171256438Y-110964076D01*
X171256438Y-110964076D02*
X171208819Y-111059314D01*
X171208819Y-111059314D02*
X171208819Y-111249790D01*
X171208819Y-111249790D02*
X171256438Y-111345028D01*
X171256438Y-111345028D02*
X171304057Y-111392647D01*
X171304057Y-111392647D02*
X171399295Y-111440266D01*
X171399295Y-111440266D02*
X171637390Y-111440266D01*
X171637390Y-111440266D02*
X171732628Y-111392647D01*
X171732628Y-111392647D02*
X171780247Y-111345028D01*
X171780247Y-111345028D02*
X171827866Y-111249790D01*
X171827866Y-111249790D02*
X171827866Y-111059314D01*
X171827866Y-111059314D02*
X171780247Y-110964076D01*
X171780247Y-110964076D02*
X171732628Y-110916457D01*
X171732628Y-110916457D02*
X171637390Y-110868838D01*
X172208819Y-110440266D02*
X171208819Y-110440266D01*
X172208819Y-109868838D02*
X171637390Y-110297409D01*
X171208819Y-109868838D02*
X171780247Y-110440266D01*
X172542152Y-109535504D02*
X172542152Y-109297409D01*
X172542152Y-109297409D02*
X171113580Y-109297409D01*
X171113580Y-109297409D02*
X171113580Y-109535504D01*
X133548684Y-134588533D02*
X133982017Y-134588533D01*
X133982017Y-134588533D02*
X133748684Y-134855200D01*
X133748684Y-134855200D02*
X133848684Y-134855200D01*
X133848684Y-134855200D02*
X133915350Y-134888533D01*
X133915350Y-134888533D02*
X133948684Y-134921866D01*
X133948684Y-134921866D02*
X133982017Y-134988533D01*
X133982017Y-134988533D02*
X133982017Y-135155200D01*
X133982017Y-135155200D02*
X133948684Y-135221866D01*
X133948684Y-135221866D02*
X133915350Y-135255200D01*
X133915350Y-135255200D02*
X133848684Y-135288533D01*
X133848684Y-135288533D02*
X133648684Y-135288533D01*
X133648684Y-135288533D02*
X133582017Y-135255200D01*
X133582017Y-135255200D02*
X133548684Y-135221866D01*
X134382017Y-134888533D02*
X134315351Y-134855200D01*
X134315351Y-134855200D02*
X134282017Y-134821866D01*
X134282017Y-134821866D02*
X134248684Y-134755200D01*
X134248684Y-134755200D02*
X134248684Y-134721866D01*
X134248684Y-134721866D02*
X134282017Y-134655200D01*
X134282017Y-134655200D02*
X134315351Y-134621866D01*
X134315351Y-134621866D02*
X134382017Y-134588533D01*
X134382017Y-134588533D02*
X134515351Y-134588533D01*
X134515351Y-134588533D02*
X134582017Y-134621866D01*
X134582017Y-134621866D02*
X134615351Y-134655200D01*
X134615351Y-134655200D02*
X134648684Y-134721866D01*
X134648684Y-134721866D02*
X134648684Y-134755200D01*
X134648684Y-134755200D02*
X134615351Y-134821866D01*
X134615351Y-134821866D02*
X134582017Y-134855200D01*
X134582017Y-134855200D02*
X134515351Y-134888533D01*
X134515351Y-134888533D02*
X134382017Y-134888533D01*
X134382017Y-134888533D02*
X134315351Y-134921866D01*
X134315351Y-134921866D02*
X134282017Y-134955200D01*
X134282017Y-134955200D02*
X134248684Y-135021866D01*
X134248684Y-135021866D02*
X134248684Y-135155200D01*
X134248684Y-135155200D02*
X134282017Y-135221866D01*
X134282017Y-135221866D02*
X134315351Y-135255200D01*
X134315351Y-135255200D02*
X134382017Y-135288533D01*
X134382017Y-135288533D02*
X134515351Y-135288533D01*
X134515351Y-135288533D02*
X134582017Y-135255200D01*
X134582017Y-135255200D02*
X134615351Y-135221866D01*
X134615351Y-135221866D02*
X134648684Y-135155200D01*
X134648684Y-135155200D02*
X134648684Y-135021866D01*
X134648684Y-135021866D02*
X134615351Y-134955200D01*
X134615351Y-134955200D02*
X134582017Y-134921866D01*
X134582017Y-134921866D02*
X134515351Y-134888533D01*
X169192580Y-62490192D02*
X169240200Y-62537811D01*
X169240200Y-62537811D02*
X169287819Y-62680668D01*
X169287819Y-62680668D02*
X169287819Y-62775906D01*
X169287819Y-62775906D02*
X169240200Y-62918763D01*
X169240200Y-62918763D02*
X169144961Y-63014001D01*
X169144961Y-63014001D02*
X169049723Y-63061620D01*
X169049723Y-63061620D02*
X168859247Y-63109239D01*
X168859247Y-63109239D02*
X168716390Y-63109239D01*
X168716390Y-63109239D02*
X168525914Y-63061620D01*
X168525914Y-63061620D02*
X168430676Y-63014001D01*
X168430676Y-63014001D02*
X168335438Y-62918763D01*
X168335438Y-62918763D02*
X168287819Y-62775906D01*
X168287819Y-62775906D02*
X168287819Y-62680668D01*
X168287819Y-62680668D02*
X168335438Y-62537811D01*
X168335438Y-62537811D02*
X168383057Y-62490192D01*
X171183493Y-57607152D02*
X170945398Y-57607152D01*
X170945398Y-57607152D02*
X170945398Y-56178580D01*
X170945398Y-56178580D02*
X171183493Y-56178580D01*
X172135874Y-57178580D02*
X172088255Y-57226200D01*
X172088255Y-57226200D02*
X171945398Y-57273819D01*
X171945398Y-57273819D02*
X171850160Y-57273819D01*
X171850160Y-57273819D02*
X171707303Y-57226200D01*
X171707303Y-57226200D02*
X171612065Y-57130961D01*
X171612065Y-57130961D02*
X171564446Y-57035723D01*
X171564446Y-57035723D02*
X171516827Y-56845247D01*
X171516827Y-56845247D02*
X171516827Y-56702390D01*
X171516827Y-56702390D02*
X171564446Y-56511914D01*
X171564446Y-56511914D02*
X171612065Y-56416676D01*
X171612065Y-56416676D02*
X171707303Y-56321438D01*
X171707303Y-56321438D02*
X171850160Y-56273819D01*
X171850160Y-56273819D02*
X171945398Y-56273819D01*
X171945398Y-56273819D02*
X172088255Y-56321438D01*
X172088255Y-56321438D02*
X172135874Y-56369057D01*
X172564446Y-56892866D02*
X173326351Y-56892866D01*
X174278731Y-56273819D02*
X173802541Y-56273819D01*
X173802541Y-56273819D02*
X173754922Y-56750009D01*
X173754922Y-56750009D02*
X173802541Y-56702390D01*
X173802541Y-56702390D02*
X173897779Y-56654771D01*
X173897779Y-56654771D02*
X174135874Y-56654771D01*
X174135874Y-56654771D02*
X174231112Y-56702390D01*
X174231112Y-56702390D02*
X174278731Y-56750009D01*
X174278731Y-56750009D02*
X174326350Y-56845247D01*
X174326350Y-56845247D02*
X174326350Y-57083342D01*
X174326350Y-57083342D02*
X174278731Y-57178580D01*
X174278731Y-57178580D02*
X174231112Y-57226200D01*
X174231112Y-57226200D02*
X174135874Y-57273819D01*
X174135874Y-57273819D02*
X173897779Y-57273819D01*
X173897779Y-57273819D02*
X173802541Y-57226200D01*
X173802541Y-57226200D02*
X173754922Y-57178580D01*
X174659684Y-56273819D02*
X175326350Y-56273819D01*
X175326350Y-56273819D02*
X174897779Y-57273819D01*
X176135874Y-56607152D02*
X176135874Y-57273819D01*
X175897779Y-56226200D02*
X175659684Y-56940485D01*
X175659684Y-56940485D02*
X176278731Y-56940485D01*
X176612065Y-57226200D02*
X176754922Y-57273819D01*
X176754922Y-57273819D02*
X176993017Y-57273819D01*
X176993017Y-57273819D02*
X177088255Y-57226200D01*
X177088255Y-57226200D02*
X177135874Y-57178580D01*
X177135874Y-57178580D02*
X177183493Y-57083342D01*
X177183493Y-57083342D02*
X177183493Y-56988104D01*
X177183493Y-56988104D02*
X177135874Y-56892866D01*
X177135874Y-56892866D02*
X177088255Y-56845247D01*
X177088255Y-56845247D02*
X176993017Y-56797628D01*
X176993017Y-56797628D02*
X176802541Y-56750009D01*
X176802541Y-56750009D02*
X176707303Y-56702390D01*
X176707303Y-56702390D02*
X176659684Y-56654771D01*
X176659684Y-56654771D02*
X176612065Y-56559533D01*
X176612065Y-56559533D02*
X176612065Y-56464295D01*
X176612065Y-56464295D02*
X176659684Y-56369057D01*
X176659684Y-56369057D02*
X176707303Y-56321438D01*
X176707303Y-56321438D02*
X176802541Y-56273819D01*
X176802541Y-56273819D02*
X177040636Y-56273819D01*
X177040636Y-56273819D02*
X177183493Y-56321438D01*
X178183493Y-57273819D02*
X177850160Y-56797628D01*
X177612065Y-57273819D02*
X177612065Y-56273819D01*
X177612065Y-56273819D02*
X177993017Y-56273819D01*
X177993017Y-56273819D02*
X178088255Y-56321438D01*
X178088255Y-56321438D02*
X178135874Y-56369057D01*
X178135874Y-56369057D02*
X178183493Y-56464295D01*
X178183493Y-56464295D02*
X178183493Y-56607152D01*
X178183493Y-56607152D02*
X178135874Y-56702390D01*
X178135874Y-56702390D02*
X178088255Y-56750009D01*
X178088255Y-56750009D02*
X177993017Y-56797628D01*
X177993017Y-56797628D02*
X177612065Y-56797628D01*
X178612065Y-56892866D02*
X179373970Y-56892866D01*
X180326350Y-57273819D02*
X179850160Y-57273819D01*
X179850160Y-57273819D02*
X179850160Y-56273819D01*
X180993017Y-56750009D02*
X180659684Y-56750009D01*
X180659684Y-57273819D02*
X180659684Y-56273819D01*
X180659684Y-56273819D02*
X181135874Y-56273819D01*
X181421589Y-57607152D02*
X181659684Y-57607152D01*
X181659684Y-57607152D02*
X181659684Y-56178580D01*
X181659684Y-56178580D02*
X181421589Y-56178580D01*
X139481160Y-87722104D02*
X139957350Y-87722104D01*
X139385922Y-88007819D02*
X139719255Y-87007819D01*
X139719255Y-87007819D02*
X140052588Y-88007819D01*
X140814493Y-87341152D02*
X140814493Y-88007819D01*
X140576398Y-86960200D02*
X140338303Y-87674485D01*
X140338303Y-87674485D02*
X140957350Y-87674485D01*
X133639160Y-127219152D02*
X134353445Y-127219152D01*
X133924874Y-126790580D02*
X133639160Y-128076295D01*
X134258207Y-127647723D02*
X133543922Y-127647723D01*
X133972493Y-128076295D02*
X134258207Y-126790580D01*
X135162969Y-127885819D02*
X134686779Y-127885819D01*
X134686779Y-127885819D02*
X134686779Y-126885819D01*
X135496303Y-127885819D02*
X135496303Y-126885819D01*
X135972493Y-127885819D02*
X135972493Y-126885819D01*
X135972493Y-126885819D02*
X136543921Y-127885819D01*
X136543921Y-127885819D02*
X136543921Y-126885819D01*
X136782017Y-127981057D02*
X137543921Y-127981057D01*
X137734398Y-127838200D02*
X137877255Y-127885819D01*
X137877255Y-127885819D02*
X138115350Y-127885819D01*
X138115350Y-127885819D02*
X138210588Y-127838200D01*
X138210588Y-127838200D02*
X138258207Y-127790580D01*
X138258207Y-127790580D02*
X138305826Y-127695342D01*
X138305826Y-127695342D02*
X138305826Y-127600104D01*
X138305826Y-127600104D02*
X138258207Y-127504866D01*
X138258207Y-127504866D02*
X138210588Y-127457247D01*
X138210588Y-127457247D02*
X138115350Y-127409628D01*
X138115350Y-127409628D02*
X137924874Y-127362009D01*
X137924874Y-127362009D02*
X137829636Y-127314390D01*
X137829636Y-127314390D02*
X137782017Y-127266771D01*
X137782017Y-127266771D02*
X137734398Y-127171533D01*
X137734398Y-127171533D02*
X137734398Y-127076295D01*
X137734398Y-127076295D02*
X137782017Y-126981057D01*
X137782017Y-126981057D02*
X137829636Y-126933438D01*
X137829636Y-126933438D02*
X137924874Y-126885819D01*
X137924874Y-126885819D02*
X138162969Y-126885819D01*
X138162969Y-126885819D02*
X138305826Y-126933438D01*
X189725541Y-142125819D02*
X190344588Y-142125819D01*
X190344588Y-142125819D02*
X190011255Y-142506771D01*
X190011255Y-142506771D02*
X190154112Y-142506771D01*
X190154112Y-142506771D02*
X190249350Y-142554390D01*
X190249350Y-142554390D02*
X190296969Y-142602009D01*
X190296969Y-142602009D02*
X190344588Y-142697247D01*
X190344588Y-142697247D02*
X190344588Y-142935342D01*
X190344588Y-142935342D02*
X190296969Y-143030580D01*
X190296969Y-143030580D02*
X190249350Y-143078200D01*
X190249350Y-143078200D02*
X190154112Y-143125819D01*
X190154112Y-143125819D02*
X189868398Y-143125819D01*
X189868398Y-143125819D02*
X189773160Y-143078200D01*
X189773160Y-143078200D02*
X189725541Y-143030580D01*
X191201731Y-142125819D02*
X191011255Y-142125819D01*
X191011255Y-142125819D02*
X190916017Y-142173438D01*
X190916017Y-142173438D02*
X190868398Y-142221057D01*
X190868398Y-142221057D02*
X190773160Y-142363914D01*
X190773160Y-142363914D02*
X190725541Y-142554390D01*
X190725541Y-142554390D02*
X190725541Y-142935342D01*
X190725541Y-142935342D02*
X190773160Y-143030580D01*
X190773160Y-143030580D02*
X190820779Y-143078200D01*
X190820779Y-143078200D02*
X190916017Y-143125819D01*
X190916017Y-143125819D02*
X191106493Y-143125819D01*
X191106493Y-143125819D02*
X191201731Y-143078200D01*
X191201731Y-143078200D02*
X191249350Y-143030580D01*
X191249350Y-143030580D02*
X191296969Y-142935342D01*
X191296969Y-142935342D02*
X191296969Y-142697247D01*
X191296969Y-142697247D02*
X191249350Y-142602009D01*
X191249350Y-142602009D02*
X191201731Y-142554390D01*
X191201731Y-142554390D02*
X191106493Y-142506771D01*
X191106493Y-142506771D02*
X190916017Y-142506771D01*
X190916017Y-142506771D02*
X190820779Y-142554390D01*
X190820779Y-142554390D02*
X190773160Y-142602009D01*
X190773160Y-142602009D02*
X190725541Y-142697247D01*
X192439826Y-142078200D02*
X191582684Y-143363914D01*
X192725541Y-142459152D02*
X193439826Y-142459152D01*
X193011255Y-142030580D02*
X192725541Y-143316295D01*
X193344588Y-142887723D02*
X192630303Y-142887723D01*
X193058874Y-143316295D02*
X193344588Y-142030580D01*
X194249350Y-143125819D02*
X193773160Y-143125819D01*
X193773160Y-143125819D02*
X193773160Y-142125819D01*
X194582684Y-143125819D02*
X194582684Y-142125819D01*
X195058874Y-143125819D02*
X195058874Y-142125819D01*
X195058874Y-142125819D02*
X195630302Y-143125819D01*
X195630302Y-143125819D02*
X195630302Y-142125819D01*
X195868398Y-143221057D02*
X196630302Y-143221057D01*
X196725541Y-142125819D02*
X197296969Y-142125819D01*
X197011255Y-143125819D02*
X197011255Y-142125819D01*
X125828588Y-109153438D02*
X125733350Y-109105819D01*
X125733350Y-109105819D02*
X125590493Y-109105819D01*
X125590493Y-109105819D02*
X125447636Y-109153438D01*
X125447636Y-109153438D02*
X125352398Y-109248676D01*
X125352398Y-109248676D02*
X125304779Y-109343914D01*
X125304779Y-109343914D02*
X125257160Y-109534390D01*
X125257160Y-109534390D02*
X125257160Y-109677247D01*
X125257160Y-109677247D02*
X125304779Y-109867723D01*
X125304779Y-109867723D02*
X125352398Y-109962961D01*
X125352398Y-109962961D02*
X125447636Y-110058200D01*
X125447636Y-110058200D02*
X125590493Y-110105819D01*
X125590493Y-110105819D02*
X125685731Y-110105819D01*
X125685731Y-110105819D02*
X125828588Y-110058200D01*
X125828588Y-110058200D02*
X125876207Y-110010580D01*
X125876207Y-110010580D02*
X125876207Y-109677247D01*
X125876207Y-109677247D02*
X125685731Y-109677247D01*
X126304779Y-110105819D02*
X126304779Y-109105819D01*
X126304779Y-109105819D02*
X126876207Y-110105819D01*
X126876207Y-110105819D02*
X126876207Y-109105819D01*
X127352398Y-110105819D02*
X127352398Y-109105819D01*
X127352398Y-109105819D02*
X127590493Y-109105819D01*
X127590493Y-109105819D02*
X127733350Y-109153438D01*
X127733350Y-109153438D02*
X127828588Y-109248676D01*
X127828588Y-109248676D02*
X127876207Y-109343914D01*
X127876207Y-109343914D02*
X127923826Y-109534390D01*
X127923826Y-109534390D02*
X127923826Y-109677247D01*
X127923826Y-109677247D02*
X127876207Y-109867723D01*
X127876207Y-109867723D02*
X127828588Y-109962961D01*
X127828588Y-109962961D02*
X127733350Y-110058200D01*
X127733350Y-110058200D02*
X127590493Y-110105819D01*
X127590493Y-110105819D02*
X127352398Y-110105819D01*
X135401255Y-57924819D02*
X135496493Y-57924819D01*
X135496493Y-57924819D02*
X135591731Y-57972438D01*
X135591731Y-57972438D02*
X135639350Y-58020057D01*
X135639350Y-58020057D02*
X135686969Y-58115295D01*
X135686969Y-58115295D02*
X135734588Y-58305771D01*
X135734588Y-58305771D02*
X135734588Y-58543866D01*
X135734588Y-58543866D02*
X135686969Y-58734342D01*
X135686969Y-58734342D02*
X135639350Y-58829580D01*
X135639350Y-58829580D02*
X135591731Y-58877200D01*
X135591731Y-58877200D02*
X135496493Y-58924819D01*
X135496493Y-58924819D02*
X135401255Y-58924819D01*
X135401255Y-58924819D02*
X135306017Y-58877200D01*
X135306017Y-58877200D02*
X135258398Y-58829580D01*
X135258398Y-58829580D02*
X135210779Y-58734342D01*
X135210779Y-58734342D02*
X135163160Y-58543866D01*
X135163160Y-58543866D02*
X135163160Y-58305771D01*
X135163160Y-58305771D02*
X135210779Y-58115295D01*
X135210779Y-58115295D02*
X135258398Y-58020057D01*
X135258398Y-58020057D02*
X135306017Y-57972438D01*
X135306017Y-57972438D02*
X135401255Y-57924819D01*
X139481160Y-90262104D02*
X139957350Y-90262104D01*
X139385922Y-90547819D02*
X139719255Y-89547819D01*
X139719255Y-89547819D02*
X140052588Y-90547819D01*
X140862112Y-89547819D02*
X140385922Y-89547819D01*
X140385922Y-89547819D02*
X140338303Y-90024009D01*
X140338303Y-90024009D02*
X140385922Y-89976390D01*
X140385922Y-89976390D02*
X140481160Y-89928771D01*
X140481160Y-89928771D02*
X140719255Y-89928771D01*
X140719255Y-89928771D02*
X140814493Y-89976390D01*
X140814493Y-89976390D02*
X140862112Y-90024009D01*
X140862112Y-90024009D02*
X140909731Y-90119247D01*
X140909731Y-90119247D02*
X140909731Y-90357342D01*
X140909731Y-90357342D02*
X140862112Y-90452580D01*
X140862112Y-90452580D02*
X140814493Y-90500200D01*
X140814493Y-90500200D02*
X140719255Y-90547819D01*
X140719255Y-90547819D02*
X140481160Y-90547819D01*
X140481160Y-90547819D02*
X140385922Y-90500200D01*
X140385922Y-90500200D02*
X140338303Y-90452580D01*
X133766160Y-125060104D02*
X134242350Y-125060104D01*
X133670922Y-125345819D02*
X134004255Y-124345819D01*
X134004255Y-124345819D02*
X134337588Y-125345819D01*
X134432827Y-125441057D02*
X135194731Y-125441057D01*
X135432827Y-125345819D02*
X135432827Y-124345819D01*
X135909017Y-125345819D02*
X135909017Y-124345819D01*
X135909017Y-124345819D02*
X136480445Y-125345819D01*
X136480445Y-125345819D02*
X136480445Y-124345819D01*
X181937019Y-65195220D02*
X180937019Y-65195220D01*
X180937019Y-65195220D02*
X180937019Y-64957125D01*
X180937019Y-64957125D02*
X180984638Y-64814268D01*
X180984638Y-64814268D02*
X181079876Y-64719030D01*
X181079876Y-64719030D02*
X181175114Y-64671411D01*
X181175114Y-64671411D02*
X181365590Y-64623792D01*
X181365590Y-64623792D02*
X181508447Y-64623792D01*
X181508447Y-64623792D02*
X181698923Y-64671411D01*
X181698923Y-64671411D02*
X181794161Y-64719030D01*
X181794161Y-64719030D02*
X181889400Y-64814268D01*
X181889400Y-64814268D02*
X181937019Y-64957125D01*
X181937019Y-64957125D02*
X181937019Y-65195220D01*
X181937019Y-64195220D02*
X180937019Y-64195220D01*
X180984638Y-63195221D02*
X180937019Y-63290459D01*
X180937019Y-63290459D02*
X180937019Y-63433316D01*
X180937019Y-63433316D02*
X180984638Y-63576173D01*
X180984638Y-63576173D02*
X181079876Y-63671411D01*
X181079876Y-63671411D02*
X181175114Y-63719030D01*
X181175114Y-63719030D02*
X181365590Y-63766649D01*
X181365590Y-63766649D02*
X181508447Y-63766649D01*
X181508447Y-63766649D02*
X181698923Y-63719030D01*
X181698923Y-63719030D02*
X181794161Y-63671411D01*
X181794161Y-63671411D02*
X181889400Y-63576173D01*
X181889400Y-63576173D02*
X181937019Y-63433316D01*
X181937019Y-63433316D02*
X181937019Y-63338078D01*
X181937019Y-63338078D02*
X181889400Y-63195221D01*
X181889400Y-63195221D02*
X181841780Y-63147602D01*
X181841780Y-63147602D02*
X181508447Y-63147602D01*
X181508447Y-63147602D02*
X181508447Y-63338078D01*
X181032257Y-62766649D02*
X180984638Y-62719030D01*
X180984638Y-62719030D02*
X180937019Y-62623792D01*
X180937019Y-62623792D02*
X180937019Y-62385697D01*
X180937019Y-62385697D02*
X180984638Y-62290459D01*
X180984638Y-62290459D02*
X181032257Y-62242840D01*
X181032257Y-62242840D02*
X181127495Y-62195221D01*
X181127495Y-62195221D02*
X181222733Y-62195221D01*
X181222733Y-62195221D02*
X181365590Y-62242840D01*
X181365590Y-62242840D02*
X181937019Y-62814268D01*
X181937019Y-62814268D02*
X181937019Y-62195221D01*
X153666819Y-138474220D02*
X152666819Y-138474220D01*
X152619200Y-137283745D02*
X153904914Y-138140887D01*
X152666819Y-136759935D02*
X152666819Y-136569459D01*
X152666819Y-136569459D02*
X152714438Y-136474221D01*
X152714438Y-136474221D02*
X152809676Y-136378983D01*
X152809676Y-136378983D02*
X153000152Y-136331364D01*
X153000152Y-136331364D02*
X153333485Y-136331364D01*
X153333485Y-136331364D02*
X153523961Y-136378983D01*
X153523961Y-136378983D02*
X153619200Y-136474221D01*
X153619200Y-136474221D02*
X153666819Y-136569459D01*
X153666819Y-136569459D02*
X153666819Y-136759935D01*
X153666819Y-136759935D02*
X153619200Y-136855173D01*
X153619200Y-136855173D02*
X153523961Y-136950411D01*
X153523961Y-136950411D02*
X153333485Y-136998030D01*
X153333485Y-136998030D02*
X153000152Y-136998030D01*
X153000152Y-136998030D02*
X152809676Y-136950411D01*
X152809676Y-136950411D02*
X152714438Y-136855173D01*
X152714438Y-136855173D02*
X152666819Y-136759935D01*
X153666819Y-134617078D02*
X153666819Y-135188506D01*
X153666819Y-134902792D02*
X152666819Y-134902792D01*
X152666819Y-134902792D02*
X152809676Y-134998030D01*
X152809676Y-134998030D02*
X152904914Y-135093268D01*
X152904914Y-135093268D02*
X152952533Y-135188506D01*
X153571580Y-134188506D02*
X153619200Y-134140887D01*
X153619200Y-134140887D02*
X153666819Y-134188506D01*
X153666819Y-134188506D02*
X153619200Y-134236125D01*
X153619200Y-134236125D02*
X153571580Y-134188506D01*
X153571580Y-134188506D02*
X153666819Y-134188506D01*
X153095390Y-133569459D02*
X153047771Y-133664697D01*
X153047771Y-133664697D02*
X153000152Y-133712316D01*
X153000152Y-133712316D02*
X152904914Y-133759935D01*
X152904914Y-133759935D02*
X152857295Y-133759935D01*
X152857295Y-133759935D02*
X152762057Y-133712316D01*
X152762057Y-133712316D02*
X152714438Y-133664697D01*
X152714438Y-133664697D02*
X152666819Y-133569459D01*
X152666819Y-133569459D02*
X152666819Y-133378983D01*
X152666819Y-133378983D02*
X152714438Y-133283745D01*
X152714438Y-133283745D02*
X152762057Y-133236126D01*
X152762057Y-133236126D02*
X152857295Y-133188507D01*
X152857295Y-133188507D02*
X152904914Y-133188507D01*
X152904914Y-133188507D02*
X153000152Y-133236126D01*
X153000152Y-133236126D02*
X153047771Y-133283745D01*
X153047771Y-133283745D02*
X153095390Y-133378983D01*
X153095390Y-133378983D02*
X153095390Y-133569459D01*
X153095390Y-133569459D02*
X153143009Y-133664697D01*
X153143009Y-133664697D02*
X153190628Y-133712316D01*
X153190628Y-133712316D02*
X153285866Y-133759935D01*
X153285866Y-133759935D02*
X153476342Y-133759935D01*
X153476342Y-133759935D02*
X153571580Y-133712316D01*
X153571580Y-133712316D02*
X153619200Y-133664697D01*
X153619200Y-133664697D02*
X153666819Y-133569459D01*
X153666819Y-133569459D02*
X153666819Y-133378983D01*
X153666819Y-133378983D02*
X153619200Y-133283745D01*
X153619200Y-133283745D02*
X153571580Y-133236126D01*
X153571580Y-133236126D02*
X153476342Y-133188507D01*
X153476342Y-133188507D02*
X153285866Y-133188507D01*
X153285866Y-133188507D02*
X153190628Y-133236126D01*
X153190628Y-133236126D02*
X153143009Y-133283745D01*
X153143009Y-133283745D02*
X153095390Y-133378983D01*
X152666819Y-132902792D02*
X153666819Y-132569459D01*
X153666819Y-132569459D02*
X152666819Y-132236126D01*
X194726160Y-114519152D02*
X195440445Y-114519152D01*
X195011874Y-114090580D02*
X194726160Y-115376295D01*
X195345207Y-114947723D02*
X194630922Y-114947723D01*
X195059493Y-115376295D02*
X195345207Y-114090580D01*
X196249969Y-115185819D02*
X195773779Y-115185819D01*
X195773779Y-115185819D02*
X195773779Y-114185819D01*
X196583303Y-115185819D02*
X196583303Y-114185819D01*
X197059493Y-115185819D02*
X197059493Y-114185819D01*
X197059493Y-114185819D02*
X197630921Y-115185819D01*
X197630921Y-115185819D02*
X197630921Y-114185819D01*
X197869017Y-115281057D02*
X198630921Y-115281057D01*
X198726160Y-114185819D02*
X199297588Y-114185819D01*
X199011874Y-115185819D02*
X199011874Y-114185819D01*
X195424588Y-124393438D02*
X195329350Y-124345819D01*
X195329350Y-124345819D02*
X195186493Y-124345819D01*
X195186493Y-124345819D02*
X195043636Y-124393438D01*
X195043636Y-124393438D02*
X194948398Y-124488676D01*
X194948398Y-124488676D02*
X194900779Y-124583914D01*
X194900779Y-124583914D02*
X194853160Y-124774390D01*
X194853160Y-124774390D02*
X194853160Y-124917247D01*
X194853160Y-124917247D02*
X194900779Y-125107723D01*
X194900779Y-125107723D02*
X194948398Y-125202961D01*
X194948398Y-125202961D02*
X195043636Y-125298200D01*
X195043636Y-125298200D02*
X195186493Y-125345819D01*
X195186493Y-125345819D02*
X195281731Y-125345819D01*
X195281731Y-125345819D02*
X195424588Y-125298200D01*
X195424588Y-125298200D02*
X195472207Y-125250580D01*
X195472207Y-125250580D02*
X195472207Y-124917247D01*
X195472207Y-124917247D02*
X195281731Y-124917247D01*
X195900779Y-125345819D02*
X195900779Y-124345819D01*
X195900779Y-124345819D02*
X196472207Y-125345819D01*
X196472207Y-125345819D02*
X196472207Y-124345819D01*
X196948398Y-125345819D02*
X196948398Y-124345819D01*
X196948398Y-124345819D02*
X197186493Y-124345819D01*
X197186493Y-124345819D02*
X197329350Y-124393438D01*
X197329350Y-124393438D02*
X197424588Y-124488676D01*
X197424588Y-124488676D02*
X197472207Y-124583914D01*
X197472207Y-124583914D02*
X197519826Y-124774390D01*
X197519826Y-124774390D02*
X197519826Y-124917247D01*
X197519826Y-124917247D02*
X197472207Y-125107723D01*
X197472207Y-125107723D02*
X197424588Y-125202961D01*
X197424588Y-125202961D02*
X197329350Y-125298200D01*
X197329350Y-125298200D02*
X197186493Y-125345819D01*
X197186493Y-125345819D02*
X196948398Y-125345819D01*
X188158684Y-134588533D02*
X188592017Y-134588533D01*
X188592017Y-134588533D02*
X188358684Y-134855200D01*
X188358684Y-134855200D02*
X188458684Y-134855200D01*
X188458684Y-134855200D02*
X188525350Y-134888533D01*
X188525350Y-134888533D02*
X188558684Y-134921866D01*
X188558684Y-134921866D02*
X188592017Y-134988533D01*
X188592017Y-134988533D02*
X188592017Y-135155200D01*
X188592017Y-135155200D02*
X188558684Y-135221866D01*
X188558684Y-135221866D02*
X188525350Y-135255200D01*
X188525350Y-135255200D02*
X188458684Y-135288533D01*
X188458684Y-135288533D02*
X188258684Y-135288533D01*
X188258684Y-135288533D02*
X188192017Y-135255200D01*
X188192017Y-135255200D02*
X188158684Y-135221866D01*
X188825351Y-134588533D02*
X189292017Y-134588533D01*
X189292017Y-134588533D02*
X188992017Y-135288533D01*
X139481160Y-98136104D02*
X139957350Y-98136104D01*
X139385922Y-98421819D02*
X139719255Y-97421819D01*
X139719255Y-97421819D02*
X140052588Y-98421819D01*
X140528779Y-97850390D02*
X140433541Y-97802771D01*
X140433541Y-97802771D02*
X140385922Y-97755152D01*
X140385922Y-97755152D02*
X140338303Y-97659914D01*
X140338303Y-97659914D02*
X140338303Y-97612295D01*
X140338303Y-97612295D02*
X140385922Y-97517057D01*
X140385922Y-97517057D02*
X140433541Y-97469438D01*
X140433541Y-97469438D02*
X140528779Y-97421819D01*
X140528779Y-97421819D02*
X140719255Y-97421819D01*
X140719255Y-97421819D02*
X140814493Y-97469438D01*
X140814493Y-97469438D02*
X140862112Y-97517057D01*
X140862112Y-97517057D02*
X140909731Y-97612295D01*
X140909731Y-97612295D02*
X140909731Y-97659914D01*
X140909731Y-97659914D02*
X140862112Y-97755152D01*
X140862112Y-97755152D02*
X140814493Y-97802771D01*
X140814493Y-97802771D02*
X140719255Y-97850390D01*
X140719255Y-97850390D02*
X140528779Y-97850390D01*
X140528779Y-97850390D02*
X140433541Y-97898009D01*
X140433541Y-97898009D02*
X140385922Y-97945628D01*
X140385922Y-97945628D02*
X140338303Y-98040866D01*
X140338303Y-98040866D02*
X140338303Y-98231342D01*
X140338303Y-98231342D02*
X140385922Y-98326580D01*
X140385922Y-98326580D02*
X140433541Y-98374200D01*
X140433541Y-98374200D02*
X140528779Y-98421819D01*
X140528779Y-98421819D02*
X140719255Y-98421819D01*
X140719255Y-98421819D02*
X140814493Y-98374200D01*
X140814493Y-98374200D02*
X140862112Y-98326580D01*
X140862112Y-98326580D02*
X140909731Y-98231342D01*
X140909731Y-98231342D02*
X140909731Y-98040866D01*
X140909731Y-98040866D02*
X140862112Y-97945628D01*
X140862112Y-97945628D02*
X140814493Y-97898009D01*
X140814493Y-97898009D02*
X140719255Y-97850390D01*
X139481160Y-92802104D02*
X139957350Y-92802104D01*
X139385922Y-93087819D02*
X139719255Y-92087819D01*
X139719255Y-92087819D02*
X140052588Y-93087819D01*
X140814493Y-92087819D02*
X140624017Y-92087819D01*
X140624017Y-92087819D02*
X140528779Y-92135438D01*
X140528779Y-92135438D02*
X140481160Y-92183057D01*
X140481160Y-92183057D02*
X140385922Y-92325914D01*
X140385922Y-92325914D02*
X140338303Y-92516390D01*
X140338303Y-92516390D02*
X140338303Y-92897342D01*
X140338303Y-92897342D02*
X140385922Y-92992580D01*
X140385922Y-92992580D02*
X140433541Y-93040200D01*
X140433541Y-93040200D02*
X140528779Y-93087819D01*
X140528779Y-93087819D02*
X140719255Y-93087819D01*
X140719255Y-93087819D02*
X140814493Y-93040200D01*
X140814493Y-93040200D02*
X140862112Y-92992580D01*
X140862112Y-92992580D02*
X140909731Y-92897342D01*
X140909731Y-92897342D02*
X140909731Y-92659247D01*
X140909731Y-92659247D02*
X140862112Y-92564009D01*
X140862112Y-92564009D02*
X140814493Y-92516390D01*
X140814493Y-92516390D02*
X140719255Y-92468771D01*
X140719255Y-92468771D02*
X140528779Y-92468771D01*
X140528779Y-92468771D02*
X140433541Y-92516390D01*
X140433541Y-92516390D02*
X140385922Y-92564009D01*
X140385922Y-92564009D02*
X140338303Y-92659247D01*
X139481160Y-80356104D02*
X139957350Y-80356104D01*
X139385922Y-80641819D02*
X139719255Y-79641819D01*
X139719255Y-79641819D02*
X140052588Y-80641819D01*
X140909731Y-80641819D02*
X140338303Y-80641819D01*
X140624017Y-80641819D02*
X140624017Y-79641819D01*
X140624017Y-79641819D02*
X140528779Y-79784676D01*
X140528779Y-79784676D02*
X140433541Y-79879914D01*
X140433541Y-79879914D02*
X140338303Y-79927533D01*
X176333209Y-62525087D02*
X176380828Y-62382230D01*
X176380828Y-62382230D02*
X176428447Y-62334611D01*
X176428447Y-62334611D02*
X176523685Y-62286992D01*
X176523685Y-62286992D02*
X176666542Y-62286992D01*
X176666542Y-62286992D02*
X176761780Y-62334611D01*
X176761780Y-62334611D02*
X176809400Y-62382230D01*
X176809400Y-62382230D02*
X176857019Y-62477468D01*
X176857019Y-62477468D02*
X176857019Y-62858420D01*
X176857019Y-62858420D02*
X175857019Y-62858420D01*
X175857019Y-62858420D02*
X175857019Y-62525087D01*
X175857019Y-62525087D02*
X175904638Y-62429849D01*
X175904638Y-62429849D02*
X175952257Y-62382230D01*
X175952257Y-62382230D02*
X176047495Y-62334611D01*
X176047495Y-62334611D02*
X176142733Y-62334611D01*
X176142733Y-62334611D02*
X176237971Y-62382230D01*
X176237971Y-62382230D02*
X176285590Y-62429849D01*
X176285590Y-62429849D02*
X176333209Y-62525087D01*
X176333209Y-62525087D02*
X176333209Y-62858420D01*
X127962207Y-85238295D02*
X127505064Y-85238295D01*
X127733636Y-85238295D02*
X127733636Y-84438295D01*
X127733636Y-84438295D02*
X127657445Y-84552580D01*
X127657445Y-84552580D02*
X127581255Y-84628771D01*
X127581255Y-84628771D02*
X127505064Y-84666866D01*
X146958207Y-82927819D02*
X146624874Y-82451628D01*
X146386779Y-82927819D02*
X146386779Y-81927819D01*
X146386779Y-81927819D02*
X146767731Y-81927819D01*
X146767731Y-81927819D02*
X146862969Y-81975438D01*
X146862969Y-81975438D02*
X146910588Y-82023057D01*
X146910588Y-82023057D02*
X146958207Y-82118295D01*
X146958207Y-82118295D02*
X146958207Y-82261152D01*
X146958207Y-82261152D02*
X146910588Y-82356390D01*
X146910588Y-82356390D02*
X146862969Y-82404009D01*
X146862969Y-82404009D02*
X146767731Y-82451628D01*
X146767731Y-82451628D02*
X146386779Y-82451628D01*
X147767731Y-82880200D02*
X147672493Y-82927819D01*
X147672493Y-82927819D02*
X147482017Y-82927819D01*
X147482017Y-82927819D02*
X147386779Y-82880200D01*
X147386779Y-82880200D02*
X147339160Y-82784961D01*
X147339160Y-82784961D02*
X147339160Y-82404009D01*
X147339160Y-82404009D02*
X147386779Y-82308771D01*
X147386779Y-82308771D02*
X147482017Y-82261152D01*
X147482017Y-82261152D02*
X147672493Y-82261152D01*
X147672493Y-82261152D02*
X147767731Y-82308771D01*
X147767731Y-82308771D02*
X147815350Y-82404009D01*
X147815350Y-82404009D02*
X147815350Y-82499247D01*
X147815350Y-82499247D02*
X147339160Y-82594485D01*
X148101065Y-82261152D02*
X148482017Y-82261152D01*
X148243922Y-82927819D02*
X148243922Y-82070676D01*
X148243922Y-82070676D02*
X148291541Y-81975438D01*
X148291541Y-81975438D02*
X148386779Y-81927819D01*
X148386779Y-81927819D02*
X148482017Y-81927819D01*
X170773838Y-62487011D02*
X170726219Y-62582249D01*
X170726219Y-62582249D02*
X170726219Y-62725106D01*
X170726219Y-62725106D02*
X170773838Y-62867963D01*
X170773838Y-62867963D02*
X170869076Y-62963201D01*
X170869076Y-62963201D02*
X170964314Y-63010820D01*
X170964314Y-63010820D02*
X171154790Y-63058439D01*
X171154790Y-63058439D02*
X171297647Y-63058439D01*
X171297647Y-63058439D02*
X171488123Y-63010820D01*
X171488123Y-63010820D02*
X171583361Y-62963201D01*
X171583361Y-62963201D02*
X171678600Y-62867963D01*
X171678600Y-62867963D02*
X171726219Y-62725106D01*
X171726219Y-62725106D02*
X171726219Y-62629868D01*
X171726219Y-62629868D02*
X171678600Y-62487011D01*
X171678600Y-62487011D02*
X171630980Y-62439392D01*
X171630980Y-62439392D02*
X171297647Y-62439392D01*
X171297647Y-62439392D02*
X171297647Y-62629868D01*
X153133636Y-145348390D02*
X153038398Y-145300771D01*
X153038398Y-145300771D02*
X152990779Y-145253152D01*
X152990779Y-145253152D02*
X152943160Y-145157914D01*
X152943160Y-145157914D02*
X152943160Y-145110295D01*
X152943160Y-145110295D02*
X152990779Y-145015057D01*
X152990779Y-145015057D02*
X153038398Y-144967438D01*
X153038398Y-144967438D02*
X153133636Y-144919819D01*
X153133636Y-144919819D02*
X153324112Y-144919819D01*
X153324112Y-144919819D02*
X153419350Y-144967438D01*
X153419350Y-144967438D02*
X153466969Y-145015057D01*
X153466969Y-145015057D02*
X153514588Y-145110295D01*
X153514588Y-145110295D02*
X153514588Y-145157914D01*
X153514588Y-145157914D02*
X153466969Y-145253152D01*
X153466969Y-145253152D02*
X153419350Y-145300771D01*
X153419350Y-145300771D02*
X153324112Y-145348390D01*
X153324112Y-145348390D02*
X153133636Y-145348390D01*
X153133636Y-145348390D02*
X153038398Y-145396009D01*
X153038398Y-145396009D02*
X152990779Y-145443628D01*
X152990779Y-145443628D02*
X152943160Y-145538866D01*
X152943160Y-145538866D02*
X152943160Y-145729342D01*
X152943160Y-145729342D02*
X152990779Y-145824580D01*
X152990779Y-145824580D02*
X153038398Y-145872200D01*
X153038398Y-145872200D02*
X153133636Y-145919819D01*
X153133636Y-145919819D02*
X153324112Y-145919819D01*
X153324112Y-145919819D02*
X153419350Y-145872200D01*
X153419350Y-145872200D02*
X153466969Y-145824580D01*
X153466969Y-145824580D02*
X153514588Y-145729342D01*
X153514588Y-145729342D02*
X153514588Y-145538866D01*
X153514588Y-145538866D02*
X153466969Y-145443628D01*
X153466969Y-145443628D02*
X153419350Y-145396009D01*
X153419350Y-145396009D02*
X153324112Y-145348390D01*
X154371731Y-144919819D02*
X154181255Y-144919819D01*
X154181255Y-144919819D02*
X154086017Y-144967438D01*
X154086017Y-144967438D02*
X154038398Y-145015057D01*
X154038398Y-145015057D02*
X153943160Y-145157914D01*
X153943160Y-145157914D02*
X153895541Y-145348390D01*
X153895541Y-145348390D02*
X153895541Y-145729342D01*
X153895541Y-145729342D02*
X153943160Y-145824580D01*
X153943160Y-145824580D02*
X153990779Y-145872200D01*
X153990779Y-145872200D02*
X154086017Y-145919819D01*
X154086017Y-145919819D02*
X154276493Y-145919819D01*
X154276493Y-145919819D02*
X154371731Y-145872200D01*
X154371731Y-145872200D02*
X154419350Y-145824580D01*
X154419350Y-145824580D02*
X154466969Y-145729342D01*
X154466969Y-145729342D02*
X154466969Y-145491247D01*
X154466969Y-145491247D02*
X154419350Y-145396009D01*
X154419350Y-145396009D02*
X154371731Y-145348390D01*
X154371731Y-145348390D02*
X154276493Y-145300771D01*
X154276493Y-145300771D02*
X154086017Y-145300771D01*
X154086017Y-145300771D02*
X153990779Y-145348390D01*
X153990779Y-145348390D02*
X153943160Y-145396009D01*
X153943160Y-145396009D02*
X153895541Y-145491247D01*
X146577255Y-57924819D02*
X146672493Y-57924819D01*
X146672493Y-57924819D02*
X146767731Y-57972438D01*
X146767731Y-57972438D02*
X146815350Y-58020057D01*
X146815350Y-58020057D02*
X146862969Y-58115295D01*
X146862969Y-58115295D02*
X146910588Y-58305771D01*
X146910588Y-58305771D02*
X146910588Y-58543866D01*
X146910588Y-58543866D02*
X146862969Y-58734342D01*
X146862969Y-58734342D02*
X146815350Y-58829580D01*
X146815350Y-58829580D02*
X146767731Y-58877200D01*
X146767731Y-58877200D02*
X146672493Y-58924819D01*
X146672493Y-58924819D02*
X146577255Y-58924819D01*
X146577255Y-58924819D02*
X146482017Y-58877200D01*
X146482017Y-58877200D02*
X146434398Y-58829580D01*
X146434398Y-58829580D02*
X146386779Y-58734342D01*
X146386779Y-58734342D02*
X146339160Y-58543866D01*
X146339160Y-58543866D02*
X146339160Y-58305771D01*
X146339160Y-58305771D02*
X146386779Y-58115295D01*
X146386779Y-58115295D02*
X146434398Y-58020057D01*
X146434398Y-58020057D02*
X146482017Y-57972438D01*
X146482017Y-57972438D02*
X146577255Y-57924819D01*
X189725541Y-139712819D02*
X190344588Y-139712819D01*
X190344588Y-139712819D02*
X190011255Y-140093771D01*
X190011255Y-140093771D02*
X190154112Y-140093771D01*
X190154112Y-140093771D02*
X190249350Y-140141390D01*
X190249350Y-140141390D02*
X190296969Y-140189009D01*
X190296969Y-140189009D02*
X190344588Y-140284247D01*
X190344588Y-140284247D02*
X190344588Y-140522342D01*
X190344588Y-140522342D02*
X190296969Y-140617580D01*
X190296969Y-140617580D02*
X190249350Y-140665200D01*
X190249350Y-140665200D02*
X190154112Y-140712819D01*
X190154112Y-140712819D02*
X189868398Y-140712819D01*
X189868398Y-140712819D02*
X189773160Y-140665200D01*
X189773160Y-140665200D02*
X189725541Y-140617580D01*
X190820779Y-140712819D02*
X191011255Y-140712819D01*
X191011255Y-140712819D02*
X191106493Y-140665200D01*
X191106493Y-140665200D02*
X191154112Y-140617580D01*
X191154112Y-140617580D02*
X191249350Y-140474723D01*
X191249350Y-140474723D02*
X191296969Y-140284247D01*
X191296969Y-140284247D02*
X191296969Y-139903295D01*
X191296969Y-139903295D02*
X191249350Y-139808057D01*
X191249350Y-139808057D02*
X191201731Y-139760438D01*
X191201731Y-139760438D02*
X191106493Y-139712819D01*
X191106493Y-139712819D02*
X190916017Y-139712819D01*
X190916017Y-139712819D02*
X190820779Y-139760438D01*
X190820779Y-139760438D02*
X190773160Y-139808057D01*
X190773160Y-139808057D02*
X190725541Y-139903295D01*
X190725541Y-139903295D02*
X190725541Y-140141390D01*
X190725541Y-140141390D02*
X190773160Y-140236628D01*
X190773160Y-140236628D02*
X190820779Y-140284247D01*
X190820779Y-140284247D02*
X190916017Y-140331866D01*
X190916017Y-140331866D02*
X191106493Y-140331866D01*
X191106493Y-140331866D02*
X191201731Y-140284247D01*
X191201731Y-140284247D02*
X191249350Y-140236628D01*
X191249350Y-140236628D02*
X191296969Y-140141390D01*
X194508684Y-134588533D02*
X194942017Y-134588533D01*
X194942017Y-134588533D02*
X194708684Y-134855200D01*
X194708684Y-134855200D02*
X194808684Y-134855200D01*
X194808684Y-134855200D02*
X194875350Y-134888533D01*
X194875350Y-134888533D02*
X194908684Y-134921866D01*
X194908684Y-134921866D02*
X194942017Y-134988533D01*
X194942017Y-134988533D02*
X194942017Y-135155200D01*
X194942017Y-135155200D02*
X194908684Y-135221866D01*
X194908684Y-135221866D02*
X194875350Y-135255200D01*
X194875350Y-135255200D02*
X194808684Y-135288533D01*
X194808684Y-135288533D02*
X194608684Y-135288533D01*
X194608684Y-135288533D02*
X194542017Y-135255200D01*
X194542017Y-135255200D02*
X194508684Y-135221866D01*
X195342017Y-134888533D02*
X195275351Y-134855200D01*
X195275351Y-134855200D02*
X195242017Y-134821866D01*
X195242017Y-134821866D02*
X195208684Y-134755200D01*
X195208684Y-134755200D02*
X195208684Y-134721866D01*
X195208684Y-134721866D02*
X195242017Y-134655200D01*
X195242017Y-134655200D02*
X195275351Y-134621866D01*
X195275351Y-134621866D02*
X195342017Y-134588533D01*
X195342017Y-134588533D02*
X195475351Y-134588533D01*
X195475351Y-134588533D02*
X195542017Y-134621866D01*
X195542017Y-134621866D02*
X195575351Y-134655200D01*
X195575351Y-134655200D02*
X195608684Y-134721866D01*
X195608684Y-134721866D02*
X195608684Y-134755200D01*
X195608684Y-134755200D02*
X195575351Y-134821866D01*
X195575351Y-134821866D02*
X195542017Y-134855200D01*
X195542017Y-134855200D02*
X195475351Y-134888533D01*
X195475351Y-134888533D02*
X195342017Y-134888533D01*
X195342017Y-134888533D02*
X195275351Y-134921866D01*
X195275351Y-134921866D02*
X195242017Y-134955200D01*
X195242017Y-134955200D02*
X195208684Y-135021866D01*
X195208684Y-135021866D02*
X195208684Y-135155200D01*
X195208684Y-135155200D02*
X195242017Y-135221866D01*
X195242017Y-135221866D02*
X195275351Y-135255200D01*
X195275351Y-135255200D02*
X195342017Y-135288533D01*
X195342017Y-135288533D02*
X195475351Y-135288533D01*
X195475351Y-135288533D02*
X195542017Y-135255200D01*
X195542017Y-135255200D02*
X195575351Y-135221866D01*
X195575351Y-135221866D02*
X195608684Y-135155200D01*
X195608684Y-135155200D02*
X195608684Y-135021866D01*
X195608684Y-135021866D02*
X195575351Y-134955200D01*
X195575351Y-134955200D02*
X195542017Y-134921866D01*
X195542017Y-134921866D02*
X195475351Y-134888533D01*
X134464588Y-93913438D02*
X134369350Y-93865819D01*
X134369350Y-93865819D02*
X134226493Y-93865819D01*
X134226493Y-93865819D02*
X134083636Y-93913438D01*
X134083636Y-93913438D02*
X133988398Y-94008676D01*
X133988398Y-94008676D02*
X133940779Y-94103914D01*
X133940779Y-94103914D02*
X133893160Y-94294390D01*
X133893160Y-94294390D02*
X133893160Y-94437247D01*
X133893160Y-94437247D02*
X133940779Y-94627723D01*
X133940779Y-94627723D02*
X133988398Y-94722961D01*
X133988398Y-94722961D02*
X134083636Y-94818200D01*
X134083636Y-94818200D02*
X134226493Y-94865819D01*
X134226493Y-94865819D02*
X134321731Y-94865819D01*
X134321731Y-94865819D02*
X134464588Y-94818200D01*
X134464588Y-94818200D02*
X134512207Y-94770580D01*
X134512207Y-94770580D02*
X134512207Y-94437247D01*
X134512207Y-94437247D02*
X134321731Y-94437247D01*
X134940779Y-94865819D02*
X134940779Y-93865819D01*
X134940779Y-93865819D02*
X135512207Y-94865819D01*
X135512207Y-94865819D02*
X135512207Y-93865819D01*
X135988398Y-94865819D02*
X135988398Y-93865819D01*
X135988398Y-93865819D02*
X136226493Y-93865819D01*
X136226493Y-93865819D02*
X136369350Y-93913438D01*
X136369350Y-93913438D02*
X136464588Y-94008676D01*
X136464588Y-94008676D02*
X136512207Y-94103914D01*
X136512207Y-94103914D02*
X136559826Y-94294390D01*
X136559826Y-94294390D02*
X136559826Y-94437247D01*
X136559826Y-94437247D02*
X136512207Y-94627723D01*
X136512207Y-94627723D02*
X136464588Y-94722961D01*
X136464588Y-94722961D02*
X136369350Y-94818200D01*
X136369350Y-94818200D02*
X136226493Y-94865819D01*
X136226493Y-94865819D02*
X135988398Y-94865819D01*
X127198684Y-134588533D02*
X127632017Y-134588533D01*
X127632017Y-134588533D02*
X127398684Y-134855200D01*
X127398684Y-134855200D02*
X127498684Y-134855200D01*
X127498684Y-134855200D02*
X127565350Y-134888533D01*
X127565350Y-134888533D02*
X127598684Y-134921866D01*
X127598684Y-134921866D02*
X127632017Y-134988533D01*
X127632017Y-134988533D02*
X127632017Y-135155200D01*
X127632017Y-135155200D02*
X127598684Y-135221866D01*
X127598684Y-135221866D02*
X127565350Y-135255200D01*
X127565350Y-135255200D02*
X127498684Y-135288533D01*
X127498684Y-135288533D02*
X127298684Y-135288533D01*
X127298684Y-135288533D02*
X127232017Y-135255200D01*
X127232017Y-135255200D02*
X127198684Y-135221866D01*
X127865351Y-134588533D02*
X128332017Y-134588533D01*
X128332017Y-134588533D02*
X128032017Y-135288533D01*
X139481160Y-85182104D02*
X139957350Y-85182104D01*
X139385922Y-85467819D02*
X139719255Y-84467819D01*
X139719255Y-84467819D02*
X140052588Y-85467819D01*
X140290684Y-84467819D02*
X140909731Y-84467819D01*
X140909731Y-84467819D02*
X140576398Y-84848771D01*
X140576398Y-84848771D02*
X140719255Y-84848771D01*
X140719255Y-84848771D02*
X140814493Y-84896390D01*
X140814493Y-84896390D02*
X140862112Y-84944009D01*
X140862112Y-84944009D02*
X140909731Y-85039247D01*
X140909731Y-85039247D02*
X140909731Y-85277342D01*
X140909731Y-85277342D02*
X140862112Y-85372580D01*
X140862112Y-85372580D02*
X140814493Y-85420200D01*
X140814493Y-85420200D02*
X140719255Y-85467819D01*
X140719255Y-85467819D02*
X140433541Y-85467819D01*
X140433541Y-85467819D02*
X140338303Y-85420200D01*
X140338303Y-85420200D02*
X140290684Y-85372580D01*
X151784207Y-95532580D02*
X151736588Y-95580200D01*
X151736588Y-95580200D02*
X151593731Y-95627819D01*
X151593731Y-95627819D02*
X151498493Y-95627819D01*
X151498493Y-95627819D02*
X151355636Y-95580200D01*
X151355636Y-95580200D02*
X151260398Y-95484961D01*
X151260398Y-95484961D02*
X151212779Y-95389723D01*
X151212779Y-95389723D02*
X151165160Y-95199247D01*
X151165160Y-95199247D02*
X151165160Y-95056390D01*
X151165160Y-95056390D02*
X151212779Y-94865914D01*
X151212779Y-94865914D02*
X151260398Y-94770676D01*
X151260398Y-94770676D02*
X151355636Y-94675438D01*
X151355636Y-94675438D02*
X151498493Y-94627819D01*
X151498493Y-94627819D02*
X151593731Y-94627819D01*
X151593731Y-94627819D02*
X151736588Y-94675438D01*
X151736588Y-94675438D02*
X151784207Y-94723057D01*
X152165160Y-95580200D02*
X152308017Y-95627819D01*
X152308017Y-95627819D02*
X152546112Y-95627819D01*
X152546112Y-95627819D02*
X152641350Y-95580200D01*
X152641350Y-95580200D02*
X152688969Y-95532580D01*
X152688969Y-95532580D02*
X152736588Y-95437342D01*
X152736588Y-95437342D02*
X152736588Y-95342104D01*
X152736588Y-95342104D02*
X152688969Y-95246866D01*
X152688969Y-95246866D02*
X152641350Y-95199247D01*
X152641350Y-95199247D02*
X152546112Y-95151628D01*
X152546112Y-95151628D02*
X152355636Y-95104009D01*
X152355636Y-95104009D02*
X152260398Y-95056390D01*
X152260398Y-95056390D02*
X152212779Y-95008771D01*
X152212779Y-95008771D02*
X152165160Y-94913533D01*
X152165160Y-94913533D02*
X152165160Y-94818295D01*
X152165160Y-94818295D02*
X152212779Y-94723057D01*
X152212779Y-94723057D02*
X152260398Y-94675438D01*
X152260398Y-94675438D02*
X152355636Y-94627819D01*
X152355636Y-94627819D02*
X152593731Y-94627819D01*
X152593731Y-94627819D02*
X152736588Y-94675438D01*
X153879445Y-94580200D02*
X153022303Y-95865914D01*
X154165160Y-95580200D02*
X154308017Y-95627819D01*
X154308017Y-95627819D02*
X154546112Y-95627819D01*
X154546112Y-95627819D02*
X154641350Y-95580200D01*
X154641350Y-95580200D02*
X154688969Y-95532580D01*
X154688969Y-95532580D02*
X154736588Y-95437342D01*
X154736588Y-95437342D02*
X154736588Y-95342104D01*
X154736588Y-95342104D02*
X154688969Y-95246866D01*
X154688969Y-95246866D02*
X154641350Y-95199247D01*
X154641350Y-95199247D02*
X154546112Y-95151628D01*
X154546112Y-95151628D02*
X154355636Y-95104009D01*
X154355636Y-95104009D02*
X154260398Y-95056390D01*
X154260398Y-95056390D02*
X154212779Y-95008771D01*
X154212779Y-95008771D02*
X154165160Y-94913533D01*
X154165160Y-94913533D02*
X154165160Y-94818295D01*
X154165160Y-94818295D02*
X154212779Y-94723057D01*
X154212779Y-94723057D02*
X154260398Y-94675438D01*
X154260398Y-94675438D02*
X154355636Y-94627819D01*
X154355636Y-94627819D02*
X154593731Y-94627819D01*
X154593731Y-94627819D02*
X154736588Y-94675438D01*
X155165160Y-95627819D02*
X155165160Y-94627819D01*
X155165160Y-95104009D02*
X155736588Y-95104009D01*
X155736588Y-95627819D02*
X155736588Y-94627819D01*
X156212779Y-95627819D02*
X156212779Y-94627819D01*
X156212779Y-94627819D02*
X156450874Y-94627819D01*
X156450874Y-94627819D02*
X156593731Y-94675438D01*
X156593731Y-94675438D02*
X156688969Y-94770676D01*
X156688969Y-94770676D02*
X156736588Y-94865914D01*
X156736588Y-94865914D02*
X156784207Y-95056390D01*
X156784207Y-95056390D02*
X156784207Y-95199247D01*
X156784207Y-95199247D02*
X156736588Y-95389723D01*
X156736588Y-95389723D02*
X156688969Y-95484961D01*
X156688969Y-95484961D02*
X156593731Y-95580200D01*
X156593731Y-95580200D02*
X156450874Y-95627819D01*
X156450874Y-95627819D02*
X156212779Y-95627819D01*
X157212779Y-95627819D02*
X157212779Y-94627819D01*
X157212779Y-94627819D02*
X157784207Y-95627819D01*
X157784207Y-95627819D02*
X157784207Y-94627819D01*
X124018874Y-69037152D02*
X124018874Y-67608580D01*
X151784207Y-87912580D02*
X151736588Y-87960200D01*
X151736588Y-87960200D02*
X151593731Y-88007819D01*
X151593731Y-88007819D02*
X151498493Y-88007819D01*
X151498493Y-88007819D02*
X151355636Y-87960200D01*
X151355636Y-87960200D02*
X151260398Y-87864961D01*
X151260398Y-87864961D02*
X151212779Y-87769723D01*
X151212779Y-87769723D02*
X151165160Y-87579247D01*
X151165160Y-87579247D02*
X151165160Y-87436390D01*
X151165160Y-87436390D02*
X151212779Y-87245914D01*
X151212779Y-87245914D02*
X151260398Y-87150676D01*
X151260398Y-87150676D02*
X151355636Y-87055438D01*
X151355636Y-87055438D02*
X151498493Y-87007819D01*
X151498493Y-87007819D02*
X151593731Y-87007819D01*
X151593731Y-87007819D02*
X151736588Y-87055438D01*
X151736588Y-87055438D02*
X151784207Y-87103057D01*
X152688969Y-88007819D02*
X152212779Y-88007819D01*
X152212779Y-88007819D02*
X152212779Y-87007819D01*
X153022303Y-88007819D02*
X153022303Y-87007819D01*
X153593731Y-88007819D02*
X153165160Y-87436390D01*
X153593731Y-87007819D02*
X153022303Y-87579247D01*
X189506219Y-65195220D02*
X188506219Y-65195220D01*
X188506219Y-65195220D02*
X188506219Y-64957125D01*
X188506219Y-64957125D02*
X188553838Y-64814268D01*
X188553838Y-64814268D02*
X188649076Y-64719030D01*
X188649076Y-64719030D02*
X188744314Y-64671411D01*
X188744314Y-64671411D02*
X188934790Y-64623792D01*
X188934790Y-64623792D02*
X189077647Y-64623792D01*
X189077647Y-64623792D02*
X189268123Y-64671411D01*
X189268123Y-64671411D02*
X189363361Y-64719030D01*
X189363361Y-64719030D02*
X189458600Y-64814268D01*
X189458600Y-64814268D02*
X189506219Y-64957125D01*
X189506219Y-64957125D02*
X189506219Y-65195220D01*
X189506219Y-64195220D02*
X188506219Y-64195220D01*
X188553838Y-63195221D02*
X188506219Y-63290459D01*
X188506219Y-63290459D02*
X188506219Y-63433316D01*
X188506219Y-63433316D02*
X188553838Y-63576173D01*
X188553838Y-63576173D02*
X188649076Y-63671411D01*
X188649076Y-63671411D02*
X188744314Y-63719030D01*
X188744314Y-63719030D02*
X188934790Y-63766649D01*
X188934790Y-63766649D02*
X189077647Y-63766649D01*
X189077647Y-63766649D02*
X189268123Y-63719030D01*
X189268123Y-63719030D02*
X189363361Y-63671411D01*
X189363361Y-63671411D02*
X189458600Y-63576173D01*
X189458600Y-63576173D02*
X189506219Y-63433316D01*
X189506219Y-63433316D02*
X189506219Y-63338078D01*
X189506219Y-63338078D02*
X189458600Y-63195221D01*
X189458600Y-63195221D02*
X189410980Y-63147602D01*
X189410980Y-63147602D02*
X189077647Y-63147602D01*
X189077647Y-63147602D02*
X189077647Y-63338078D01*
X188839552Y-62290459D02*
X189506219Y-62290459D01*
X188458600Y-62528554D02*
X189172885Y-62766649D01*
X189172885Y-62766649D02*
X189172885Y-62147602D01*
X146624874Y-68910152D02*
X146624874Y-67481580D01*
X189725541Y-144792819D02*
X190344588Y-144792819D01*
X190344588Y-144792819D02*
X190011255Y-145173771D01*
X190011255Y-145173771D02*
X190154112Y-145173771D01*
X190154112Y-145173771D02*
X190249350Y-145221390D01*
X190249350Y-145221390D02*
X190296969Y-145269009D01*
X190296969Y-145269009D02*
X190344588Y-145364247D01*
X190344588Y-145364247D02*
X190344588Y-145602342D01*
X190344588Y-145602342D02*
X190296969Y-145697580D01*
X190296969Y-145697580D02*
X190249350Y-145745200D01*
X190249350Y-145745200D02*
X190154112Y-145792819D01*
X190154112Y-145792819D02*
X189868398Y-145792819D01*
X189868398Y-145792819D02*
X189773160Y-145745200D01*
X189773160Y-145745200D02*
X189725541Y-145697580D01*
X190677922Y-144792819D02*
X191344588Y-144792819D01*
X191344588Y-144792819D02*
X190916017Y-145792819D01*
X192439826Y-144745200D02*
X191582684Y-146030914D01*
X192725541Y-145126152D02*
X193439826Y-145126152D01*
X193011255Y-144697580D02*
X192725541Y-145983295D01*
X193344588Y-145554723D02*
X192630303Y-145554723D01*
X193058874Y-145983295D02*
X193344588Y-144697580D01*
X194249350Y-145792819D02*
X193773160Y-145792819D01*
X193773160Y-145792819D02*
X193773160Y-144792819D01*
X194582684Y-145792819D02*
X194582684Y-144792819D01*
X195058874Y-145792819D02*
X195058874Y-144792819D01*
X195058874Y-144792819D02*
X195630302Y-145792819D01*
X195630302Y-145792819D02*
X195630302Y-144792819D01*
X195868398Y-145888057D02*
X196630302Y-145888057D01*
X197439826Y-145792819D02*
X197106493Y-145316628D01*
X196868398Y-145792819D02*
X196868398Y-144792819D01*
X196868398Y-144792819D02*
X197249350Y-144792819D01*
X197249350Y-144792819D02*
X197344588Y-144840438D01*
X197344588Y-144840438D02*
X197392207Y-144888057D01*
X197392207Y-144888057D02*
X197439826Y-144983295D01*
X197439826Y-144983295D02*
X197439826Y-145126152D01*
X197439826Y-145126152D02*
X197392207Y-145221390D01*
X197392207Y-145221390D02*
X197344588Y-145269009D01*
X197344588Y-145269009D02*
X197249350Y-145316628D01*
X197249350Y-145316628D02*
X196868398Y-145316628D01*
X186788588Y-96453438D02*
X186693350Y-96405819D01*
X186693350Y-96405819D02*
X186550493Y-96405819D01*
X186550493Y-96405819D02*
X186407636Y-96453438D01*
X186407636Y-96453438D02*
X186312398Y-96548676D01*
X186312398Y-96548676D02*
X186264779Y-96643914D01*
X186264779Y-96643914D02*
X186217160Y-96834390D01*
X186217160Y-96834390D02*
X186217160Y-96977247D01*
X186217160Y-96977247D02*
X186264779Y-97167723D01*
X186264779Y-97167723D02*
X186312398Y-97262961D01*
X186312398Y-97262961D02*
X186407636Y-97358200D01*
X186407636Y-97358200D02*
X186550493Y-97405819D01*
X186550493Y-97405819D02*
X186645731Y-97405819D01*
X186645731Y-97405819D02*
X186788588Y-97358200D01*
X186788588Y-97358200D02*
X186836207Y-97310580D01*
X186836207Y-97310580D02*
X186836207Y-96977247D01*
X186836207Y-96977247D02*
X186645731Y-96977247D01*
X187264779Y-97405819D02*
X187264779Y-96405819D01*
X187264779Y-96405819D02*
X187836207Y-97405819D01*
X187836207Y-97405819D02*
X187836207Y-96405819D01*
X188312398Y-97405819D02*
X188312398Y-96405819D01*
X188312398Y-96405819D02*
X188550493Y-96405819D01*
X188550493Y-96405819D02*
X188693350Y-96453438D01*
X188693350Y-96453438D02*
X188788588Y-96548676D01*
X188788588Y-96548676D02*
X188836207Y-96643914D01*
X188836207Y-96643914D02*
X188883826Y-96834390D01*
X188883826Y-96834390D02*
X188883826Y-96977247D01*
X188883826Y-96977247D02*
X188836207Y-97167723D01*
X188836207Y-97167723D02*
X188788588Y-97262961D01*
X188788588Y-97262961D02*
X188693350Y-97358200D01*
X188693350Y-97358200D02*
X188550493Y-97405819D01*
X188550493Y-97405819D02*
X188312398Y-97405819D01*
X189176207Y-85238295D02*
X188719064Y-85238295D01*
X188947636Y-85238295D02*
X188947636Y-84438295D01*
X188947636Y-84438295D02*
X188871445Y-84552580D01*
X188871445Y-84552580D02*
X188795255Y-84628771D01*
X188795255Y-84628771D02*
X188719064Y-84666866D01*
X161144009Y-63112420D02*
X161144009Y-62779087D01*
X161667819Y-62636230D02*
X161667819Y-63112420D01*
X161667819Y-63112420D02*
X160667819Y-63112420D01*
X160667819Y-63112420D02*
X160667819Y-62636230D01*
X149847541Y-77609819D02*
X150466588Y-77609819D01*
X150466588Y-77609819D02*
X150133255Y-77990771D01*
X150133255Y-77990771D02*
X150276112Y-77990771D01*
X150276112Y-77990771D02*
X150371350Y-78038390D01*
X150371350Y-78038390D02*
X150418969Y-78086009D01*
X150418969Y-78086009D02*
X150466588Y-78181247D01*
X150466588Y-78181247D02*
X150466588Y-78419342D01*
X150466588Y-78419342D02*
X150418969Y-78514580D01*
X150418969Y-78514580D02*
X150371350Y-78562200D01*
X150371350Y-78562200D02*
X150276112Y-78609819D01*
X150276112Y-78609819D02*
X149990398Y-78609819D01*
X149990398Y-78609819D02*
X149895160Y-78562200D01*
X149895160Y-78562200D02*
X149847541Y-78514580D01*
X150752303Y-77609819D02*
X151085636Y-78609819D01*
X151085636Y-78609819D02*
X151418969Y-77609819D01*
X151657065Y-77609819D02*
X152276112Y-77609819D01*
X152276112Y-77609819D02*
X151942779Y-77990771D01*
X151942779Y-77990771D02*
X152085636Y-77990771D01*
X152085636Y-77990771D02*
X152180874Y-78038390D01*
X152180874Y-78038390D02*
X152228493Y-78086009D01*
X152228493Y-78086009D02*
X152276112Y-78181247D01*
X152276112Y-78181247D02*
X152276112Y-78419342D01*
X152276112Y-78419342D02*
X152228493Y-78514580D01*
X152228493Y-78514580D02*
X152180874Y-78562200D01*
X152180874Y-78562200D02*
X152085636Y-78609819D01*
X152085636Y-78609819D02*
X151799922Y-78609819D01*
X151799922Y-78609819D02*
X151704684Y-78562200D01*
X151704684Y-78562200D02*
X151657065Y-78514580D01*
X186731304Y-62753639D02*
X186731304Y-62277449D01*
X187017019Y-62848877D02*
X186017019Y-62515544D01*
X186017019Y-62515544D02*
X187017019Y-62182211D01*
X151212779Y-90547819D02*
X151212779Y-89547819D01*
X151212779Y-89547819D02*
X151450874Y-89547819D01*
X151450874Y-89547819D02*
X151593731Y-89595438D01*
X151593731Y-89595438D02*
X151688969Y-89690676D01*
X151688969Y-89690676D02*
X151736588Y-89785914D01*
X151736588Y-89785914D02*
X151784207Y-89976390D01*
X151784207Y-89976390D02*
X151784207Y-90119247D01*
X151784207Y-90119247D02*
X151736588Y-90309723D01*
X151736588Y-90309723D02*
X151688969Y-90404961D01*
X151688969Y-90404961D02*
X151593731Y-90500200D01*
X151593731Y-90500200D02*
X151450874Y-90547819D01*
X151450874Y-90547819D02*
X151212779Y-90547819D01*
X152355636Y-90547819D02*
X152260398Y-90500200D01*
X152260398Y-90500200D02*
X152212779Y-90452580D01*
X152212779Y-90452580D02*
X152165160Y-90357342D01*
X152165160Y-90357342D02*
X152165160Y-90071628D01*
X152165160Y-90071628D02*
X152212779Y-89976390D01*
X152212779Y-89976390D02*
X152260398Y-89928771D01*
X152260398Y-89928771D02*
X152355636Y-89881152D01*
X152355636Y-89881152D02*
X152498493Y-89881152D01*
X152498493Y-89881152D02*
X152593731Y-89928771D01*
X152593731Y-89928771D02*
X152641350Y-89976390D01*
X152641350Y-89976390D02*
X152688969Y-90071628D01*
X152688969Y-90071628D02*
X152688969Y-90357342D01*
X152688969Y-90357342D02*
X152641350Y-90452580D01*
X152641350Y-90452580D02*
X152593731Y-90500200D01*
X152593731Y-90500200D02*
X152498493Y-90547819D01*
X152498493Y-90547819D02*
X152355636Y-90547819D01*
X153546112Y-89881152D02*
X153546112Y-90547819D01*
X153117541Y-89881152D02*
X153117541Y-90404961D01*
X153117541Y-90404961D02*
X153165160Y-90500200D01*
X153165160Y-90500200D02*
X153260398Y-90547819D01*
X153260398Y-90547819D02*
X153403255Y-90547819D01*
X153403255Y-90547819D02*
X153498493Y-90500200D01*
X153498493Y-90500200D02*
X153546112Y-90452580D01*
X153879446Y-89881152D02*
X154260398Y-89881152D01*
X154022303Y-89547819D02*
X154022303Y-90404961D01*
X154022303Y-90404961D02*
X154069922Y-90500200D01*
X154069922Y-90500200D02*
X154165160Y-90547819D01*
X154165160Y-90547819D02*
X154260398Y-90547819D01*
X184994779Y-112645819D02*
X184994779Y-111645819D01*
X184994779Y-112122009D02*
X185566207Y-112122009D01*
X185566207Y-112645819D02*
X185566207Y-111645819D01*
X186042398Y-112645819D02*
X186042398Y-111645819D01*
X186518588Y-112645819D02*
X186518588Y-111645819D01*
X186518588Y-111645819D02*
X187090016Y-112645819D01*
X187090016Y-112645819D02*
X187090016Y-111645819D01*
X187328112Y-112741057D02*
X188090016Y-112741057D01*
X188280493Y-112598200D02*
X188423350Y-112645819D01*
X188423350Y-112645819D02*
X188661445Y-112645819D01*
X188661445Y-112645819D02*
X188756683Y-112598200D01*
X188756683Y-112598200D02*
X188804302Y-112550580D01*
X188804302Y-112550580D02*
X188851921Y-112455342D01*
X188851921Y-112455342D02*
X188851921Y-112360104D01*
X188851921Y-112360104D02*
X188804302Y-112264866D01*
X188804302Y-112264866D02*
X188756683Y-112217247D01*
X188756683Y-112217247D02*
X188661445Y-112169628D01*
X188661445Y-112169628D02*
X188470969Y-112122009D01*
X188470969Y-112122009D02*
X188375731Y-112074390D01*
X188375731Y-112074390D02*
X188328112Y-112026771D01*
X188328112Y-112026771D02*
X188280493Y-111931533D01*
X188280493Y-111931533D02*
X188280493Y-111836295D01*
X188280493Y-111836295D02*
X188328112Y-111741057D01*
X188328112Y-111741057D02*
X188375731Y-111693438D01*
X188375731Y-111693438D02*
X188470969Y-111645819D01*
X188470969Y-111645819D02*
X188709064Y-111645819D01*
X188709064Y-111645819D02*
X188851921Y-111693438D01*
X135448874Y-68910152D02*
X135448874Y-67481580D01*
X134099541Y-104025819D02*
X134718588Y-104025819D01*
X134718588Y-104025819D02*
X134385255Y-104406771D01*
X134385255Y-104406771D02*
X134528112Y-104406771D01*
X134528112Y-104406771D02*
X134623350Y-104454390D01*
X134623350Y-104454390D02*
X134670969Y-104502009D01*
X134670969Y-104502009D02*
X134718588Y-104597247D01*
X134718588Y-104597247D02*
X134718588Y-104835342D01*
X134718588Y-104835342D02*
X134670969Y-104930580D01*
X134670969Y-104930580D02*
X134623350Y-104978200D01*
X134623350Y-104978200D02*
X134528112Y-105025819D01*
X134528112Y-105025819D02*
X134242398Y-105025819D01*
X134242398Y-105025819D02*
X134147160Y-104978200D01*
X134147160Y-104978200D02*
X134099541Y-104930580D01*
X135004303Y-104025819D02*
X135337636Y-105025819D01*
X135337636Y-105025819D02*
X135670969Y-104025819D01*
X135909065Y-104025819D02*
X136528112Y-104025819D01*
X136528112Y-104025819D02*
X136194779Y-104406771D01*
X136194779Y-104406771D02*
X136337636Y-104406771D01*
X136337636Y-104406771D02*
X136432874Y-104454390D01*
X136432874Y-104454390D02*
X136480493Y-104502009D01*
X136480493Y-104502009D02*
X136528112Y-104597247D01*
X136528112Y-104597247D02*
X136528112Y-104835342D01*
X136528112Y-104835342D02*
X136480493Y-104930580D01*
X136480493Y-104930580D02*
X136432874Y-104978200D01*
X136432874Y-104978200D02*
X136337636Y-105025819D01*
X136337636Y-105025819D02*
X136051922Y-105025819D01*
X136051922Y-105025819D02*
X135956684Y-104978200D01*
X135956684Y-104978200D02*
X135909065Y-104930580D01*
X123733160Y-130140104D02*
X124209350Y-130140104D01*
X123637922Y-130425819D02*
X123971255Y-129425819D01*
X123971255Y-129425819D02*
X124304588Y-130425819D01*
X125209350Y-130330580D02*
X125161731Y-130378200D01*
X125161731Y-130378200D02*
X125018874Y-130425819D01*
X125018874Y-130425819D02*
X124923636Y-130425819D01*
X124923636Y-130425819D02*
X124780779Y-130378200D01*
X124780779Y-130378200D02*
X124685541Y-130282961D01*
X124685541Y-130282961D02*
X124637922Y-130187723D01*
X124637922Y-130187723D02*
X124590303Y-129997247D01*
X124590303Y-129997247D02*
X124590303Y-129854390D01*
X124590303Y-129854390D02*
X124637922Y-129663914D01*
X124637922Y-129663914D02*
X124685541Y-129568676D01*
X124685541Y-129568676D02*
X124780779Y-129473438D01*
X124780779Y-129473438D02*
X124923636Y-129425819D01*
X124923636Y-129425819D02*
X125018874Y-129425819D01*
X125018874Y-129425819D02*
X125161731Y-129473438D01*
X125161731Y-129473438D02*
X125209350Y-129521057D01*
X126209350Y-130330580D02*
X126161731Y-130378200D01*
X126161731Y-130378200D02*
X126018874Y-130425819D01*
X126018874Y-130425819D02*
X125923636Y-130425819D01*
X125923636Y-130425819D02*
X125780779Y-130378200D01*
X125780779Y-130378200D02*
X125685541Y-130282961D01*
X125685541Y-130282961D02*
X125637922Y-130187723D01*
X125637922Y-130187723D02*
X125590303Y-129997247D01*
X125590303Y-129997247D02*
X125590303Y-129854390D01*
X125590303Y-129854390D02*
X125637922Y-129663914D01*
X125637922Y-129663914D02*
X125685541Y-129568676D01*
X125685541Y-129568676D02*
X125780779Y-129473438D01*
X125780779Y-129473438D02*
X125923636Y-129425819D01*
X125923636Y-129425819D02*
X126018874Y-129425819D01*
X126018874Y-129425819D02*
X126161731Y-129473438D01*
X126161731Y-129473438D02*
X126209350Y-129521057D01*
X126637922Y-129902009D02*
X126971255Y-129902009D01*
X127114112Y-130425819D02*
X126637922Y-130425819D01*
X126637922Y-130425819D02*
X126637922Y-129425819D01*
X126637922Y-129425819D02*
X127114112Y-129425819D01*
X128018874Y-130425819D02*
X127542684Y-130425819D01*
X127542684Y-130425819D02*
X127542684Y-129425819D01*
X179447819Y-65195220D02*
X178447819Y-65195220D01*
X178447819Y-65195220D02*
X178447819Y-64957125D01*
X178447819Y-64957125D02*
X178495438Y-64814268D01*
X178495438Y-64814268D02*
X178590676Y-64719030D01*
X178590676Y-64719030D02*
X178685914Y-64671411D01*
X178685914Y-64671411D02*
X178876390Y-64623792D01*
X178876390Y-64623792D02*
X179019247Y-64623792D01*
X179019247Y-64623792D02*
X179209723Y-64671411D01*
X179209723Y-64671411D02*
X179304961Y-64719030D01*
X179304961Y-64719030D02*
X179400200Y-64814268D01*
X179400200Y-64814268D02*
X179447819Y-64957125D01*
X179447819Y-64957125D02*
X179447819Y-65195220D01*
X179447819Y-64195220D02*
X178447819Y-64195220D01*
X178495438Y-63195221D02*
X178447819Y-63290459D01*
X178447819Y-63290459D02*
X178447819Y-63433316D01*
X178447819Y-63433316D02*
X178495438Y-63576173D01*
X178495438Y-63576173D02*
X178590676Y-63671411D01*
X178590676Y-63671411D02*
X178685914Y-63719030D01*
X178685914Y-63719030D02*
X178876390Y-63766649D01*
X178876390Y-63766649D02*
X179019247Y-63766649D01*
X179019247Y-63766649D02*
X179209723Y-63719030D01*
X179209723Y-63719030D02*
X179304961Y-63671411D01*
X179304961Y-63671411D02*
X179400200Y-63576173D01*
X179400200Y-63576173D02*
X179447819Y-63433316D01*
X179447819Y-63433316D02*
X179447819Y-63338078D01*
X179447819Y-63338078D02*
X179400200Y-63195221D01*
X179400200Y-63195221D02*
X179352580Y-63147602D01*
X179352580Y-63147602D02*
X179019247Y-63147602D01*
X179019247Y-63147602D02*
X179019247Y-63338078D01*
X178447819Y-62814268D02*
X178447819Y-62195221D01*
X178447819Y-62195221D02*
X178828771Y-62528554D01*
X178828771Y-62528554D02*
X178828771Y-62385697D01*
X178828771Y-62385697D02*
X178876390Y-62290459D01*
X178876390Y-62290459D02*
X178924009Y-62242840D01*
X178924009Y-62242840D02*
X179019247Y-62195221D01*
X179019247Y-62195221D02*
X179257342Y-62195221D01*
X179257342Y-62195221D02*
X179352580Y-62242840D01*
X179352580Y-62242840D02*
X179400200Y-62290459D01*
X179400200Y-62290459D02*
X179447819Y-62385697D01*
X179447819Y-62385697D02*
X179447819Y-62671411D01*
X179447819Y-62671411D02*
X179400200Y-62766649D01*
X179400200Y-62766649D02*
X179352580Y-62814268D01*
X169754684Y-81753152D02*
X168992779Y-82038866D01*
X168992779Y-82038866D02*
X169754684Y-82324580D01*
X170230874Y-82419819D02*
X170230874Y-81419819D01*
X170230874Y-81896009D02*
X170802302Y-81896009D01*
X170802302Y-82419819D02*
X170802302Y-81419819D01*
X171278493Y-82419819D02*
X171278493Y-81419819D01*
X171278493Y-81419819D02*
X171516588Y-81419819D01*
X171516588Y-81419819D02*
X171659445Y-81467438D01*
X171659445Y-81467438D02*
X171754683Y-81562676D01*
X171754683Y-81562676D02*
X171802302Y-81657914D01*
X171802302Y-81657914D02*
X171849921Y-81848390D01*
X171849921Y-81848390D02*
X171849921Y-81991247D01*
X171849921Y-81991247D02*
X171802302Y-82181723D01*
X171802302Y-82181723D02*
X171754683Y-82276961D01*
X171754683Y-82276961D02*
X171659445Y-82372200D01*
X171659445Y-82372200D02*
X171516588Y-82419819D01*
X171516588Y-82419819D02*
X171278493Y-82419819D01*
X172278493Y-82419819D02*
X172278493Y-81419819D01*
X172278493Y-81419819D02*
X172611826Y-82134104D01*
X172611826Y-82134104D02*
X172945159Y-81419819D01*
X172945159Y-81419819D02*
X172945159Y-82419819D01*
X173421350Y-82419819D02*
X173421350Y-81419819D01*
X173897540Y-81753152D02*
X174659445Y-82038866D01*
X174659445Y-82038866D02*
X173897540Y-82324580D01*
X139481160Y-95342104D02*
X139957350Y-95342104D01*
X139385922Y-95627819D02*
X139719255Y-94627819D01*
X139719255Y-94627819D02*
X140052588Y-95627819D01*
X140290684Y-94627819D02*
X140957350Y-94627819D01*
X140957350Y-94627819D02*
X140528779Y-95627819D01*
X125558779Y-107565819D02*
X125558779Y-106565819D01*
X125558779Y-107042009D02*
X126130207Y-107042009D01*
X126130207Y-107565819D02*
X126130207Y-106565819D01*
X126368303Y-107661057D02*
X127130207Y-107661057D01*
X127368303Y-106565819D02*
X127368303Y-107375342D01*
X127368303Y-107375342D02*
X127415922Y-107470580D01*
X127415922Y-107470580D02*
X127463541Y-107518200D01*
X127463541Y-107518200D02*
X127558779Y-107565819D01*
X127558779Y-107565819D02*
X127749255Y-107565819D01*
X127749255Y-107565819D02*
X127844493Y-107518200D01*
X127844493Y-107518200D02*
X127892112Y-107470580D01*
X127892112Y-107470580D02*
X127939731Y-107375342D01*
X127939731Y-107375342D02*
X127939731Y-106565819D01*
X176977922Y-152285819D02*
X177549350Y-152285819D01*
X177263636Y-153285819D02*
X177263636Y-152285819D01*
X178311255Y-153285819D02*
X178311255Y-152762009D01*
X178311255Y-152762009D02*
X178263636Y-152666771D01*
X178263636Y-152666771D02*
X178168398Y-152619152D01*
X178168398Y-152619152D02*
X177977922Y-152619152D01*
X177977922Y-152619152D02*
X177882684Y-152666771D01*
X178311255Y-153238200D02*
X178216017Y-153285819D01*
X178216017Y-153285819D02*
X177977922Y-153285819D01*
X177977922Y-153285819D02*
X177882684Y-153238200D01*
X177882684Y-153238200D02*
X177835065Y-153142961D01*
X177835065Y-153142961D02*
X177835065Y-153047723D01*
X177835065Y-153047723D02*
X177882684Y-152952485D01*
X177882684Y-152952485D02*
X177977922Y-152904866D01*
X177977922Y-152904866D02*
X178216017Y-152904866D01*
X178216017Y-152904866D02*
X178311255Y-152857247D01*
X178787446Y-152619152D02*
X178787446Y-153285819D01*
X178787446Y-152714390D02*
X178835065Y-152666771D01*
X178835065Y-152666771D02*
X178930303Y-152619152D01*
X178930303Y-152619152D02*
X179073160Y-152619152D01*
X179073160Y-152619152D02*
X179168398Y-152666771D01*
X179168398Y-152666771D02*
X179216017Y-152762009D01*
X179216017Y-152762009D02*
X179216017Y-153285819D01*
X180120779Y-152619152D02*
X180120779Y-153428676D01*
X180120779Y-153428676D02*
X180073160Y-153523914D01*
X180073160Y-153523914D02*
X180025541Y-153571533D01*
X180025541Y-153571533D02*
X179930303Y-153619152D01*
X179930303Y-153619152D02*
X179787446Y-153619152D01*
X179787446Y-153619152D02*
X179692208Y-153571533D01*
X180120779Y-153238200D02*
X180025541Y-153285819D01*
X180025541Y-153285819D02*
X179835065Y-153285819D01*
X179835065Y-153285819D02*
X179739827Y-153238200D01*
X179739827Y-153238200D02*
X179692208Y-153190580D01*
X179692208Y-153190580D02*
X179644589Y-153095342D01*
X179644589Y-153095342D02*
X179644589Y-152809628D01*
X179644589Y-152809628D02*
X179692208Y-152714390D01*
X179692208Y-152714390D02*
X179739827Y-152666771D01*
X179739827Y-152666771D02*
X179835065Y-152619152D01*
X179835065Y-152619152D02*
X180025541Y-152619152D01*
X180025541Y-152619152D02*
X180120779Y-152666771D01*
X181358875Y-153285819D02*
X181358875Y-152285819D01*
X181358875Y-152285819D02*
X181930303Y-153285819D01*
X181930303Y-153285819D02*
X181930303Y-152285819D01*
X182835065Y-153285819D02*
X182835065Y-152762009D01*
X182835065Y-152762009D02*
X182787446Y-152666771D01*
X182787446Y-152666771D02*
X182692208Y-152619152D01*
X182692208Y-152619152D02*
X182501732Y-152619152D01*
X182501732Y-152619152D02*
X182406494Y-152666771D01*
X182835065Y-153238200D02*
X182739827Y-153285819D01*
X182739827Y-153285819D02*
X182501732Y-153285819D01*
X182501732Y-153285819D02*
X182406494Y-153238200D01*
X182406494Y-153238200D02*
X182358875Y-153142961D01*
X182358875Y-153142961D02*
X182358875Y-153047723D01*
X182358875Y-153047723D02*
X182406494Y-152952485D01*
X182406494Y-152952485D02*
X182501732Y-152904866D01*
X182501732Y-152904866D02*
X182739827Y-152904866D01*
X182739827Y-152904866D02*
X182835065Y-152857247D01*
X183311256Y-152619152D02*
X183311256Y-153285819D01*
X183311256Y-152714390D02*
X183358875Y-152666771D01*
X183358875Y-152666771D02*
X183454113Y-152619152D01*
X183454113Y-152619152D02*
X183596970Y-152619152D01*
X183596970Y-152619152D02*
X183692208Y-152666771D01*
X183692208Y-152666771D02*
X183739827Y-152762009D01*
X183739827Y-152762009D02*
X183739827Y-153285819D01*
X184358875Y-153285819D02*
X184263637Y-153238200D01*
X184263637Y-153238200D02*
X184216018Y-153190580D01*
X184216018Y-153190580D02*
X184168399Y-153095342D01*
X184168399Y-153095342D02*
X184168399Y-152809628D01*
X184168399Y-152809628D02*
X184216018Y-152714390D01*
X184216018Y-152714390D02*
X184263637Y-152666771D01*
X184263637Y-152666771D02*
X184358875Y-152619152D01*
X184358875Y-152619152D02*
X184501732Y-152619152D01*
X184501732Y-152619152D02*
X184596970Y-152666771D01*
X184596970Y-152666771D02*
X184644589Y-152714390D01*
X184644589Y-152714390D02*
X184692208Y-152809628D01*
X184692208Y-152809628D02*
X184692208Y-153095342D01*
X184692208Y-153095342D02*
X184644589Y-153190580D01*
X184644589Y-153190580D02*
X184596970Y-153238200D01*
X184596970Y-153238200D02*
X184501732Y-153285819D01*
X184501732Y-153285819D02*
X184358875Y-153285819D01*
X185930304Y-153285819D02*
X186120780Y-153285819D01*
X186120780Y-153285819D02*
X186216018Y-153238200D01*
X186216018Y-153238200D02*
X186263637Y-153190580D01*
X186263637Y-153190580D02*
X186358875Y-153047723D01*
X186358875Y-153047723D02*
X186406494Y-152857247D01*
X186406494Y-152857247D02*
X186406494Y-152476295D01*
X186406494Y-152476295D02*
X186358875Y-152381057D01*
X186358875Y-152381057D02*
X186311256Y-152333438D01*
X186311256Y-152333438D02*
X186216018Y-152285819D01*
X186216018Y-152285819D02*
X186025542Y-152285819D01*
X186025542Y-152285819D02*
X185930304Y-152333438D01*
X185930304Y-152333438D02*
X185882685Y-152381057D01*
X185882685Y-152381057D02*
X185835066Y-152476295D01*
X185835066Y-152476295D02*
X185835066Y-152714390D01*
X185835066Y-152714390D02*
X185882685Y-152809628D01*
X185882685Y-152809628D02*
X185930304Y-152857247D01*
X185930304Y-152857247D02*
X186025542Y-152904866D01*
X186025542Y-152904866D02*
X186216018Y-152904866D01*
X186216018Y-152904866D02*
X186311256Y-152857247D01*
X186311256Y-152857247D02*
X186358875Y-152809628D01*
X186358875Y-152809628D02*
X186406494Y-152714390D01*
X186835066Y-153285819D02*
X186835066Y-152285819D01*
X187406494Y-153285819D02*
X186977923Y-152714390D01*
X187406494Y-152285819D02*
X186835066Y-152857247D01*
X188596971Y-152904866D02*
X189358876Y-152904866D01*
X190596971Y-153285819D02*
X190596971Y-152285819D01*
X191073161Y-152619152D02*
X191073161Y-153285819D01*
X191073161Y-152714390D02*
X191120780Y-152666771D01*
X191120780Y-152666771D02*
X191216018Y-152619152D01*
X191216018Y-152619152D02*
X191358875Y-152619152D01*
X191358875Y-152619152D02*
X191454113Y-152666771D01*
X191454113Y-152666771D02*
X191501732Y-152762009D01*
X191501732Y-152762009D02*
X191501732Y-153285819D01*
X191882685Y-152619152D02*
X192120780Y-153285819D01*
X192120780Y-153285819D02*
X192358875Y-152619152D01*
X193120780Y-153238200D02*
X193025542Y-153285819D01*
X193025542Y-153285819D02*
X192835066Y-153285819D01*
X192835066Y-153285819D02*
X192739828Y-153238200D01*
X192739828Y-153238200D02*
X192692209Y-153142961D01*
X192692209Y-153142961D02*
X192692209Y-152762009D01*
X192692209Y-152762009D02*
X192739828Y-152666771D01*
X192739828Y-152666771D02*
X192835066Y-152619152D01*
X192835066Y-152619152D02*
X193025542Y-152619152D01*
X193025542Y-152619152D02*
X193120780Y-152666771D01*
X193120780Y-152666771D02*
X193168399Y-152762009D01*
X193168399Y-152762009D02*
X193168399Y-152857247D01*
X193168399Y-152857247D02*
X192692209Y-152952485D01*
X193596971Y-153285819D02*
X193596971Y-152619152D01*
X193596971Y-152809628D02*
X193644590Y-152714390D01*
X193644590Y-152714390D02*
X193692209Y-152666771D01*
X193692209Y-152666771D02*
X193787447Y-152619152D01*
X193787447Y-152619152D02*
X193882685Y-152619152D01*
X194073162Y-152619152D02*
X194454114Y-152619152D01*
X194216019Y-152285819D02*
X194216019Y-153142961D01*
X194216019Y-153142961D02*
X194263638Y-153238200D01*
X194263638Y-153238200D02*
X194358876Y-153285819D01*
X194358876Y-153285819D02*
X194454114Y-153285819D01*
X195168400Y-153238200D02*
X195073162Y-153285819D01*
X195073162Y-153285819D02*
X194882686Y-153285819D01*
X194882686Y-153285819D02*
X194787448Y-153238200D01*
X194787448Y-153238200D02*
X194739829Y-153142961D01*
X194739829Y-153142961D02*
X194739829Y-152762009D01*
X194739829Y-152762009D02*
X194787448Y-152666771D01*
X194787448Y-152666771D02*
X194882686Y-152619152D01*
X194882686Y-152619152D02*
X195073162Y-152619152D01*
X195073162Y-152619152D02*
X195168400Y-152666771D01*
X195168400Y-152666771D02*
X195216019Y-152762009D01*
X195216019Y-152762009D02*
X195216019Y-152857247D01*
X195216019Y-152857247D02*
X194739829Y-152952485D01*
X195644591Y-153285819D02*
X195644591Y-152619152D01*
X195644591Y-152809628D02*
X195692210Y-152714390D01*
X195692210Y-152714390D02*
X195739829Y-152666771D01*
X195739829Y-152666771D02*
X195835067Y-152619152D01*
X195835067Y-152619152D02*
X195930305Y-152619152D01*
X196263639Y-153285819D02*
X196263639Y-152285819D01*
X196835067Y-153285819D02*
X196406496Y-152714390D01*
X196835067Y-152285819D02*
X196263639Y-152857247D01*
X197263639Y-153285819D02*
X197263639Y-152619152D01*
X197263639Y-152285819D02*
X197216020Y-152333438D01*
X197216020Y-152333438D02*
X197263639Y-152381057D01*
X197263639Y-152381057D02*
X197311258Y-152333438D01*
X197311258Y-152333438D02*
X197263639Y-152285819D01*
X197263639Y-152285819D02*
X197263639Y-152381057D01*
X197596972Y-152619152D02*
X197977924Y-152619152D01*
X197739829Y-152285819D02*
X197739829Y-153142961D01*
X197739829Y-153142961D02*
X197787448Y-153238200D01*
X197787448Y-153238200D02*
X197882686Y-153285819D01*
X197882686Y-153285819D02*
X197977924Y-153285819D01*
X198263639Y-152381057D02*
X198311258Y-152333438D01*
X198311258Y-152333438D02*
X198406496Y-152285819D01*
X198406496Y-152285819D02*
X198644591Y-152285819D01*
X198644591Y-152285819D02*
X198739829Y-152333438D01*
X198739829Y-152333438D02*
X198787448Y-152381057D01*
X198787448Y-152381057D02*
X198835067Y-152476295D01*
X198835067Y-152476295D02*
X198835067Y-152571533D01*
X198835067Y-152571533D02*
X198787448Y-152714390D01*
X198787448Y-152714390D02*
X198216020Y-153285819D01*
X198216020Y-153285819D02*
X198835067Y-153285819D01*
X189725541Y-147205819D02*
X190344588Y-147205819D01*
X190344588Y-147205819D02*
X190011255Y-147586771D01*
X190011255Y-147586771D02*
X190154112Y-147586771D01*
X190154112Y-147586771D02*
X190249350Y-147634390D01*
X190249350Y-147634390D02*
X190296969Y-147682009D01*
X190296969Y-147682009D02*
X190344588Y-147777247D01*
X190344588Y-147777247D02*
X190344588Y-148015342D01*
X190344588Y-148015342D02*
X190296969Y-148110580D01*
X190296969Y-148110580D02*
X190249350Y-148158200D01*
X190249350Y-148158200D02*
X190154112Y-148205819D01*
X190154112Y-148205819D02*
X189868398Y-148205819D01*
X189868398Y-148205819D02*
X189773160Y-148158200D01*
X189773160Y-148158200D02*
X189725541Y-148110580D01*
X190916017Y-147634390D02*
X190820779Y-147586771D01*
X190820779Y-147586771D02*
X190773160Y-147539152D01*
X190773160Y-147539152D02*
X190725541Y-147443914D01*
X190725541Y-147443914D02*
X190725541Y-147396295D01*
X190725541Y-147396295D02*
X190773160Y-147301057D01*
X190773160Y-147301057D02*
X190820779Y-147253438D01*
X190820779Y-147253438D02*
X190916017Y-147205819D01*
X190916017Y-147205819D02*
X191106493Y-147205819D01*
X191106493Y-147205819D02*
X191201731Y-147253438D01*
X191201731Y-147253438D02*
X191249350Y-147301057D01*
X191249350Y-147301057D02*
X191296969Y-147396295D01*
X191296969Y-147396295D02*
X191296969Y-147443914D01*
X191296969Y-147443914D02*
X191249350Y-147539152D01*
X191249350Y-147539152D02*
X191201731Y-147586771D01*
X191201731Y-147586771D02*
X191106493Y-147634390D01*
X191106493Y-147634390D02*
X190916017Y-147634390D01*
X190916017Y-147634390D02*
X190820779Y-147682009D01*
X190820779Y-147682009D02*
X190773160Y-147729628D01*
X190773160Y-147729628D02*
X190725541Y-147824866D01*
X190725541Y-147824866D02*
X190725541Y-148015342D01*
X190725541Y-148015342D02*
X190773160Y-148110580D01*
X190773160Y-148110580D02*
X190820779Y-148158200D01*
X190820779Y-148158200D02*
X190916017Y-148205819D01*
X190916017Y-148205819D02*
X191106493Y-148205819D01*
X191106493Y-148205819D02*
X191201731Y-148158200D01*
X191201731Y-148158200D02*
X191249350Y-148110580D01*
X191249350Y-148110580D02*
X191296969Y-148015342D01*
X191296969Y-148015342D02*
X191296969Y-147824866D01*
X191296969Y-147824866D02*
X191249350Y-147729628D01*
X191249350Y-147729628D02*
X191201731Y-147682009D01*
X191201731Y-147682009D02*
X191106493Y-147634390D01*
X192439826Y-147158200D02*
X191582684Y-148443914D01*
X192725541Y-147539152D02*
X193439826Y-147539152D01*
X193011255Y-147110580D02*
X192725541Y-148396295D01*
X193344588Y-147967723D02*
X192630303Y-147967723D01*
X193058874Y-148396295D02*
X193344588Y-147110580D01*
X194249350Y-148205819D02*
X193773160Y-148205819D01*
X193773160Y-148205819D02*
X193773160Y-147205819D01*
X194582684Y-148205819D02*
X194582684Y-147205819D01*
X195058874Y-148205819D02*
X195058874Y-147205819D01*
X195058874Y-147205819D02*
X195630302Y-148205819D01*
X195630302Y-148205819D02*
X195630302Y-147205819D01*
X195868398Y-148301057D02*
X196630302Y-148301057D01*
X196820779Y-148158200D02*
X196963636Y-148205819D01*
X196963636Y-148205819D02*
X197201731Y-148205819D01*
X197201731Y-148205819D02*
X197296969Y-148158200D01*
X197296969Y-148158200D02*
X197344588Y-148110580D01*
X197344588Y-148110580D02*
X197392207Y-148015342D01*
X197392207Y-148015342D02*
X197392207Y-147920104D01*
X197392207Y-147920104D02*
X197344588Y-147824866D01*
X197344588Y-147824866D02*
X197296969Y-147777247D01*
X197296969Y-147777247D02*
X197201731Y-147729628D01*
X197201731Y-147729628D02*
X197011255Y-147682009D01*
X197011255Y-147682009D02*
X196916017Y-147634390D01*
X196916017Y-147634390D02*
X196868398Y-147586771D01*
X196868398Y-147586771D02*
X196820779Y-147491533D01*
X196820779Y-147491533D02*
X196820779Y-147396295D01*
X196820779Y-147396295D02*
X196868398Y-147301057D01*
X196868398Y-147301057D02*
X196916017Y-147253438D01*
X196916017Y-147253438D02*
X197011255Y-147205819D01*
X197011255Y-147205819D02*
X197249350Y-147205819D01*
X197249350Y-147205819D02*
X197392207Y-147253438D01*
X191154207Y-84356580D02*
X191106588Y-84404200D01*
X191106588Y-84404200D02*
X190963731Y-84451819D01*
X190963731Y-84451819D02*
X190868493Y-84451819D01*
X190868493Y-84451819D02*
X190725636Y-84404200D01*
X190725636Y-84404200D02*
X190630398Y-84308961D01*
X190630398Y-84308961D02*
X190582779Y-84213723D01*
X190582779Y-84213723D02*
X190535160Y-84023247D01*
X190535160Y-84023247D02*
X190535160Y-83880390D01*
X190535160Y-83880390D02*
X190582779Y-83689914D01*
X190582779Y-83689914D02*
X190630398Y-83594676D01*
X190630398Y-83594676D02*
X190725636Y-83499438D01*
X190725636Y-83499438D02*
X190868493Y-83451819D01*
X190868493Y-83451819D02*
X190963731Y-83451819D01*
X190963731Y-83451819D02*
X191106588Y-83499438D01*
X191106588Y-83499438D02*
X191154207Y-83547057D01*
X191582779Y-84451819D02*
X191582779Y-83451819D01*
X191582779Y-83451819D02*
X192154207Y-84451819D01*
X192154207Y-84451819D02*
X192154207Y-83451819D01*
X192582779Y-83547057D02*
X192630398Y-83499438D01*
X192630398Y-83499438D02*
X192725636Y-83451819D01*
X192725636Y-83451819D02*
X192963731Y-83451819D01*
X192963731Y-83451819D02*
X193058969Y-83499438D01*
X193058969Y-83499438D02*
X193106588Y-83547057D01*
X193106588Y-83547057D02*
X193154207Y-83642295D01*
X193154207Y-83642295D02*
X193154207Y-83737533D01*
X193154207Y-83737533D02*
X193106588Y-83880390D01*
X193106588Y-83880390D02*
X192535160Y-84451819D01*
X192535160Y-84451819D02*
X193154207Y-84451819D01*
X186772779Y-89785819D02*
X186772779Y-88785819D01*
X186772779Y-88785819D02*
X187010874Y-88785819D01*
X187010874Y-88785819D02*
X187153731Y-88833438D01*
X187153731Y-88833438D02*
X187248969Y-88928676D01*
X187248969Y-88928676D02*
X187296588Y-89023914D01*
X187296588Y-89023914D02*
X187344207Y-89214390D01*
X187344207Y-89214390D02*
X187344207Y-89357247D01*
X187344207Y-89357247D02*
X187296588Y-89547723D01*
X187296588Y-89547723D02*
X187248969Y-89642961D01*
X187248969Y-89642961D02*
X187153731Y-89738200D01*
X187153731Y-89738200D02*
X187010874Y-89785819D01*
X187010874Y-89785819D02*
X186772779Y-89785819D01*
X187772779Y-89785819D02*
X187772779Y-88785819D01*
X188820397Y-89785819D02*
X188487064Y-89309628D01*
X188248969Y-89785819D02*
X188248969Y-88785819D01*
X188248969Y-88785819D02*
X188629921Y-88785819D01*
X188629921Y-88785819D02*
X188725159Y-88833438D01*
X188725159Y-88833438D02*
X188772778Y-88881057D01*
X188772778Y-88881057D02*
X188820397Y-88976295D01*
X188820397Y-88976295D02*
X188820397Y-89119152D01*
X188820397Y-89119152D02*
X188772778Y-89214390D01*
X188772778Y-89214390D02*
X188725159Y-89262009D01*
X188725159Y-89262009D02*
X188629921Y-89309628D01*
X188629921Y-89309628D02*
X188248969Y-89309628D01*
X185248779Y-127885819D02*
X185248779Y-126885819D01*
X185248779Y-127362009D02*
X185820207Y-127362009D01*
X185820207Y-127885819D02*
X185820207Y-126885819D01*
X186296398Y-127885819D02*
X186296398Y-126885819D01*
X186772588Y-127885819D02*
X186772588Y-126885819D01*
X186772588Y-126885819D02*
X187344016Y-127885819D01*
X187344016Y-127885819D02*
X187344016Y-126885819D01*
X187582112Y-127981057D02*
X188344016Y-127981057D01*
X188439255Y-126885819D02*
X189010683Y-126885819D01*
X188724969Y-127885819D02*
X188724969Y-126885819D01*
%TO.C,U3*%
X158287819Y-60832904D02*
X159097342Y-60832904D01*
X159097342Y-60832904D02*
X159192580Y-60785285D01*
X159192580Y-60785285D02*
X159240200Y-60737666D01*
X159240200Y-60737666D02*
X159287819Y-60642428D01*
X159287819Y-60642428D02*
X159287819Y-60451952D01*
X159287819Y-60451952D02*
X159240200Y-60356714D01*
X159240200Y-60356714D02*
X159192580Y-60309095D01*
X159192580Y-60309095D02*
X159097342Y-60261476D01*
X159097342Y-60261476D02*
X158287819Y-60261476D01*
X158287819Y-59880523D02*
X158287819Y-59261476D01*
X158287819Y-59261476D02*
X158668771Y-59594809D01*
X158668771Y-59594809D02*
X158668771Y-59451952D01*
X158668771Y-59451952D02*
X158716390Y-59356714D01*
X158716390Y-59356714D02*
X158764009Y-59309095D01*
X158764009Y-59309095D02*
X158859247Y-59261476D01*
X158859247Y-59261476D02*
X159097342Y-59261476D01*
X159097342Y-59261476D02*
X159192580Y-59309095D01*
X159192580Y-59309095D02*
X159240200Y-59356714D01*
X159240200Y-59356714D02*
X159287819Y-59451952D01*
X159287819Y-59451952D02*
X159287819Y-59737666D01*
X159287819Y-59737666D02*
X159240200Y-59832904D01*
X159240200Y-59832904D02*
X159192580Y-59880523D01*
%TO.C,R1*%
X157426819Y-78906666D02*
X156950628Y-79239999D01*
X157426819Y-79478094D02*
X156426819Y-79478094D01*
X156426819Y-79478094D02*
X156426819Y-79097142D01*
X156426819Y-79097142D02*
X156474438Y-79001904D01*
X156474438Y-79001904D02*
X156522057Y-78954285D01*
X156522057Y-78954285D02*
X156617295Y-78906666D01*
X156617295Y-78906666D02*
X156760152Y-78906666D01*
X156760152Y-78906666D02*
X156855390Y-78954285D01*
X156855390Y-78954285D02*
X156903009Y-79001904D01*
X156903009Y-79001904D02*
X156950628Y-79097142D01*
X156950628Y-79097142D02*
X156950628Y-79478094D01*
X157426819Y-77954285D02*
X157426819Y-78525713D01*
X157426819Y-78239999D02*
X156426819Y-78239999D01*
X156426819Y-78239999D02*
X156569676Y-78335237D01*
X156569676Y-78335237D02*
X156664914Y-78430475D01*
X156664914Y-78430475D02*
X156712533Y-78525713D01*
%TO.C,C1*%
X153775580Y-85002666D02*
X153823200Y-85050285D01*
X153823200Y-85050285D02*
X153870819Y-85193142D01*
X153870819Y-85193142D02*
X153870819Y-85288380D01*
X153870819Y-85288380D02*
X153823200Y-85431237D01*
X153823200Y-85431237D02*
X153727961Y-85526475D01*
X153727961Y-85526475D02*
X153632723Y-85574094D01*
X153632723Y-85574094D02*
X153442247Y-85621713D01*
X153442247Y-85621713D02*
X153299390Y-85621713D01*
X153299390Y-85621713D02*
X153108914Y-85574094D01*
X153108914Y-85574094D02*
X153013676Y-85526475D01*
X153013676Y-85526475D02*
X152918438Y-85431237D01*
X152918438Y-85431237D02*
X152870819Y-85288380D01*
X152870819Y-85288380D02*
X152870819Y-85193142D01*
X152870819Y-85193142D02*
X152918438Y-85050285D01*
X152918438Y-85050285D02*
X152966057Y-85002666D01*
X153870819Y-84050285D02*
X153870819Y-84621713D01*
X153870819Y-84335999D02*
X152870819Y-84335999D01*
X152870819Y-84335999D02*
X153013676Y-84431237D01*
X153013676Y-84431237D02*
X153108914Y-84526475D01*
X153108914Y-84526475D02*
X153156533Y-84621713D01*
%TO.C,U1*%
X158496095Y-150838819D02*
X158496095Y-151648342D01*
X158496095Y-151648342D02*
X158543714Y-151743580D01*
X158543714Y-151743580D02*
X158591333Y-151791200D01*
X158591333Y-151791200D02*
X158686571Y-151838819D01*
X158686571Y-151838819D02*
X158877047Y-151838819D01*
X158877047Y-151838819D02*
X158972285Y-151791200D01*
X158972285Y-151791200D02*
X159019904Y-151743580D01*
X159019904Y-151743580D02*
X159067523Y-151648342D01*
X159067523Y-151648342D02*
X159067523Y-150838819D01*
X160067523Y-151838819D02*
X159496095Y-151838819D01*
X159781809Y-151838819D02*
X159781809Y-150838819D01*
X159781809Y-150838819D02*
X159686571Y-150981676D01*
X159686571Y-150981676D02*
X159591333Y-151076914D01*
X159591333Y-151076914D02*
X159496095Y-151124533D01*
D11*
%TO.C,PS1*%
X138115318Y-121684143D02*
X136845318Y-121684143D01*
X136845318Y-121684143D02*
X136845318Y-121200333D01*
X136845318Y-121200333D02*
X136905794Y-121079381D01*
X136905794Y-121079381D02*
X136966270Y-121018904D01*
X136966270Y-121018904D02*
X137087222Y-120958428D01*
X137087222Y-120958428D02*
X137268651Y-120958428D01*
X137268651Y-120958428D02*
X137389603Y-121018904D01*
X137389603Y-121018904D02*
X137450080Y-121079381D01*
X137450080Y-121079381D02*
X137510556Y-121200333D01*
X137510556Y-121200333D02*
X137510556Y-121684143D01*
X138054842Y-120474619D02*
X138115318Y-120293190D01*
X138115318Y-120293190D02*
X138115318Y-119990809D01*
X138115318Y-119990809D02*
X138054842Y-119869857D01*
X138054842Y-119869857D02*
X137994365Y-119809381D01*
X137994365Y-119809381D02*
X137873413Y-119748904D01*
X137873413Y-119748904D02*
X137752461Y-119748904D01*
X137752461Y-119748904D02*
X137631508Y-119809381D01*
X137631508Y-119809381D02*
X137571032Y-119869857D01*
X137571032Y-119869857D02*
X137510556Y-119990809D01*
X137510556Y-119990809D02*
X137450080Y-120232714D01*
X137450080Y-120232714D02*
X137389603Y-120353666D01*
X137389603Y-120353666D02*
X137329127Y-120414143D01*
X137329127Y-120414143D02*
X137208175Y-120474619D01*
X137208175Y-120474619D02*
X137087222Y-120474619D01*
X137087222Y-120474619D02*
X136966270Y-120414143D01*
X136966270Y-120414143D02*
X136905794Y-120353666D01*
X136905794Y-120353666D02*
X136845318Y-120232714D01*
X136845318Y-120232714D02*
X136845318Y-119930333D01*
X136845318Y-119930333D02*
X136905794Y-119748904D01*
X138115318Y-118539380D02*
X138115318Y-119265095D01*
X138115318Y-118902238D02*
X136845318Y-118902238D01*
X136845318Y-118902238D02*
X137026746Y-119023190D01*
X137026746Y-119023190D02*
X137147699Y-119144142D01*
X137147699Y-119144142D02*
X137208175Y-119265095D01*
D10*
%TO.C,J2*%
X155876666Y-147512819D02*
X155876666Y-148227104D01*
X155876666Y-148227104D02*
X155829047Y-148369961D01*
X155829047Y-148369961D02*
X155733809Y-148465200D01*
X155733809Y-148465200D02*
X155590952Y-148512819D01*
X155590952Y-148512819D02*
X155495714Y-148512819D01*
X156305238Y-147608057D02*
X156352857Y-147560438D01*
X156352857Y-147560438D02*
X156448095Y-147512819D01*
X156448095Y-147512819D02*
X156686190Y-147512819D01*
X156686190Y-147512819D02*
X156781428Y-147560438D01*
X156781428Y-147560438D02*
X156829047Y-147608057D01*
X156829047Y-147608057D02*
X156876666Y-147703295D01*
X156876666Y-147703295D02*
X156876666Y-147798533D01*
X156876666Y-147798533D02*
X156829047Y-147941390D01*
X156829047Y-147941390D02*
X156257619Y-148512819D01*
X156257619Y-148512819D02*
X156876666Y-148512819D01*
D11*
%TO.C,S1*%
X143558380Y-153167842D02*
X143739809Y-153228318D01*
X143739809Y-153228318D02*
X144042190Y-153228318D01*
X144042190Y-153228318D02*
X144163142Y-153167842D01*
X144163142Y-153167842D02*
X144223618Y-153107365D01*
X144223618Y-153107365D02*
X144284095Y-152986413D01*
X144284095Y-152986413D02*
X144284095Y-152865461D01*
X144284095Y-152865461D02*
X144223618Y-152744508D01*
X144223618Y-152744508D02*
X144163142Y-152684032D01*
X144163142Y-152684032D02*
X144042190Y-152623556D01*
X144042190Y-152623556D02*
X143800285Y-152563080D01*
X143800285Y-152563080D02*
X143679333Y-152502603D01*
X143679333Y-152502603D02*
X143618856Y-152442127D01*
X143618856Y-152442127D02*
X143558380Y-152321175D01*
X143558380Y-152321175D02*
X143558380Y-152200222D01*
X143558380Y-152200222D02*
X143618856Y-152079270D01*
X143618856Y-152079270D02*
X143679333Y-152018794D01*
X143679333Y-152018794D02*
X143800285Y-151958318D01*
X143800285Y-151958318D02*
X144102666Y-151958318D01*
X144102666Y-151958318D02*
X144284095Y-152018794D01*
X145493619Y-153228318D02*
X144767904Y-153228318D01*
X145130761Y-153228318D02*
X145130761Y-151958318D01*
X145130761Y-151958318D02*
X145009809Y-152139746D01*
X145009809Y-152139746D02*
X144888857Y-152260699D01*
X144888857Y-152260699D02*
X144767904Y-152321175D01*
D10*
%TO.C,Reverse*%
X144486570Y-57477819D02*
X144153237Y-57001628D01*
X143915142Y-57477819D02*
X143915142Y-56477819D01*
X143915142Y-56477819D02*
X144296094Y-56477819D01*
X144296094Y-56477819D02*
X144391332Y-56525438D01*
X144391332Y-56525438D02*
X144438951Y-56573057D01*
X144438951Y-56573057D02*
X144486570Y-56668295D01*
X144486570Y-56668295D02*
X144486570Y-56811152D01*
X144486570Y-56811152D02*
X144438951Y-56906390D01*
X144438951Y-56906390D02*
X144391332Y-56954009D01*
X144391332Y-56954009D02*
X144296094Y-57001628D01*
X144296094Y-57001628D02*
X143915142Y-57001628D01*
X145296094Y-57430200D02*
X145200856Y-57477819D01*
X145200856Y-57477819D02*
X145010380Y-57477819D01*
X145010380Y-57477819D02*
X144915142Y-57430200D01*
X144915142Y-57430200D02*
X144867523Y-57334961D01*
X144867523Y-57334961D02*
X144867523Y-56954009D01*
X144867523Y-56954009D02*
X144915142Y-56858771D01*
X144915142Y-56858771D02*
X145010380Y-56811152D01*
X145010380Y-56811152D02*
X145200856Y-56811152D01*
X145200856Y-56811152D02*
X145296094Y-56858771D01*
X145296094Y-56858771D02*
X145343713Y-56954009D01*
X145343713Y-56954009D02*
X145343713Y-57049247D01*
X145343713Y-57049247D02*
X144867523Y-57144485D01*
X145677047Y-56811152D02*
X145915142Y-57477819D01*
X145915142Y-57477819D02*
X146153237Y-56811152D01*
X146915142Y-57430200D02*
X146819904Y-57477819D01*
X146819904Y-57477819D02*
X146629428Y-57477819D01*
X146629428Y-57477819D02*
X146534190Y-57430200D01*
X146534190Y-57430200D02*
X146486571Y-57334961D01*
X146486571Y-57334961D02*
X146486571Y-56954009D01*
X146486571Y-56954009D02*
X146534190Y-56858771D01*
X146534190Y-56858771D02*
X146629428Y-56811152D01*
X146629428Y-56811152D02*
X146819904Y-56811152D01*
X146819904Y-56811152D02*
X146915142Y-56858771D01*
X146915142Y-56858771D02*
X146962761Y-56954009D01*
X146962761Y-56954009D02*
X146962761Y-57049247D01*
X146962761Y-57049247D02*
X146486571Y-57144485D01*
X147391333Y-57477819D02*
X147391333Y-56811152D01*
X147391333Y-57001628D02*
X147438952Y-56906390D01*
X147438952Y-56906390D02*
X147486571Y-56858771D01*
X147486571Y-56858771D02*
X147581809Y-56811152D01*
X147581809Y-56811152D02*
X147677047Y-56811152D01*
X147962762Y-57430200D02*
X148058000Y-57477819D01*
X148058000Y-57477819D02*
X148248476Y-57477819D01*
X148248476Y-57477819D02*
X148343714Y-57430200D01*
X148343714Y-57430200D02*
X148391333Y-57334961D01*
X148391333Y-57334961D02*
X148391333Y-57287342D01*
X148391333Y-57287342D02*
X148343714Y-57192104D01*
X148343714Y-57192104D02*
X148248476Y-57144485D01*
X148248476Y-57144485D02*
X148105619Y-57144485D01*
X148105619Y-57144485D02*
X148010381Y-57096866D01*
X148010381Y-57096866D02*
X147962762Y-57001628D01*
X147962762Y-57001628D02*
X147962762Y-56954009D01*
X147962762Y-56954009D02*
X148010381Y-56858771D01*
X148010381Y-56858771D02*
X148105619Y-56811152D01*
X148105619Y-56811152D02*
X148248476Y-56811152D01*
X148248476Y-56811152D02*
X148343714Y-56858771D01*
X149200857Y-57430200D02*
X149105619Y-57477819D01*
X149105619Y-57477819D02*
X148915143Y-57477819D01*
X148915143Y-57477819D02*
X148819905Y-57430200D01*
X148819905Y-57430200D02*
X148772286Y-57334961D01*
X148772286Y-57334961D02*
X148772286Y-56954009D01*
X148772286Y-56954009D02*
X148819905Y-56858771D01*
X148819905Y-56858771D02*
X148915143Y-56811152D01*
X148915143Y-56811152D02*
X149105619Y-56811152D01*
X149105619Y-56811152D02*
X149200857Y-56858771D01*
X149200857Y-56858771D02*
X149248476Y-56954009D01*
X149248476Y-56954009D02*
X149248476Y-57049247D01*
X149248476Y-57049247D02*
X148772286Y-57144485D01*
%TO.C,SW2*%
X133921667Y-57430200D02*
X134064524Y-57477819D01*
X134064524Y-57477819D02*
X134302619Y-57477819D01*
X134302619Y-57477819D02*
X134397857Y-57430200D01*
X134397857Y-57430200D02*
X134445476Y-57382580D01*
X134445476Y-57382580D02*
X134493095Y-57287342D01*
X134493095Y-57287342D02*
X134493095Y-57192104D01*
X134493095Y-57192104D02*
X134445476Y-57096866D01*
X134445476Y-57096866D02*
X134397857Y-57049247D01*
X134397857Y-57049247D02*
X134302619Y-57001628D01*
X134302619Y-57001628D02*
X134112143Y-56954009D01*
X134112143Y-56954009D02*
X134016905Y-56906390D01*
X134016905Y-56906390D02*
X133969286Y-56858771D01*
X133969286Y-56858771D02*
X133921667Y-56763533D01*
X133921667Y-56763533D02*
X133921667Y-56668295D01*
X133921667Y-56668295D02*
X133969286Y-56573057D01*
X133969286Y-56573057D02*
X134016905Y-56525438D01*
X134016905Y-56525438D02*
X134112143Y-56477819D01*
X134112143Y-56477819D02*
X134350238Y-56477819D01*
X134350238Y-56477819D02*
X134493095Y-56525438D01*
X134826429Y-56477819D02*
X135064524Y-57477819D01*
X135064524Y-57477819D02*
X135255000Y-56763533D01*
X135255000Y-56763533D02*
X135445476Y-57477819D01*
X135445476Y-57477819D02*
X135683572Y-56477819D01*
X136016905Y-56573057D02*
X136064524Y-56525438D01*
X136064524Y-56525438D02*
X136159762Y-56477819D01*
X136159762Y-56477819D02*
X136397857Y-56477819D01*
X136397857Y-56477819D02*
X136493095Y-56525438D01*
X136493095Y-56525438D02*
X136540714Y-56573057D01*
X136540714Y-56573057D02*
X136588333Y-56668295D01*
X136588333Y-56668295D02*
X136588333Y-56763533D01*
X136588333Y-56763533D02*
X136540714Y-56906390D01*
X136540714Y-56906390D02*
X135969286Y-57477819D01*
X135969286Y-57477819D02*
X136588333Y-57477819D01*
D11*
%TO.C,S2*%
X127048380Y-153167842D02*
X127229809Y-153228318D01*
X127229809Y-153228318D02*
X127532190Y-153228318D01*
X127532190Y-153228318D02*
X127653142Y-153167842D01*
X127653142Y-153167842D02*
X127713618Y-153107365D01*
X127713618Y-153107365D02*
X127774095Y-152986413D01*
X127774095Y-152986413D02*
X127774095Y-152865461D01*
X127774095Y-152865461D02*
X127713618Y-152744508D01*
X127713618Y-152744508D02*
X127653142Y-152684032D01*
X127653142Y-152684032D02*
X127532190Y-152623556D01*
X127532190Y-152623556D02*
X127290285Y-152563080D01*
X127290285Y-152563080D02*
X127169333Y-152502603D01*
X127169333Y-152502603D02*
X127108856Y-152442127D01*
X127108856Y-152442127D02*
X127048380Y-152321175D01*
X127048380Y-152321175D02*
X127048380Y-152200222D01*
X127048380Y-152200222D02*
X127108856Y-152079270D01*
X127108856Y-152079270D02*
X127169333Y-152018794D01*
X127169333Y-152018794D02*
X127290285Y-151958318D01*
X127290285Y-151958318D02*
X127592666Y-151958318D01*
X127592666Y-151958318D02*
X127774095Y-152018794D01*
X128257904Y-152079270D02*
X128318380Y-152018794D01*
X128318380Y-152018794D02*
X128439333Y-151958318D01*
X128439333Y-151958318D02*
X128741714Y-151958318D01*
X128741714Y-151958318D02*
X128862666Y-152018794D01*
X128862666Y-152018794D02*
X128923142Y-152079270D01*
X128923142Y-152079270D02*
X128983619Y-152200222D01*
X128983619Y-152200222D02*
X128983619Y-152321175D01*
X128983619Y-152321175D02*
X128923142Y-152502603D01*
X128923142Y-152502603D02*
X128197428Y-153228318D01*
X128197428Y-153228318D02*
X128983619Y-153228318D01*
D10*
%TO.C,CN1*%
X130119523Y-84457580D02*
X130071904Y-84505200D01*
X130071904Y-84505200D02*
X129929047Y-84552819D01*
X129929047Y-84552819D02*
X129833809Y-84552819D01*
X129833809Y-84552819D02*
X129690952Y-84505200D01*
X129690952Y-84505200D02*
X129595714Y-84409961D01*
X129595714Y-84409961D02*
X129548095Y-84314723D01*
X129548095Y-84314723D02*
X129500476Y-84124247D01*
X129500476Y-84124247D02*
X129500476Y-83981390D01*
X129500476Y-83981390D02*
X129548095Y-83790914D01*
X129548095Y-83790914D02*
X129595714Y-83695676D01*
X129595714Y-83695676D02*
X129690952Y-83600438D01*
X129690952Y-83600438D02*
X129833809Y-83552819D01*
X129833809Y-83552819D02*
X129929047Y-83552819D01*
X129929047Y-83552819D02*
X130071904Y-83600438D01*
X130071904Y-83600438D02*
X130119523Y-83648057D01*
X130548095Y-84552819D02*
X130548095Y-83552819D01*
X130548095Y-83552819D02*
X131119523Y-84552819D01*
X131119523Y-84552819D02*
X131119523Y-83552819D01*
X132119523Y-84552819D02*
X131548095Y-84552819D01*
X131833809Y-84552819D02*
X131833809Y-83552819D01*
X131833809Y-83552819D02*
X131738571Y-83695676D01*
X131738571Y-83695676D02*
X131643333Y-83790914D01*
X131643333Y-83790914D02*
X131548095Y-83838533D01*
%TO.C,U2*%
X145288095Y-77134819D02*
X145288095Y-77944342D01*
X145288095Y-77944342D02*
X145335714Y-78039580D01*
X145335714Y-78039580D02*
X145383333Y-78087200D01*
X145383333Y-78087200D02*
X145478571Y-78134819D01*
X145478571Y-78134819D02*
X145669047Y-78134819D01*
X145669047Y-78134819D02*
X145764285Y-78087200D01*
X145764285Y-78087200D02*
X145811904Y-78039580D01*
X145811904Y-78039580D02*
X145859523Y-77944342D01*
X145859523Y-77944342D02*
X145859523Y-77134819D01*
X146288095Y-77230057D02*
X146335714Y-77182438D01*
X146335714Y-77182438D02*
X146430952Y-77134819D01*
X146430952Y-77134819D02*
X146669047Y-77134819D01*
X146669047Y-77134819D02*
X146764285Y-77182438D01*
X146764285Y-77182438D02*
X146811904Y-77230057D01*
X146811904Y-77230057D02*
X146859523Y-77325295D01*
X146859523Y-77325295D02*
X146859523Y-77420533D01*
X146859523Y-77420533D02*
X146811904Y-77563390D01*
X146811904Y-77563390D02*
X146240476Y-78134819D01*
X146240476Y-78134819D02*
X146859523Y-78134819D01*
D12*
%TO.C,JP1*%
X151964895Y-81692666D02*
X152536323Y-81692666D01*
X152536323Y-81692666D02*
X152650609Y-81730761D01*
X152650609Y-81730761D02*
X152726800Y-81806952D01*
X152726800Y-81806952D02*
X152764895Y-81921237D01*
X152764895Y-81921237D02*
X152764895Y-81997428D01*
X152764895Y-81311713D02*
X151964895Y-81311713D01*
X151964895Y-81311713D02*
X151964895Y-81006951D01*
X151964895Y-81006951D02*
X152002990Y-80930761D01*
X152002990Y-80930761D02*
X152041085Y-80892666D01*
X152041085Y-80892666D02*
X152117276Y-80854570D01*
X152117276Y-80854570D02*
X152231561Y-80854570D01*
X152231561Y-80854570D02*
X152307752Y-80892666D01*
X152307752Y-80892666D02*
X152345847Y-80930761D01*
X152345847Y-80930761D02*
X152383942Y-81006951D01*
X152383942Y-81006951D02*
X152383942Y-81311713D01*
X152764895Y-80092666D02*
X152764895Y-80549809D01*
X152764895Y-80321237D02*
X151964895Y-80321237D01*
X151964895Y-80321237D02*
X152079180Y-80397428D01*
X152079180Y-80397428D02*
X152155371Y-80473618D01*
X152155371Y-80473618D02*
X152193466Y-80549809D01*
D11*
%TO.C,S3*%
X143558380Y-139197842D02*
X143739809Y-139258318D01*
X143739809Y-139258318D02*
X144042190Y-139258318D01*
X144042190Y-139258318D02*
X144163142Y-139197842D01*
X144163142Y-139197842D02*
X144223618Y-139137365D01*
X144223618Y-139137365D02*
X144284095Y-139016413D01*
X144284095Y-139016413D02*
X144284095Y-138895461D01*
X144284095Y-138895461D02*
X144223618Y-138774508D01*
X144223618Y-138774508D02*
X144163142Y-138714032D01*
X144163142Y-138714032D02*
X144042190Y-138653556D01*
X144042190Y-138653556D02*
X143800285Y-138593080D01*
X143800285Y-138593080D02*
X143679333Y-138532603D01*
X143679333Y-138532603D02*
X143618856Y-138472127D01*
X143618856Y-138472127D02*
X143558380Y-138351175D01*
X143558380Y-138351175D02*
X143558380Y-138230222D01*
X143558380Y-138230222D02*
X143618856Y-138109270D01*
X143618856Y-138109270D02*
X143679333Y-138048794D01*
X143679333Y-138048794D02*
X143800285Y-137988318D01*
X143800285Y-137988318D02*
X144102666Y-137988318D01*
X144102666Y-137988318D02*
X144284095Y-138048794D01*
X144707428Y-137988318D02*
X145493619Y-137988318D01*
X145493619Y-137988318D02*
X145070285Y-138472127D01*
X145070285Y-138472127D02*
X145251714Y-138472127D01*
X145251714Y-138472127D02*
X145372666Y-138532603D01*
X145372666Y-138532603D02*
X145433142Y-138593080D01*
X145433142Y-138593080D02*
X145493619Y-138714032D01*
X145493619Y-138714032D02*
X145493619Y-139016413D01*
X145493619Y-139016413D02*
X145433142Y-139137365D01*
X145433142Y-139137365D02*
X145372666Y-139197842D01*
X145372666Y-139197842D02*
X145251714Y-139258318D01*
X145251714Y-139258318D02*
X144888857Y-139258318D01*
X144888857Y-139258318D02*
X144767904Y-139197842D01*
X144767904Y-139197842D02*
X144707428Y-139137365D01*
D10*
%TO.C,R2*%
X157426819Y-87542666D02*
X156950628Y-87875999D01*
X157426819Y-88114094D02*
X156426819Y-88114094D01*
X156426819Y-88114094D02*
X156426819Y-87733142D01*
X156426819Y-87733142D02*
X156474438Y-87637904D01*
X156474438Y-87637904D02*
X156522057Y-87590285D01*
X156522057Y-87590285D02*
X156617295Y-87542666D01*
X156617295Y-87542666D02*
X156760152Y-87542666D01*
X156760152Y-87542666D02*
X156855390Y-87590285D01*
X156855390Y-87590285D02*
X156903009Y-87637904D01*
X156903009Y-87637904D02*
X156950628Y-87733142D01*
X156950628Y-87733142D02*
X156950628Y-88114094D01*
X156522057Y-87161713D02*
X156474438Y-87114094D01*
X156474438Y-87114094D02*
X156426819Y-87018856D01*
X156426819Y-87018856D02*
X156426819Y-86780761D01*
X156426819Y-86780761D02*
X156474438Y-86685523D01*
X156474438Y-86685523D02*
X156522057Y-86637904D01*
X156522057Y-86637904D02*
X156617295Y-86590285D01*
X156617295Y-86590285D02*
X156712533Y-86590285D01*
X156712533Y-86590285D02*
X156855390Y-86637904D01*
X156855390Y-86637904D02*
X157426819Y-87209332D01*
X157426819Y-87209332D02*
X157426819Y-86590285D01*
%TO.C,J3*%
X187499666Y-150052819D02*
X187499666Y-150767104D01*
X187499666Y-150767104D02*
X187452047Y-150909961D01*
X187452047Y-150909961D02*
X187356809Y-151005200D01*
X187356809Y-151005200D02*
X187213952Y-151052819D01*
X187213952Y-151052819D02*
X187118714Y-151052819D01*
X187880619Y-150052819D02*
X188499666Y-150052819D01*
X188499666Y-150052819D02*
X188166333Y-150433771D01*
X188166333Y-150433771D02*
X188309190Y-150433771D01*
X188309190Y-150433771D02*
X188404428Y-150481390D01*
X188404428Y-150481390D02*
X188452047Y-150529009D01*
X188452047Y-150529009D02*
X188499666Y-150624247D01*
X188499666Y-150624247D02*
X188499666Y-150862342D01*
X188499666Y-150862342D02*
X188452047Y-150957580D01*
X188452047Y-150957580D02*
X188404428Y-151005200D01*
X188404428Y-151005200D02*
X188309190Y-151052819D01*
X188309190Y-151052819D02*
X188023476Y-151052819D01*
X188023476Y-151052819D02*
X187928238Y-151005200D01*
X187928238Y-151005200D02*
X187880619Y-150957580D01*
D11*
%TO.C,S4*%
X148892380Y-124973842D02*
X149073809Y-125034318D01*
X149073809Y-125034318D02*
X149376190Y-125034318D01*
X149376190Y-125034318D02*
X149497142Y-124973842D01*
X149497142Y-124973842D02*
X149557618Y-124913365D01*
X149557618Y-124913365D02*
X149618095Y-124792413D01*
X149618095Y-124792413D02*
X149618095Y-124671461D01*
X149618095Y-124671461D02*
X149557618Y-124550508D01*
X149557618Y-124550508D02*
X149497142Y-124490032D01*
X149497142Y-124490032D02*
X149376190Y-124429556D01*
X149376190Y-124429556D02*
X149134285Y-124369080D01*
X149134285Y-124369080D02*
X149013333Y-124308603D01*
X149013333Y-124308603D02*
X148952856Y-124248127D01*
X148952856Y-124248127D02*
X148892380Y-124127175D01*
X148892380Y-124127175D02*
X148892380Y-124006222D01*
X148892380Y-124006222D02*
X148952856Y-123885270D01*
X148952856Y-123885270D02*
X149013333Y-123824794D01*
X149013333Y-123824794D02*
X149134285Y-123764318D01*
X149134285Y-123764318D02*
X149436666Y-123764318D01*
X149436666Y-123764318D02*
X149618095Y-123824794D01*
X150706666Y-124187651D02*
X150706666Y-125034318D01*
X150404285Y-123703842D02*
X150101904Y-124610984D01*
X150101904Y-124610984D02*
X150888095Y-124610984D01*
D13*
%TO.C,U3*%
X162433000Y-58741000D02*
X190433000Y-58741000D01*
X190433000Y-61401000D02*
X190433000Y-58741000D01*
X162433000Y-61401000D02*
X190433000Y-61401000D01*
X161163000Y-61401000D02*
X159833000Y-61401000D01*
X159833000Y-61401000D02*
X159833000Y-60071000D01*
X162433000Y-61401000D02*
X162433000Y-58741000D01*
%TO.C,R1*%
X157494500Y-81025276D02*
X157494500Y-81534724D01*
X156449500Y-81025276D02*
X156449500Y-81534724D01*
%TO.C,C1*%
X152402000Y-83673733D02*
X152402000Y-83966267D01*
X151382000Y-83673733D02*
X151382000Y-83966267D01*
%TO.C,U1*%
X158379999Y-150518000D02*
X167168734Y-150516658D01*
X158379999Y-150518000D02*
X158379999Y-80518000D01*
X184379999Y-150518000D02*
X175780626Y-150517378D01*
X184379999Y-150518000D02*
X184379999Y-80518000D01*
X184379999Y-148928000D02*
X184380000Y-88308000D01*
X167168734Y-146388000D02*
X175774366Y-146388000D01*
X175774366Y-146388000D02*
X175774366Y-151638000D01*
X175774366Y-151638000D02*
X167168734Y-151638000D01*
X167168734Y-151638000D02*
X167168734Y-146388000D01*
X163851550Y-85778000D02*
X179091550Y-85778000D01*
X179091550Y-85778000D02*
X179091550Y-77978000D01*
X179091550Y-77978000D02*
X163851550Y-77978000D01*
X163851550Y-77978000D02*
X163851550Y-85778000D01*
X158379999Y-80518000D02*
X163851550Y-80518000D01*
X163851550Y-80518000D02*
X163851550Y-80518000D01*
X163851550Y-80518000D02*
X158379999Y-80518000D01*
X158379999Y-80518000D02*
X158379999Y-80518000D01*
X184379999Y-80518000D02*
X179091550Y-80518000D01*
X179091550Y-80518000D02*
X179091550Y-80518000D01*
X179091550Y-80518000D02*
X184379999Y-80518000D01*
X184379999Y-80518000D02*
X184379999Y-80518000D01*
D14*
%TO.C,PS1*%
X134850000Y-118228000D02*
X140335000Y-118228000D01*
X140550000Y-101228000D02*
X140550000Y-117983000D01*
X140550000Y-101228000D02*
X134850000Y-101228000D01*
D15*
X137527500Y-112268000D02*
G75*
G03*
X137527500Y-112268000I-367500J0D01*
G01*
D13*
%TO.C,J2*%
X157540000Y-144018000D02*
X157540000Y-126178000D01*
X157540000Y-144018000D02*
X154880000Y-144018000D01*
X157540000Y-126178000D02*
X154880000Y-126178000D01*
X156210000Y-146618000D02*
X154880000Y-146618000D01*
X154880000Y-146618000D02*
X154880000Y-145288000D01*
X154880000Y-144018000D02*
X154880000Y-126178000D01*
D14*
%TO.C,S1*%
X136776000Y-143069000D02*
X136776000Y-143069000D01*
X136776000Y-143269000D02*
X136776000Y-143269000D01*
D12*
X138526000Y-139669000D02*
X150526000Y-139669000D01*
X138526000Y-141669000D02*
X138526000Y-139669000D01*
X138526000Y-149669000D02*
X138526000Y-151669000D01*
X138526000Y-151669000D02*
X150526000Y-151669000D01*
X150526000Y-139669000D02*
X150526000Y-141669000D01*
X150526000Y-151669000D02*
X150526000Y-149669000D01*
D14*
X136776000Y-143269000D02*
G75*
G03*
X136776000Y-143069000I0J100000D01*
G01*
X136776000Y-143069000D02*
G75*
G03*
X136776000Y-143269000I0J-100000D01*
G01*
D13*
%TO.C,Reverse*%
X145228000Y-59376000D02*
X146558000Y-59376000D01*
X145228000Y-60706000D02*
X145228000Y-59376000D01*
X145228000Y-61976000D02*
X145228000Y-67116000D01*
X145228000Y-61976000D02*
X147888000Y-61976000D01*
X145228000Y-67116000D02*
X147888000Y-67116000D01*
X147888000Y-61976000D02*
X147888000Y-67116000D01*
%TO.C,SW2*%
X134052000Y-59376000D02*
X135382000Y-59376000D01*
X134052000Y-60706000D02*
X134052000Y-59376000D01*
X134052000Y-61976000D02*
X134052000Y-67116000D01*
X134052000Y-61976000D02*
X136712000Y-61976000D01*
X134052000Y-67116000D02*
X136712000Y-67116000D01*
X136712000Y-61976000D02*
X136712000Y-67116000D01*
D14*
%TO.C,S2*%
X135766000Y-148269000D02*
X135766000Y-148269000D01*
X135766000Y-148069000D02*
X135766000Y-148069000D01*
D12*
X134016000Y-151669000D02*
X122016000Y-151669000D01*
X134016000Y-149669000D02*
X134016000Y-151669000D01*
X134016000Y-141669000D02*
X134016000Y-139669000D01*
X134016000Y-139669000D02*
X122016000Y-139669000D01*
X122016000Y-151669000D02*
X122016000Y-149669000D01*
X122016000Y-139669000D02*
X122016000Y-141669000D01*
D14*
X135766000Y-148069000D02*
G75*
G03*
X135766000Y-148269000I0J-100000D01*
G01*
X135766000Y-148269000D02*
G75*
G03*
X135766000Y-148069000I0J100000D01*
G01*
D13*
%TO.C,CN1*%
X128210000Y-85538000D02*
X128210000Y-86868000D01*
X128210000Y-88138000D02*
X128210000Y-133858000D01*
X129540000Y-85538000D02*
X128210000Y-85538000D01*
X130810000Y-85538000D02*
X130810000Y-88138000D01*
X130810000Y-88138000D02*
X128210000Y-88138000D01*
X133410000Y-85538000D02*
X130810000Y-85538000D01*
X133410000Y-85538000D02*
X133410000Y-133858000D01*
X133410000Y-133858000D02*
X128210000Y-133858000D01*
X189170000Y-85538000D02*
X189170000Y-86868000D01*
X189170000Y-88138000D02*
X189170000Y-133858000D01*
X190500000Y-85538000D02*
X189170000Y-85538000D01*
X191770000Y-85538000D02*
X191770000Y-88138000D01*
X191770000Y-88138000D02*
X189170000Y-88138000D01*
X194370000Y-85538000D02*
X191770000Y-85538000D01*
X194370000Y-85538000D02*
X194370000Y-133858000D01*
X194370000Y-133858000D02*
X189170000Y-133858000D01*
%TO.C,U2*%
X143400000Y-78680000D02*
X143400000Y-99120000D01*
X143400000Y-99120000D02*
X148700000Y-99120000D01*
X145050000Y-78680000D02*
X143400000Y-78680000D01*
X148700000Y-78680000D02*
X147050000Y-78680000D01*
X148700000Y-99120000D02*
X148700000Y-78680000D01*
X145050000Y-78680000D02*
G75*
G03*
X147050000Y-78680000I1000000J0D01*
G01*
%TO.C,JP1*%
X152924000Y-82680000D02*
X152924000Y-79880000D01*
X154924000Y-82680000D02*
X152924000Y-82680000D01*
X152924000Y-79880000D02*
X154924000Y-79880000D01*
X154924000Y-79880000D02*
X154924000Y-82680000D01*
%TO.C,SW3*%
X122622000Y-59376000D02*
X123952000Y-59376000D01*
X122622000Y-60706000D02*
X122622000Y-59376000D01*
X122622000Y-61976000D02*
X122622000Y-67116000D01*
X122622000Y-61976000D02*
X125282000Y-61976000D01*
X122622000Y-67116000D02*
X125282000Y-67116000D01*
X125282000Y-61976000D02*
X125282000Y-67116000D01*
D14*
%TO.C,S3*%
X136749000Y-129059000D02*
X136749000Y-129059000D01*
X136749000Y-129259000D02*
X136749000Y-129259000D01*
D12*
X138499000Y-125659000D02*
X150499000Y-125659000D01*
X138499000Y-127659000D02*
X138499000Y-125659000D01*
X138499000Y-135659000D02*
X138499000Y-137659000D01*
X138499000Y-137659000D02*
X150499000Y-137659000D01*
X150499000Y-125659000D02*
X150499000Y-127659000D01*
X150499000Y-137659000D02*
X150499000Y-135659000D01*
D14*
X136749000Y-129259000D02*
G75*
G03*
X136749000Y-129059000I0J100000D01*
G01*
X136749000Y-129059000D02*
G75*
G03*
X136749000Y-129259000I0J-100000D01*
G01*
%TO.C,G\u002A\u002A\u002A*%
G36*
X127442138Y-72036959D02*
G01*
X127462544Y-72084747D01*
X127441694Y-72111775D01*
X127356099Y-72145824D01*
X127177892Y-72180267D01*
X126924409Y-72214076D01*
X126612985Y-72246225D01*
X126260954Y-72275688D01*
X125885654Y-72301437D01*
X125504419Y-72322446D01*
X125134585Y-72337688D01*
X124793488Y-72346137D01*
X124498462Y-72346766D01*
X124266843Y-72338548D01*
X124115967Y-72320457D01*
X124083178Y-72310682D01*
X124009239Y-72269869D01*
X124007506Y-72237272D01*
X124084721Y-72211953D01*
X124247624Y-72192972D01*
X124502955Y-72179392D01*
X124857453Y-72170273D01*
X125118091Y-72166581D01*
X125593114Y-72155883D01*
X126041894Y-72135580D01*
X126437926Y-72107252D01*
X126754704Y-72072479D01*
X126794931Y-72066625D01*
X127104166Y-72027607D01*
X127321290Y-72017816D01*
X127442138Y-72036959D01*
G37*
G36*
X128161085Y-80182049D02*
G01*
X128586582Y-80201122D01*
X129047946Y-80230721D01*
X129241468Y-80245643D01*
X129649893Y-80278902D01*
X129961724Y-80305408D01*
X130189982Y-80327074D01*
X130347686Y-80345812D01*
X130447859Y-80363536D01*
X130503520Y-80382159D01*
X130527690Y-80403593D01*
X130533390Y-80429751D01*
X130533459Y-80435456D01*
X130482535Y-80464754D01*
X130344340Y-80480803D01*
X130140739Y-80483764D01*
X129893597Y-80473796D01*
X129624780Y-80451059D01*
X129433892Y-80427415D01*
X129262090Y-80408925D01*
X129005876Y-80388966D01*
X128690753Y-80369163D01*
X128342222Y-80351137D01*
X128031944Y-80338174D01*
X127650974Y-80321333D01*
X127350018Y-80302085D01*
X127137256Y-80281172D01*
X127020867Y-80259333D01*
X127000820Y-80244757D01*
X127063030Y-80211123D01*
X127222426Y-80188040D01*
X127466743Y-80175504D01*
X127783717Y-80173508D01*
X128161085Y-80182049D01*
G37*
G36*
X128795867Y-76714566D02*
G01*
X128851958Y-76746090D01*
X128918495Y-76786182D01*
X129054923Y-76834998D01*
X129143839Y-76859690D01*
X129379271Y-76918774D01*
X129693160Y-76997194D01*
X130057220Y-77087894D01*
X130443166Y-77183821D01*
X130505970Y-77199409D01*
X130753742Y-77277288D01*
X130930604Y-77366958D01*
X131020362Y-77459301D01*
X131028264Y-77493505D01*
X131004493Y-77547135D01*
X130926831Y-77604744D01*
X130785752Y-77669859D01*
X130571733Y-77746006D01*
X130275250Y-77836711D01*
X129886779Y-77945500D01*
X129598827Y-78022710D01*
X129178293Y-78140464D01*
X128782973Y-78263126D01*
X128427370Y-78385238D01*
X128125989Y-78501340D01*
X127893333Y-78605974D01*
X127743904Y-78693679D01*
X127698997Y-78737831D01*
X127703739Y-78793123D01*
X127794899Y-78840693D01*
X127977609Y-78881493D01*
X128257004Y-78916478D01*
X128638218Y-78946602D01*
X128905747Y-78962105D01*
X129376537Y-78988454D01*
X129747649Y-79013616D01*
X130029336Y-79038885D01*
X130231849Y-79065554D01*
X130365441Y-79094919D01*
X130440363Y-79128272D01*
X130465027Y-79158935D01*
X130473090Y-79182710D01*
X130470662Y-79200172D01*
X130444433Y-79211413D01*
X130381096Y-79216525D01*
X130267342Y-79215601D01*
X130089864Y-79208732D01*
X129835354Y-79196012D01*
X129490504Y-79177533D01*
X129296446Y-79167047D01*
X128973664Y-79148586D01*
X128659448Y-79128753D01*
X128384529Y-79109613D01*
X128179639Y-79093228D01*
X128137077Y-79089224D01*
X127889131Y-79045298D01*
X127680521Y-78972541D01*
X127532199Y-78881596D01*
X127465121Y-78783104D01*
X127464894Y-78747859D01*
X127529604Y-78660823D01*
X127684638Y-78552524D01*
X127914110Y-78430157D01*
X128202133Y-78300915D01*
X128532821Y-78171993D01*
X128890287Y-78050584D01*
X129213978Y-77955785D01*
X129517401Y-77873283D01*
X129804102Y-77794165D01*
X130047307Y-77725902D01*
X130220239Y-77675962D01*
X130258567Y-77664392D01*
X130445865Y-77609523D01*
X130616267Y-77564247D01*
X130659409Y-77554085D01*
X130768604Y-77515296D01*
X130769982Y-77470712D01*
X130662920Y-77419782D01*
X130446794Y-77361956D01*
X130439809Y-77360377D01*
X130204398Y-77304617D01*
X129934983Y-77236890D01*
X129763762Y-77191723D01*
X129517222Y-77127674D01*
X129230028Y-77057071D01*
X128994065Y-77001998D01*
X128719842Y-76931935D01*
X128547948Y-76867005D01*
X128471097Y-76803632D01*
X128475621Y-76747402D01*
X128550055Y-76710944D01*
X128675418Y-76699933D01*
X128795867Y-76714566D01*
G37*
G36*
X130324967Y-66562206D02*
G01*
X130358628Y-66640361D01*
X130367008Y-66800478D01*
X130351784Y-67017920D01*
X130314628Y-67268048D01*
X130260217Y-67514758D01*
X130207489Y-67726719D01*
X130189221Y-67873204D01*
X130217103Y-67983305D01*
X130302828Y-68086113D01*
X130458087Y-68210720D01*
X130574628Y-68297071D01*
X130736120Y-68432209D01*
X130837710Y-68549497D01*
X130870046Y-68634115D01*
X130823774Y-68671247D01*
X130811149Y-68671813D01*
X130746493Y-68711051D01*
X130658299Y-68806442D01*
X130571157Y-68924503D01*
X130509657Y-69031753D01*
X130498388Y-69094707D01*
X130499568Y-69096075D01*
X130552982Y-69084351D01*
X130620309Y-69012111D01*
X130710190Y-68917178D01*
X130812834Y-68900749D01*
X130962606Y-68958679D01*
X130981716Y-68968515D01*
X131137741Y-69039346D01*
X131316258Y-69106865D01*
X131325160Y-69109830D01*
X131475876Y-69179803D01*
X131585160Y-69265415D01*
X131593934Y-69276693D01*
X131640325Y-69328867D01*
X131691654Y-69329566D01*
X131772996Y-69268975D01*
X131882740Y-69163653D01*
X132090662Y-68952727D01*
X132222300Y-68804572D01*
X132284985Y-68710551D01*
X132292766Y-68680516D01*
X132242057Y-68628511D01*
X132106636Y-68576107D01*
X131911559Y-68529303D01*
X131681883Y-68494100D01*
X131442667Y-68476499D01*
X131440602Y-68476440D01*
X131224048Y-68464018D01*
X131101342Y-68439435D01*
X131056712Y-68399153D01*
X131055753Y-68390061D01*
X131105622Y-68337258D01*
X131238907Y-68306211D01*
X131431126Y-68297497D01*
X131657795Y-68311696D01*
X131894434Y-68349388D01*
X131975327Y-68368301D01*
X132251335Y-68459004D01*
X132431599Y-68563602D01*
X132509796Y-68678128D01*
X132512680Y-68705413D01*
X132473328Y-68782645D01*
X132366819Y-68913667D01*
X132210467Y-69081880D01*
X132021592Y-69270686D01*
X131817509Y-69463486D01*
X131615535Y-69643683D01*
X131432987Y-69794677D01*
X131287183Y-69899872D01*
X131236432Y-69928694D01*
X131077032Y-70014202D01*
X130955871Y-70094095D01*
X130920501Y-70126097D01*
X130821310Y-70196518D01*
X130719060Y-70235496D01*
X130586709Y-70286522D01*
X130419609Y-70373223D01*
X130356837Y-70411009D01*
X130255518Y-70473190D01*
X130171638Y-70510595D01*
X130078893Y-70524516D01*
X129950979Y-70516248D01*
X129761590Y-70487082D01*
X129553370Y-70450497D01*
X129403892Y-70396316D01*
X129332638Y-70311830D01*
X129353803Y-70216442D01*
X129369283Y-70198846D01*
X129458223Y-70170668D01*
X129500285Y-70192639D01*
X129596127Y-70242502D01*
X129746437Y-70299923D01*
X129791251Y-70314412D01*
X129947582Y-70351663D01*
X130072694Y-70340645D01*
X130227959Y-70275768D01*
X130230826Y-70274359D01*
X130450487Y-70166274D01*
X130258315Y-70133838D01*
X130082591Y-70111051D01*
X129868959Y-70092266D01*
X129791251Y-70087581D01*
X129624023Y-70065500D01*
X129622041Y-70064598D01*
X130606763Y-70064598D01*
X130614310Y-70097283D01*
X130643416Y-70101251D01*
X130688669Y-70081135D01*
X130680068Y-70064598D01*
X130614821Y-70058019D01*
X130606763Y-70064598D01*
X129622041Y-70064598D01*
X129537609Y-70026181D01*
X129541717Y-69979186D01*
X129637668Y-69936316D01*
X129714379Y-69888269D01*
X129723950Y-69785081D01*
X129715656Y-69738452D01*
X129675629Y-69751444D01*
X129579815Y-69821713D01*
X129450647Y-69929253D01*
X129310558Y-70054059D01*
X129181980Y-70176126D01*
X129087345Y-70275450D01*
X129049086Y-70332025D01*
X129049043Y-70332926D01*
X129084844Y-70392842D01*
X129182104Y-70513559D01*
X129325614Y-70677062D01*
X129485507Y-70849882D01*
X129823247Y-71253749D01*
X130110386Y-71690996D01*
X130329093Y-72131834D01*
X130434149Y-72434634D01*
X130481187Y-72680153D01*
X130509131Y-72986042D01*
X130518831Y-73325850D01*
X130511141Y-73673127D01*
X130486911Y-74001421D01*
X130446994Y-74284282D01*
X130392240Y-74495258D01*
X130365886Y-74554497D01*
X130361494Y-74591584D01*
X130404658Y-74621174D01*
X130511063Y-74647153D01*
X130696392Y-74673408D01*
X130963257Y-74702492D01*
X131296858Y-74738225D01*
X131683086Y-74782208D01*
X132065606Y-74827918D01*
X132292766Y-74856392D01*
X132583384Y-74892032D01*
X132948218Y-74934157D01*
X133352020Y-74978843D01*
X133759544Y-75022165D01*
X134024585Y-75049221D01*
X134699802Y-75122861D01*
X135278756Y-75201412D01*
X135775140Y-75289690D01*
X136202650Y-75392509D01*
X136574977Y-75514685D01*
X136905817Y-75661030D01*
X137208862Y-75836362D01*
X137497806Y-76045494D01*
X137786344Y-76293241D01*
X137919958Y-76418855D01*
X138233363Y-76739120D01*
X138462848Y-77027003D01*
X138618208Y-77307639D01*
X138709238Y-77606162D01*
X138745733Y-77947707D01*
X138737487Y-78357406D01*
X138728119Y-78492645D01*
X138705630Y-78762928D01*
X138680635Y-78967792D01*
X138644171Y-79139591D01*
X138587276Y-79310679D01*
X138500986Y-79513411D01*
X138376338Y-79780142D01*
X138364575Y-79804930D01*
X138225212Y-80083029D01*
X138077062Y-80352937D01*
X137937796Y-80583868D01*
X137825085Y-80745036D01*
X137824793Y-80745397D01*
X137601024Y-80988251D01*
X137325578Y-81234915D01*
X137022495Y-81468337D01*
X136715818Y-81671462D01*
X136429588Y-81827238D01*
X136187848Y-81918613D01*
X136162399Y-81924562D01*
X135867767Y-81989131D01*
X135612379Y-82049626D01*
X135344675Y-82118711D01*
X135085331Y-82189134D01*
X134853037Y-82243435D01*
X134553726Y-82299783D01*
X134229927Y-82350713D01*
X133985764Y-82382099D01*
X133755350Y-82410095D01*
X133437052Y-82451584D01*
X133051721Y-82503699D01*
X132620206Y-82563575D01*
X132163359Y-82628345D01*
X131702027Y-82695143D01*
X131605537Y-82709306D01*
X131139774Y-82776002D01*
X130668397Y-82840158D01*
X130213499Y-82899010D01*
X129797172Y-82949792D01*
X129441509Y-82989737D01*
X129168601Y-83016080D01*
X129131511Y-83019046D01*
X128835516Y-83037103D01*
X128482837Y-83051217D01*
X128091761Y-83061384D01*
X127680574Y-83067600D01*
X127267563Y-83069864D01*
X126871017Y-83068170D01*
X126509221Y-83062518D01*
X126200462Y-83052902D01*
X125963029Y-83039320D01*
X125815207Y-83021769D01*
X125805320Y-83019624D01*
X125646670Y-82984627D01*
X125432477Y-82940151D01*
X125256339Y-82905090D01*
X124967446Y-82813785D01*
X124647044Y-82655944D01*
X124326177Y-82452282D01*
X124035887Y-82223509D01*
X123807215Y-81990338D01*
X123731516Y-81887691D01*
X123594206Y-81643810D01*
X123453383Y-81341318D01*
X123330044Y-81028798D01*
X123249763Y-80773023D01*
X123201535Y-80463386D01*
X123190428Y-80082925D01*
X123198746Y-79929270D01*
X123360858Y-79929270D01*
X123376169Y-80463453D01*
X123492274Y-80991464D01*
X123701723Y-81489297D01*
X123974021Y-81904500D01*
X124208395Y-82143932D01*
X124507539Y-82371061D01*
X124835735Y-82563601D01*
X125157262Y-82699267D01*
X125314554Y-82740842D01*
X125534843Y-82785341D01*
X125741737Y-82829892D01*
X125860299Y-82857531D01*
X125972203Y-82870433D01*
X126177503Y-82879487D01*
X126459713Y-82884902D01*
X126802345Y-82886885D01*
X127188913Y-82885644D01*
X127602932Y-82881385D01*
X128027914Y-82874316D01*
X128447374Y-82864645D01*
X128844825Y-82852579D01*
X129203780Y-82838325D01*
X129507754Y-82822091D01*
X129681294Y-82809464D01*
X129896169Y-82787255D01*
X130198823Y-82750396D01*
X130568477Y-82701707D01*
X130984350Y-82644010D01*
X131425661Y-82580124D01*
X131871630Y-82512870D01*
X131907918Y-82507269D01*
X132349649Y-82439855D01*
X132785019Y-82375050D01*
X133194004Y-82315713D01*
X133556583Y-82264703D01*
X133852734Y-82224879D01*
X134062436Y-82199099D01*
X134078835Y-82197300D01*
X134405892Y-82158402D01*
X134671718Y-82115854D01*
X134924875Y-82059997D01*
X135213925Y-81981173D01*
X135316576Y-81951106D01*
X135495366Y-81902376D01*
X135732358Y-81843233D01*
X135978166Y-81785975D01*
X135993049Y-81782661D01*
X136218736Y-81724794D01*
X136408842Y-81652958D01*
X136600439Y-81549450D01*
X136830601Y-81396568D01*
X136891124Y-81353816D01*
X137222761Y-81103505D01*
X137487874Y-80864306D01*
X137708352Y-80609569D01*
X137906084Y-80312649D01*
X138102962Y-79946897D01*
X138184459Y-79779384D01*
X138316375Y-79499285D01*
X138408727Y-79287845D01*
X138470202Y-79114917D01*
X138509484Y-78950353D01*
X138535260Y-78764008D01*
X138556216Y-78525734D01*
X138560099Y-78475621D01*
X138580172Y-78074264D01*
X138564509Y-77750700D01*
X138503079Y-77476797D01*
X138385854Y-77224423D01*
X138202802Y-76965447D01*
X137943894Y-76671737D01*
X137900559Y-76625755D01*
X137618403Y-76350728D01*
X137324873Y-76114649D01*
X137008046Y-75913382D01*
X136655998Y-75742791D01*
X136256806Y-75598738D01*
X135798548Y-75477088D01*
X135269301Y-75373706D01*
X134657141Y-75284453D01*
X133950147Y-75205195D01*
X133749693Y-75185749D01*
X133384100Y-75149713D01*
X132994608Y-75108777D01*
X132622039Y-75067385D01*
X132307220Y-75029981D01*
X132237788Y-75021190D01*
X131895599Y-74978873D01*
X131505984Y-74933459D01*
X131130996Y-74892087D01*
X130967425Y-74875050D01*
X130692717Y-74848418D01*
X130505369Y-74835299D01*
X130383477Y-74836894D01*
X130305134Y-74854405D01*
X130248438Y-74889031D01*
X130218220Y-74916114D01*
X130138726Y-75012002D01*
X130052170Y-75145522D01*
X129973969Y-75287618D01*
X129919538Y-75409233D01*
X129904293Y-75481309D01*
X129913835Y-75489840D01*
X130709567Y-75504421D01*
X131404657Y-75520024D01*
X132008420Y-75537213D01*
X132530170Y-75556547D01*
X132979221Y-75578590D01*
X133364886Y-75603902D01*
X133696481Y-75633044D01*
X133983319Y-75666579D01*
X134234715Y-75705067D01*
X134459983Y-75749070D01*
X134548568Y-75769218D01*
X134797956Y-75834434D01*
X134978246Y-75902114D01*
X135129013Y-75991476D01*
X135289833Y-76121739D01*
X135308606Y-76138299D01*
X135471677Y-76293036D01*
X135566651Y-76417002D01*
X135615073Y-76543108D01*
X135630246Y-76629662D01*
X135641384Y-76774760D01*
X135614955Y-76876387D01*
X135532546Y-76978182D01*
X135450481Y-77055745D01*
X135320203Y-77165606D01*
X135217413Y-77235542D01*
X135182131Y-77248776D01*
X135096377Y-77272689D01*
X134969032Y-77330022D01*
X134964053Y-77332604D01*
X134807712Y-77392497D01*
X134566483Y-77458148D01*
X134264841Y-77523943D01*
X133927265Y-77584264D01*
X133751826Y-77610734D01*
X133479067Y-77649253D01*
X133751826Y-77776755D01*
X133913410Y-77848253D01*
X134036611Y-77895476D01*
X134079563Y-77906392D01*
X134166752Y-77941118D01*
X134313126Y-78029806D01*
X134494275Y-78154985D01*
X134685793Y-78299183D01*
X134863271Y-78444926D01*
X134975651Y-78547845D01*
X135158516Y-78773748D01*
X135242061Y-78986706D01*
X135227232Y-79176459D01*
X135114977Y-79332748D01*
X134906241Y-79445314D01*
X134892441Y-79449884D01*
X134749326Y-79498455D01*
X134653970Y-79535220D01*
X134642566Y-79540827D01*
X134659510Y-79586029D01*
X134742450Y-79683776D01*
X134874399Y-79814469D01*
X134900961Y-79838990D01*
X135051526Y-79985699D01*
X135167166Y-80115357D01*
X135224715Y-80201789D01*
X135226246Y-80206525D01*
X135277654Y-80411253D01*
X135291794Y-80545942D01*
X135262052Y-80646150D01*
X135181811Y-80747435D01*
X135112542Y-80817690D01*
X134999061Y-80917880D01*
X134869436Y-81001251D01*
X134703647Y-81075999D01*
X134481673Y-81150320D01*
X134183494Y-81232411D01*
X133964965Y-81287500D01*
X133647542Y-81349664D01*
X133229544Y-81405445D01*
X132720190Y-81454398D01*
X132128701Y-81496080D01*
X131464297Y-81530046D01*
X130736198Y-81555852D01*
X129953624Y-81573056D01*
X129125797Y-81581213D01*
X128261935Y-81579878D01*
X127949476Y-81577051D01*
X127382993Y-81570201D01*
X126915521Y-81562951D01*
X126536117Y-81554790D01*
X126233833Y-81545210D01*
X125997727Y-81533701D01*
X125816852Y-81519755D01*
X125680263Y-81502861D01*
X125577016Y-81482510D01*
X125511726Y-81463620D01*
X125355212Y-81393111D01*
X125157394Y-81278981D01*
X124942179Y-81138238D01*
X124733475Y-80987889D01*
X124555190Y-80844941D01*
X124431231Y-80726402D01*
X124388638Y-80664676D01*
X124338702Y-80571206D01*
X124246834Y-80427430D01*
X124173882Y-80322143D01*
X124029669Y-80054652D01*
X123920710Y-79723956D01*
X123857444Y-79373969D01*
X123850316Y-79048606D01*
X123856784Y-78988583D01*
X123966053Y-78569953D01*
X124177518Y-78148465D01*
X124484489Y-77736571D01*
X124593196Y-77617789D01*
X124779023Y-77430096D01*
X124907171Y-77318278D01*
X124989754Y-77273246D01*
X125037464Y-77284458D01*
X125050194Y-77335310D01*
X125004183Y-77419974D01*
X124890198Y-77551519D01*
X124745324Y-77697857D01*
X124436927Y-78057718D01*
X124202024Y-78452623D01*
X124054931Y-78856768D01*
X124027458Y-78991755D01*
X124020089Y-79280979D01*
X124072029Y-79611479D01*
X124172437Y-79939855D01*
X124310475Y-80222708D01*
X124349460Y-80281036D01*
X124451822Y-80430901D01*
X124521261Y-80546696D01*
X124540818Y-80594684D01*
X124584838Y-80658551D01*
X124701637Y-80760936D01*
X124868327Y-80886155D01*
X125062018Y-81018522D01*
X125259821Y-81142353D01*
X125438847Y-81241963D01*
X125569188Y-81299373D01*
X125726090Y-81331801D01*
X125981005Y-81359150D01*
X126322108Y-81381475D01*
X126737576Y-81398831D01*
X127215585Y-81411274D01*
X127744310Y-81418860D01*
X128311927Y-81421643D01*
X128906613Y-81419679D01*
X129516544Y-81413023D01*
X130129894Y-81401732D01*
X130734841Y-81385860D01*
X131319561Y-81365463D01*
X131872228Y-81340596D01*
X132381020Y-81311314D01*
X132834112Y-81277674D01*
X132979996Y-81264631D01*
X133548522Y-81186504D01*
X134146238Y-81060968D01*
X134587891Y-80939662D01*
X134858930Y-80822021D01*
X135027592Y-80671214D01*
X135094273Y-80493174D01*
X135059366Y-80293833D01*
X134923267Y-80079125D01*
X134686368Y-79854982D01*
X134507224Y-79725829D01*
X134305003Y-79613067D01*
X134113096Y-79563692D01*
X133973925Y-79556305D01*
X133791153Y-79549768D01*
X133551334Y-79533167D01*
X133278166Y-79509092D01*
X132995346Y-79480137D01*
X132726569Y-79448893D01*
X132495534Y-79417952D01*
X132325936Y-79389905D01*
X132241474Y-79367346D01*
X132240361Y-79366694D01*
X132196862Y-79312574D01*
X132247012Y-79268808D01*
X132374934Y-79236003D01*
X132564751Y-79214768D01*
X132800588Y-79205713D01*
X133066569Y-79209444D01*
X133346818Y-79226572D01*
X133625458Y-79257705D01*
X133886614Y-79303450D01*
X133887139Y-79303564D01*
X134174995Y-79360243D01*
X134388371Y-79385645D01*
X134558180Y-79379846D01*
X134715331Y-79342920D01*
X134816415Y-79305853D01*
X134998876Y-79205329D01*
X135080014Y-79085505D01*
X135060104Y-78939064D01*
X134939421Y-78758692D01*
X134840891Y-78653012D01*
X134724669Y-78541206D01*
X134642827Y-78470643D01*
X134621550Y-78457961D01*
X134568390Y-78424615D01*
X134478980Y-78347767D01*
X134352339Y-78254040D01*
X134183976Y-78157509D01*
X134137664Y-78135142D01*
X133934286Y-78041470D01*
X133724308Y-77944376D01*
X133694714Y-77930650D01*
X133565488Y-77882689D01*
X133407994Y-77851436D01*
X133196871Y-77833822D01*
X132906753Y-77826779D01*
X132832591Y-77826353D01*
X132577193Y-77822560D01*
X132363471Y-77813920D01*
X132214599Y-77801740D01*
X132154397Y-77788134D01*
X132157834Y-77736775D01*
X132267759Y-77685319D01*
X132480710Y-77634814D01*
X132793225Y-77586306D01*
X132842550Y-77580006D01*
X133467521Y-77495402D01*
X133991260Y-77409649D01*
X134422485Y-77320458D01*
X134769914Y-77225536D01*
X135042264Y-77122590D01*
X135248255Y-77009330D01*
X135363241Y-76917387D01*
X135460554Y-76762070D01*
X135451484Y-76586180D01*
X135336932Y-76393247D01*
X135192794Y-76248492D01*
X135032691Y-76134631D01*
X134828273Y-76036349D01*
X134571641Y-75952514D01*
X134254900Y-75881996D01*
X133870151Y-75823660D01*
X133409498Y-75776377D01*
X132865044Y-75739012D01*
X132228892Y-75710435D01*
X131493145Y-75689513D01*
X131260028Y-75684716D01*
X130878461Y-75676198D01*
X130532607Y-75666108D01*
X130237877Y-75655086D01*
X130009679Y-75643775D01*
X129863425Y-75632816D01*
X129815493Y-75624568D01*
X129751696Y-75642828D01*
X129635197Y-75722572D01*
X129490417Y-75846912D01*
X129480591Y-75856152D01*
X129261819Y-76062546D01*
X129109009Y-76204842D01*
X129008548Y-76294824D01*
X128946822Y-76344276D01*
X128910218Y-76364982D01*
X128888341Y-76368783D01*
X128819529Y-76406381D01*
X128770428Y-76455737D01*
X128667138Y-76540308D01*
X128496266Y-76643543D01*
X128293902Y-76747461D01*
X128096133Y-76834084D01*
X127939051Y-76885431D01*
X127894498Y-76892125D01*
X127781897Y-76908156D01*
X127594860Y-76945791D01*
X127365213Y-76998370D01*
X127244080Y-77028252D01*
X127020818Y-77082709D01*
X126845805Y-77116463D01*
X126685601Y-77131251D01*
X126506768Y-77128814D01*
X126275866Y-77110889D01*
X126062045Y-77089721D01*
X125758316Y-77054581D01*
X125453550Y-77012256D01*
X125187168Y-76968587D01*
X125027268Y-76936394D01*
X124661553Y-76851341D01*
X124449995Y-77085197D01*
X124317638Y-77236832D01*
X124206430Y-77373428D01*
X124161283Y-77434935D01*
X124067585Y-77561525D01*
X123962366Y-77688264D01*
X123863634Y-77843116D01*
X123808046Y-78000343D01*
X123764036Y-78161211D01*
X123693286Y-78352576D01*
X123667197Y-78412680D01*
X123572616Y-78676152D01*
X123487351Y-79019906D01*
X123417387Y-79414319D01*
X123368707Y-79829765D01*
X123360858Y-79929270D01*
X123198746Y-79929270D01*
X123213156Y-79663082D01*
X123266432Y-79235294D01*
X123346969Y-78831003D01*
X123451480Y-78481648D01*
X123502262Y-78357702D01*
X123576852Y-78171367D01*
X123632558Y-77992530D01*
X123643111Y-77945364D01*
X123704891Y-77774227D01*
X123795238Y-77633285D01*
X123902272Y-77502002D01*
X124028578Y-77336108D01*
X124072392Y-77275926D01*
X124188213Y-77122855D01*
X124296116Y-76993862D01*
X124330418Y-76957659D01*
X124414286Y-76846997D01*
X124404850Y-76756131D01*
X124296143Y-76669164D01*
X124204842Y-76623163D01*
X124045429Y-76528094D01*
X123857679Y-76385599D01*
X123712755Y-76255491D01*
X123443850Y-75990799D01*
X123319305Y-76166047D01*
X123178763Y-76339724D01*
X123032499Y-76482023D01*
X122906178Y-76569913D01*
X122850234Y-76586959D01*
X122786499Y-76616408D01*
X122817862Y-76697712D01*
X122926042Y-76812771D01*
X123042501Y-76951227D01*
X123145450Y-77124406D01*
X123210522Y-77287428D01*
X123221338Y-77356628D01*
X123194661Y-77395040D01*
X123106342Y-77409625D01*
X122943945Y-77399937D01*
X122695037Y-77365525D01*
X122482734Y-77329996D01*
X122227469Y-77288986D01*
X121978488Y-77254865D01*
X121781157Y-77233715D01*
X121746172Y-77231224D01*
X121579633Y-77218184D01*
X121467418Y-77190126D01*
X121399316Y-77128426D01*
X121366540Y-77019210D01*
X121505789Y-77019210D01*
X121827524Y-77059162D01*
X122059844Y-77091436D01*
X122332486Y-77134167D01*
X122534108Y-77168814D01*
X122729902Y-77203944D01*
X122881785Y-77230582D01*
X122958599Y-77243271D01*
X122960191Y-77243475D01*
X122998858Y-77205383D01*
X123001424Y-77183035D01*
X122963546Y-77115339D01*
X122864106Y-76999990D01*
X122724398Y-76861623D01*
X122720367Y-76857891D01*
X122585457Y-76722096D01*
X122496414Y-76610581D01*
X122471491Y-76546397D01*
X122472357Y-76544676D01*
X122544684Y-76498818D01*
X122676123Y-76459289D01*
X122688806Y-76456799D01*
X122893339Y-76365582D01*
X123101563Y-76171236D01*
X123235243Y-75992802D01*
X123281339Y-75908958D01*
X123282846Y-75831464D01*
X123233654Y-75722886D01*
X123174952Y-75623436D01*
X123066664Y-75469835D01*
X122978746Y-75390990D01*
X122923312Y-75393801D01*
X122911321Y-75473278D01*
X122871396Y-75560023D01*
X122809000Y-75588252D01*
X122714165Y-75636029D01*
X122575223Y-75740106D01*
X122436414Y-75864644D01*
X122293108Y-76012280D01*
X122219004Y-76117299D01*
X122198613Y-76207216D01*
X122207124Y-76271965D01*
X122216452Y-76380287D01*
X122174668Y-76417268D01*
X122071886Y-76382370D01*
X121898216Y-76275059D01*
X121866666Y-76253527D01*
X121724157Y-76165928D01*
X121618343Y-76120047D01*
X121582077Y-76120454D01*
X121562168Y-76189546D01*
X121542881Y-76339168D01*
X121527777Y-76539930D01*
X121525353Y-76588412D01*
X121505789Y-77019210D01*
X121366540Y-77019210D01*
X121365114Y-77014457D01*
X121354602Y-76829592D01*
X121357565Y-76555204D01*
X121358182Y-76523541D01*
X121367204Y-76230437D01*
X121386634Y-76034928D01*
X121425309Y-75924661D01*
X121492068Y-75887287D01*
X121595747Y-75910453D01*
X121745185Y-75981808D01*
X121745640Y-75982045D01*
X121975003Y-76101596D01*
X122198769Y-75877830D01*
X122422535Y-75654065D01*
X122230919Y-75654074D01*
X122083035Y-75664550D01*
X121870545Y-75692173D01*
X121636403Y-75731255D01*
X121608385Y-75736542D01*
X121270492Y-75790807D01*
X120986595Y-75815738D01*
X120771109Y-75811246D01*
X120638447Y-75777243D01*
X120604610Y-75742660D01*
X120593821Y-75606808D01*
X120625841Y-75396490D01*
X120692535Y-75134684D01*
X120785766Y-74844366D01*
X120897402Y-74548514D01*
X121019305Y-74270106D01*
X121143341Y-74032119D01*
X121261376Y-73857531D01*
X121279384Y-73836770D01*
X121365380Y-73732567D01*
X121406466Y-73663915D01*
X121407052Y-73659766D01*
X121364393Y-73615208D01*
X121249921Y-73525890D01*
X121083895Y-73407161D01*
X120980970Y-73336917D01*
X120716642Y-73145708D01*
X120460120Y-72935816D01*
X120226735Y-72722447D01*
X120031819Y-72520807D01*
X119890704Y-72346102D01*
X119818722Y-72213538D01*
X119812680Y-72178210D01*
X119814009Y-72174069D01*
X119977615Y-72174069D01*
X120019019Y-72262819D01*
X120131841Y-72400614D01*
X120298992Y-72571253D01*
X120503384Y-72758533D01*
X120727929Y-72946251D01*
X120955539Y-73118205D01*
X121022204Y-73164525D01*
X121293088Y-73355409D01*
X121550688Y-73549613D01*
X121780601Y-73734902D01*
X121968423Y-73899045D01*
X122099751Y-74029806D01*
X122160179Y-74114955D01*
X122161726Y-74132328D01*
X122088752Y-74199877D01*
X121960348Y-74220220D01*
X121861963Y-74199986D01*
X121805679Y-74155113D01*
X121837002Y-74102557D01*
X121857086Y-74041690D01*
X121798033Y-73958019D01*
X121725504Y-73892984D01*
X121550518Y-73746900D01*
X121434845Y-73889552D01*
X121344848Y-74028069D01*
X121232816Y-74239505D01*
X121112576Y-74492831D01*
X120997956Y-74757023D01*
X120902782Y-75001053D01*
X120840881Y-75193895D01*
X120828451Y-75250241D01*
X120798147Y-75414320D01*
X120770014Y-75543615D01*
X120766295Y-75557852D01*
X120766474Y-75618350D01*
X120827229Y-75646192D01*
X120972705Y-75652168D01*
X120977265Y-75652133D01*
X121161755Y-75638633D01*
X121394550Y-75605681D01*
X121571987Y-75571597D01*
X121810561Y-75528506D01*
X122054246Y-75499148D01*
X122201283Y-75491061D01*
X122441069Y-75462774D01*
X122645599Y-75368730D01*
X122682344Y-75344206D01*
X122807102Y-75246535D01*
X122881904Y-75166328D01*
X122891468Y-75142868D01*
X122865613Y-75064963D01*
X122800153Y-74932458D01*
X122760465Y-74861709D01*
X122631300Y-74575603D01*
X122523028Y-74207790D01*
X122441478Y-73785483D01*
X122392479Y-73335893D01*
X122387393Y-73221915D01*
X122532678Y-73221915D01*
X122607424Y-73829896D01*
X122625790Y-73922246D01*
X122682169Y-74166694D01*
X122747149Y-74381811D01*
X122833378Y-74600640D01*
X122953502Y-74856227D01*
X123073574Y-75092160D01*
X123211070Y-75344369D01*
X123314899Y-75503451D01*
X123391664Y-75578594D01*
X123429151Y-75586965D01*
X123511434Y-75620705D01*
X123549425Y-75720608D01*
X123634690Y-75909532D01*
X123807376Y-76110186D01*
X124047974Y-76308685D01*
X124336974Y-76491143D01*
X124654867Y-76643676D01*
X124982142Y-76752398D01*
X125008134Y-76758785D01*
X125601394Y-76873092D01*
X126176625Y-76931305D01*
X126713008Y-76932958D01*
X127189721Y-76877584D01*
X127448932Y-76813553D01*
X127658173Y-76733360D01*
X127845660Y-76636101D01*
X127951956Y-76558831D01*
X128053534Y-76469573D01*
X128110482Y-76453303D01*
X128152904Y-76502352D01*
X128155512Y-76506968D01*
X128197756Y-76563501D01*
X128256338Y-76567297D01*
X128367990Y-76517953D01*
X128394696Y-76504350D01*
X128611060Y-76371872D01*
X128861615Y-76184606D01*
X129124135Y-75962963D01*
X129376394Y-75727353D01*
X129596166Y-75498186D01*
X129761225Y-75295872D01*
X129829509Y-75186749D01*
X129916781Y-75029614D01*
X129999033Y-74903671D01*
X130019768Y-74877610D01*
X130065820Y-74805921D01*
X130018763Y-74768662D01*
X129980342Y-74757609D01*
X129903136Y-74708783D01*
X129914691Y-74649483D01*
X130002380Y-74611790D01*
X130038654Y-74609476D01*
X130117368Y-74596526D01*
X130175103Y-74543938D01*
X130223189Y-74431102D01*
X130272953Y-74237409D01*
X130292760Y-74147182D01*
X130339676Y-73834569D01*
X130361831Y-73475947D01*
X130359262Y-73111428D01*
X130332004Y-72781122D01*
X130291330Y-72564214D01*
X130200183Y-72251731D01*
X130121124Y-72048010D01*
X130053955Y-71952548D01*
X130051754Y-71951122D01*
X130005513Y-71883996D01*
X129948483Y-71752271D01*
X129929888Y-71699232D01*
X129841860Y-71530082D01*
X129670823Y-71299700D01*
X129421047Y-71013730D01*
X129367969Y-70956695D01*
X129168210Y-70744897D01*
X129028865Y-70603208D01*
X128935230Y-70521438D01*
X128872599Y-70489397D01*
X128826271Y-70496895D01*
X128781540Y-70533743D01*
X128771725Y-70543504D01*
X128673390Y-70610157D01*
X128559838Y-70649030D01*
X128470914Y-70650821D01*
X128444281Y-70619931D01*
X128471733Y-70531332D01*
X128532361Y-70443764D01*
X128593572Y-70400368D01*
X128608176Y-70402989D01*
X128676622Y-70395166D01*
X128689072Y-70380369D01*
X128661645Y-70329125D01*
X128559001Y-70243426D01*
X128402698Y-70141024D01*
X128387545Y-70132069D01*
X128177553Y-70013815D01*
X128044182Y-69952642D01*
X127973042Y-69943926D01*
X127949742Y-69983044D01*
X127949476Y-69991294D01*
X127922562Y-70046467D01*
X127862462Y-70026514D01*
X127800145Y-69945611D01*
X127787744Y-69917249D01*
X127715247Y-69820036D01*
X127616061Y-69772078D01*
X128169390Y-69772078D01*
X128212546Y-69813185D01*
X128322884Y-69890386D01*
X128471705Y-69985944D01*
X128630311Y-70082123D01*
X128770004Y-70161186D01*
X128862085Y-70205399D01*
X128876825Y-70209291D01*
X128923643Y-70175905D01*
X129033980Y-70084278D01*
X129189662Y-69949767D01*
X129316652Y-69837636D01*
X129524553Y-69655294D01*
X129593507Y-69596367D01*
X129846679Y-69596367D01*
X129989859Y-69568996D01*
X130144340Y-69578341D01*
X130341654Y-69640218D01*
X130539895Y-69737091D01*
X130697156Y-69851422D01*
X130719570Y-69874361D01*
X130763208Y-69923858D01*
X130800937Y-69951284D01*
X130851520Y-69950227D01*
X130933718Y-69914277D01*
X131066296Y-69837022D01*
X131268015Y-69712050D01*
X131357647Y-69656333D01*
X131659541Y-69469000D01*
X131302669Y-69433835D01*
X130940994Y-69392498D01*
X130679907Y-69348956D01*
X130510038Y-69301209D01*
X130422019Y-69247258D01*
X130420582Y-69245568D01*
X130360140Y-69207134D01*
X130278621Y-69245581D01*
X130241088Y-69276008D01*
X130105201Y-69389116D01*
X129983900Y-69487271D01*
X129846679Y-69596367D01*
X129593507Y-69596367D01*
X129730714Y-69479112D01*
X129903176Y-69336219D01*
X129966216Y-69286175D01*
X130133559Y-69140393D01*
X130316636Y-68956843D01*
X130421624Y-68838992D01*
X130647089Y-68569698D01*
X130388520Y-68372266D01*
X130192181Y-68216659D01*
X130071980Y-68092340D01*
X130017263Y-67967978D01*
X130017378Y-67812241D01*
X130061670Y-67593799D01*
X130087839Y-67487949D01*
X130158706Y-67197007D01*
X130197107Y-67002663D01*
X130199384Y-66895399D01*
X130161878Y-66865697D01*
X130080931Y-66904038D01*
X129952884Y-67000905D01*
X129913041Y-67033187D01*
X129723564Y-67197386D01*
X129625690Y-67307583D01*
X129617132Y-67367011D01*
X129667550Y-67380205D01*
X129702846Y-67412606D01*
X129720185Y-67519039D01*
X129721225Y-67714106D01*
X129717456Y-67820032D01*
X129709859Y-68034608D01*
X129712018Y-68155388D01*
X129727083Y-68198338D01*
X129758205Y-68179422D01*
X129782478Y-68149519D01*
X129863546Y-68077686D01*
X129926798Y-68099092D01*
X129963609Y-68198866D01*
X129901894Y-68313344D01*
X129798459Y-68396993D01*
X129433232Y-68638949D01*
X129127782Y-68863379D01*
X128842842Y-69100514D01*
X128617860Y-69305936D01*
X128438221Y-69478655D01*
X128292860Y-69625510D01*
X128198061Y-69729575D01*
X128169390Y-69772078D01*
X127616061Y-69772078D01*
X127569035Y-69749340D01*
X127472979Y-69722163D01*
X127275581Y-69670923D01*
X127092726Y-69620024D01*
X127038430Y-69603784D01*
X126838307Y-69568148D01*
X126567841Y-69555324D01*
X126264098Y-69564582D01*
X125964143Y-69595192D01*
X125777831Y-69628588D01*
X125191400Y-69807845D01*
X124603682Y-70079049D01*
X124039025Y-70427224D01*
X123521778Y-70837392D01*
X123083639Y-71285890D01*
X122821322Y-71678724D01*
X122641084Y-72137935D01*
X122544383Y-72655130D01*
X122532678Y-73221915D01*
X122387393Y-73221915D01*
X122381637Y-73092919D01*
X122371631Y-72804120D01*
X122354146Y-72607997D01*
X122326743Y-72487381D01*
X122286981Y-72425107D01*
X122286706Y-72424879D01*
X122143360Y-72344131D01*
X121916106Y-72258683D01*
X121630498Y-72174228D01*
X121312094Y-72096460D01*
X120986447Y-72031070D01*
X120679115Y-71983753D01*
X120415652Y-71960200D01*
X120225017Y-71965609D01*
X120070554Y-72022479D01*
X119985704Y-72126002D01*
X119977615Y-72174069D01*
X119814009Y-72174069D01*
X119862254Y-72023772D01*
X119989899Y-71890832D01*
X120163996Y-71808572D01*
X120225017Y-71797648D01*
X120469293Y-71795619D01*
X120785217Y-71826682D01*
X121141795Y-71884494D01*
X121508032Y-71962712D01*
X121852934Y-72054995D01*
X122145507Y-72155000D01*
X122291857Y-72220581D01*
X122400854Y-72271260D01*
X122444184Y-72264388D01*
X122451641Y-72204809D01*
X122483567Y-72025267D01*
X122568270Y-71796532D01*
X122689132Y-71554703D01*
X122829538Y-71335882D01*
X122882474Y-71268737D01*
X123243987Y-70873152D01*
X123614859Y-70539789D01*
X124024282Y-70246270D01*
X124501449Y-69970220D01*
X124725994Y-69855631D01*
X125235763Y-69630078D01*
X125705778Y-69482083D01*
X126165720Y-69403944D01*
X126533475Y-69386532D01*
X126716231Y-69388538D01*
X126865980Y-69398325D01*
X127011870Y-69421544D01*
X127183047Y-69463847D01*
X127408656Y-69530886D01*
X127619606Y-69597151D01*
X127976965Y-69710362D01*
X128153821Y-69539430D01*
X128259360Y-69426126D01*
X128287972Y-69355536D01*
X128256665Y-69308792D01*
X128253173Y-69304065D01*
X128372374Y-69304065D01*
X128618645Y-69084151D01*
X128745192Y-68960591D01*
X128824653Y-68862211D01*
X128840150Y-68817134D01*
X128796463Y-68811277D01*
X128773426Y-68837922D01*
X128702234Y-68877722D01*
X128670342Y-68868037D01*
X128623256Y-68786804D01*
X128610245Y-68662199D01*
X128630114Y-68580254D01*
X129051993Y-68580254D01*
X129076783Y-68663290D01*
X129096607Y-68671813D01*
X129168437Y-68641312D01*
X129282897Y-68566417D01*
X129302776Y-68551627D01*
X129413595Y-68467641D01*
X129480468Y-68416944D01*
X129484857Y-68413613D01*
X129466110Y-68372494D01*
X129410657Y-68324363D01*
X129351208Y-68262618D01*
X129341444Y-68176411D01*
X129373130Y-68036295D01*
X129413599Y-67829222D01*
X129431283Y-67616273D01*
X129431297Y-67599736D01*
X129429315Y-67379822D01*
X129242543Y-67591259D01*
X129131161Y-67730716D01*
X129088835Y-67830691D01*
X129102098Y-67924368D01*
X129104613Y-67931160D01*
X129124915Y-68095456D01*
X129101249Y-68241655D01*
X129060246Y-68430681D01*
X129051993Y-68580254D01*
X128630114Y-68580254D01*
X128635811Y-68556756D01*
X128646895Y-68542504D01*
X128688519Y-68469186D01*
X128741664Y-68338219D01*
X128749978Y-68314579D01*
X128815381Y-68124332D01*
X128664636Y-68231673D01*
X128546371Y-68357559D01*
X128486437Y-68542003D01*
X128481558Y-68574136D01*
X128450968Y-68788732D01*
X128416895Y-69017121D01*
X128410800Y-69056662D01*
X128372374Y-69304065D01*
X128253173Y-69304065D01*
X128218499Y-69257134D01*
X128211048Y-69169642D01*
X128234188Y-69017903D01*
X128254959Y-68919216D01*
X128294931Y-68715939D01*
X128322676Y-68535352D01*
X128330795Y-68444589D01*
X128355555Y-68359055D01*
X128432225Y-68239694D01*
X128569682Y-68075349D01*
X128776805Y-67854866D01*
X128899556Y-67729871D01*
X129148774Y-67486393D01*
X129405133Y-67249642D01*
X129654929Y-67030843D01*
X129884458Y-66841221D01*
X130080016Y-66692002D01*
X130227901Y-66594411D01*
X130314408Y-66559675D01*
X130324967Y-66562206D01*
G37*
D13*
%TO.C,R2*%
X157494500Y-84327276D02*
X157494500Y-84836724D01*
X156449500Y-84327276D02*
X156449500Y-84836724D01*
%TO.C,J3*%
X189163000Y-146558000D02*
X189163000Y-138878000D01*
X189163000Y-146558000D02*
X186503000Y-146558000D01*
X189163000Y-138878000D02*
X186503000Y-138878000D01*
X187833000Y-149158000D02*
X186503000Y-149158000D01*
X186503000Y-149158000D02*
X186503000Y-147828000D01*
X186503000Y-146558000D02*
X186503000Y-138878000D01*
D14*
%TO.C,S4*%
X142110000Y-114875000D02*
X142110000Y-114875000D01*
X142110000Y-115075000D02*
X142110000Y-115075000D01*
D12*
X143860000Y-111475000D02*
X155860000Y-111475000D01*
X143860000Y-113475000D02*
X143860000Y-111475000D01*
X143860000Y-121475000D02*
X143860000Y-123475000D01*
X143860000Y-123475000D02*
X155860000Y-123475000D01*
X155860000Y-111475000D02*
X155860000Y-113475000D01*
X155860000Y-123475000D02*
X155860000Y-121475000D01*
D14*
X142110000Y-115075000D02*
G75*
G03*
X142110000Y-114875000I0J100000D01*
G01*
X142110000Y-114875000D02*
G75*
G03*
X142110000Y-115075000I0J-100000D01*
G01*
%TD*%
M02*
