%TF.GenerationSoftware,KiCad,Pcbnew,7.0.2*%
%TF.CreationDate,2023-09-09T02:35:42+09:00*%
%TF.ProjectId,tangnano9k_brushless_driver,74616e67-6e61-46e6-9f39-6b5f62727573,rev?*%
%TF.SameCoordinates,Original*%
%TF.FileFunction,Soldermask,Top*%
%TF.FilePolarity,Negative*%
%FSLAX46Y46*%
G04 Gerber Fmt 4.6, Leading zero omitted, Abs format (unit mm)*
G04 Created by KiCad (PCBNEW 7.0.2) date 2023-09-09 02:35:42*
%MOMM*%
%LPD*%
G01*
G04 APERTURE LIST*
G04 Aperture macros list*
%AMRoundRect*
0 Rectangle with rounded corners*
0 $1 Rounding radius*
0 $2 $3 $4 $5 $6 $7 $8 $9 X,Y pos of 4 corners*
0 Add a 4 corners polygon primitive as box body*
4,1,4,$2,$3,$4,$5,$6,$7,$8,$9,$2,$3,0*
0 Add four circle primitives for the rounded corners*
1,1,$1+$1,$2,$3*
1,1,$1+$1,$4,$5*
1,1,$1+$1,$6,$7*
1,1,$1+$1,$8,$9*
0 Add four rect primitives between the rounded corners*
20,1,$1+$1,$2,$3,$4,$5,0*
20,1,$1+$1,$4,$5,$6,$7,0*
20,1,$1+$1,$6,$7,$8,$9,0*
20,1,$1+$1,$8,$9,$2,$3,0*%
%AMFreePoly0*
4,1,6,1.000000,0.000000,0.500000,-0.750000,-0.500000,-0.750000,-0.500000,0.750000,0.500000,0.750000,1.000000,0.000000,1.000000,0.000000,$1*%
%AMFreePoly1*
4,1,6,0.500000,-0.750000,-0.650000,-0.750000,-0.150000,0.000000,-0.650000,0.750000,0.500000,0.750000,0.500000,-0.750000,0.500000,-0.750000,$1*%
G04 Aperture macros list end*
%ADD10R,1.305000X1.305000*%
%ADD11C,1.305000*%
%ADD12R,1.700000X1.700000*%
%ADD13O,1.700000X1.700000*%
%ADD14C,1.950000*%
%ADD15RoundRect,0.237500X-0.237500X0.300000X-0.237500X-0.300000X0.237500X-0.300000X0.237500X0.300000X0*%
%ADD16RoundRect,0.237500X-0.237500X0.250000X-0.237500X-0.250000X0.237500X-0.250000X0.237500X0.250000X0*%
%ADD17O,2.000000X1.200000*%
%ADD18O,1.800000X1.200000*%
%ADD19O,1.900000X1.200000*%
%ADD20R,1.600000X1.600000*%
%ADD21O,1.600000X1.600000*%
%ADD22FreePoly0,90.000000*%
%ADD23FreePoly1,90.000000*%
%ADD24RoundRect,0.250000X-0.650000X-1.550000X0.650000X-1.550000X0.650000X1.550000X-0.650000X1.550000X0*%
%ADD25O,1.800000X3.600000*%
G04 APERTURE END LIST*
D10*
%TO.C,PS1*%
X139700000Y-112268000D03*
D11*
X139700000Y-109728000D03*
X139700000Y-107188000D03*
%TD*%
D12*
%TO.C,SW3*%
X123952000Y-60706000D03*
D13*
X123952000Y-63246000D03*
X123952000Y-65786000D03*
%TD*%
D14*
%TO.C,S4*%
X143610000Y-114975000D03*
X156110000Y-114975000D03*
X143610000Y-119975000D03*
X156110000Y-119975000D03*
%TD*%
%TO.C,S3*%
X138249000Y-129159000D03*
X150749000Y-129159000D03*
X138249000Y-134159000D03*
X150749000Y-134159000D03*
%TD*%
%TO.C,S2*%
X134266000Y-148169000D03*
X121766000Y-148169000D03*
X134266000Y-143169000D03*
X121766000Y-143169000D03*
%TD*%
%TO.C,S1*%
X138276000Y-143169000D03*
X150776000Y-143169000D03*
X138276000Y-148169000D03*
X150776000Y-148169000D03*
%TD*%
D15*
%TO.C,C1*%
X151892000Y-82957500D03*
X151892000Y-84682500D03*
%TD*%
D16*
%TO.C,R1*%
X156972000Y-80367500D03*
X156972000Y-82192500D03*
%TD*%
D17*
%TO.C,U1*%
X182880000Y-147828000D03*
X182880000Y-145288000D03*
X182880000Y-142748000D03*
X182880000Y-140208000D03*
X182880000Y-137668000D03*
X182880000Y-135128000D03*
X182880000Y-132588000D03*
X182880000Y-130048000D03*
X182880000Y-127508000D03*
X182880000Y-124968000D03*
X182880000Y-122428000D03*
X182880000Y-119888000D03*
X182880000Y-117348000D03*
X182880000Y-114808000D03*
X182880000Y-112268000D03*
X182880000Y-109728000D03*
X182880000Y-107188000D03*
X182880000Y-104648000D03*
X182880000Y-102108000D03*
X182880000Y-99568000D03*
X182880000Y-97028000D03*
X182880000Y-94488000D03*
X182880000Y-91948000D03*
X182880000Y-89408000D03*
X160063100Y-89408000D03*
X160063100Y-91948000D03*
X160063100Y-94488000D03*
X160063100Y-97028000D03*
X160063100Y-99568000D03*
X160063100Y-102108000D03*
X160063100Y-104648000D03*
X160063100Y-107188000D03*
X160063100Y-109728000D03*
X160063100Y-112268000D03*
X160063100Y-114808000D03*
X160063100Y-117348000D03*
X160063100Y-119888000D03*
X160063100Y-122428000D03*
X160063100Y-124968000D03*
X160063100Y-127508000D03*
X160063100Y-130048000D03*
X160063100Y-132588000D03*
X160063100Y-135128000D03*
X160063100Y-137668000D03*
X160063100Y-140208000D03*
X160063100Y-142748000D03*
X160063100Y-145288000D03*
X160063100Y-147828000D03*
%TD*%
D12*
%TO.C,J2*%
X156210000Y-145288000D03*
D13*
X156210000Y-142748000D03*
X156210000Y-140208000D03*
X156210000Y-137668000D03*
X156210000Y-135128000D03*
X156210000Y-132588000D03*
X156210000Y-130048000D03*
X156210000Y-127508000D03*
%TD*%
D12*
%TO.C,SW1*%
X146558000Y-60706000D03*
D13*
X146558000Y-63246000D03*
X146558000Y-65786000D03*
%TD*%
D12*
%TO.C,SW2*%
X135382000Y-60706000D03*
D13*
X135382000Y-63246000D03*
X135382000Y-65786000D03*
%TD*%
D12*
%TO.C,J1*%
X129540000Y-86868000D03*
D13*
X132080000Y-86868000D03*
X129540000Y-89408000D03*
X132080000Y-89408000D03*
X129540000Y-91948000D03*
X132080000Y-91948000D03*
X129540000Y-94488000D03*
X132080000Y-94488000D03*
X129540000Y-97028000D03*
X132080000Y-97028000D03*
X129540000Y-99568000D03*
X132080000Y-99568000D03*
X129540000Y-102108000D03*
X132080000Y-102108000D03*
X129540000Y-104648000D03*
X132080000Y-104648000D03*
X129540000Y-107188000D03*
X132080000Y-107188000D03*
X129540000Y-109728000D03*
X132080000Y-109728000D03*
X129540000Y-112268000D03*
X132080000Y-112268000D03*
X129540000Y-114808000D03*
X132080000Y-114808000D03*
D18*
X129540000Y-117348000D03*
D13*
X132080000Y-117348000D03*
D18*
X129540000Y-119888000D03*
D13*
X132080000Y-119888000D03*
D18*
X129540000Y-122428000D03*
D13*
X132080000Y-122428000D03*
D19*
X129540000Y-124968000D03*
D13*
X132080000Y-124968000D03*
D18*
X129540000Y-127508000D03*
D13*
X132080000Y-127508000D03*
D18*
X129540000Y-130048000D03*
D13*
X132080000Y-130048000D03*
D18*
X129540000Y-132588000D03*
D13*
X132080000Y-132588000D03*
D12*
X190500000Y-86868000D03*
D13*
X193040000Y-86868000D03*
X190500000Y-89408000D03*
X193040000Y-89408000D03*
X190500000Y-91948000D03*
X193040000Y-91948000D03*
X190500000Y-94488000D03*
X193040000Y-94488000D03*
X190500000Y-97028000D03*
X193040000Y-97028000D03*
X190500000Y-99568000D03*
X193040000Y-99568000D03*
X190500000Y-102108000D03*
X193040000Y-102108000D03*
X190500000Y-104648000D03*
X193040000Y-104648000D03*
X190500000Y-107188000D03*
X193040000Y-107188000D03*
X190500000Y-109728000D03*
X193040000Y-109728000D03*
X190500000Y-112268000D03*
X193040000Y-112268000D03*
X190500000Y-114808000D03*
X193040000Y-114808000D03*
X190500000Y-117348000D03*
X193040000Y-117348000D03*
X190500000Y-119888000D03*
X193040000Y-119888000D03*
X190500000Y-122428000D03*
X193040000Y-122428000D03*
X190500000Y-124968000D03*
X193040000Y-124968000D03*
X190500000Y-127508000D03*
X193040000Y-127508000D03*
X190500000Y-130048000D03*
X193040000Y-130048000D03*
X190500000Y-132588000D03*
X193040000Y-132588000D03*
%TD*%
D20*
%TO.C,U2*%
X142240000Y-80010000D03*
D21*
X142240000Y-82550000D03*
X142240000Y-85090000D03*
X142240000Y-87630000D03*
X142240000Y-90170000D03*
X142240000Y-92710000D03*
X142240000Y-95250000D03*
X142240000Y-97790000D03*
X149860000Y-97790000D03*
X149860000Y-95250000D03*
X149860000Y-92710000D03*
X149860000Y-90170000D03*
X149860000Y-87630000D03*
X149860000Y-85090000D03*
X149860000Y-82550000D03*
X149860000Y-80010000D03*
%TD*%
D22*
%TO.C,JP1*%
X153924000Y-82005000D03*
D23*
X153924000Y-80555000D03*
%TD*%
D16*
%TO.C,R2*%
X156972000Y-83669500D03*
X156972000Y-85494500D03*
%TD*%
D12*
%TO.C,J3*%
X187833000Y-147828000D03*
D13*
X187833000Y-145288000D03*
X187833000Y-142748000D03*
X187833000Y-140208000D03*
%TD*%
D24*
%TO.C,U3*%
X155810000Y-59944000D03*
D25*
X159310000Y-59944000D03*
X162810000Y-59944000D03*
X166310000Y-59944000D03*
X169810000Y-59944000D03*
X173310000Y-59944000D03*
X176810000Y-59944000D03*
X180310000Y-59944000D03*
X183810000Y-59944000D03*
X187310000Y-59944000D03*
X190810000Y-59944000D03*
X194310000Y-59944000D03*
%TD*%
M02*
