M48
; DRILL file {KiCad 7.0.2} date Sat Sep  9 02:35:48 2023
; FORMAT={-:-/ absolute / inch / decimal}
; #@! TF.CreationDate,2023-09-09T02:35:48+09:00
; #@! TF.GenerationSoftware,Kicad,Pcbnew,7.0.2
; #@! TF.FileFunction,Plated,1,2,PTH
FMAT,2
INCH
; #@! TA.AperFunction,Plated,PTH,ViaDrill
T1C0.0157
; #@! TA.AperFunction,Plated,PTH,ComponentDrill
T2C0.0315
; #@! TA.AperFunction,Plated,PTH,ComponentDrill
T3C0.0343
; #@! TA.AperFunction,Plated,PTH,ComponentDrill
T4C0.0394
; #@! TA.AperFunction,Plated,PTH,ComponentDrill
T5C0.0472
; #@! TA.AperFunction,Plated,PTH,ComponentDrill
T6C0.0512
%
G90
G05
T1
X5.79Y-5.21
X5.79Y-5.75
X6.6Y-5.69
X6.88Y-5.69
X7.35Y-4.02
X7.35Y-4.18
X7.5Y-3.2
X7.69Y-5.56
X7.69Y-5.87
X7.75Y-2.56
X7.75Y-2.79
X7.75Y-3.02
T2
X5.6Y-3.15
X5.6Y-3.25
X5.6Y-3.35
X5.6Y-3.45
X5.6Y-3.55
X5.6Y-3.65
X5.6Y-3.75
X5.6Y-3.85
X5.9Y-3.15
X5.9Y-3.25
X5.9Y-3.35
X5.9Y-3.45
X5.9Y-3.55
X5.9Y-3.65
X5.9Y-3.75
X5.9Y-3.85
T3
X5.5Y-4.22
X5.5Y-4.32
X5.5Y-4.42
T4
X4.88Y-2.39
X4.88Y-2.49
X4.88Y-2.59
X5.1Y-3.42
X5.1Y-3.52
X5.1Y-3.62
X5.1Y-3.72
X5.1Y-3.82
X5.1Y-3.92
X5.1Y-4.02
X5.1Y-4.12
X5.1Y-4.22
X5.1Y-4.32
X5.1Y-4.42
X5.1Y-4.52
X5.1Y-4.62
X5.1Y-4.72
X5.1Y-4.82
X5.1Y-4.92
X5.1Y-5.02
X5.1Y-5.12
X5.1Y-5.22
X5.2Y-3.42
X5.2Y-3.52
X5.2Y-3.62
X5.2Y-3.72
X5.2Y-3.82
X5.2Y-3.92
X5.2Y-4.02
X5.2Y-4.12
X5.2Y-4.22
X5.2Y-4.32
X5.2Y-4.42
X5.2Y-4.52
X5.2Y-4.62
X5.2Y-4.72
X5.2Y-4.82
X5.2Y-4.92
X5.2Y-5.02
X5.2Y-5.12
X5.2Y-5.22
X5.33Y-2.39
X5.33Y-2.49
X5.33Y-2.59
X5.77Y-2.39
X5.77Y-2.49
X5.77Y-2.59
X6.15Y-5.02
X6.15Y-5.12
X6.15Y-5.22
X6.15Y-5.32
X6.15Y-5.42
X6.15Y-5.52
X6.15Y-5.62
X6.15Y-5.72
X6.3017Y-3.52
X6.3017Y-3.62
X6.3017Y-3.72
X6.3017Y-3.82
X6.3017Y-3.92
X6.3017Y-4.02
X6.3017Y-4.12
X6.3017Y-4.22
X6.3017Y-4.32
X6.3017Y-4.42
X6.3017Y-4.52
X6.3017Y-4.62
X6.3017Y-4.72
X6.3017Y-4.82
X6.3017Y-4.92
X6.3017Y-5.02
X6.3017Y-5.12
X6.3017Y-5.22
X6.3017Y-5.32
X6.3017Y-5.42
X6.3017Y-5.52
X6.3017Y-5.62
X6.3017Y-5.72
X6.3017Y-5.82
X7.2Y-3.52
X7.2Y-3.62
X7.2Y-3.72
X7.2Y-3.82
X7.2Y-3.92
X7.2Y-4.02
X7.2Y-4.12
X7.2Y-4.22
X7.2Y-4.32
X7.2Y-4.42
X7.2Y-4.52
X7.2Y-4.62
X7.2Y-4.72
X7.2Y-4.82
X7.2Y-4.92
X7.2Y-5.02
X7.2Y-5.12
X7.2Y-5.22
X7.2Y-5.32
X7.2Y-5.42
X7.2Y-5.52
X7.2Y-5.62
X7.2Y-5.72
X7.2Y-5.82
X7.395Y-5.52
X7.395Y-5.62
X7.395Y-5.72
X7.395Y-5.82
X7.5Y-3.42
X7.5Y-3.52
X7.5Y-3.62
X7.5Y-3.72
X7.5Y-3.82
X7.5Y-3.92
X7.5Y-4.02
X7.5Y-4.12
X7.5Y-4.22
X7.5Y-4.32
X7.5Y-4.42
X7.5Y-4.52
X7.5Y-4.62
X7.5Y-4.72
X7.5Y-4.82
X7.5Y-4.92
X7.5Y-5.02
X7.5Y-5.12
X7.5Y-5.22
X7.6Y-3.42
X7.6Y-3.52
X7.6Y-3.62
X7.6Y-3.72
X7.6Y-3.82
X7.6Y-3.92
X7.6Y-4.02
X7.6Y-4.12
X7.6Y-4.22
X7.6Y-4.32
X7.6Y-4.42
X7.6Y-4.52
X7.6Y-4.62
X7.6Y-4.72
X7.6Y-4.82
X7.6Y-4.92
X7.6Y-5.02
X7.6Y-5.12
X7.6Y-5.22
T5
X6.1343Y-2.36
X6.272Y-2.36
X6.4098Y-2.36
X6.5476Y-2.36
X6.6854Y-2.36
X6.8232Y-2.36
X6.961Y-2.36
X7.0988Y-2.36
X7.2366Y-2.36
X7.3744Y-2.36
X7.5122Y-2.36
X7.65Y-2.36
T6
X4.7939Y-5.6366
X4.7939Y-5.8334
X5.2861Y-5.6366
X5.2861Y-5.8334
X5.4429Y-5.085
X5.4429Y-5.2819
X5.4439Y-5.6366
X5.4439Y-5.8334
X5.6539Y-4.5266
X5.6539Y-4.7234
X5.935Y-5.085
X5.935Y-5.2819
X5.9361Y-5.6366
X5.9361Y-5.8334
X6.1461Y-4.5266
X6.1461Y-4.7234
T0
M30
