%TF.GenerationSoftware,KiCad,Pcbnew,7.0.2*%
%TF.CreationDate,2023-09-09T02:35:42+09:00*%
%TF.ProjectId,tangnano9k_brushless_driver,74616e67-6e61-46e6-9f39-6b5f62727573,rev?*%
%TF.SameCoordinates,Original*%
%TF.FileFunction,Legend,Bot*%
%TF.FilePolarity,Positive*%
%FSLAX46Y46*%
G04 Gerber Fmt 4.6, Leading zero omitted, Abs format (unit mm)*
G04 Created by KiCad (PCBNEW 7.0.2) date 2023-09-09 02:35:42*
%MOMM*%
%LPD*%
G01*
G04 APERTURE LIST*
%ADD10C,0.150000*%
%ADD11C,0.120000*%
G04 APERTURE END LIST*
D10*
X163179142Y-127020619D02*
X162512476Y-127020619D01*
X162512476Y-127020619D02*
X162941047Y-128020619D01*
X162083904Y-128020619D02*
X161893428Y-128020619D01*
X161893428Y-128020619D02*
X161798190Y-127973000D01*
X161798190Y-127973000D02*
X161750571Y-127925380D01*
X161750571Y-127925380D02*
X161655333Y-127782523D01*
X161655333Y-127782523D02*
X161607714Y-127592047D01*
X161607714Y-127592047D02*
X161607714Y-127211095D01*
X161607714Y-127211095D02*
X161655333Y-127115857D01*
X161655333Y-127115857D02*
X161702952Y-127068238D01*
X161702952Y-127068238D02*
X161798190Y-127020619D01*
X161798190Y-127020619D02*
X161988666Y-127020619D01*
X161988666Y-127020619D02*
X162083904Y-127068238D01*
X162083904Y-127068238D02*
X162131523Y-127115857D01*
X162131523Y-127115857D02*
X162179142Y-127211095D01*
X162179142Y-127211095D02*
X162179142Y-127449190D01*
X162179142Y-127449190D02*
X162131523Y-127544428D01*
X162131523Y-127544428D02*
X162083904Y-127592047D01*
X162083904Y-127592047D02*
X161988666Y-127639666D01*
X161988666Y-127639666D02*
X161798190Y-127639666D01*
X161798190Y-127639666D02*
X161702952Y-127592047D01*
X161702952Y-127592047D02*
X161655333Y-127544428D01*
X161655333Y-127544428D02*
X161607714Y-127449190D01*
X162941047Y-140276190D02*
X163036285Y-140228571D01*
X163036285Y-140228571D02*
X163083904Y-140180952D01*
X163083904Y-140180952D02*
X163131523Y-140085714D01*
X163131523Y-140085714D02*
X163131523Y-140038095D01*
X163131523Y-140038095D02*
X163083904Y-139942857D01*
X163083904Y-139942857D02*
X163036285Y-139895238D01*
X163036285Y-139895238D02*
X162941047Y-139847619D01*
X162941047Y-139847619D02*
X162750571Y-139847619D01*
X162750571Y-139847619D02*
X162655333Y-139895238D01*
X162655333Y-139895238D02*
X162607714Y-139942857D01*
X162607714Y-139942857D02*
X162560095Y-140038095D01*
X162560095Y-140038095D02*
X162560095Y-140085714D01*
X162560095Y-140085714D02*
X162607714Y-140180952D01*
X162607714Y-140180952D02*
X162655333Y-140228571D01*
X162655333Y-140228571D02*
X162750571Y-140276190D01*
X162750571Y-140276190D02*
X162941047Y-140276190D01*
X162941047Y-140276190D02*
X163036285Y-140323809D01*
X163036285Y-140323809D02*
X163083904Y-140371428D01*
X163083904Y-140371428D02*
X163131523Y-140466666D01*
X163131523Y-140466666D02*
X163131523Y-140657142D01*
X163131523Y-140657142D02*
X163083904Y-140752380D01*
X163083904Y-140752380D02*
X163036285Y-140800000D01*
X163036285Y-140800000D02*
X162941047Y-140847619D01*
X162941047Y-140847619D02*
X162750571Y-140847619D01*
X162750571Y-140847619D02*
X162655333Y-140800000D01*
X162655333Y-140800000D02*
X162607714Y-140752380D01*
X162607714Y-140752380D02*
X162560095Y-140657142D01*
X162560095Y-140657142D02*
X162560095Y-140466666D01*
X162560095Y-140466666D02*
X162607714Y-140371428D01*
X162607714Y-140371428D02*
X162655333Y-140323809D01*
X162655333Y-140323809D02*
X162750571Y-140276190D01*
X161702952Y-140180952D02*
X161702952Y-140847619D01*
X161941047Y-139800000D02*
X162179142Y-140514285D01*
X162179142Y-140514285D02*
X161560095Y-140514285D01*
X162941047Y-142689190D02*
X163036285Y-142641571D01*
X163036285Y-142641571D02*
X163083904Y-142593952D01*
X163083904Y-142593952D02*
X163131523Y-142498714D01*
X163131523Y-142498714D02*
X163131523Y-142451095D01*
X163131523Y-142451095D02*
X163083904Y-142355857D01*
X163083904Y-142355857D02*
X163036285Y-142308238D01*
X163036285Y-142308238D02*
X162941047Y-142260619D01*
X162941047Y-142260619D02*
X162750571Y-142260619D01*
X162750571Y-142260619D02*
X162655333Y-142308238D01*
X162655333Y-142308238D02*
X162607714Y-142355857D01*
X162607714Y-142355857D02*
X162560095Y-142451095D01*
X162560095Y-142451095D02*
X162560095Y-142498714D01*
X162560095Y-142498714D02*
X162607714Y-142593952D01*
X162607714Y-142593952D02*
X162655333Y-142641571D01*
X162655333Y-142641571D02*
X162750571Y-142689190D01*
X162750571Y-142689190D02*
X162941047Y-142689190D01*
X162941047Y-142689190D02*
X163036285Y-142736809D01*
X163036285Y-142736809D02*
X163083904Y-142784428D01*
X163083904Y-142784428D02*
X163131523Y-142879666D01*
X163131523Y-142879666D02*
X163131523Y-143070142D01*
X163131523Y-143070142D02*
X163083904Y-143165380D01*
X163083904Y-143165380D02*
X163036285Y-143213000D01*
X163036285Y-143213000D02*
X162941047Y-143260619D01*
X162941047Y-143260619D02*
X162750571Y-143260619D01*
X162750571Y-143260619D02*
X162655333Y-143213000D01*
X162655333Y-143213000D02*
X162607714Y-143165380D01*
X162607714Y-143165380D02*
X162560095Y-143070142D01*
X162560095Y-143070142D02*
X162560095Y-142879666D01*
X162560095Y-142879666D02*
X162607714Y-142784428D01*
X162607714Y-142784428D02*
X162655333Y-142736809D01*
X162655333Y-142736809D02*
X162750571Y-142689190D01*
X161655333Y-142260619D02*
X162131523Y-142260619D01*
X162131523Y-142260619D02*
X162179142Y-142736809D01*
X162179142Y-142736809D02*
X162131523Y-142689190D01*
X162131523Y-142689190D02*
X162036285Y-142641571D01*
X162036285Y-142641571D02*
X161798190Y-142641571D01*
X161798190Y-142641571D02*
X161702952Y-142689190D01*
X161702952Y-142689190D02*
X161655333Y-142736809D01*
X161655333Y-142736809D02*
X161607714Y-142832047D01*
X161607714Y-142832047D02*
X161607714Y-143070142D01*
X161607714Y-143070142D02*
X161655333Y-143165380D01*
X161655333Y-143165380D02*
X161702952Y-143213000D01*
X161702952Y-143213000D02*
X161798190Y-143260619D01*
X161798190Y-143260619D02*
X162036285Y-143260619D01*
X162036285Y-143260619D02*
X162131523Y-143213000D01*
X162131523Y-143213000D02*
X162179142Y-143165380D01*
X162941047Y-145229190D02*
X163036285Y-145181571D01*
X163036285Y-145181571D02*
X163083904Y-145133952D01*
X163083904Y-145133952D02*
X163131523Y-145038714D01*
X163131523Y-145038714D02*
X163131523Y-144991095D01*
X163131523Y-144991095D02*
X163083904Y-144895857D01*
X163083904Y-144895857D02*
X163036285Y-144848238D01*
X163036285Y-144848238D02*
X162941047Y-144800619D01*
X162941047Y-144800619D02*
X162750571Y-144800619D01*
X162750571Y-144800619D02*
X162655333Y-144848238D01*
X162655333Y-144848238D02*
X162607714Y-144895857D01*
X162607714Y-144895857D02*
X162560095Y-144991095D01*
X162560095Y-144991095D02*
X162560095Y-145038714D01*
X162560095Y-145038714D02*
X162607714Y-145133952D01*
X162607714Y-145133952D02*
X162655333Y-145181571D01*
X162655333Y-145181571D02*
X162750571Y-145229190D01*
X162750571Y-145229190D02*
X162941047Y-145229190D01*
X162941047Y-145229190D02*
X163036285Y-145276809D01*
X163036285Y-145276809D02*
X163083904Y-145324428D01*
X163083904Y-145324428D02*
X163131523Y-145419666D01*
X163131523Y-145419666D02*
X163131523Y-145610142D01*
X163131523Y-145610142D02*
X163083904Y-145705380D01*
X163083904Y-145705380D02*
X163036285Y-145753000D01*
X163036285Y-145753000D02*
X162941047Y-145800619D01*
X162941047Y-145800619D02*
X162750571Y-145800619D01*
X162750571Y-145800619D02*
X162655333Y-145753000D01*
X162655333Y-145753000D02*
X162607714Y-145705380D01*
X162607714Y-145705380D02*
X162560095Y-145610142D01*
X162560095Y-145610142D02*
X162560095Y-145419666D01*
X162560095Y-145419666D02*
X162607714Y-145324428D01*
X162607714Y-145324428D02*
X162655333Y-145276809D01*
X162655333Y-145276809D02*
X162750571Y-145229190D01*
X161702952Y-144800619D02*
X161893428Y-144800619D01*
X161893428Y-144800619D02*
X161988666Y-144848238D01*
X161988666Y-144848238D02*
X162036285Y-144895857D01*
X162036285Y-144895857D02*
X162131523Y-145038714D01*
X162131523Y-145038714D02*
X162179142Y-145229190D01*
X162179142Y-145229190D02*
X162179142Y-145610142D01*
X162179142Y-145610142D02*
X162131523Y-145705380D01*
X162131523Y-145705380D02*
X162083904Y-145753000D01*
X162083904Y-145753000D02*
X161988666Y-145800619D01*
X161988666Y-145800619D02*
X161798190Y-145800619D01*
X161798190Y-145800619D02*
X161702952Y-145753000D01*
X161702952Y-145753000D02*
X161655333Y-145705380D01*
X161655333Y-145705380D02*
X161607714Y-145610142D01*
X161607714Y-145610142D02*
X161607714Y-145372047D01*
X161607714Y-145372047D02*
X161655333Y-145276809D01*
X161655333Y-145276809D02*
X161702952Y-145229190D01*
X161702952Y-145229190D02*
X161798190Y-145181571D01*
X161798190Y-145181571D02*
X161988666Y-145181571D01*
X161988666Y-145181571D02*
X162083904Y-145229190D01*
X162083904Y-145229190D02*
X162131523Y-145276809D01*
X162131523Y-145276809D02*
X162179142Y-145372047D01*
X162941047Y-132529190D02*
X163036285Y-132481571D01*
X163036285Y-132481571D02*
X163083904Y-132433952D01*
X163083904Y-132433952D02*
X163131523Y-132338714D01*
X163131523Y-132338714D02*
X163131523Y-132291095D01*
X163131523Y-132291095D02*
X163083904Y-132195857D01*
X163083904Y-132195857D02*
X163036285Y-132148238D01*
X163036285Y-132148238D02*
X162941047Y-132100619D01*
X162941047Y-132100619D02*
X162750571Y-132100619D01*
X162750571Y-132100619D02*
X162655333Y-132148238D01*
X162655333Y-132148238D02*
X162607714Y-132195857D01*
X162607714Y-132195857D02*
X162560095Y-132291095D01*
X162560095Y-132291095D02*
X162560095Y-132338714D01*
X162560095Y-132338714D02*
X162607714Y-132433952D01*
X162607714Y-132433952D02*
X162655333Y-132481571D01*
X162655333Y-132481571D02*
X162750571Y-132529190D01*
X162750571Y-132529190D02*
X162941047Y-132529190D01*
X162941047Y-132529190D02*
X163036285Y-132576809D01*
X163036285Y-132576809D02*
X163083904Y-132624428D01*
X163083904Y-132624428D02*
X163131523Y-132719666D01*
X163131523Y-132719666D02*
X163131523Y-132910142D01*
X163131523Y-132910142D02*
X163083904Y-133005380D01*
X163083904Y-133005380D02*
X163036285Y-133053000D01*
X163036285Y-133053000D02*
X162941047Y-133100619D01*
X162941047Y-133100619D02*
X162750571Y-133100619D01*
X162750571Y-133100619D02*
X162655333Y-133053000D01*
X162655333Y-133053000D02*
X162607714Y-133005380D01*
X162607714Y-133005380D02*
X162560095Y-132910142D01*
X162560095Y-132910142D02*
X162560095Y-132719666D01*
X162560095Y-132719666D02*
X162607714Y-132624428D01*
X162607714Y-132624428D02*
X162655333Y-132576809D01*
X162655333Y-132576809D02*
X162750571Y-132529190D01*
X161607714Y-133100619D02*
X162179142Y-133100619D01*
X161893428Y-133100619D02*
X161893428Y-132100619D01*
X161893428Y-132100619D02*
X161988666Y-132243476D01*
X161988666Y-132243476D02*
X162083904Y-132338714D01*
X162083904Y-132338714D02*
X162179142Y-132386333D01*
X162941047Y-130116190D02*
X163036285Y-130068571D01*
X163036285Y-130068571D02*
X163083904Y-130020952D01*
X163083904Y-130020952D02*
X163131523Y-129925714D01*
X163131523Y-129925714D02*
X163131523Y-129878095D01*
X163131523Y-129878095D02*
X163083904Y-129782857D01*
X163083904Y-129782857D02*
X163036285Y-129735238D01*
X163036285Y-129735238D02*
X162941047Y-129687619D01*
X162941047Y-129687619D02*
X162750571Y-129687619D01*
X162750571Y-129687619D02*
X162655333Y-129735238D01*
X162655333Y-129735238D02*
X162607714Y-129782857D01*
X162607714Y-129782857D02*
X162560095Y-129878095D01*
X162560095Y-129878095D02*
X162560095Y-129925714D01*
X162560095Y-129925714D02*
X162607714Y-130020952D01*
X162607714Y-130020952D02*
X162655333Y-130068571D01*
X162655333Y-130068571D02*
X162750571Y-130116190D01*
X162750571Y-130116190D02*
X162941047Y-130116190D01*
X162941047Y-130116190D02*
X163036285Y-130163809D01*
X163036285Y-130163809D02*
X163083904Y-130211428D01*
X163083904Y-130211428D02*
X163131523Y-130306666D01*
X163131523Y-130306666D02*
X163131523Y-130497142D01*
X163131523Y-130497142D02*
X163083904Y-130592380D01*
X163083904Y-130592380D02*
X163036285Y-130640000D01*
X163036285Y-130640000D02*
X162941047Y-130687619D01*
X162941047Y-130687619D02*
X162750571Y-130687619D01*
X162750571Y-130687619D02*
X162655333Y-130640000D01*
X162655333Y-130640000D02*
X162607714Y-130592380D01*
X162607714Y-130592380D02*
X162560095Y-130497142D01*
X162560095Y-130497142D02*
X162560095Y-130306666D01*
X162560095Y-130306666D02*
X162607714Y-130211428D01*
X162607714Y-130211428D02*
X162655333Y-130163809D01*
X162655333Y-130163809D02*
X162750571Y-130116190D01*
X161941047Y-129687619D02*
X161845809Y-129687619D01*
X161845809Y-129687619D02*
X161750571Y-129735238D01*
X161750571Y-129735238D02*
X161702952Y-129782857D01*
X161702952Y-129782857D02*
X161655333Y-129878095D01*
X161655333Y-129878095D02*
X161607714Y-130068571D01*
X161607714Y-130068571D02*
X161607714Y-130306666D01*
X161607714Y-130306666D02*
X161655333Y-130497142D01*
X161655333Y-130497142D02*
X161702952Y-130592380D01*
X161702952Y-130592380D02*
X161750571Y-130640000D01*
X161750571Y-130640000D02*
X161845809Y-130687619D01*
X161845809Y-130687619D02*
X161941047Y-130687619D01*
X161941047Y-130687619D02*
X162036285Y-130640000D01*
X162036285Y-130640000D02*
X162083904Y-130592380D01*
X162083904Y-130592380D02*
X162131523Y-130497142D01*
X162131523Y-130497142D02*
X162179142Y-130306666D01*
X162179142Y-130306666D02*
X162179142Y-130068571D01*
X162179142Y-130068571D02*
X162131523Y-129878095D01*
X162131523Y-129878095D02*
X162083904Y-129782857D01*
X162083904Y-129782857D02*
X162036285Y-129735238D01*
X162036285Y-129735238D02*
X161941047Y-129687619D01*
X162941047Y-137609190D02*
X163036285Y-137561571D01*
X163036285Y-137561571D02*
X163083904Y-137513952D01*
X163083904Y-137513952D02*
X163131523Y-137418714D01*
X163131523Y-137418714D02*
X163131523Y-137371095D01*
X163131523Y-137371095D02*
X163083904Y-137275857D01*
X163083904Y-137275857D02*
X163036285Y-137228238D01*
X163036285Y-137228238D02*
X162941047Y-137180619D01*
X162941047Y-137180619D02*
X162750571Y-137180619D01*
X162750571Y-137180619D02*
X162655333Y-137228238D01*
X162655333Y-137228238D02*
X162607714Y-137275857D01*
X162607714Y-137275857D02*
X162560095Y-137371095D01*
X162560095Y-137371095D02*
X162560095Y-137418714D01*
X162560095Y-137418714D02*
X162607714Y-137513952D01*
X162607714Y-137513952D02*
X162655333Y-137561571D01*
X162655333Y-137561571D02*
X162750571Y-137609190D01*
X162750571Y-137609190D02*
X162941047Y-137609190D01*
X162941047Y-137609190D02*
X163036285Y-137656809D01*
X163036285Y-137656809D02*
X163083904Y-137704428D01*
X163083904Y-137704428D02*
X163131523Y-137799666D01*
X163131523Y-137799666D02*
X163131523Y-137990142D01*
X163131523Y-137990142D02*
X163083904Y-138085380D01*
X163083904Y-138085380D02*
X163036285Y-138133000D01*
X163036285Y-138133000D02*
X162941047Y-138180619D01*
X162941047Y-138180619D02*
X162750571Y-138180619D01*
X162750571Y-138180619D02*
X162655333Y-138133000D01*
X162655333Y-138133000D02*
X162607714Y-138085380D01*
X162607714Y-138085380D02*
X162560095Y-137990142D01*
X162560095Y-137990142D02*
X162560095Y-137799666D01*
X162560095Y-137799666D02*
X162607714Y-137704428D01*
X162607714Y-137704428D02*
X162655333Y-137656809D01*
X162655333Y-137656809D02*
X162750571Y-137609190D01*
X162226761Y-137180619D02*
X161607714Y-137180619D01*
X161607714Y-137180619D02*
X161941047Y-137561571D01*
X161941047Y-137561571D02*
X161798190Y-137561571D01*
X161798190Y-137561571D02*
X161702952Y-137609190D01*
X161702952Y-137609190D02*
X161655333Y-137656809D01*
X161655333Y-137656809D02*
X161607714Y-137752047D01*
X161607714Y-137752047D02*
X161607714Y-137990142D01*
X161607714Y-137990142D02*
X161655333Y-138085380D01*
X161655333Y-138085380D02*
X161702952Y-138133000D01*
X161702952Y-138133000D02*
X161798190Y-138180619D01*
X161798190Y-138180619D02*
X162083904Y-138180619D01*
X162083904Y-138180619D02*
X162179142Y-138133000D01*
X162179142Y-138133000D02*
X162226761Y-138085380D01*
X162941047Y-135196190D02*
X163036285Y-135148571D01*
X163036285Y-135148571D02*
X163083904Y-135100952D01*
X163083904Y-135100952D02*
X163131523Y-135005714D01*
X163131523Y-135005714D02*
X163131523Y-134958095D01*
X163131523Y-134958095D02*
X163083904Y-134862857D01*
X163083904Y-134862857D02*
X163036285Y-134815238D01*
X163036285Y-134815238D02*
X162941047Y-134767619D01*
X162941047Y-134767619D02*
X162750571Y-134767619D01*
X162750571Y-134767619D02*
X162655333Y-134815238D01*
X162655333Y-134815238D02*
X162607714Y-134862857D01*
X162607714Y-134862857D02*
X162560095Y-134958095D01*
X162560095Y-134958095D02*
X162560095Y-135005714D01*
X162560095Y-135005714D02*
X162607714Y-135100952D01*
X162607714Y-135100952D02*
X162655333Y-135148571D01*
X162655333Y-135148571D02*
X162750571Y-135196190D01*
X162750571Y-135196190D02*
X162941047Y-135196190D01*
X162941047Y-135196190D02*
X163036285Y-135243809D01*
X163036285Y-135243809D02*
X163083904Y-135291428D01*
X163083904Y-135291428D02*
X163131523Y-135386666D01*
X163131523Y-135386666D02*
X163131523Y-135577142D01*
X163131523Y-135577142D02*
X163083904Y-135672380D01*
X163083904Y-135672380D02*
X163036285Y-135720000D01*
X163036285Y-135720000D02*
X162941047Y-135767619D01*
X162941047Y-135767619D02*
X162750571Y-135767619D01*
X162750571Y-135767619D02*
X162655333Y-135720000D01*
X162655333Y-135720000D02*
X162607714Y-135672380D01*
X162607714Y-135672380D02*
X162560095Y-135577142D01*
X162560095Y-135577142D02*
X162560095Y-135386666D01*
X162560095Y-135386666D02*
X162607714Y-135291428D01*
X162607714Y-135291428D02*
X162655333Y-135243809D01*
X162655333Y-135243809D02*
X162750571Y-135196190D01*
X162179142Y-134862857D02*
X162131523Y-134815238D01*
X162131523Y-134815238D02*
X162036285Y-134767619D01*
X162036285Y-134767619D02*
X161798190Y-134767619D01*
X161798190Y-134767619D02*
X161702952Y-134815238D01*
X161702952Y-134815238D02*
X161655333Y-134862857D01*
X161655333Y-134862857D02*
X161607714Y-134958095D01*
X161607714Y-134958095D02*
X161607714Y-135053333D01*
X161607714Y-135053333D02*
X161655333Y-135196190D01*
X161655333Y-135196190D02*
X162226761Y-135767619D01*
X162226761Y-135767619D02*
X161607714Y-135767619D01*
X163179142Y-114320619D02*
X162512476Y-114320619D01*
X162512476Y-114320619D02*
X162941047Y-115320619D01*
X162226761Y-114320619D02*
X161607714Y-114320619D01*
X161607714Y-114320619D02*
X161941047Y-114701571D01*
X161941047Y-114701571D02*
X161798190Y-114701571D01*
X161798190Y-114701571D02*
X161702952Y-114749190D01*
X161702952Y-114749190D02*
X161655333Y-114796809D01*
X161655333Y-114796809D02*
X161607714Y-114892047D01*
X161607714Y-114892047D02*
X161607714Y-115130142D01*
X161607714Y-115130142D02*
X161655333Y-115225380D01*
X161655333Y-115225380D02*
X161702952Y-115273000D01*
X161702952Y-115273000D02*
X161798190Y-115320619D01*
X161798190Y-115320619D02*
X162083904Y-115320619D01*
X162083904Y-115320619D02*
X162179142Y-115273000D01*
X162179142Y-115273000D02*
X162226761Y-115225380D01*
X181467142Y-142133619D02*
X180848095Y-142133619D01*
X180848095Y-142133619D02*
X181181428Y-142514571D01*
X181181428Y-142514571D02*
X181038571Y-142514571D01*
X181038571Y-142514571D02*
X180943333Y-142562190D01*
X180943333Y-142562190D02*
X180895714Y-142609809D01*
X180895714Y-142609809D02*
X180848095Y-142705047D01*
X180848095Y-142705047D02*
X180848095Y-142943142D01*
X180848095Y-142943142D02*
X180895714Y-143038380D01*
X180895714Y-143038380D02*
X180943333Y-143086000D01*
X180943333Y-143086000D02*
X181038571Y-143133619D01*
X181038571Y-143133619D02*
X181324285Y-143133619D01*
X181324285Y-143133619D02*
X181419523Y-143086000D01*
X181419523Y-143086000D02*
X181467142Y-143038380D01*
X179990952Y-142133619D02*
X180181428Y-142133619D01*
X180181428Y-142133619D02*
X180276666Y-142181238D01*
X180276666Y-142181238D02*
X180324285Y-142228857D01*
X180324285Y-142228857D02*
X180419523Y-142371714D01*
X180419523Y-142371714D02*
X180467142Y-142562190D01*
X180467142Y-142562190D02*
X180467142Y-142943142D01*
X180467142Y-142943142D02*
X180419523Y-143038380D01*
X180419523Y-143038380D02*
X180371904Y-143086000D01*
X180371904Y-143086000D02*
X180276666Y-143133619D01*
X180276666Y-143133619D02*
X180086190Y-143133619D01*
X180086190Y-143133619D02*
X179990952Y-143086000D01*
X179990952Y-143086000D02*
X179943333Y-143038380D01*
X179943333Y-143038380D02*
X179895714Y-142943142D01*
X179895714Y-142943142D02*
X179895714Y-142705047D01*
X179895714Y-142705047D02*
X179943333Y-142609809D01*
X179943333Y-142609809D02*
X179990952Y-142562190D01*
X179990952Y-142562190D02*
X180086190Y-142514571D01*
X180086190Y-142514571D02*
X180276666Y-142514571D01*
X180276666Y-142514571D02*
X180371904Y-142562190D01*
X180371904Y-142562190D02*
X180419523Y-142609809D01*
X180419523Y-142609809D02*
X180467142Y-142705047D01*
X166719333Y-147213619D02*
X166909809Y-147213619D01*
X166909809Y-147213619D02*
X167005047Y-147261238D01*
X167005047Y-147261238D02*
X167052666Y-147308857D01*
X167052666Y-147308857D02*
X167147904Y-147451714D01*
X167147904Y-147451714D02*
X167195523Y-147642190D01*
X167195523Y-147642190D02*
X167195523Y-148023142D01*
X167195523Y-148023142D02*
X167147904Y-148118380D01*
X167147904Y-148118380D02*
X167100285Y-148166000D01*
X167100285Y-148166000D02*
X167005047Y-148213619D01*
X167005047Y-148213619D02*
X166814571Y-148213619D01*
X166814571Y-148213619D02*
X166719333Y-148166000D01*
X166719333Y-148166000D02*
X166671714Y-148118380D01*
X166671714Y-148118380D02*
X166624095Y-148023142D01*
X166624095Y-148023142D02*
X166624095Y-147785047D01*
X166624095Y-147785047D02*
X166671714Y-147689809D01*
X166671714Y-147689809D02*
X166719333Y-147642190D01*
X166719333Y-147642190D02*
X166814571Y-147594571D01*
X166814571Y-147594571D02*
X167005047Y-147594571D01*
X167005047Y-147594571D02*
X167100285Y-147642190D01*
X167100285Y-147642190D02*
X167147904Y-147689809D01*
X167147904Y-147689809D02*
X167195523Y-147785047D01*
X166290761Y-147213619D02*
X165671714Y-147213619D01*
X165671714Y-147213619D02*
X166005047Y-147594571D01*
X166005047Y-147594571D02*
X165862190Y-147594571D01*
X165862190Y-147594571D02*
X165766952Y-147642190D01*
X165766952Y-147642190D02*
X165719333Y-147689809D01*
X165719333Y-147689809D02*
X165671714Y-147785047D01*
X165671714Y-147785047D02*
X165671714Y-148023142D01*
X165671714Y-148023142D02*
X165719333Y-148118380D01*
X165719333Y-148118380D02*
X165766952Y-148166000D01*
X165766952Y-148166000D02*
X165862190Y-148213619D01*
X165862190Y-148213619D02*
X166147904Y-148213619D01*
X166147904Y-148213619D02*
X166243142Y-148166000D01*
X166243142Y-148166000D02*
X166290761Y-148118380D01*
X164528857Y-147166000D02*
X165385999Y-148451714D01*
X164195523Y-148213619D02*
X164195523Y-147213619D01*
X164195523Y-147689809D02*
X163624095Y-147689809D01*
X163624095Y-148213619D02*
X163624095Y-147213619D01*
X163386000Y-148308857D02*
X162624095Y-148308857D01*
X162385999Y-147213619D02*
X162385999Y-148023142D01*
X162385999Y-148023142D02*
X162338380Y-148118380D01*
X162338380Y-148118380D02*
X162290761Y-148166000D01*
X162290761Y-148166000D02*
X162195523Y-148213619D01*
X162195523Y-148213619D02*
X162005047Y-148213619D01*
X162005047Y-148213619D02*
X161909809Y-148166000D01*
X161909809Y-148166000D02*
X161862190Y-148118380D01*
X161862190Y-148118380D02*
X161814571Y-148023142D01*
X161814571Y-148023142D02*
X161814571Y-147213619D01*
X181419523Y-126988857D02*
X181371904Y-126941238D01*
X181371904Y-126941238D02*
X181276666Y-126893619D01*
X181276666Y-126893619D02*
X181038571Y-126893619D01*
X181038571Y-126893619D02*
X180943333Y-126941238D01*
X180943333Y-126941238D02*
X180895714Y-126988857D01*
X180895714Y-126988857D02*
X180848095Y-127084095D01*
X180848095Y-127084095D02*
X180848095Y-127179333D01*
X180848095Y-127179333D02*
X180895714Y-127322190D01*
X180895714Y-127322190D02*
X181467142Y-127893619D01*
X181467142Y-127893619D02*
X180848095Y-127893619D01*
X180371904Y-127893619D02*
X180181428Y-127893619D01*
X180181428Y-127893619D02*
X180086190Y-127846000D01*
X180086190Y-127846000D02*
X180038571Y-127798380D01*
X180038571Y-127798380D02*
X179943333Y-127655523D01*
X179943333Y-127655523D02*
X179895714Y-127465047D01*
X179895714Y-127465047D02*
X179895714Y-127084095D01*
X179895714Y-127084095D02*
X179943333Y-126988857D01*
X179943333Y-126988857D02*
X179990952Y-126941238D01*
X179990952Y-126941238D02*
X180086190Y-126893619D01*
X180086190Y-126893619D02*
X180276666Y-126893619D01*
X180276666Y-126893619D02*
X180371904Y-126941238D01*
X180371904Y-126941238D02*
X180419523Y-126988857D01*
X180419523Y-126988857D02*
X180467142Y-127084095D01*
X180467142Y-127084095D02*
X180467142Y-127322190D01*
X180467142Y-127322190D02*
X180419523Y-127417428D01*
X180419523Y-127417428D02*
X180371904Y-127465047D01*
X180371904Y-127465047D02*
X180276666Y-127512666D01*
X180276666Y-127512666D02*
X180086190Y-127512666D01*
X180086190Y-127512666D02*
X179990952Y-127465047D01*
X179990952Y-127465047D02*
X179943333Y-127417428D01*
X179943333Y-127417428D02*
X179895714Y-127322190D01*
X181467142Y-119273619D02*
X180848095Y-119273619D01*
X180848095Y-119273619D02*
X181181428Y-119654571D01*
X181181428Y-119654571D02*
X181038571Y-119654571D01*
X181038571Y-119654571D02*
X180943333Y-119702190D01*
X180943333Y-119702190D02*
X180895714Y-119749809D01*
X180895714Y-119749809D02*
X180848095Y-119845047D01*
X180848095Y-119845047D02*
X180848095Y-120083142D01*
X180848095Y-120083142D02*
X180895714Y-120178380D01*
X180895714Y-120178380D02*
X180943333Y-120226000D01*
X180943333Y-120226000D02*
X181038571Y-120273619D01*
X181038571Y-120273619D02*
X181324285Y-120273619D01*
X181324285Y-120273619D02*
X181419523Y-120226000D01*
X181419523Y-120226000D02*
X181467142Y-120178380D01*
X179990952Y-119606952D02*
X179990952Y-120273619D01*
X180229047Y-119226000D02*
X180467142Y-119940285D01*
X180467142Y-119940285D02*
X179848095Y-119940285D01*
X166211333Y-99159952D02*
X166211333Y-99826619D01*
X166449428Y-98779000D02*
X166687523Y-99493285D01*
X166687523Y-99493285D02*
X166068476Y-99493285D01*
X165639904Y-99826619D02*
X165449428Y-99826619D01*
X165449428Y-99826619D02*
X165354190Y-99779000D01*
X165354190Y-99779000D02*
X165306571Y-99731380D01*
X165306571Y-99731380D02*
X165211333Y-99588523D01*
X165211333Y-99588523D02*
X165163714Y-99398047D01*
X165163714Y-99398047D02*
X165163714Y-99017095D01*
X165163714Y-99017095D02*
X165211333Y-98921857D01*
X165211333Y-98921857D02*
X165258952Y-98874238D01*
X165258952Y-98874238D02*
X165354190Y-98826619D01*
X165354190Y-98826619D02*
X165544666Y-98826619D01*
X165544666Y-98826619D02*
X165639904Y-98874238D01*
X165639904Y-98874238D02*
X165687523Y-98921857D01*
X165687523Y-98921857D02*
X165735142Y-99017095D01*
X165735142Y-99017095D02*
X165735142Y-99255190D01*
X165735142Y-99255190D02*
X165687523Y-99350428D01*
X165687523Y-99350428D02*
X165639904Y-99398047D01*
X165639904Y-99398047D02*
X165544666Y-99445666D01*
X165544666Y-99445666D02*
X165354190Y-99445666D01*
X165354190Y-99445666D02*
X165258952Y-99398047D01*
X165258952Y-99398047D02*
X165211333Y-99350428D01*
X165211333Y-99350428D02*
X165163714Y-99255190D01*
X164020857Y-98779000D02*
X164877999Y-100064714D01*
X163687523Y-99826619D02*
X163687523Y-98826619D01*
X163687523Y-98826619D02*
X163449428Y-98826619D01*
X163449428Y-98826619D02*
X163306571Y-98874238D01*
X163306571Y-98874238D02*
X163211333Y-98969476D01*
X163211333Y-98969476D02*
X163163714Y-99064714D01*
X163163714Y-99064714D02*
X163116095Y-99255190D01*
X163116095Y-99255190D02*
X163116095Y-99398047D01*
X163116095Y-99398047D02*
X163163714Y-99588523D01*
X163163714Y-99588523D02*
X163211333Y-99683761D01*
X163211333Y-99683761D02*
X163306571Y-99779000D01*
X163306571Y-99779000D02*
X163449428Y-99826619D01*
X163449428Y-99826619D02*
X163687523Y-99826619D01*
X162687523Y-99826619D02*
X162687523Y-99159952D01*
X162687523Y-98826619D02*
X162735142Y-98874238D01*
X162735142Y-98874238D02*
X162687523Y-98921857D01*
X162687523Y-98921857D02*
X162639904Y-98874238D01*
X162639904Y-98874238D02*
X162687523Y-98826619D01*
X162687523Y-98826619D02*
X162687523Y-98921857D01*
X162211333Y-99159952D02*
X162211333Y-99826619D01*
X162211333Y-99255190D02*
X162163714Y-99207571D01*
X162163714Y-99207571D02*
X162068476Y-99159952D01*
X162068476Y-99159952D02*
X161925619Y-99159952D01*
X161925619Y-99159952D02*
X161830381Y-99207571D01*
X161830381Y-99207571D02*
X161782762Y-99302809D01*
X161782762Y-99302809D02*
X161782762Y-99826619D01*
X181419523Y-132068857D02*
X181371904Y-132021238D01*
X181371904Y-132021238D02*
X181276666Y-131973619D01*
X181276666Y-131973619D02*
X181038571Y-131973619D01*
X181038571Y-131973619D02*
X180943333Y-132021238D01*
X180943333Y-132021238D02*
X180895714Y-132068857D01*
X180895714Y-132068857D02*
X180848095Y-132164095D01*
X180848095Y-132164095D02*
X180848095Y-132259333D01*
X180848095Y-132259333D02*
X180895714Y-132402190D01*
X180895714Y-132402190D02*
X181467142Y-132973619D01*
X181467142Y-132973619D02*
X180848095Y-132973619D01*
X180514761Y-131973619D02*
X179848095Y-131973619D01*
X179848095Y-131973619D02*
X180276666Y-132973619D01*
X181419523Y-129528857D02*
X181371904Y-129481238D01*
X181371904Y-129481238D02*
X181276666Y-129433619D01*
X181276666Y-129433619D02*
X181038571Y-129433619D01*
X181038571Y-129433619D02*
X180943333Y-129481238D01*
X180943333Y-129481238D02*
X180895714Y-129528857D01*
X180895714Y-129528857D02*
X180848095Y-129624095D01*
X180848095Y-129624095D02*
X180848095Y-129719333D01*
X180848095Y-129719333D02*
X180895714Y-129862190D01*
X180895714Y-129862190D02*
X181467142Y-130433619D01*
X181467142Y-130433619D02*
X180848095Y-130433619D01*
X180276666Y-129862190D02*
X180371904Y-129814571D01*
X180371904Y-129814571D02*
X180419523Y-129766952D01*
X180419523Y-129766952D02*
X180467142Y-129671714D01*
X180467142Y-129671714D02*
X180467142Y-129624095D01*
X180467142Y-129624095D02*
X180419523Y-129528857D01*
X180419523Y-129528857D02*
X180371904Y-129481238D01*
X180371904Y-129481238D02*
X180276666Y-129433619D01*
X180276666Y-129433619D02*
X180086190Y-129433619D01*
X180086190Y-129433619D02*
X179990952Y-129481238D01*
X179990952Y-129481238D02*
X179943333Y-129528857D01*
X179943333Y-129528857D02*
X179895714Y-129624095D01*
X179895714Y-129624095D02*
X179895714Y-129671714D01*
X179895714Y-129671714D02*
X179943333Y-129766952D01*
X179943333Y-129766952D02*
X179990952Y-129814571D01*
X179990952Y-129814571D02*
X180086190Y-129862190D01*
X180086190Y-129862190D02*
X180276666Y-129862190D01*
X180276666Y-129862190D02*
X180371904Y-129909809D01*
X180371904Y-129909809D02*
X180419523Y-129957428D01*
X180419523Y-129957428D02*
X180467142Y-130052666D01*
X180467142Y-130052666D02*
X180467142Y-130243142D01*
X180467142Y-130243142D02*
X180419523Y-130338380D01*
X180419523Y-130338380D02*
X180371904Y-130386000D01*
X180371904Y-130386000D02*
X180276666Y-130433619D01*
X180276666Y-130433619D02*
X180086190Y-130433619D01*
X180086190Y-130433619D02*
X179990952Y-130386000D01*
X179990952Y-130386000D02*
X179943333Y-130338380D01*
X179943333Y-130338380D02*
X179895714Y-130243142D01*
X179895714Y-130243142D02*
X179895714Y-130052666D01*
X179895714Y-130052666D02*
X179943333Y-129957428D01*
X179943333Y-129957428D02*
X179990952Y-129909809D01*
X179990952Y-129909809D02*
X180086190Y-129862190D01*
X166989142Y-93873619D02*
X166370095Y-93873619D01*
X166370095Y-93873619D02*
X166703428Y-94254571D01*
X166703428Y-94254571D02*
X166560571Y-94254571D01*
X166560571Y-94254571D02*
X166465333Y-94302190D01*
X166465333Y-94302190D02*
X166417714Y-94349809D01*
X166417714Y-94349809D02*
X166370095Y-94445047D01*
X166370095Y-94445047D02*
X166370095Y-94683142D01*
X166370095Y-94683142D02*
X166417714Y-94778380D01*
X166417714Y-94778380D02*
X166465333Y-94826000D01*
X166465333Y-94826000D02*
X166560571Y-94873619D01*
X166560571Y-94873619D02*
X166846285Y-94873619D01*
X166846285Y-94873619D02*
X166941523Y-94826000D01*
X166941523Y-94826000D02*
X166989142Y-94778380D01*
X165989142Y-93968857D02*
X165941523Y-93921238D01*
X165941523Y-93921238D02*
X165846285Y-93873619D01*
X165846285Y-93873619D02*
X165608190Y-93873619D01*
X165608190Y-93873619D02*
X165512952Y-93921238D01*
X165512952Y-93921238D02*
X165465333Y-93968857D01*
X165465333Y-93968857D02*
X165417714Y-94064095D01*
X165417714Y-94064095D02*
X165417714Y-94159333D01*
X165417714Y-94159333D02*
X165465333Y-94302190D01*
X165465333Y-94302190D02*
X166036761Y-94873619D01*
X166036761Y-94873619D02*
X165417714Y-94873619D01*
X164274857Y-93826000D02*
X165131999Y-95111714D01*
X163370095Y-94778380D02*
X163417714Y-94826000D01*
X163417714Y-94826000D02*
X163560571Y-94873619D01*
X163560571Y-94873619D02*
X163655809Y-94873619D01*
X163655809Y-94873619D02*
X163798666Y-94826000D01*
X163798666Y-94826000D02*
X163893904Y-94730761D01*
X163893904Y-94730761D02*
X163941523Y-94635523D01*
X163941523Y-94635523D02*
X163989142Y-94445047D01*
X163989142Y-94445047D02*
X163989142Y-94302190D01*
X163989142Y-94302190D02*
X163941523Y-94111714D01*
X163941523Y-94111714D02*
X163893904Y-94016476D01*
X163893904Y-94016476D02*
X163798666Y-93921238D01*
X163798666Y-93921238D02*
X163655809Y-93873619D01*
X163655809Y-93873619D02*
X163560571Y-93873619D01*
X163560571Y-93873619D02*
X163417714Y-93921238D01*
X163417714Y-93921238D02*
X163370095Y-93968857D01*
X162465333Y-94873619D02*
X162941523Y-94873619D01*
X162941523Y-94873619D02*
X162941523Y-93873619D01*
X162131999Y-94873619D02*
X162131999Y-93873619D01*
X161560571Y-94873619D02*
X161989142Y-94302190D01*
X161560571Y-93873619D02*
X162131999Y-94445047D01*
X162607714Y-104033619D02*
X163083904Y-104033619D01*
X163083904Y-104033619D02*
X163131523Y-104509809D01*
X163131523Y-104509809D02*
X163083904Y-104462190D01*
X163083904Y-104462190D02*
X162988666Y-104414571D01*
X162988666Y-104414571D02*
X162750571Y-104414571D01*
X162750571Y-104414571D02*
X162655333Y-104462190D01*
X162655333Y-104462190D02*
X162607714Y-104509809D01*
X162607714Y-104509809D02*
X162560095Y-104605047D01*
X162560095Y-104605047D02*
X162560095Y-104843142D01*
X162560095Y-104843142D02*
X162607714Y-104938380D01*
X162607714Y-104938380D02*
X162655333Y-104986000D01*
X162655333Y-104986000D02*
X162750571Y-105033619D01*
X162750571Y-105033619D02*
X162988666Y-105033619D01*
X162988666Y-105033619D02*
X163083904Y-104986000D01*
X163083904Y-104986000D02*
X163131523Y-104938380D01*
X162274380Y-104033619D02*
X161941047Y-105033619D01*
X161941047Y-105033619D02*
X161607714Y-104033619D01*
X163179142Y-116733619D02*
X162512476Y-116733619D01*
X162512476Y-116733619D02*
X162941047Y-117733619D01*
X161702952Y-117066952D02*
X161702952Y-117733619D01*
X161941047Y-116686000D02*
X162179142Y-117400285D01*
X162179142Y-117400285D02*
X161560095Y-117400285D01*
X163179142Y-111653619D02*
X162512476Y-111653619D01*
X162512476Y-111653619D02*
X162941047Y-112653619D01*
X162179142Y-111748857D02*
X162131523Y-111701238D01*
X162131523Y-111701238D02*
X162036285Y-111653619D01*
X162036285Y-111653619D02*
X161798190Y-111653619D01*
X161798190Y-111653619D02*
X161702952Y-111701238D01*
X161702952Y-111701238D02*
X161655333Y-111748857D01*
X161655333Y-111748857D02*
X161607714Y-111844095D01*
X161607714Y-111844095D02*
X161607714Y-111939333D01*
X161607714Y-111939333D02*
X161655333Y-112082190D01*
X161655333Y-112082190D02*
X162226761Y-112653619D01*
X162226761Y-112653619D02*
X161607714Y-112653619D01*
X180895714Y-104160619D02*
X181371904Y-104160619D01*
X181371904Y-104160619D02*
X181419523Y-104636809D01*
X181419523Y-104636809D02*
X181371904Y-104589190D01*
X181371904Y-104589190D02*
X181276666Y-104541571D01*
X181276666Y-104541571D02*
X181038571Y-104541571D01*
X181038571Y-104541571D02*
X180943333Y-104589190D01*
X180943333Y-104589190D02*
X180895714Y-104636809D01*
X180895714Y-104636809D02*
X180848095Y-104732047D01*
X180848095Y-104732047D02*
X180848095Y-104970142D01*
X180848095Y-104970142D02*
X180895714Y-105065380D01*
X180895714Y-105065380D02*
X180943333Y-105113000D01*
X180943333Y-105113000D02*
X181038571Y-105160619D01*
X181038571Y-105160619D02*
X181276666Y-105160619D01*
X181276666Y-105160619D02*
X181371904Y-105113000D01*
X181371904Y-105113000D02*
X181419523Y-105065380D01*
X180514761Y-104160619D02*
X179895714Y-104160619D01*
X179895714Y-104160619D02*
X180229047Y-104541571D01*
X180229047Y-104541571D02*
X180086190Y-104541571D01*
X180086190Y-104541571D02*
X179990952Y-104589190D01*
X179990952Y-104589190D02*
X179943333Y-104636809D01*
X179943333Y-104636809D02*
X179895714Y-104732047D01*
X179895714Y-104732047D02*
X179895714Y-104970142D01*
X179895714Y-104970142D02*
X179943333Y-105065380D01*
X179943333Y-105065380D02*
X179990952Y-105113000D01*
X179990952Y-105113000D02*
X180086190Y-105160619D01*
X180086190Y-105160619D02*
X180371904Y-105160619D01*
X180371904Y-105160619D02*
X180467142Y-105113000D01*
X180467142Y-105113000D02*
X180514761Y-105065380D01*
X163179142Y-109240619D02*
X162512476Y-109240619D01*
X162512476Y-109240619D02*
X162941047Y-110240619D01*
X161607714Y-110240619D02*
X162179142Y-110240619D01*
X161893428Y-110240619D02*
X161893428Y-109240619D01*
X161893428Y-109240619D02*
X161988666Y-109383476D01*
X161988666Y-109383476D02*
X162083904Y-109478714D01*
X162083904Y-109478714D02*
X162179142Y-109526333D01*
X181467142Y-147213619D02*
X180848095Y-147213619D01*
X180848095Y-147213619D02*
X181181428Y-147594571D01*
X181181428Y-147594571D02*
X181038571Y-147594571D01*
X181038571Y-147594571D02*
X180943333Y-147642190D01*
X180943333Y-147642190D02*
X180895714Y-147689809D01*
X180895714Y-147689809D02*
X180848095Y-147785047D01*
X180848095Y-147785047D02*
X180848095Y-148023142D01*
X180848095Y-148023142D02*
X180895714Y-148118380D01*
X180895714Y-148118380D02*
X180943333Y-148166000D01*
X180943333Y-148166000D02*
X181038571Y-148213619D01*
X181038571Y-148213619D02*
X181324285Y-148213619D01*
X181324285Y-148213619D02*
X181419523Y-148166000D01*
X181419523Y-148166000D02*
X181467142Y-148118380D01*
X180276666Y-147642190D02*
X180371904Y-147594571D01*
X180371904Y-147594571D02*
X180419523Y-147546952D01*
X180419523Y-147546952D02*
X180467142Y-147451714D01*
X180467142Y-147451714D02*
X180467142Y-147404095D01*
X180467142Y-147404095D02*
X180419523Y-147308857D01*
X180419523Y-147308857D02*
X180371904Y-147261238D01*
X180371904Y-147261238D02*
X180276666Y-147213619D01*
X180276666Y-147213619D02*
X180086190Y-147213619D01*
X180086190Y-147213619D02*
X179990952Y-147261238D01*
X179990952Y-147261238D02*
X179943333Y-147308857D01*
X179943333Y-147308857D02*
X179895714Y-147404095D01*
X179895714Y-147404095D02*
X179895714Y-147451714D01*
X179895714Y-147451714D02*
X179943333Y-147546952D01*
X179943333Y-147546952D02*
X179990952Y-147594571D01*
X179990952Y-147594571D02*
X180086190Y-147642190D01*
X180086190Y-147642190D02*
X180276666Y-147642190D01*
X180276666Y-147642190D02*
X180371904Y-147689809D01*
X180371904Y-147689809D02*
X180419523Y-147737428D01*
X180419523Y-147737428D02*
X180467142Y-147832666D01*
X180467142Y-147832666D02*
X180467142Y-148023142D01*
X180467142Y-148023142D02*
X180419523Y-148118380D01*
X180419523Y-148118380D02*
X180371904Y-148166000D01*
X180371904Y-148166000D02*
X180276666Y-148213619D01*
X180276666Y-148213619D02*
X180086190Y-148213619D01*
X180086190Y-148213619D02*
X179990952Y-148166000D01*
X179990952Y-148166000D02*
X179943333Y-148118380D01*
X179943333Y-148118380D02*
X179895714Y-148023142D01*
X179895714Y-148023142D02*
X179895714Y-147832666D01*
X179895714Y-147832666D02*
X179943333Y-147737428D01*
X179943333Y-147737428D02*
X179990952Y-147689809D01*
X179990952Y-147689809D02*
X180086190Y-147642190D01*
X180895714Y-106573619D02*
X181371904Y-106573619D01*
X181371904Y-106573619D02*
X181419523Y-107049809D01*
X181419523Y-107049809D02*
X181371904Y-107002190D01*
X181371904Y-107002190D02*
X181276666Y-106954571D01*
X181276666Y-106954571D02*
X181038571Y-106954571D01*
X181038571Y-106954571D02*
X180943333Y-107002190D01*
X180943333Y-107002190D02*
X180895714Y-107049809D01*
X180895714Y-107049809D02*
X180848095Y-107145047D01*
X180848095Y-107145047D02*
X180848095Y-107383142D01*
X180848095Y-107383142D02*
X180895714Y-107478380D01*
X180895714Y-107478380D02*
X180943333Y-107526000D01*
X180943333Y-107526000D02*
X181038571Y-107573619D01*
X181038571Y-107573619D02*
X181276666Y-107573619D01*
X181276666Y-107573619D02*
X181371904Y-107526000D01*
X181371904Y-107526000D02*
X181419523Y-107478380D01*
X179895714Y-107573619D02*
X180467142Y-107573619D01*
X180181428Y-107573619D02*
X180181428Y-106573619D01*
X180181428Y-106573619D02*
X180276666Y-106716476D01*
X180276666Y-106716476D02*
X180371904Y-106811714D01*
X180371904Y-106811714D02*
X180467142Y-106859333D01*
X181467142Y-144673619D02*
X180848095Y-144673619D01*
X180848095Y-144673619D02*
X181181428Y-145054571D01*
X181181428Y-145054571D02*
X181038571Y-145054571D01*
X181038571Y-145054571D02*
X180943333Y-145102190D01*
X180943333Y-145102190D02*
X180895714Y-145149809D01*
X180895714Y-145149809D02*
X180848095Y-145245047D01*
X180848095Y-145245047D02*
X180848095Y-145483142D01*
X180848095Y-145483142D02*
X180895714Y-145578380D01*
X180895714Y-145578380D02*
X180943333Y-145626000D01*
X180943333Y-145626000D02*
X181038571Y-145673619D01*
X181038571Y-145673619D02*
X181324285Y-145673619D01*
X181324285Y-145673619D02*
X181419523Y-145626000D01*
X181419523Y-145626000D02*
X181467142Y-145578380D01*
X180514761Y-144673619D02*
X179848095Y-144673619D01*
X179848095Y-144673619D02*
X180276666Y-145673619D01*
X167751142Y-96413619D02*
X167132095Y-96413619D01*
X167132095Y-96413619D02*
X167465428Y-96794571D01*
X167465428Y-96794571D02*
X167322571Y-96794571D01*
X167322571Y-96794571D02*
X167227333Y-96842190D01*
X167227333Y-96842190D02*
X167179714Y-96889809D01*
X167179714Y-96889809D02*
X167132095Y-96985047D01*
X167132095Y-96985047D02*
X167132095Y-97223142D01*
X167132095Y-97223142D02*
X167179714Y-97318380D01*
X167179714Y-97318380D02*
X167227333Y-97366000D01*
X167227333Y-97366000D02*
X167322571Y-97413619D01*
X167322571Y-97413619D02*
X167608285Y-97413619D01*
X167608285Y-97413619D02*
X167703523Y-97366000D01*
X167703523Y-97366000D02*
X167751142Y-97318380D01*
X166179714Y-97413619D02*
X166751142Y-97413619D01*
X166465428Y-97413619D02*
X166465428Y-96413619D01*
X166465428Y-96413619D02*
X166560666Y-96556476D01*
X166560666Y-96556476D02*
X166655904Y-96651714D01*
X166655904Y-96651714D02*
X166751142Y-96699333D01*
X165036857Y-96366000D02*
X165893999Y-97651714D01*
X164703523Y-97413619D02*
X164703523Y-96413619D01*
X164703523Y-96413619D02*
X164465428Y-96413619D01*
X164465428Y-96413619D02*
X164322571Y-96461238D01*
X164322571Y-96461238D02*
X164227333Y-96556476D01*
X164227333Y-96556476D02*
X164179714Y-96651714D01*
X164179714Y-96651714D02*
X164132095Y-96842190D01*
X164132095Y-96842190D02*
X164132095Y-96985047D01*
X164132095Y-96985047D02*
X164179714Y-97175523D01*
X164179714Y-97175523D02*
X164227333Y-97270761D01*
X164227333Y-97270761D02*
X164322571Y-97366000D01*
X164322571Y-97366000D02*
X164465428Y-97413619D01*
X164465428Y-97413619D02*
X164703523Y-97413619D01*
X163560666Y-97413619D02*
X163655904Y-97366000D01*
X163655904Y-97366000D02*
X163703523Y-97318380D01*
X163703523Y-97318380D02*
X163751142Y-97223142D01*
X163751142Y-97223142D02*
X163751142Y-96937428D01*
X163751142Y-96937428D02*
X163703523Y-96842190D01*
X163703523Y-96842190D02*
X163655904Y-96794571D01*
X163655904Y-96794571D02*
X163560666Y-96746952D01*
X163560666Y-96746952D02*
X163417809Y-96746952D01*
X163417809Y-96746952D02*
X163322571Y-96794571D01*
X163322571Y-96794571D02*
X163274952Y-96842190D01*
X163274952Y-96842190D02*
X163227333Y-96937428D01*
X163227333Y-96937428D02*
X163227333Y-97223142D01*
X163227333Y-97223142D02*
X163274952Y-97318380D01*
X163274952Y-97318380D02*
X163322571Y-97366000D01*
X163322571Y-97366000D02*
X163417809Y-97413619D01*
X163417809Y-97413619D02*
X163560666Y-97413619D01*
X162370190Y-96746952D02*
X162370190Y-97413619D01*
X162798761Y-96746952D02*
X162798761Y-97270761D01*
X162798761Y-97270761D02*
X162751142Y-97366000D01*
X162751142Y-97366000D02*
X162655904Y-97413619D01*
X162655904Y-97413619D02*
X162513047Y-97413619D01*
X162513047Y-97413619D02*
X162417809Y-97366000D01*
X162417809Y-97366000D02*
X162370190Y-97318380D01*
X162036856Y-96746952D02*
X161655904Y-96746952D01*
X161893999Y-96413619D02*
X161893999Y-97270761D01*
X161893999Y-97270761D02*
X161846380Y-97366000D01*
X161846380Y-97366000D02*
X161751142Y-97413619D01*
X161751142Y-97413619D02*
X161655904Y-97413619D01*
X180895714Y-93873619D02*
X181371904Y-93873619D01*
X181371904Y-93873619D02*
X181419523Y-94349809D01*
X181419523Y-94349809D02*
X181371904Y-94302190D01*
X181371904Y-94302190D02*
X181276666Y-94254571D01*
X181276666Y-94254571D02*
X181038571Y-94254571D01*
X181038571Y-94254571D02*
X180943333Y-94302190D01*
X180943333Y-94302190D02*
X180895714Y-94349809D01*
X180895714Y-94349809D02*
X180848095Y-94445047D01*
X180848095Y-94445047D02*
X180848095Y-94683142D01*
X180848095Y-94683142D02*
X180895714Y-94778380D01*
X180895714Y-94778380D02*
X180943333Y-94826000D01*
X180943333Y-94826000D02*
X181038571Y-94873619D01*
X181038571Y-94873619D02*
X181276666Y-94873619D01*
X181276666Y-94873619D02*
X181371904Y-94826000D01*
X181371904Y-94826000D02*
X181419523Y-94778380D01*
X180514761Y-93873619D02*
X179848095Y-93873619D01*
X179848095Y-93873619D02*
X180276666Y-94873619D01*
X180895714Y-99080619D02*
X181371904Y-99080619D01*
X181371904Y-99080619D02*
X181419523Y-99556809D01*
X181419523Y-99556809D02*
X181371904Y-99509190D01*
X181371904Y-99509190D02*
X181276666Y-99461571D01*
X181276666Y-99461571D02*
X181038571Y-99461571D01*
X181038571Y-99461571D02*
X180943333Y-99509190D01*
X180943333Y-99509190D02*
X180895714Y-99556809D01*
X180895714Y-99556809D02*
X180848095Y-99652047D01*
X180848095Y-99652047D02*
X180848095Y-99890142D01*
X180848095Y-99890142D02*
X180895714Y-99985380D01*
X180895714Y-99985380D02*
X180943333Y-100033000D01*
X180943333Y-100033000D02*
X181038571Y-100080619D01*
X181038571Y-100080619D02*
X181276666Y-100080619D01*
X181276666Y-100080619D02*
X181371904Y-100033000D01*
X181371904Y-100033000D02*
X181419523Y-99985380D01*
X179943333Y-99080619D02*
X180419523Y-99080619D01*
X180419523Y-99080619D02*
X180467142Y-99556809D01*
X180467142Y-99556809D02*
X180419523Y-99509190D01*
X180419523Y-99509190D02*
X180324285Y-99461571D01*
X180324285Y-99461571D02*
X180086190Y-99461571D01*
X180086190Y-99461571D02*
X179990952Y-99509190D01*
X179990952Y-99509190D02*
X179943333Y-99556809D01*
X179943333Y-99556809D02*
X179895714Y-99652047D01*
X179895714Y-99652047D02*
X179895714Y-99890142D01*
X179895714Y-99890142D02*
X179943333Y-99985380D01*
X179943333Y-99985380D02*
X179990952Y-100033000D01*
X179990952Y-100033000D02*
X180086190Y-100080619D01*
X180086190Y-100080619D02*
X180324285Y-100080619D01*
X180324285Y-100080619D02*
X180419523Y-100033000D01*
X180419523Y-100033000D02*
X180467142Y-99985380D01*
X180943333Y-109446952D02*
X180943333Y-110113619D01*
X181181428Y-109066000D02*
X181419523Y-109780285D01*
X181419523Y-109780285D02*
X180800476Y-109780285D01*
X180467142Y-109208857D02*
X180419523Y-109161238D01*
X180419523Y-109161238D02*
X180324285Y-109113619D01*
X180324285Y-109113619D02*
X180086190Y-109113619D01*
X180086190Y-109113619D02*
X179990952Y-109161238D01*
X179990952Y-109161238D02*
X179943333Y-109208857D01*
X179943333Y-109208857D02*
X179895714Y-109304095D01*
X179895714Y-109304095D02*
X179895714Y-109399333D01*
X179895714Y-109399333D02*
X179943333Y-109542190D01*
X179943333Y-109542190D02*
X180514761Y-110113619D01*
X180514761Y-110113619D02*
X179895714Y-110113619D01*
X178752857Y-109066000D02*
X179609999Y-110351714D01*
X178419523Y-110113619D02*
X178419523Y-109113619D01*
X178419523Y-109589809D02*
X177848095Y-109589809D01*
X177848095Y-110113619D02*
X177848095Y-109113619D01*
X177610000Y-110208857D02*
X176848095Y-110208857D01*
X176705237Y-109113619D02*
X176467142Y-110113619D01*
X176467142Y-110113619D02*
X176276666Y-109399333D01*
X176276666Y-109399333D02*
X176086190Y-110113619D01*
X176086190Y-110113619D02*
X175848095Y-109113619D01*
X181419523Y-134608857D02*
X181371904Y-134561238D01*
X181371904Y-134561238D02*
X181276666Y-134513619D01*
X181276666Y-134513619D02*
X181038571Y-134513619D01*
X181038571Y-134513619D02*
X180943333Y-134561238D01*
X180943333Y-134561238D02*
X180895714Y-134608857D01*
X180895714Y-134608857D02*
X180848095Y-134704095D01*
X180848095Y-134704095D02*
X180848095Y-134799333D01*
X180848095Y-134799333D02*
X180895714Y-134942190D01*
X180895714Y-134942190D02*
X181467142Y-135513619D01*
X181467142Y-135513619D02*
X180848095Y-135513619D01*
X179990952Y-134513619D02*
X180181428Y-134513619D01*
X180181428Y-134513619D02*
X180276666Y-134561238D01*
X180276666Y-134561238D02*
X180324285Y-134608857D01*
X180324285Y-134608857D02*
X180419523Y-134751714D01*
X180419523Y-134751714D02*
X180467142Y-134942190D01*
X180467142Y-134942190D02*
X180467142Y-135323142D01*
X180467142Y-135323142D02*
X180419523Y-135418380D01*
X180419523Y-135418380D02*
X180371904Y-135466000D01*
X180371904Y-135466000D02*
X180276666Y-135513619D01*
X180276666Y-135513619D02*
X180086190Y-135513619D01*
X180086190Y-135513619D02*
X179990952Y-135466000D01*
X179990952Y-135466000D02*
X179943333Y-135418380D01*
X179943333Y-135418380D02*
X179895714Y-135323142D01*
X179895714Y-135323142D02*
X179895714Y-135085047D01*
X179895714Y-135085047D02*
X179943333Y-134989809D01*
X179943333Y-134989809D02*
X179990952Y-134942190D01*
X179990952Y-134942190D02*
X180086190Y-134894571D01*
X180086190Y-134894571D02*
X180276666Y-134894571D01*
X180276666Y-134894571D02*
X180371904Y-134942190D01*
X180371904Y-134942190D02*
X180419523Y-134989809D01*
X180419523Y-134989809D02*
X180467142Y-135085047D01*
X163576095Y-91381238D02*
X163671333Y-91333619D01*
X163671333Y-91333619D02*
X163814190Y-91333619D01*
X163814190Y-91333619D02*
X163957047Y-91381238D01*
X163957047Y-91381238D02*
X164052285Y-91476476D01*
X164052285Y-91476476D02*
X164099904Y-91571714D01*
X164099904Y-91571714D02*
X164147523Y-91762190D01*
X164147523Y-91762190D02*
X164147523Y-91905047D01*
X164147523Y-91905047D02*
X164099904Y-92095523D01*
X164099904Y-92095523D02*
X164052285Y-92190761D01*
X164052285Y-92190761D02*
X163957047Y-92286000D01*
X163957047Y-92286000D02*
X163814190Y-92333619D01*
X163814190Y-92333619D02*
X163718952Y-92333619D01*
X163718952Y-92333619D02*
X163576095Y-92286000D01*
X163576095Y-92286000D02*
X163528476Y-92238380D01*
X163528476Y-92238380D02*
X163528476Y-91905047D01*
X163528476Y-91905047D02*
X163718952Y-91905047D01*
X163099904Y-92333619D02*
X163099904Y-91333619D01*
X163099904Y-91333619D02*
X162528476Y-92333619D01*
X162528476Y-92333619D02*
X162528476Y-91333619D01*
X162052285Y-92333619D02*
X162052285Y-91333619D01*
X162052285Y-91333619D02*
X161814190Y-91333619D01*
X161814190Y-91333619D02*
X161671333Y-91381238D01*
X161671333Y-91381238D02*
X161576095Y-91476476D01*
X161576095Y-91476476D02*
X161528476Y-91571714D01*
X161528476Y-91571714D02*
X161480857Y-91762190D01*
X161480857Y-91762190D02*
X161480857Y-91905047D01*
X161480857Y-91905047D02*
X161528476Y-92095523D01*
X161528476Y-92095523D02*
X161576095Y-92190761D01*
X161576095Y-92190761D02*
X161671333Y-92286000D01*
X161671333Y-92286000D02*
X161814190Y-92333619D01*
X161814190Y-92333619D02*
X162052285Y-92333619D01*
X181467142Y-124353619D02*
X180848095Y-124353619D01*
X180848095Y-124353619D02*
X181181428Y-124734571D01*
X181181428Y-124734571D02*
X181038571Y-124734571D01*
X181038571Y-124734571D02*
X180943333Y-124782190D01*
X180943333Y-124782190D02*
X180895714Y-124829809D01*
X180895714Y-124829809D02*
X180848095Y-124925047D01*
X180848095Y-124925047D02*
X180848095Y-125163142D01*
X180848095Y-125163142D02*
X180895714Y-125258380D01*
X180895714Y-125258380D02*
X180943333Y-125306000D01*
X180943333Y-125306000D02*
X181038571Y-125353619D01*
X181038571Y-125353619D02*
X181324285Y-125353619D01*
X181324285Y-125353619D02*
X181419523Y-125306000D01*
X181419523Y-125306000D02*
X181467142Y-125258380D01*
X180229047Y-124353619D02*
X180133809Y-124353619D01*
X180133809Y-124353619D02*
X180038571Y-124401238D01*
X180038571Y-124401238D02*
X179990952Y-124448857D01*
X179990952Y-124448857D02*
X179943333Y-124544095D01*
X179943333Y-124544095D02*
X179895714Y-124734571D01*
X179895714Y-124734571D02*
X179895714Y-124972666D01*
X179895714Y-124972666D02*
X179943333Y-125163142D01*
X179943333Y-125163142D02*
X179990952Y-125258380D01*
X179990952Y-125258380D02*
X180038571Y-125306000D01*
X180038571Y-125306000D02*
X180133809Y-125353619D01*
X180133809Y-125353619D02*
X180229047Y-125353619D01*
X180229047Y-125353619D02*
X180324285Y-125306000D01*
X180324285Y-125306000D02*
X180371904Y-125258380D01*
X180371904Y-125258380D02*
X180419523Y-125163142D01*
X180419523Y-125163142D02*
X180467142Y-124972666D01*
X180467142Y-124972666D02*
X180467142Y-124734571D01*
X180467142Y-124734571D02*
X180419523Y-124544095D01*
X180419523Y-124544095D02*
X180371904Y-124448857D01*
X180371904Y-124448857D02*
X180324285Y-124401238D01*
X180324285Y-124401238D02*
X180229047Y-124353619D01*
X180943333Y-117320952D02*
X180943333Y-117987619D01*
X181181428Y-116940000D02*
X181419523Y-117654285D01*
X181419523Y-117654285D02*
X180800476Y-117654285D01*
X180229047Y-116987619D02*
X180133809Y-116987619D01*
X180133809Y-116987619D02*
X180038571Y-117035238D01*
X180038571Y-117035238D02*
X179990952Y-117082857D01*
X179990952Y-117082857D02*
X179943333Y-117178095D01*
X179943333Y-117178095D02*
X179895714Y-117368571D01*
X179895714Y-117368571D02*
X179895714Y-117606666D01*
X179895714Y-117606666D02*
X179943333Y-117797142D01*
X179943333Y-117797142D02*
X179990952Y-117892380D01*
X179990952Y-117892380D02*
X180038571Y-117940000D01*
X180038571Y-117940000D02*
X180133809Y-117987619D01*
X180133809Y-117987619D02*
X180229047Y-117987619D01*
X180229047Y-117987619D02*
X180324285Y-117940000D01*
X180324285Y-117940000D02*
X180371904Y-117892380D01*
X180371904Y-117892380D02*
X180419523Y-117797142D01*
X180419523Y-117797142D02*
X180467142Y-117606666D01*
X180467142Y-117606666D02*
X180467142Y-117368571D01*
X180467142Y-117368571D02*
X180419523Y-117178095D01*
X180419523Y-117178095D02*
X180371904Y-117082857D01*
X180371904Y-117082857D02*
X180324285Y-117035238D01*
X180324285Y-117035238D02*
X180229047Y-116987619D01*
X180895714Y-101493619D02*
X181371904Y-101493619D01*
X181371904Y-101493619D02*
X181419523Y-101969809D01*
X181419523Y-101969809D02*
X181371904Y-101922190D01*
X181371904Y-101922190D02*
X181276666Y-101874571D01*
X181276666Y-101874571D02*
X181038571Y-101874571D01*
X181038571Y-101874571D02*
X180943333Y-101922190D01*
X180943333Y-101922190D02*
X180895714Y-101969809D01*
X180895714Y-101969809D02*
X180848095Y-102065047D01*
X180848095Y-102065047D02*
X180848095Y-102303142D01*
X180848095Y-102303142D02*
X180895714Y-102398380D01*
X180895714Y-102398380D02*
X180943333Y-102446000D01*
X180943333Y-102446000D02*
X181038571Y-102493619D01*
X181038571Y-102493619D02*
X181276666Y-102493619D01*
X181276666Y-102493619D02*
X181371904Y-102446000D01*
X181371904Y-102446000D02*
X181419523Y-102398380D01*
X179990952Y-101826952D02*
X179990952Y-102493619D01*
X180229047Y-101446000D02*
X180467142Y-102160285D01*
X180467142Y-102160285D02*
X179848095Y-102160285D01*
X180943333Y-88793619D02*
X181133809Y-88793619D01*
X181133809Y-88793619D02*
X181229047Y-88841238D01*
X181229047Y-88841238D02*
X181276666Y-88888857D01*
X181276666Y-88888857D02*
X181371904Y-89031714D01*
X181371904Y-89031714D02*
X181419523Y-89222190D01*
X181419523Y-89222190D02*
X181419523Y-89603142D01*
X181419523Y-89603142D02*
X181371904Y-89698380D01*
X181371904Y-89698380D02*
X181324285Y-89746000D01*
X181324285Y-89746000D02*
X181229047Y-89793619D01*
X181229047Y-89793619D02*
X181038571Y-89793619D01*
X181038571Y-89793619D02*
X180943333Y-89746000D01*
X180943333Y-89746000D02*
X180895714Y-89698380D01*
X180895714Y-89698380D02*
X180848095Y-89603142D01*
X180848095Y-89603142D02*
X180848095Y-89365047D01*
X180848095Y-89365047D02*
X180895714Y-89269809D01*
X180895714Y-89269809D02*
X180943333Y-89222190D01*
X180943333Y-89222190D02*
X181038571Y-89174571D01*
X181038571Y-89174571D02*
X181229047Y-89174571D01*
X181229047Y-89174571D02*
X181324285Y-89222190D01*
X181324285Y-89222190D02*
X181371904Y-89269809D01*
X181371904Y-89269809D02*
X181419523Y-89365047D01*
X180371904Y-89793619D02*
X180181428Y-89793619D01*
X180181428Y-89793619D02*
X180086190Y-89746000D01*
X180086190Y-89746000D02*
X180038571Y-89698380D01*
X180038571Y-89698380D02*
X179943333Y-89555523D01*
X179943333Y-89555523D02*
X179895714Y-89365047D01*
X179895714Y-89365047D02*
X179895714Y-88984095D01*
X179895714Y-88984095D02*
X179943333Y-88888857D01*
X179943333Y-88888857D02*
X179990952Y-88841238D01*
X179990952Y-88841238D02*
X180086190Y-88793619D01*
X180086190Y-88793619D02*
X180276666Y-88793619D01*
X180276666Y-88793619D02*
X180371904Y-88841238D01*
X180371904Y-88841238D02*
X180419523Y-88888857D01*
X180419523Y-88888857D02*
X180467142Y-88984095D01*
X180467142Y-88984095D02*
X180467142Y-89222190D01*
X180467142Y-89222190D02*
X180419523Y-89317428D01*
X180419523Y-89317428D02*
X180371904Y-89365047D01*
X180371904Y-89365047D02*
X180276666Y-89412666D01*
X180276666Y-89412666D02*
X180086190Y-89412666D01*
X180086190Y-89412666D02*
X179990952Y-89365047D01*
X179990952Y-89365047D02*
X179943333Y-89317428D01*
X179943333Y-89317428D02*
X179895714Y-89222190D01*
X178752857Y-88746000D02*
X179609999Y-90031714D01*
X178419523Y-89793619D02*
X178419523Y-88793619D01*
X178419523Y-88793619D02*
X178181428Y-88793619D01*
X178181428Y-88793619D02*
X178038571Y-88841238D01*
X178038571Y-88841238D02*
X177943333Y-88936476D01*
X177943333Y-88936476D02*
X177895714Y-89031714D01*
X177895714Y-89031714D02*
X177848095Y-89222190D01*
X177848095Y-89222190D02*
X177848095Y-89365047D01*
X177848095Y-89365047D02*
X177895714Y-89555523D01*
X177895714Y-89555523D02*
X177943333Y-89650761D01*
X177943333Y-89650761D02*
X178038571Y-89746000D01*
X178038571Y-89746000D02*
X178181428Y-89793619D01*
X178181428Y-89793619D02*
X178419523Y-89793619D01*
X177419523Y-89793619D02*
X177419523Y-88793619D01*
X176371905Y-89793619D02*
X176705238Y-89317428D01*
X176943333Y-89793619D02*
X176943333Y-88793619D01*
X176943333Y-88793619D02*
X176562381Y-88793619D01*
X176562381Y-88793619D02*
X176467143Y-88841238D01*
X176467143Y-88841238D02*
X176419524Y-88888857D01*
X176419524Y-88888857D02*
X176371905Y-88984095D01*
X176371905Y-88984095D02*
X176371905Y-89126952D01*
X176371905Y-89126952D02*
X176419524Y-89222190D01*
X176419524Y-89222190D02*
X176467143Y-89269809D01*
X176467143Y-89269809D02*
X176562381Y-89317428D01*
X176562381Y-89317428D02*
X176943333Y-89317428D01*
X175943333Y-89269809D02*
X175610000Y-89269809D01*
X175467143Y-89793619D02*
X175943333Y-89793619D01*
X175943333Y-89793619D02*
X175943333Y-88793619D01*
X175943333Y-88793619D02*
X175467143Y-88793619D01*
X174467143Y-89698380D02*
X174514762Y-89746000D01*
X174514762Y-89746000D02*
X174657619Y-89793619D01*
X174657619Y-89793619D02*
X174752857Y-89793619D01*
X174752857Y-89793619D02*
X174895714Y-89746000D01*
X174895714Y-89746000D02*
X174990952Y-89650761D01*
X174990952Y-89650761D02*
X175038571Y-89555523D01*
X175038571Y-89555523D02*
X175086190Y-89365047D01*
X175086190Y-89365047D02*
X175086190Y-89222190D01*
X175086190Y-89222190D02*
X175038571Y-89031714D01*
X175038571Y-89031714D02*
X174990952Y-88936476D01*
X174990952Y-88936476D02*
X174895714Y-88841238D01*
X174895714Y-88841238D02*
X174752857Y-88793619D01*
X174752857Y-88793619D02*
X174657619Y-88793619D01*
X174657619Y-88793619D02*
X174514762Y-88841238D01*
X174514762Y-88841238D02*
X174467143Y-88888857D01*
X174181428Y-88793619D02*
X173610000Y-88793619D01*
X173895714Y-89793619D02*
X173895714Y-88793619D01*
X173276666Y-89793619D02*
X173276666Y-88793619D01*
X172610000Y-88793619D02*
X172419524Y-88793619D01*
X172419524Y-88793619D02*
X172324286Y-88841238D01*
X172324286Y-88841238D02*
X172229048Y-88936476D01*
X172229048Y-88936476D02*
X172181429Y-89126952D01*
X172181429Y-89126952D02*
X172181429Y-89460285D01*
X172181429Y-89460285D02*
X172229048Y-89650761D01*
X172229048Y-89650761D02*
X172324286Y-89746000D01*
X172324286Y-89746000D02*
X172419524Y-89793619D01*
X172419524Y-89793619D02*
X172610000Y-89793619D01*
X172610000Y-89793619D02*
X172705238Y-89746000D01*
X172705238Y-89746000D02*
X172800476Y-89650761D01*
X172800476Y-89650761D02*
X172848095Y-89460285D01*
X172848095Y-89460285D02*
X172848095Y-89126952D01*
X172848095Y-89126952D02*
X172800476Y-88936476D01*
X172800476Y-88936476D02*
X172705238Y-88841238D01*
X172705238Y-88841238D02*
X172610000Y-88793619D01*
X171752857Y-89793619D02*
X171752857Y-88793619D01*
X171752857Y-88793619D02*
X171181429Y-89793619D01*
X171181429Y-89793619D02*
X171181429Y-88793619D01*
X181419523Y-137148857D02*
X181371904Y-137101238D01*
X181371904Y-137101238D02*
X181276666Y-137053619D01*
X181276666Y-137053619D02*
X181038571Y-137053619D01*
X181038571Y-137053619D02*
X180943333Y-137101238D01*
X180943333Y-137101238D02*
X180895714Y-137148857D01*
X180895714Y-137148857D02*
X180848095Y-137244095D01*
X180848095Y-137244095D02*
X180848095Y-137339333D01*
X180848095Y-137339333D02*
X180895714Y-137482190D01*
X180895714Y-137482190D02*
X181467142Y-138053619D01*
X181467142Y-138053619D02*
X180848095Y-138053619D01*
X179943333Y-137053619D02*
X180419523Y-137053619D01*
X180419523Y-137053619D02*
X180467142Y-137529809D01*
X180467142Y-137529809D02*
X180419523Y-137482190D01*
X180419523Y-137482190D02*
X180324285Y-137434571D01*
X180324285Y-137434571D02*
X180086190Y-137434571D01*
X180086190Y-137434571D02*
X179990952Y-137482190D01*
X179990952Y-137482190D02*
X179943333Y-137529809D01*
X179943333Y-137529809D02*
X179895714Y-137625047D01*
X179895714Y-137625047D02*
X179895714Y-137863142D01*
X179895714Y-137863142D02*
X179943333Y-137958380D01*
X179943333Y-137958380D02*
X179990952Y-138006000D01*
X179990952Y-138006000D02*
X180086190Y-138053619D01*
X180086190Y-138053619D02*
X180324285Y-138053619D01*
X180324285Y-138053619D02*
X180419523Y-138006000D01*
X180419523Y-138006000D02*
X180467142Y-137958380D01*
X180943333Y-91333619D02*
X181133809Y-91333619D01*
X181133809Y-91333619D02*
X181229047Y-91381238D01*
X181229047Y-91381238D02*
X181276666Y-91428857D01*
X181276666Y-91428857D02*
X181371904Y-91571714D01*
X181371904Y-91571714D02*
X181419523Y-91762190D01*
X181419523Y-91762190D02*
X181419523Y-92143142D01*
X181419523Y-92143142D02*
X181371904Y-92238380D01*
X181371904Y-92238380D02*
X181324285Y-92286000D01*
X181324285Y-92286000D02*
X181229047Y-92333619D01*
X181229047Y-92333619D02*
X181038571Y-92333619D01*
X181038571Y-92333619D02*
X180943333Y-92286000D01*
X180943333Y-92286000D02*
X180895714Y-92238380D01*
X180895714Y-92238380D02*
X180848095Y-92143142D01*
X180848095Y-92143142D02*
X180848095Y-91905047D01*
X180848095Y-91905047D02*
X180895714Y-91809809D01*
X180895714Y-91809809D02*
X180943333Y-91762190D01*
X180943333Y-91762190D02*
X181038571Y-91714571D01*
X181038571Y-91714571D02*
X181229047Y-91714571D01*
X181229047Y-91714571D02*
X181324285Y-91762190D01*
X181324285Y-91762190D02*
X181371904Y-91809809D01*
X181371904Y-91809809D02*
X181419523Y-91905047D01*
X180276666Y-91762190D02*
X180371904Y-91714571D01*
X180371904Y-91714571D02*
X180419523Y-91666952D01*
X180419523Y-91666952D02*
X180467142Y-91571714D01*
X180467142Y-91571714D02*
X180467142Y-91524095D01*
X180467142Y-91524095D02*
X180419523Y-91428857D01*
X180419523Y-91428857D02*
X180371904Y-91381238D01*
X180371904Y-91381238D02*
X180276666Y-91333619D01*
X180276666Y-91333619D02*
X180086190Y-91333619D01*
X180086190Y-91333619D02*
X179990952Y-91381238D01*
X179990952Y-91381238D02*
X179943333Y-91428857D01*
X179943333Y-91428857D02*
X179895714Y-91524095D01*
X179895714Y-91524095D02*
X179895714Y-91571714D01*
X179895714Y-91571714D02*
X179943333Y-91666952D01*
X179943333Y-91666952D02*
X179990952Y-91714571D01*
X179990952Y-91714571D02*
X180086190Y-91762190D01*
X180086190Y-91762190D02*
X180276666Y-91762190D01*
X180276666Y-91762190D02*
X180371904Y-91809809D01*
X180371904Y-91809809D02*
X180419523Y-91857428D01*
X180419523Y-91857428D02*
X180467142Y-91952666D01*
X180467142Y-91952666D02*
X180467142Y-92143142D01*
X180467142Y-92143142D02*
X180419523Y-92238380D01*
X180419523Y-92238380D02*
X180371904Y-92286000D01*
X180371904Y-92286000D02*
X180276666Y-92333619D01*
X180276666Y-92333619D02*
X180086190Y-92333619D01*
X180086190Y-92333619D02*
X179990952Y-92286000D01*
X179990952Y-92286000D02*
X179943333Y-92238380D01*
X179943333Y-92238380D02*
X179895714Y-92143142D01*
X179895714Y-92143142D02*
X179895714Y-91952666D01*
X179895714Y-91952666D02*
X179943333Y-91857428D01*
X179943333Y-91857428D02*
X179990952Y-91809809D01*
X179990952Y-91809809D02*
X180086190Y-91762190D01*
X178752857Y-91286000D02*
X179609999Y-92571714D01*
X178419523Y-92333619D02*
X178419523Y-91333619D01*
X178419523Y-91333619D02*
X178181428Y-91333619D01*
X178181428Y-91333619D02*
X178038571Y-91381238D01*
X178038571Y-91381238D02*
X177943333Y-91476476D01*
X177943333Y-91476476D02*
X177895714Y-91571714D01*
X177895714Y-91571714D02*
X177848095Y-91762190D01*
X177848095Y-91762190D02*
X177848095Y-91905047D01*
X177848095Y-91905047D02*
X177895714Y-92095523D01*
X177895714Y-92095523D02*
X177943333Y-92190761D01*
X177943333Y-92190761D02*
X178038571Y-92286000D01*
X178038571Y-92286000D02*
X178181428Y-92333619D01*
X178181428Y-92333619D02*
X178419523Y-92333619D01*
X177657619Y-92428857D02*
X176895714Y-92428857D01*
X176657618Y-92333619D02*
X176657618Y-91333619D01*
X176181428Y-92333619D02*
X176181428Y-91333619D01*
X176181428Y-91333619D02*
X175610000Y-92333619D01*
X175610000Y-92333619D02*
X175610000Y-91333619D01*
X163941142Y-88793619D02*
X163322095Y-88793619D01*
X163322095Y-88793619D02*
X163655428Y-89174571D01*
X163655428Y-89174571D02*
X163512571Y-89174571D01*
X163512571Y-89174571D02*
X163417333Y-89222190D01*
X163417333Y-89222190D02*
X163369714Y-89269809D01*
X163369714Y-89269809D02*
X163322095Y-89365047D01*
X163322095Y-89365047D02*
X163322095Y-89603142D01*
X163322095Y-89603142D02*
X163369714Y-89698380D01*
X163369714Y-89698380D02*
X163417333Y-89746000D01*
X163417333Y-89746000D02*
X163512571Y-89793619D01*
X163512571Y-89793619D02*
X163798285Y-89793619D01*
X163798285Y-89793619D02*
X163893523Y-89746000D01*
X163893523Y-89746000D02*
X163941142Y-89698380D01*
X163036380Y-88793619D02*
X162703047Y-89793619D01*
X162703047Y-89793619D02*
X162369714Y-88793619D01*
X162131618Y-88793619D02*
X161512571Y-88793619D01*
X161512571Y-88793619D02*
X161845904Y-89174571D01*
X161845904Y-89174571D02*
X161703047Y-89174571D01*
X161703047Y-89174571D02*
X161607809Y-89222190D01*
X161607809Y-89222190D02*
X161560190Y-89269809D01*
X161560190Y-89269809D02*
X161512571Y-89365047D01*
X161512571Y-89365047D02*
X161512571Y-89603142D01*
X161512571Y-89603142D02*
X161560190Y-89698380D01*
X161560190Y-89698380D02*
X161607809Y-89746000D01*
X161607809Y-89746000D02*
X161703047Y-89793619D01*
X161703047Y-89793619D02*
X161988761Y-89793619D01*
X161988761Y-89793619D02*
X162083999Y-89746000D01*
X162083999Y-89746000D02*
X162131618Y-89698380D01*
X181467142Y-114193619D02*
X180848095Y-114193619D01*
X180848095Y-114193619D02*
X181181428Y-114574571D01*
X181181428Y-114574571D02*
X181038571Y-114574571D01*
X181038571Y-114574571D02*
X180943333Y-114622190D01*
X180943333Y-114622190D02*
X180895714Y-114669809D01*
X180895714Y-114669809D02*
X180848095Y-114765047D01*
X180848095Y-114765047D02*
X180848095Y-115003142D01*
X180848095Y-115003142D02*
X180895714Y-115098380D01*
X180895714Y-115098380D02*
X180943333Y-115146000D01*
X180943333Y-115146000D02*
X181038571Y-115193619D01*
X181038571Y-115193619D02*
X181324285Y-115193619D01*
X181324285Y-115193619D02*
X181419523Y-115146000D01*
X181419523Y-115146000D02*
X181467142Y-115098380D01*
X179943333Y-114193619D02*
X180419523Y-114193619D01*
X180419523Y-114193619D02*
X180467142Y-114669809D01*
X180467142Y-114669809D02*
X180419523Y-114622190D01*
X180419523Y-114622190D02*
X180324285Y-114574571D01*
X180324285Y-114574571D02*
X180086190Y-114574571D01*
X180086190Y-114574571D02*
X179990952Y-114622190D01*
X179990952Y-114622190D02*
X179943333Y-114669809D01*
X179943333Y-114669809D02*
X179895714Y-114765047D01*
X179895714Y-114765047D02*
X179895714Y-115003142D01*
X179895714Y-115003142D02*
X179943333Y-115098380D01*
X179943333Y-115098380D02*
X179990952Y-115146000D01*
X179990952Y-115146000D02*
X180086190Y-115193619D01*
X180086190Y-115193619D02*
X180324285Y-115193619D01*
X180324285Y-115193619D02*
X180419523Y-115146000D01*
X180419523Y-115146000D02*
X180467142Y-115098380D01*
X180943333Y-111986952D02*
X180943333Y-112653619D01*
X181181428Y-111606000D02*
X181419523Y-112320285D01*
X181419523Y-112320285D02*
X180800476Y-112320285D01*
X179895714Y-112653619D02*
X180467142Y-112653619D01*
X180181428Y-112653619D02*
X180181428Y-111653619D01*
X180181428Y-111653619D02*
X180276666Y-111796476D01*
X180276666Y-111796476D02*
X180371904Y-111891714D01*
X180371904Y-111891714D02*
X180467142Y-111939333D01*
X178752857Y-111606000D02*
X179609999Y-112891714D01*
X178419523Y-112653619D02*
X178419523Y-111653619D01*
X178419523Y-112129809D02*
X177848095Y-112129809D01*
X177848095Y-112653619D02*
X177848095Y-111653619D01*
X177610000Y-112748857D02*
X176848095Y-112748857D01*
X176752856Y-111653619D02*
X176419523Y-112653619D01*
X176419523Y-112653619D02*
X176086190Y-111653619D01*
X163179142Y-121813619D02*
X162512476Y-121813619D01*
X162512476Y-121813619D02*
X162941047Y-122813619D01*
X161702952Y-121813619D02*
X161893428Y-121813619D01*
X161893428Y-121813619D02*
X161988666Y-121861238D01*
X161988666Y-121861238D02*
X162036285Y-121908857D01*
X162036285Y-121908857D02*
X162131523Y-122051714D01*
X162131523Y-122051714D02*
X162179142Y-122242190D01*
X162179142Y-122242190D02*
X162179142Y-122623142D01*
X162179142Y-122623142D02*
X162131523Y-122718380D01*
X162131523Y-122718380D02*
X162083904Y-122766000D01*
X162083904Y-122766000D02*
X161988666Y-122813619D01*
X161988666Y-122813619D02*
X161798190Y-122813619D01*
X161798190Y-122813619D02*
X161702952Y-122766000D01*
X161702952Y-122766000D02*
X161655333Y-122718380D01*
X161655333Y-122718380D02*
X161607714Y-122623142D01*
X161607714Y-122623142D02*
X161607714Y-122385047D01*
X161607714Y-122385047D02*
X161655333Y-122289809D01*
X161655333Y-122289809D02*
X161702952Y-122242190D01*
X161702952Y-122242190D02*
X161798190Y-122194571D01*
X161798190Y-122194571D02*
X161988666Y-122194571D01*
X161988666Y-122194571D02*
X162083904Y-122242190D01*
X162083904Y-122242190D02*
X162131523Y-122289809D01*
X162131523Y-122289809D02*
X162179142Y-122385047D01*
X163179142Y-124353619D02*
X162512476Y-124353619D01*
X162512476Y-124353619D02*
X162941047Y-125353619D01*
X162226761Y-124353619D02*
X161560095Y-124353619D01*
X161560095Y-124353619D02*
X161988666Y-125353619D01*
X181467142Y-139720619D02*
X180848095Y-139720619D01*
X180848095Y-139720619D02*
X181181428Y-140101571D01*
X181181428Y-140101571D02*
X181038571Y-140101571D01*
X181038571Y-140101571D02*
X180943333Y-140149190D01*
X180943333Y-140149190D02*
X180895714Y-140196809D01*
X180895714Y-140196809D02*
X180848095Y-140292047D01*
X180848095Y-140292047D02*
X180848095Y-140530142D01*
X180848095Y-140530142D02*
X180895714Y-140625380D01*
X180895714Y-140625380D02*
X180943333Y-140673000D01*
X180943333Y-140673000D02*
X181038571Y-140720619D01*
X181038571Y-140720619D02*
X181324285Y-140720619D01*
X181324285Y-140720619D02*
X181419523Y-140673000D01*
X181419523Y-140673000D02*
X181467142Y-140625380D01*
X180371904Y-140720619D02*
X180181428Y-140720619D01*
X180181428Y-140720619D02*
X180086190Y-140673000D01*
X180086190Y-140673000D02*
X180038571Y-140625380D01*
X180038571Y-140625380D02*
X179943333Y-140482523D01*
X179943333Y-140482523D02*
X179895714Y-140292047D01*
X179895714Y-140292047D02*
X179895714Y-139911095D01*
X179895714Y-139911095D02*
X179943333Y-139815857D01*
X179943333Y-139815857D02*
X179990952Y-139768238D01*
X179990952Y-139768238D02*
X180086190Y-139720619D01*
X180086190Y-139720619D02*
X180276666Y-139720619D01*
X180276666Y-139720619D02*
X180371904Y-139768238D01*
X180371904Y-139768238D02*
X180419523Y-139815857D01*
X180419523Y-139815857D02*
X180467142Y-139911095D01*
X180467142Y-139911095D02*
X180467142Y-140149190D01*
X180467142Y-140149190D02*
X180419523Y-140244428D01*
X180419523Y-140244428D02*
X180371904Y-140292047D01*
X180371904Y-140292047D02*
X180276666Y-140339666D01*
X180276666Y-140339666D02*
X180086190Y-140339666D01*
X180086190Y-140339666D02*
X179990952Y-140292047D01*
X179990952Y-140292047D02*
X179943333Y-140244428D01*
X179943333Y-140244428D02*
X179895714Y-140149190D01*
X163179142Y-106573619D02*
X162512476Y-106573619D01*
X162512476Y-106573619D02*
X162941047Y-107573619D01*
X161941047Y-106573619D02*
X161845809Y-106573619D01*
X161845809Y-106573619D02*
X161750571Y-106621238D01*
X161750571Y-106621238D02*
X161702952Y-106668857D01*
X161702952Y-106668857D02*
X161655333Y-106764095D01*
X161655333Y-106764095D02*
X161607714Y-106954571D01*
X161607714Y-106954571D02*
X161607714Y-107192666D01*
X161607714Y-107192666D02*
X161655333Y-107383142D01*
X161655333Y-107383142D02*
X161702952Y-107478380D01*
X161702952Y-107478380D02*
X161750571Y-107526000D01*
X161750571Y-107526000D02*
X161845809Y-107573619D01*
X161845809Y-107573619D02*
X161941047Y-107573619D01*
X161941047Y-107573619D02*
X162036285Y-107526000D01*
X162036285Y-107526000D02*
X162083904Y-107478380D01*
X162083904Y-107478380D02*
X162131523Y-107383142D01*
X162131523Y-107383142D02*
X162179142Y-107192666D01*
X162179142Y-107192666D02*
X162179142Y-106954571D01*
X162179142Y-106954571D02*
X162131523Y-106764095D01*
X162131523Y-106764095D02*
X162083904Y-106668857D01*
X162083904Y-106668857D02*
X162036285Y-106621238D01*
X162036285Y-106621238D02*
X161941047Y-106573619D01*
X180895714Y-96413619D02*
X181371904Y-96413619D01*
X181371904Y-96413619D02*
X181419523Y-96889809D01*
X181419523Y-96889809D02*
X181371904Y-96842190D01*
X181371904Y-96842190D02*
X181276666Y-96794571D01*
X181276666Y-96794571D02*
X181038571Y-96794571D01*
X181038571Y-96794571D02*
X180943333Y-96842190D01*
X180943333Y-96842190D02*
X180895714Y-96889809D01*
X180895714Y-96889809D02*
X180848095Y-96985047D01*
X180848095Y-96985047D02*
X180848095Y-97223142D01*
X180848095Y-97223142D02*
X180895714Y-97318380D01*
X180895714Y-97318380D02*
X180943333Y-97366000D01*
X180943333Y-97366000D02*
X181038571Y-97413619D01*
X181038571Y-97413619D02*
X181276666Y-97413619D01*
X181276666Y-97413619D02*
X181371904Y-97366000D01*
X181371904Y-97366000D02*
X181419523Y-97318380D01*
X179990952Y-96413619D02*
X180181428Y-96413619D01*
X180181428Y-96413619D02*
X180276666Y-96461238D01*
X180276666Y-96461238D02*
X180324285Y-96508857D01*
X180324285Y-96508857D02*
X180419523Y-96651714D01*
X180419523Y-96651714D02*
X180467142Y-96842190D01*
X180467142Y-96842190D02*
X180467142Y-97223142D01*
X180467142Y-97223142D02*
X180419523Y-97318380D01*
X180419523Y-97318380D02*
X180371904Y-97366000D01*
X180371904Y-97366000D02*
X180276666Y-97413619D01*
X180276666Y-97413619D02*
X180086190Y-97413619D01*
X180086190Y-97413619D02*
X179990952Y-97366000D01*
X179990952Y-97366000D02*
X179943333Y-97318380D01*
X179943333Y-97318380D02*
X179895714Y-97223142D01*
X179895714Y-97223142D02*
X179895714Y-96985047D01*
X179895714Y-96985047D02*
X179943333Y-96889809D01*
X179943333Y-96889809D02*
X179990952Y-96842190D01*
X179990952Y-96842190D02*
X180086190Y-96794571D01*
X180086190Y-96794571D02*
X180276666Y-96794571D01*
X180276666Y-96794571D02*
X180371904Y-96842190D01*
X180371904Y-96842190D02*
X180419523Y-96889809D01*
X180419523Y-96889809D02*
X180467142Y-96985047D01*
X147780476Y-82935619D02*
X148113809Y-82459428D01*
X148351904Y-82935619D02*
X148351904Y-81935619D01*
X148351904Y-81935619D02*
X147970952Y-81935619D01*
X147970952Y-81935619D02*
X147875714Y-81983238D01*
X147875714Y-81983238D02*
X147828095Y-82030857D01*
X147828095Y-82030857D02*
X147780476Y-82126095D01*
X147780476Y-82126095D02*
X147780476Y-82268952D01*
X147780476Y-82268952D02*
X147828095Y-82364190D01*
X147828095Y-82364190D02*
X147875714Y-82411809D01*
X147875714Y-82411809D02*
X147970952Y-82459428D01*
X147970952Y-82459428D02*
X148351904Y-82459428D01*
X146970952Y-82888000D02*
X147066190Y-82935619D01*
X147066190Y-82935619D02*
X147256666Y-82935619D01*
X147256666Y-82935619D02*
X147351904Y-82888000D01*
X147351904Y-82888000D02*
X147399523Y-82792761D01*
X147399523Y-82792761D02*
X147399523Y-82411809D01*
X147399523Y-82411809D02*
X147351904Y-82316571D01*
X147351904Y-82316571D02*
X147256666Y-82268952D01*
X147256666Y-82268952D02*
X147066190Y-82268952D01*
X147066190Y-82268952D02*
X146970952Y-82316571D01*
X146970952Y-82316571D02*
X146923333Y-82411809D01*
X146923333Y-82411809D02*
X146923333Y-82507047D01*
X146923333Y-82507047D02*
X147399523Y-82602285D01*
X146637618Y-82268952D02*
X146256666Y-82268952D01*
X146494761Y-82935619D02*
X146494761Y-82078476D01*
X146494761Y-82078476D02*
X146447142Y-81983238D01*
X146447142Y-81983238D02*
X146351904Y-81935619D01*
X146351904Y-81935619D02*
X146256666Y-81935619D01*
X163179142Y-119400619D02*
X162512476Y-119400619D01*
X162512476Y-119400619D02*
X162941047Y-120400619D01*
X161655333Y-119400619D02*
X162131523Y-119400619D01*
X162131523Y-119400619D02*
X162179142Y-119876809D01*
X162179142Y-119876809D02*
X162131523Y-119829190D01*
X162131523Y-119829190D02*
X162036285Y-119781571D01*
X162036285Y-119781571D02*
X161798190Y-119781571D01*
X161798190Y-119781571D02*
X161702952Y-119829190D01*
X161702952Y-119829190D02*
X161655333Y-119876809D01*
X161655333Y-119876809D02*
X161607714Y-119972047D01*
X161607714Y-119972047D02*
X161607714Y-120210142D01*
X161607714Y-120210142D02*
X161655333Y-120305380D01*
X161655333Y-120305380D02*
X161702952Y-120353000D01*
X161702952Y-120353000D02*
X161798190Y-120400619D01*
X161798190Y-120400619D02*
X162036285Y-120400619D01*
X162036285Y-120400619D02*
X162131523Y-120353000D01*
X162131523Y-120353000D02*
X162179142Y-120305380D01*
X170656333Y-101826952D02*
X170656333Y-102493619D01*
X170894428Y-101446000D02*
X171132523Y-102160285D01*
X171132523Y-102160285D02*
X170513476Y-102160285D01*
X169989666Y-101922190D02*
X170084904Y-101874571D01*
X170084904Y-101874571D02*
X170132523Y-101826952D01*
X170132523Y-101826952D02*
X170180142Y-101731714D01*
X170180142Y-101731714D02*
X170180142Y-101684095D01*
X170180142Y-101684095D02*
X170132523Y-101588857D01*
X170132523Y-101588857D02*
X170084904Y-101541238D01*
X170084904Y-101541238D02*
X169989666Y-101493619D01*
X169989666Y-101493619D02*
X169799190Y-101493619D01*
X169799190Y-101493619D02*
X169703952Y-101541238D01*
X169703952Y-101541238D02*
X169656333Y-101588857D01*
X169656333Y-101588857D02*
X169608714Y-101684095D01*
X169608714Y-101684095D02*
X169608714Y-101731714D01*
X169608714Y-101731714D02*
X169656333Y-101826952D01*
X169656333Y-101826952D02*
X169703952Y-101874571D01*
X169703952Y-101874571D02*
X169799190Y-101922190D01*
X169799190Y-101922190D02*
X169989666Y-101922190D01*
X169989666Y-101922190D02*
X170084904Y-101969809D01*
X170084904Y-101969809D02*
X170132523Y-102017428D01*
X170132523Y-102017428D02*
X170180142Y-102112666D01*
X170180142Y-102112666D02*
X170180142Y-102303142D01*
X170180142Y-102303142D02*
X170132523Y-102398380D01*
X170132523Y-102398380D02*
X170084904Y-102446000D01*
X170084904Y-102446000D02*
X169989666Y-102493619D01*
X169989666Y-102493619D02*
X169799190Y-102493619D01*
X169799190Y-102493619D02*
X169703952Y-102446000D01*
X169703952Y-102446000D02*
X169656333Y-102398380D01*
X169656333Y-102398380D02*
X169608714Y-102303142D01*
X169608714Y-102303142D02*
X169608714Y-102112666D01*
X169608714Y-102112666D02*
X169656333Y-102017428D01*
X169656333Y-102017428D02*
X169703952Y-101969809D01*
X169703952Y-101969809D02*
X169799190Y-101922190D01*
X168465857Y-101446000D02*
X169322999Y-102731714D01*
X167561095Y-102398380D02*
X167608714Y-102446000D01*
X167608714Y-102446000D02*
X167751571Y-102493619D01*
X167751571Y-102493619D02*
X167846809Y-102493619D01*
X167846809Y-102493619D02*
X167989666Y-102446000D01*
X167989666Y-102446000D02*
X168084904Y-102350761D01*
X168084904Y-102350761D02*
X168132523Y-102255523D01*
X168132523Y-102255523D02*
X168180142Y-102065047D01*
X168180142Y-102065047D02*
X168180142Y-101922190D01*
X168180142Y-101922190D02*
X168132523Y-101731714D01*
X168132523Y-101731714D02*
X168084904Y-101636476D01*
X168084904Y-101636476D02*
X167989666Y-101541238D01*
X167989666Y-101541238D02*
X167846809Y-101493619D01*
X167846809Y-101493619D02*
X167751571Y-101493619D01*
X167751571Y-101493619D02*
X167608714Y-101541238D01*
X167608714Y-101541238D02*
X167561095Y-101588857D01*
X167180142Y-102446000D02*
X167037285Y-102493619D01*
X167037285Y-102493619D02*
X166799190Y-102493619D01*
X166799190Y-102493619D02*
X166703952Y-102446000D01*
X166703952Y-102446000D02*
X166656333Y-102398380D01*
X166656333Y-102398380D02*
X166608714Y-102303142D01*
X166608714Y-102303142D02*
X166608714Y-102207904D01*
X166608714Y-102207904D02*
X166656333Y-102112666D01*
X166656333Y-102112666D02*
X166703952Y-102065047D01*
X166703952Y-102065047D02*
X166799190Y-102017428D01*
X166799190Y-102017428D02*
X166989666Y-101969809D01*
X166989666Y-101969809D02*
X167084904Y-101922190D01*
X167084904Y-101922190D02*
X167132523Y-101874571D01*
X167132523Y-101874571D02*
X167180142Y-101779333D01*
X167180142Y-101779333D02*
X167180142Y-101684095D01*
X167180142Y-101684095D02*
X167132523Y-101588857D01*
X167132523Y-101588857D02*
X167084904Y-101541238D01*
X167084904Y-101541238D02*
X166989666Y-101493619D01*
X166989666Y-101493619D02*
X166751571Y-101493619D01*
X166751571Y-101493619D02*
X166608714Y-101541238D01*
X165465856Y-102446000D02*
X165322999Y-102493619D01*
X165322999Y-102493619D02*
X165084904Y-102493619D01*
X165084904Y-102493619D02*
X164989666Y-102446000D01*
X164989666Y-102446000D02*
X164942047Y-102398380D01*
X164942047Y-102398380D02*
X164894428Y-102303142D01*
X164894428Y-102303142D02*
X164894428Y-102207904D01*
X164894428Y-102207904D02*
X164942047Y-102112666D01*
X164942047Y-102112666D02*
X164989666Y-102065047D01*
X164989666Y-102065047D02*
X165084904Y-102017428D01*
X165084904Y-102017428D02*
X165275380Y-101969809D01*
X165275380Y-101969809D02*
X165370618Y-101922190D01*
X165370618Y-101922190D02*
X165418237Y-101874571D01*
X165418237Y-101874571D02*
X165465856Y-101779333D01*
X165465856Y-101779333D02*
X165465856Y-101684095D01*
X165465856Y-101684095D02*
X165418237Y-101588857D01*
X165418237Y-101588857D02*
X165370618Y-101541238D01*
X165370618Y-101541238D02*
X165275380Y-101493619D01*
X165275380Y-101493619D02*
X165037285Y-101493619D01*
X165037285Y-101493619D02*
X164894428Y-101541238D01*
X164465856Y-102493619D02*
X164465856Y-101493619D01*
X164465856Y-101969809D02*
X163894428Y-101969809D01*
X163894428Y-102493619D02*
X163894428Y-101493619D01*
X163418237Y-102493619D02*
X163418237Y-101493619D01*
X163418237Y-101493619D02*
X163180142Y-101493619D01*
X163180142Y-101493619D02*
X163037285Y-101541238D01*
X163037285Y-101541238D02*
X162942047Y-101636476D01*
X162942047Y-101636476D02*
X162894428Y-101731714D01*
X162894428Y-101731714D02*
X162846809Y-101922190D01*
X162846809Y-101922190D02*
X162846809Y-102065047D01*
X162846809Y-102065047D02*
X162894428Y-102255523D01*
X162894428Y-102255523D02*
X162942047Y-102350761D01*
X162942047Y-102350761D02*
X163037285Y-102446000D01*
X163037285Y-102446000D02*
X163180142Y-102493619D01*
X163180142Y-102493619D02*
X163418237Y-102493619D01*
X162418237Y-102493619D02*
X162418237Y-101493619D01*
X162418237Y-101493619D02*
X161846809Y-102493619D01*
X161846809Y-102493619D02*
X161846809Y-101493619D01*
X181467142Y-121813619D02*
X180848095Y-121813619D01*
X180848095Y-121813619D02*
X181181428Y-122194571D01*
X181181428Y-122194571D02*
X181038571Y-122194571D01*
X181038571Y-122194571D02*
X180943333Y-122242190D01*
X180943333Y-122242190D02*
X180895714Y-122289809D01*
X180895714Y-122289809D02*
X180848095Y-122385047D01*
X180848095Y-122385047D02*
X180848095Y-122623142D01*
X180848095Y-122623142D02*
X180895714Y-122718380D01*
X180895714Y-122718380D02*
X180943333Y-122766000D01*
X180943333Y-122766000D02*
X181038571Y-122813619D01*
X181038571Y-122813619D02*
X181324285Y-122813619D01*
X181324285Y-122813619D02*
X181419523Y-122766000D01*
X181419523Y-122766000D02*
X181467142Y-122718380D01*
X180514761Y-121813619D02*
X179895714Y-121813619D01*
X179895714Y-121813619D02*
X180229047Y-122194571D01*
X180229047Y-122194571D02*
X180086190Y-122194571D01*
X180086190Y-122194571D02*
X179990952Y-122242190D01*
X179990952Y-122242190D02*
X179943333Y-122289809D01*
X179943333Y-122289809D02*
X179895714Y-122385047D01*
X179895714Y-122385047D02*
X179895714Y-122623142D01*
X179895714Y-122623142D02*
X179943333Y-122718380D01*
X179943333Y-122718380D02*
X179990952Y-122766000D01*
X179990952Y-122766000D02*
X180086190Y-122813619D01*
X180086190Y-122813619D02*
X180371904Y-122813619D01*
X180371904Y-122813619D02*
X180467142Y-122766000D01*
X180467142Y-122766000D02*
X180514761Y-122718380D01*
%TO.C,R9*%
X189786619Y-66381333D02*
X189310428Y-66048000D01*
X189786619Y-65809905D02*
X188786619Y-65809905D01*
X188786619Y-65809905D02*
X188786619Y-66190857D01*
X188786619Y-66190857D02*
X188834238Y-66286095D01*
X188834238Y-66286095D02*
X188881857Y-66333714D01*
X188881857Y-66333714D02*
X188977095Y-66381333D01*
X188977095Y-66381333D02*
X189119952Y-66381333D01*
X189119952Y-66381333D02*
X189215190Y-66333714D01*
X189215190Y-66333714D02*
X189262809Y-66286095D01*
X189262809Y-66286095D02*
X189310428Y-66190857D01*
X189310428Y-66190857D02*
X189310428Y-65809905D01*
X189786619Y-66857524D02*
X189786619Y-67048000D01*
X189786619Y-67048000D02*
X189739000Y-67143238D01*
X189739000Y-67143238D02*
X189691380Y-67190857D01*
X189691380Y-67190857D02*
X189548523Y-67286095D01*
X189548523Y-67286095D02*
X189358047Y-67333714D01*
X189358047Y-67333714D02*
X188977095Y-67333714D01*
X188977095Y-67333714D02*
X188881857Y-67286095D01*
X188881857Y-67286095D02*
X188834238Y-67238476D01*
X188834238Y-67238476D02*
X188786619Y-67143238D01*
X188786619Y-67143238D02*
X188786619Y-66952762D01*
X188786619Y-66952762D02*
X188834238Y-66857524D01*
X188834238Y-66857524D02*
X188881857Y-66809905D01*
X188881857Y-66809905D02*
X188977095Y-66762286D01*
X188977095Y-66762286D02*
X189215190Y-66762286D01*
X189215190Y-66762286D02*
X189310428Y-66809905D01*
X189310428Y-66809905D02*
X189358047Y-66857524D01*
X189358047Y-66857524D02*
X189405666Y-66952762D01*
X189405666Y-66952762D02*
X189405666Y-67143238D01*
X189405666Y-67143238D02*
X189358047Y-67238476D01*
X189358047Y-67238476D02*
X189310428Y-67286095D01*
X189310428Y-67286095D02*
X189215190Y-67333714D01*
%TO.C,R10*%
X186357619Y-65881642D02*
X185881428Y-65548309D01*
X186357619Y-65310214D02*
X185357619Y-65310214D01*
X185357619Y-65310214D02*
X185357619Y-65691166D01*
X185357619Y-65691166D02*
X185405238Y-65786404D01*
X185405238Y-65786404D02*
X185452857Y-65834023D01*
X185452857Y-65834023D02*
X185548095Y-65881642D01*
X185548095Y-65881642D02*
X185690952Y-65881642D01*
X185690952Y-65881642D02*
X185786190Y-65834023D01*
X185786190Y-65834023D02*
X185833809Y-65786404D01*
X185833809Y-65786404D02*
X185881428Y-65691166D01*
X185881428Y-65691166D02*
X185881428Y-65310214D01*
X186357619Y-66834023D02*
X186357619Y-66262595D01*
X186357619Y-66548309D02*
X185357619Y-66548309D01*
X185357619Y-66548309D02*
X185500476Y-66453071D01*
X185500476Y-66453071D02*
X185595714Y-66357833D01*
X185595714Y-66357833D02*
X185643333Y-66262595D01*
X185357619Y-67453071D02*
X185357619Y-67548309D01*
X185357619Y-67548309D02*
X185405238Y-67643547D01*
X185405238Y-67643547D02*
X185452857Y-67691166D01*
X185452857Y-67691166D02*
X185548095Y-67738785D01*
X185548095Y-67738785D02*
X185738571Y-67786404D01*
X185738571Y-67786404D02*
X185976666Y-67786404D01*
X185976666Y-67786404D02*
X186167142Y-67738785D01*
X186167142Y-67738785D02*
X186262380Y-67691166D01*
X186262380Y-67691166D02*
X186310000Y-67643547D01*
X186310000Y-67643547D02*
X186357619Y-67548309D01*
X186357619Y-67548309D02*
X186357619Y-67453071D01*
X186357619Y-67453071D02*
X186310000Y-67357833D01*
X186310000Y-67357833D02*
X186262380Y-67310214D01*
X186262380Y-67310214D02*
X186167142Y-67262595D01*
X186167142Y-67262595D02*
X185976666Y-67214976D01*
X185976666Y-67214976D02*
X185738571Y-67214976D01*
X185738571Y-67214976D02*
X185548095Y-67262595D01*
X185548095Y-67262595D02*
X185452857Y-67310214D01*
X185452857Y-67310214D02*
X185405238Y-67357833D01*
X185405238Y-67357833D02*
X185357619Y-67453071D01*
%TO.C,R5*%
X161846619Y-66381333D02*
X161370428Y-66048000D01*
X161846619Y-65809905D02*
X160846619Y-65809905D01*
X160846619Y-65809905D02*
X160846619Y-66190857D01*
X160846619Y-66190857D02*
X160894238Y-66286095D01*
X160894238Y-66286095D02*
X160941857Y-66333714D01*
X160941857Y-66333714D02*
X161037095Y-66381333D01*
X161037095Y-66381333D02*
X161179952Y-66381333D01*
X161179952Y-66381333D02*
X161275190Y-66333714D01*
X161275190Y-66333714D02*
X161322809Y-66286095D01*
X161322809Y-66286095D02*
X161370428Y-66190857D01*
X161370428Y-66190857D02*
X161370428Y-65809905D01*
X160846619Y-67286095D02*
X160846619Y-66809905D01*
X160846619Y-66809905D02*
X161322809Y-66762286D01*
X161322809Y-66762286D02*
X161275190Y-66809905D01*
X161275190Y-66809905D02*
X161227571Y-66905143D01*
X161227571Y-66905143D02*
X161227571Y-67143238D01*
X161227571Y-67143238D02*
X161275190Y-67238476D01*
X161275190Y-67238476D02*
X161322809Y-67286095D01*
X161322809Y-67286095D02*
X161418047Y-67333714D01*
X161418047Y-67333714D02*
X161656142Y-67333714D01*
X161656142Y-67333714D02*
X161751380Y-67286095D01*
X161751380Y-67286095D02*
X161799000Y-67238476D01*
X161799000Y-67238476D02*
X161846619Y-67143238D01*
X161846619Y-67143238D02*
X161846619Y-66905143D01*
X161846619Y-66905143D02*
X161799000Y-66809905D01*
X161799000Y-66809905D02*
X161751380Y-66762286D01*
%TO.C,R4*%
X158290619Y-66381333D02*
X157814428Y-66048000D01*
X158290619Y-65809905D02*
X157290619Y-65809905D01*
X157290619Y-65809905D02*
X157290619Y-66190857D01*
X157290619Y-66190857D02*
X157338238Y-66286095D01*
X157338238Y-66286095D02*
X157385857Y-66333714D01*
X157385857Y-66333714D02*
X157481095Y-66381333D01*
X157481095Y-66381333D02*
X157623952Y-66381333D01*
X157623952Y-66381333D02*
X157719190Y-66333714D01*
X157719190Y-66333714D02*
X157766809Y-66286095D01*
X157766809Y-66286095D02*
X157814428Y-66190857D01*
X157814428Y-66190857D02*
X157814428Y-65809905D01*
X157623952Y-67238476D02*
X158290619Y-67238476D01*
X157243000Y-67000381D02*
X157957285Y-66762286D01*
X157957285Y-66762286D02*
X157957285Y-67381333D01*
%TO.C,R7*%
X168831619Y-66381333D02*
X168355428Y-66048000D01*
X168831619Y-65809905D02*
X167831619Y-65809905D01*
X167831619Y-65809905D02*
X167831619Y-66190857D01*
X167831619Y-66190857D02*
X167879238Y-66286095D01*
X167879238Y-66286095D02*
X167926857Y-66333714D01*
X167926857Y-66333714D02*
X168022095Y-66381333D01*
X168022095Y-66381333D02*
X168164952Y-66381333D01*
X168164952Y-66381333D02*
X168260190Y-66333714D01*
X168260190Y-66333714D02*
X168307809Y-66286095D01*
X168307809Y-66286095D02*
X168355428Y-66190857D01*
X168355428Y-66190857D02*
X168355428Y-65809905D01*
X167831619Y-66714667D02*
X167831619Y-67381333D01*
X167831619Y-67381333D02*
X168831619Y-66952762D01*
%TO.C,R3*%
X154861619Y-66381333D02*
X154385428Y-66048000D01*
X154861619Y-65809905D02*
X153861619Y-65809905D01*
X153861619Y-65809905D02*
X153861619Y-66190857D01*
X153861619Y-66190857D02*
X153909238Y-66286095D01*
X153909238Y-66286095D02*
X153956857Y-66333714D01*
X153956857Y-66333714D02*
X154052095Y-66381333D01*
X154052095Y-66381333D02*
X154194952Y-66381333D01*
X154194952Y-66381333D02*
X154290190Y-66333714D01*
X154290190Y-66333714D02*
X154337809Y-66286095D01*
X154337809Y-66286095D02*
X154385428Y-66190857D01*
X154385428Y-66190857D02*
X154385428Y-65809905D01*
X153861619Y-66714667D02*
X153861619Y-67333714D01*
X153861619Y-67333714D02*
X154242571Y-67000381D01*
X154242571Y-67000381D02*
X154242571Y-67143238D01*
X154242571Y-67143238D02*
X154290190Y-67238476D01*
X154290190Y-67238476D02*
X154337809Y-67286095D01*
X154337809Y-67286095D02*
X154433047Y-67333714D01*
X154433047Y-67333714D02*
X154671142Y-67333714D01*
X154671142Y-67333714D02*
X154766380Y-67286095D01*
X154766380Y-67286095D02*
X154814000Y-67238476D01*
X154814000Y-67238476D02*
X154861619Y-67143238D01*
X154861619Y-67143238D02*
X154861619Y-66857524D01*
X154861619Y-66857524D02*
X154814000Y-66762286D01*
X154814000Y-66762286D02*
X154766380Y-66714667D01*
%TO.C,R8*%
X175816619Y-66381333D02*
X175340428Y-66048000D01*
X175816619Y-65809905D02*
X174816619Y-65809905D01*
X174816619Y-65809905D02*
X174816619Y-66190857D01*
X174816619Y-66190857D02*
X174864238Y-66286095D01*
X174864238Y-66286095D02*
X174911857Y-66333714D01*
X174911857Y-66333714D02*
X175007095Y-66381333D01*
X175007095Y-66381333D02*
X175149952Y-66381333D01*
X175149952Y-66381333D02*
X175245190Y-66333714D01*
X175245190Y-66333714D02*
X175292809Y-66286095D01*
X175292809Y-66286095D02*
X175340428Y-66190857D01*
X175340428Y-66190857D02*
X175340428Y-65809905D01*
X175245190Y-66952762D02*
X175197571Y-66857524D01*
X175197571Y-66857524D02*
X175149952Y-66809905D01*
X175149952Y-66809905D02*
X175054714Y-66762286D01*
X175054714Y-66762286D02*
X175007095Y-66762286D01*
X175007095Y-66762286D02*
X174911857Y-66809905D01*
X174911857Y-66809905D02*
X174864238Y-66857524D01*
X174864238Y-66857524D02*
X174816619Y-66952762D01*
X174816619Y-66952762D02*
X174816619Y-67143238D01*
X174816619Y-67143238D02*
X174864238Y-67238476D01*
X174864238Y-67238476D02*
X174911857Y-67286095D01*
X174911857Y-67286095D02*
X175007095Y-67333714D01*
X175007095Y-67333714D02*
X175054714Y-67333714D01*
X175054714Y-67333714D02*
X175149952Y-67286095D01*
X175149952Y-67286095D02*
X175197571Y-67238476D01*
X175197571Y-67238476D02*
X175245190Y-67143238D01*
X175245190Y-67143238D02*
X175245190Y-66952762D01*
X175245190Y-66952762D02*
X175292809Y-66857524D01*
X175292809Y-66857524D02*
X175340428Y-66809905D01*
X175340428Y-66809905D02*
X175435666Y-66762286D01*
X175435666Y-66762286D02*
X175626142Y-66762286D01*
X175626142Y-66762286D02*
X175721380Y-66809905D01*
X175721380Y-66809905D02*
X175769000Y-66857524D01*
X175769000Y-66857524D02*
X175816619Y-66952762D01*
X175816619Y-66952762D02*
X175816619Y-67143238D01*
X175816619Y-67143238D02*
X175769000Y-67238476D01*
X175769000Y-67238476D02*
X175721380Y-67286095D01*
X175721380Y-67286095D02*
X175626142Y-67333714D01*
X175626142Y-67333714D02*
X175435666Y-67333714D01*
X175435666Y-67333714D02*
X175340428Y-67286095D01*
X175340428Y-67286095D02*
X175292809Y-67238476D01*
X175292809Y-67238476D02*
X175245190Y-67143238D01*
%TO.C,R6*%
X165275619Y-66381333D02*
X164799428Y-66048000D01*
X165275619Y-65809905D02*
X164275619Y-65809905D01*
X164275619Y-65809905D02*
X164275619Y-66190857D01*
X164275619Y-66190857D02*
X164323238Y-66286095D01*
X164323238Y-66286095D02*
X164370857Y-66333714D01*
X164370857Y-66333714D02*
X164466095Y-66381333D01*
X164466095Y-66381333D02*
X164608952Y-66381333D01*
X164608952Y-66381333D02*
X164704190Y-66333714D01*
X164704190Y-66333714D02*
X164751809Y-66286095D01*
X164751809Y-66286095D02*
X164799428Y-66190857D01*
X164799428Y-66190857D02*
X164799428Y-65809905D01*
X164275619Y-67238476D02*
X164275619Y-67048000D01*
X164275619Y-67048000D02*
X164323238Y-66952762D01*
X164323238Y-66952762D02*
X164370857Y-66905143D01*
X164370857Y-66905143D02*
X164513714Y-66809905D01*
X164513714Y-66809905D02*
X164704190Y-66762286D01*
X164704190Y-66762286D02*
X165085142Y-66762286D01*
X165085142Y-66762286D02*
X165180380Y-66809905D01*
X165180380Y-66809905D02*
X165228000Y-66857524D01*
X165228000Y-66857524D02*
X165275619Y-66952762D01*
X165275619Y-66952762D02*
X165275619Y-67143238D01*
X165275619Y-67143238D02*
X165228000Y-67238476D01*
X165228000Y-67238476D02*
X165180380Y-67286095D01*
X165180380Y-67286095D02*
X165085142Y-67333714D01*
X165085142Y-67333714D02*
X164847047Y-67333714D01*
X164847047Y-67333714D02*
X164751809Y-67286095D01*
X164751809Y-67286095D02*
X164704190Y-67238476D01*
X164704190Y-67238476D02*
X164656571Y-67143238D01*
X164656571Y-67143238D02*
X164656571Y-66952762D01*
X164656571Y-66952762D02*
X164704190Y-66857524D01*
X164704190Y-66857524D02*
X164751809Y-66809905D01*
X164751809Y-66809905D02*
X164847047Y-66762286D01*
D11*
%TO.C,R9*%
X191276500Y-66293276D02*
X191276500Y-66802724D01*
X190231500Y-66293276D02*
X190231500Y-66802724D01*
%TO.C,R10*%
X187847500Y-66269776D02*
X187847500Y-66779224D01*
X186802500Y-66269776D02*
X186802500Y-66779224D01*
%TO.C,R5*%
X163336500Y-66293276D02*
X163336500Y-66802724D01*
X162291500Y-66293276D02*
X162291500Y-66802724D01*
%TO.C,R4*%
X159780500Y-66293276D02*
X159780500Y-66802724D01*
X158735500Y-66293276D02*
X158735500Y-66802724D01*
%TO.C,R7*%
X170321500Y-66293276D02*
X170321500Y-66802724D01*
X169276500Y-66293276D02*
X169276500Y-66802724D01*
%TO.C,R3*%
X156351500Y-66293276D02*
X156351500Y-66802724D01*
X155306500Y-66293276D02*
X155306500Y-66802724D01*
%TO.C,R8*%
X177306500Y-66293276D02*
X177306500Y-66802724D01*
X176261500Y-66293276D02*
X176261500Y-66802724D01*
%TO.C,R6*%
X166765500Y-66293276D02*
X166765500Y-66802724D01*
X165720500Y-66293276D02*
X165720500Y-66802724D01*
%TD*%
M02*
